<?xml version="1.0" encoding="utf-8"?>
<!-- Generator: Adobe Illustrator 21.1.0, SVG Export Plug-In . SVG Version: 6.00 Build 0)  -->
<svg version="1.1" id="Layer_1" xmlns="http://www.w3.org/2000/svg" xmlns:xlink="http://www.w3.org/1999/xlink" x="0px" y="0px"
	 viewBox="0 0 512 512" style="enable-background:new 0 0 512 512;" xml:space="preserve">
<style type="text/css">
	.st0{fill:#F97A48;stroke:#000000;stroke-width:11;stroke-miterlimit:10;}
	.st1{fill:#F97A48;stroke:#000000;stroke-width:11;stroke-linecap:round;stroke-linejoin:round;stroke-miterlimit:10;}
	.st2{fill:#FFDA00;}
	.st3{fill:#EFC700;}
	.st4{fill:none;stroke:#000000;stroke-width:11;stroke-miterlimit:10;}
	.st5{fill:#FF6C9D;}
	.st6{fill:#FF6C9D;stroke:#1D1D1B;stroke-width:11;stroke-linecap:round;stroke-linejoin:round;stroke-miterlimit:10;}
	.st7{fill:#48D5BF;}
	.st8{fill:#48D5BF;stroke:#000000;stroke-width:11;stroke-miterlimit:10;}
	.st9{fill:#FFDA00;stroke:#000000;stroke-width:11;stroke-miterlimit:10;}
	.st10{fill:#C6EBF4;stroke:#000000;stroke-width:11;stroke-miterlimit:10;}
	.st11{fill:none;stroke:#000000;stroke-width:11;stroke-linecap:round;stroke-linejoin:round;stroke-miterlimit:10;}
	.st12{fill:#F97A48;}
	.st13{fill:#C6EBF4;}
	.st14{fill:#EF5F37;}
	.st15{fill:none;stroke:#000000;stroke-width:10.6363;stroke-miterlimit:10;}
	.st16{fill:#26C6A7;}
	.st17{fill:none;stroke:#000000;stroke-width:11;stroke-linecap:round;stroke-miterlimit:10;}
	.st18{fill:#FD4347;}
	.st19{fill:#EF3043;}
	.st20{fill:#4BBC32;}
	.st21{fill:#31AA0F;}
	.st22{fill:#AEE4ED;}
	.st23{fill:#FCD259;}
	.st24{fill:#53ADFC;stroke:#000000;stroke-width:11;stroke-miterlimit:10;}
	.st25{fill:#FFBCA4;stroke:#000000;stroke-width:11;stroke-miterlimit:10;}
	.st26{fill:#53ADFC;}
	.st27{fill:#B9D6ED;stroke:#000000;stroke-width:11;stroke-miterlimit:10;}
	.st28{fill:#24A1ED;}
	.st29{fill:#F4C245;}
	.st30{fill:none;stroke:#000000;stroke-miterlimit:10;}
	.st31{fill:#F95594;stroke:#000000;stroke-width:11;stroke-miterlimit:10;}
	.st32{fill:#24A1ED;stroke:#000000;stroke-width:11;stroke-miterlimit:10;}
	.st33{fill:#F95594;}
	.st34{fill:#4B5B6D;}
	.st35{fill:#3E5366;}
	.st36{fill:#FFDA00;stroke:#000000;stroke-width:5;stroke-miterlimit:10;}
	.st37{fill:#85AFDD;stroke:#000000;stroke-width:11;stroke-miterlimit:10;}
	.st38{fill:#FFA071;stroke:#1D1D1B;stroke-width:11;stroke-miterlimit:10;}
	.st39{fill:#FFFFFF;stroke:#1D1D1B;stroke-width:11;stroke-miterlimit:10;}
	.st40{fill:#FFDC64;}
	.st41{fill:#1D1D1B;}
	.st42{fill:#FF6C9D;stroke:#1D1D1B;stroke-width:11;stroke-miterlimit:10;}
	.st43{fill:#6FCEA6;}
	.st44{fill:#C6EBF4;stroke:#1D1D1B;stroke-width:11;stroke-miterlimit:10;}
	.st45{fill:#53C48E;}
	.st46{fill:#FFFFFF;stroke:#000000;stroke-width:11;stroke-miterlimit:10;}
	.st47{fill:#AEE4ED;stroke:#000000;stroke-width:11;stroke-miterlimit:10;}
	.st48{fill:#F97A48;stroke:#1D1D1B;stroke-width:11;stroke-miterlimit:10;}
	.st49{stroke:#1D1D1B;stroke-width:11;stroke-miterlimit:10;}
	.st50{fill:#FFA071;}
	.st51{fill:#53ADFC;stroke:#1D1D1B;stroke-width:11;stroke-miterlimit:10;}
	.st52{fill:#31AA0F;stroke:#000000;stroke-width:11;stroke-miterlimit:10;}
	.st53{fill:#4BBC32;stroke:#000000;stroke-width:11;stroke-miterlimit:10;}
	.st54{fill:#DD0E2C;}
	.st55{fill:#EA3106;}
	.st56{fill:#F22F7E;}
	.st57{fill:#FCD259;stroke:#000000;stroke-width:11;stroke-miterlimit:10;}
	.st58{fill:#FD4347;stroke:#000000;stroke-width:11;stroke-miterlimit:10;}
	.st59{fill:#FCB439;}
	.st60{fill:#F43842;}
	.st61{fill:#178DFB;}
	.st62{fill:#32AF14;}
	.st63{fill:#FFDA00;stroke:#1D1D1B;stroke-width:11.1327;stroke-miterlimit:10;}
	.st64{fill:#FCB439;stroke:#FFFFFF;stroke-width:14.5517;stroke-miterlimit:10;}
	.st65{fill:#FFFFFF;}
	.st66{clip-path:url(#SVGID_2_);}
	.st67{fill:#D8D8D8;}
	.st68{clip-path:url(#SVGID_4_);}
	.st69{clip-path:url(#SVGID_6_);}
	.st70{fill:#999999;stroke:#FFFFFF;stroke-width:14.5517;stroke-miterlimit:10;}
	.st71{clip-path:url(#SVGID_8_);}
	.st72{clip-path:url(#SVGID_10_);}
	.st73{fill:#EA461F;}
	.st74{clip-path:url(#SVGID_12_);}
	.st75{fill:#C41820;}
	.st76{clip-path:url(#SVGID_14_);}
	.st77{fill:#075492;}
	.st78{fill:#003662;}
	.st79{clip-path:url(#SVGID_16_);}
	.st80{clip-path:url(#SVGID_18_);}
	.st81{clip-path:url(#SVGID_20_);}
	.st82{clip-path:url(#SVGID_22_);}
	.st83{fill:#DDDDDD;}
	.st84{fill:none;stroke:#1D1D1B;stroke-width:11;stroke-linecap:round;stroke-linejoin:round;stroke-miterlimit:10;}
	.st85{fill:none;stroke:#1D1D1B;stroke-width:11.6468;stroke-linecap:round;stroke-linejoin:round;stroke-miterlimit:10;}
	.st86{fill:#C6EBF4;stroke:#1D1D1B;stroke-width:11;stroke-linecap:round;stroke-linejoin:round;stroke-miterlimit:10;}
	.st87{fill:none;stroke:#000000;stroke-width:12.0562;stroke-linecap:round;stroke-linejoin:round;stroke-miterlimit:10;}
	.st88{fill:#F4C245;stroke:#000000;stroke-width:12.0562;stroke-linecap:round;stroke-miterlimit:10;}
	.st89{fill:none;stroke:#000000;stroke-width:12.0562;stroke-linecap:round;stroke-miterlimit:10;}
	.st90{fill:#FCD259;stroke:#000000;stroke-width:12.0562;stroke-miterlimit:10;}
	.st91{fill:none;stroke:#000000;stroke-width:12.0562;stroke-miterlimit:10;}
	.st92{fill:none;}
	.st93{fill:none;stroke:#000000;stroke-width:14.133;stroke-linecap:round;stroke-linejoin:round;stroke-miterlimit:10;}
	.st94{fill:#FFDA00;stroke:#000000;stroke-width:12.0562;stroke-miterlimit:10;}
	.st95{fill:none;stroke:#000000;stroke-width:10.6363;stroke-linecap:round;stroke-miterlimit:10;}
	.st96{fill:none;stroke:#000000;stroke-width:9;stroke-linecap:round;stroke-linejoin:round;stroke-miterlimit:10;}
	.st97{fill:#78909C;}
	.st98{fill:#4A6068;}
	.st99{stroke:#000000;stroke-width:11;stroke-miterlimit:10;}
	.st100{fill:#AEACB3;stroke:#000000;stroke-width:11;stroke-miterlimit:10;}
	.st101{fill:#C6EBF4;stroke:#000000;stroke-width:11;stroke-linecap:round;stroke-linejoin:round;stroke-miterlimit:10;}
	.st102{fill:#FFDA00;stroke:#000000;stroke-width:11;stroke-linecap:round;stroke-linejoin:round;stroke-miterlimit:10;}
	.st103{fill:#4BBC32;stroke:#000000;stroke-width:11;stroke-linecap:round;stroke-miterlimit:10;}
	.st104{fill:none;stroke:#231F20;stroke-width:11;stroke-miterlimit:10;}
	.st105{fill:#C6EBF4;stroke:#1D1D1B;stroke-width:10.3784;stroke-linecap:round;stroke-linejoin:round;stroke-miterlimit:10;}
	.st106{fill:#C6EBF4;stroke:#1D1D1B;stroke-width:6.959;stroke-linecap:round;stroke-linejoin:round;stroke-miterlimit:10;}
	.st107{fill:none;stroke:#1D1D1B;stroke-width:10.3442;stroke-linecap:round;stroke-linejoin:round;stroke-miterlimit:10;}
	.st108{fill:#C6EBF4;stroke:#1D1D1B;stroke-width:8.7624;stroke-linecap:round;stroke-linejoin:round;stroke-miterlimit:10;}
	.st109{fill:#AEE4ED;stroke:#1D1D1B;stroke-width:11;stroke-miterlimit:10;}
</style>
<path class="st23" d="M56.5,294.7l0,72.2c0,36.4-4.7,62.5-17.5,85.6c0,0,14,4.8,38.2,9.1c0,0,14.7-19.1,17.6-44.3
	c8.7,22.8-0.5,47-0.5,47c25.3,3.3,57.9,5.3,95.3,2c86.8-7.5,84.6-67.5,84.6-67.5v-104"/>
<polyline class="st24" points="319.7,85.5 300.6,85.5 300.6,57 319.7,57 "/>
<path class="st12" d="M381.4,165.3v-63h-61.7V43.5h101.5l35.9,23.3l0,29.3c-15.2,15-23,49.2-24.8,69.2"/>
<path class="st24" d="M351.7,102.3c-6,21-24.3,44.7-51.1,53.7V169c42.1,0,69.1-20.9,80.8-43.4l0-23.3H351.7z"/>
<path class="st12" d="M274.3,294.7H56.5v-24.7c0-7.5,6-13.5,13.5-13.5h190.7c7.5,0,13.5,6,13.5,13.5V294.7z"/>
<path class="st12" d="M186.1,256.6h-39.2V113.2c0-6,4.9-10.9,10.9-10.9h17.5c6,0,10.9,4.9,10.9,10.9V256.6z"/>
<path class="st4" d="M176.5,467.2c0,0,17.4-10.1,17.4-51.9"/>
<path class="st4" d="M205,464.2c0,0,25.4-23,18.4-132.4"/>
<path class="st14" d="M440.1,57v37.5c0,0-22.7,19.7-22.7,70.7h17.8c0,0,5.3-54.6,24.8-69.2c-0.5-17.1,0-30.7,0-30.7L440.1,57z"/>
<path class="st4" d="M381.4,165.3v-63h-61.7V43.5h101.5l35.9,23.3l0,29.3c-15.2,15-23,49.2-24.8,69.2"/>
<path class="st14" d="M252.6,297.3v-42.9h0c10.5,0,18.9,1.6,18.9,3.6v39.7C271.6,299.6,252.6,297.3,252.6,297.3z"/>
<path class="st14" d="M168,252.6V102.3h0c10.5,0,18.9,5.6,18.9,12.5v139C187,260.7,168,252.6,168,252.6z"/>
<path class="st29" d="M252.6,295v146.2h0c10.5,0,18.9-5.4,18.9-12.1V293.9C271.6,287.2,252.6,295,252.6,295z"/>
<path class="st4" d="M274.3,294.7H56.5v-24.7c0-7.5,6-13.5,13.5-13.5h190.7c7.5,0,13.5,6,13.5,13.5V294.7z"/>
<path class="st4" d="M56.5,294.7l0,72.2c0,36.4-4.7,62.5-17.5,85.6c0,0,14,4.8,38.2,9.1c0,0,14.7-19.1,17.6-44.3
	c8.7,22.8-0.5,47-0.5,47c25.3,3.3,57.9,5.3,95.3,2c86.8-7.5,84.6-67.5,84.6-67.5v-104"/>
<path class="st7" d="M437.1,165.3h-60.2c-16.2,0-29.5,13.3-29.5,29.5v62.5c0,29.6-11.6,47.9-46,63.2c0,0-28.4,14.3-28.9,14.5
	c-8.4,4.3-13.2,10.7-13.2,18.2v94.2c0,16.2,13.3,29.5,29.5,29.5h148.2c16.2,0,29.5-13.3,29.5-29.5V339.1v-27.6V194.8
	C466.7,178.5,453.4,165.3,437.1,165.3z"/>
<path class="st16" d="M446.5,471.9L446.5,471.9l0-303h0c12.7,0,23,10.3,23,23v256.9C469.6,461.6,459.3,471.9,446.5,471.9z"/>
<path class="st4" d="M437.1,165.3h-60.2c-16.2,0-29.5,13.3-29.5,29.5v62.5c0,29.6-11.6,47.9-46,63.2c0,0-28.4,14.3-28.9,14.5
	c-8.4,4.3-13.2,10.7-13.2,18.2v94.2c0,16.2,13.3,29.5,29.5,29.5h148.2c16.2,0,29.5-13.3,29.5-29.5V339.1v-27.6V194.8
	C466.7,178.5,453.4,165.3,437.1,165.3z"/>
<line class="st37" x1="466.7" y1="389.1" x2="437.2" y2="389.1"/>
<line class="st37" x1="466.7" y1="354.6" x2="437.2" y2="354.6"/>
<line class="st37" x1="466.7" y1="320.1" x2="437.2" y2="320.1"/>
<line class="st37" x1="466.7" y1="285.7" x2="437.2" y2="285.7"/>
<line class="st37" x1="466.7" y1="423.6" x2="437.2" y2="423.6"/>
<path class="st4" d="M186.1,256.6h-39.2V113.2c0-6,4.9-10.9,10.9-10.9h17.5c6,0,10.9,4.9,10.9,10.9V256.6z"/>
<line class="st38" x1="146.8" y1="231.8" x2="186.6" y2="231.8"/>
</svg>
