<?xml version="1.0" encoding="utf-8"?>
<!-- Generator: Adobe Illustrator 21.1.0, SVG Export Plug-In . SVG Version: 6.00 Build 0)  -->
<svg version="1.1" id="Layer_1" xmlns="http://www.w3.org/2000/svg" xmlns:xlink="http://www.w3.org/1999/xlink" x="0px" y="0px"
	 viewBox="0 0 512 512" style="enable-background:new 0 0 512 512;" xml:space="preserve">
<style type="text/css">
	.st0{fill:#F4C245;}
	.st1{fill:none;stroke:#000000;stroke-width:11;stroke-linecap:round;stroke-linejoin:round;stroke-miterlimit:10;}
	.st2{fill:#FCD259;}
	.st3{fill:#F4C245;stroke:#000000;stroke-width:11;stroke-linecap:round;stroke-miterlimit:10;}
	.st4{fill:#48D5BF;}
	.st5{fill:#26C6A7;}
	.st6{fill:none;stroke:#000000;stroke-width:11;stroke-linecap:round;stroke-miterlimit:10;}
	.st7{fill:none;stroke:#000000;stroke-width:11;stroke-miterlimit:10;}
	.st8{fill:#FD4347;}
	.st9{fill:#EF3043;}
	.st10{fill:#F97A48;}
	.st11{fill:#EF5F37;}
	.st12{fill:#F97A48;stroke:#000000;stroke-width:11;stroke-miterlimit:10;}
	.st13{fill:#4BBC32;}
	.st14{fill:#31AA0F;}
	.st15{fill:#C6EBF4;}
	.st16{fill:#AEE4ED;}
	.st17{fill:#53ADFC;stroke:#000000;stroke-width:11;stroke-miterlimit:10;}
	.st18{fill:#FFDA00;}
	.st19{fill:#EFC700;}
	.st20{fill:#FFDA00;stroke:#000000;stroke-width:11;stroke-miterlimit:10;}
	.st21{fill:#FFBCA4;stroke:#000000;stroke-width:11;stroke-miterlimit:10;}
	.st22{fill:#53ADFC;}
	.st23{fill:#B9D6ED;stroke:#000000;stroke-width:11;stroke-miterlimit:10;}
	.st24{fill:#24A1ED;}
	.st25{fill:none;stroke:#000000;stroke-miterlimit:10;}
	.st26{fill:#F95594;stroke:#000000;stroke-width:11;stroke-miterlimit:10;}
	.st27{fill:#24A1ED;stroke:#000000;stroke-width:11;stroke-miterlimit:10;}
	.st28{fill:#FF6C9D;}
	.st29{fill:#F95594;}
	.st30{fill:#4B5B6D;}
	.st31{fill:#3E5366;}
	.st32{fill:#FFDA00;stroke:#000000;stroke-width:5;stroke-miterlimit:10;}
	.st33{fill:#85AFDD;stroke:#000000;stroke-width:11;stroke-miterlimit:10;}
	.st34{fill:#FFA071;stroke:#1D1D1B;stroke-width:11;stroke-miterlimit:10;}
	.st35{fill:#FFFFFF;stroke:#1D1D1B;stroke-width:11;stroke-miterlimit:10;}
	.st36{fill:#FFDC64;}
	.st37{fill:#1D1D1B;}
	.st38{fill:#FF6C9D;stroke:#1D1D1B;stroke-width:11;stroke-miterlimit:10;}
	.st39{fill:#6FCEA6;}
	.st40{fill:#C6EBF4;stroke:#000000;stroke-width:11;stroke-miterlimit:10;}
	.st41{fill:#C6EBF4;stroke:#1D1D1B;stroke-width:11;stroke-miterlimit:10;}
	.st42{fill:#53C48E;}
	.st43{fill:#48D5BF;stroke:#000000;stroke-width:11;stroke-miterlimit:10;}
	.st44{fill:#FFFFFF;stroke:#000000;stroke-width:11;stroke-miterlimit:10;}
	.st45{fill:#AEE4ED;stroke:#1D1D1B;stroke-width:11;stroke-miterlimit:10;}
	.st46{stroke:#1D1D1B;stroke-width:11;stroke-miterlimit:10;}
	.st47{fill:#FFA071;}
	.st48{fill:#53ADFC;stroke:#1D1D1B;stroke-width:11;stroke-miterlimit:10;}
	.st49{fill:#31AA0F;stroke:#000000;stroke-width:11;stroke-miterlimit:10;}
	.st50{fill:#4BBC32;stroke:#000000;stroke-width:11;stroke-miterlimit:10;}
	.st51{fill:#EA3106;}
	.st52{fill:#DD0E2C;}
	.st53{fill:#F22F7E;}
	.st54{fill:#FCD259;stroke:#000000;stroke-width:11;stroke-miterlimit:10;}
	.st55{fill:#FD4347;stroke:#000000;stroke-width:11;stroke-miterlimit:10;}
	.st56{fill:#FCB439;}
	.st57{fill:#F43842;}
	.st58{fill:#178DFB;}
	.st59{fill:#32AF14;}
	.st60{fill:#F97A48;stroke:#000000;stroke-width:11;stroke-linecap:round;stroke-linejoin:round;stroke-miterlimit:10;}
	.st61{fill:#FFDA00;stroke:#1D1D1B;stroke-width:11.1327;stroke-miterlimit:10;}
	.st62{fill:#FCB439;stroke:#FFFFFF;stroke-width:14.5517;stroke-miterlimit:10;}
	.st63{fill:#FFFFFF;}
	.st64{clip-path:url(#SVGID_2_);}
	.st65{fill:#D8D8D8;}
	.st66{clip-path:url(#SVGID_4_);}
	.st67{clip-path:url(#SVGID_6_);}
	.st68{fill:#999999;stroke:#FFFFFF;stroke-width:14.5517;stroke-miterlimit:10;}
	.st69{clip-path:url(#SVGID_8_);}
	.st70{clip-path:url(#SVGID_10_);}
	.st71{fill:#EA461F;}
	.st72{clip-path:url(#SVGID_12_);}
	.st73{fill:#C41820;}
	.st74{clip-path:url(#SVGID_14_);}
	.st75{fill:#075492;}
	.st76{fill:#003662;}
	.st77{clip-path:url(#SVGID_16_);}
	.st78{clip-path:url(#SVGID_18_);}
	.st79{clip-path:url(#SVGID_20_);}
	.st80{clip-path:url(#SVGID_22_);}
	.st81{fill:#DDDDDD;}
	.st82{fill:none;stroke:#1D1D1B;stroke-width:11;stroke-linecap:round;stroke-linejoin:round;stroke-miterlimit:10;}
	.st83{fill:none;stroke:#1D1D1B;stroke-width:11.6468;stroke-linecap:round;stroke-linejoin:round;stroke-miterlimit:10;}
	.st84{fill:#C6EBF4;stroke:#1D1D1B;stroke-width:11;stroke-linecap:round;stroke-linejoin:round;stroke-miterlimit:10;}
</style>
<path class="st2" d="M54.1,295.3l0,74.4c0,37.4-4.8,64.4-18,88.1c0,0,14.4,5,39.4,9.3c0,0,15.1-19.7,18.1-45.7
	c9,23.5-0.5,48.4-0.5,48.4c26,3.4,59.7,5.4,98.2,2.1c89.4-7.7,87.1-69.5,87.1-69.5V295.3"/>
<polyline class="st17" points="325.1,79.8 305.4,79.8 305.4,50.5 325.1,50.5 "/>
<path class="st10" d="M388.6,162V97.1h-63.5V36.5h104.5l37,24l0,30.2C451,106.2,442.9,141.4,441,162"/>
<path class="st17" d="M358,97.1c-6.2,21.6-25,46-52.7,55.3v13.3c43.4,0,71.1-21.6,83.2-44.7l0-24L358,97.1z"/>
<path class="st10" d="M278.3,295.3H54.1v-25.8c0-7.5,6-13.5,13.5-13.5h197.2c7.5,0,13.5,6,13.5,13.5V295.3z"/>
<path class="st10" d="M187.4,256H147V108c0-6,4.9-10.9,10.9-10.9h18.7c6,0,10.9,4.9,10.9,10.9V256z"/>
<path class="st7" d="M177.6,472.9c0,0,17.9-10.4,17.9-53.4"/>
<path class="st7" d="M206.9,469.8c0,0,26.1-23.7,18.9-136.4"/>
<path class="st11" d="M449,50.5v38.7c0,0-23.3,20.3-23.3,72.8H444c0,0,5.4-56.3,25.5-71.2c-0.6-17.6,0-31.6,0-31.6L449,50.5z"/>
<path class="st7" d="M388.6,162V97.1h-63.5V36.5h104.5l37,24l0,30.2C451,106.2,442.9,141.4,441,162"/>
<path class="st11" d="M256,298v-44.2h0c10.8,0,19.5,1.6,19.5,3.7v40.8C275.5,300.3,256,298,256,298z"/>
<path class="st11" d="M168.9,251.9V97.1h0c10.8,0,19.5,5.7,19.5,12.8v143.2C188.4,260.2,168.9,251.9,168.9,251.9z"/>
<path class="st0" d="M256,295.6v150.6h0c10.8,0,19.5-5.6,19.5-12.5V294.4C275.5,287.5,256,295.6,256,295.6z"/>
<path class="st7" d="M278.3,295.3H54.1v-25.8c0-7.5,6-13.5,13.5-13.5h197.2c7.5,0,13.5,6,13.5,13.5V295.3z"/>
<path class="st7" d="M54.1,295.3l0,74.4c0,37.4-4.8,64.4-18,88.1c0,0,14.4,5,39.4,9.3c0,0,15.1-19.7,18.1-45.7
	c9,23.5-0.5,48.4-0.5,48.4c26,3.4,59.7,5.4,98.2,2.1c89.4-7.7,87.1-69.5,87.1-69.5V295.3"/>
<path class="st4" d="M446,162h-62c-16.7,0-30.4,13.7-30.4,30.4v64.4c0,30.5-11.9,49.3-47.3,65.1c0,0-29.2,14.7-29.7,15
	c-8.7,4.4-13.6,11.1-13.6,18.7v97c0,16.7,13.7,30.4,30.4,30.4H446c16.7,0,30.4-13.7,30.4-30.4V341v-28.4V192.4
	C476.4,175.7,462.7,162,446,162z"/>
<path class="st5" d="M455.7,477.8L455.7,477.8v-312l0,0c13.1,0,23.7,10.6,23.7,23.7v264.6C479.4,467.2,468.8,477.8,455.7,477.8z"/>
<path class="st7" d="M446,162h-62c-16.7,0-30.4,13.7-30.4,30.4v64.4c0,30.5-11.9,49.3-47.3,65.1c0,0-29.2,14.7-29.7,15
	c-8.7,4.4-13.6,11.1-13.6,18.7v97c0,16.7,13.7,30.4,30.4,30.4H446c16.7,0,30.4-13.7,30.4-30.4V341v-28.4V192.4
	C476.4,175.7,462.7,162,446,162z"/>
<line class="st33" x1="476.4" y1="392.5" x2="446" y2="392.5"/>
<line class="st33" x1="476.4" y1="357" x2="446" y2="357"/>
<line class="st33" x1="476.4" y1="321.5" x2="446" y2="321.5"/>
<line class="st33" x1="476.4" y1="286" x2="446" y2="286"/>
<line class="st33" x1="476.4" y1="428" x2="446" y2="428"/>
<path class="st7" d="M187.4,256H147V108c0-6,4.9-10.9,10.9-10.9h18.7c6,0,10.9,4.9,10.9,10.9V256z"/>
<line class="st34" x1="147" y1="230.5" x2="188" y2="230.5"/>
</svg>
