<?xml version="1.0" encoding="utf-8"?>
<!-- Generator: Adobe Illustrator 21.1.0, SVG Export Plug-In . SVG Version: 6.00 Build 0)  -->
<svg version="1.1" id="Layer_1" xmlns="http://www.w3.org/2000/svg" xmlns:xlink="http://www.w3.org/1999/xlink" x="0px" y="0px"
	 viewBox="0 0 512 512" style="enable-background:new 0 0 512 512;" xml:space="preserve">
<style type="text/css">
	.st0{fill:#F97A48;stroke:#000000;stroke-width:11;stroke-miterlimit:10;}
	.st1{fill:#F97A48;stroke:#000000;stroke-width:11;stroke-linecap:round;stroke-linejoin:round;stroke-miterlimit:10;}
	.st2{fill:#FFDA00;}
	.st3{fill:#EFC700;}
	.st4{fill:none;stroke:#000000;stroke-width:11;stroke-miterlimit:10;}
	.st5{fill:#FF6C9D;}
	.st6{fill:#FF6C9D;stroke:#1D1D1B;stroke-width:11;stroke-linecap:round;stroke-linejoin:round;stroke-miterlimit:10;}
	.st7{fill:#48D5BF;}
	.st8{fill:#48D5BF;stroke:#000000;stroke-width:11;stroke-miterlimit:10;}
	.st9{fill:#FFDA00;stroke:#000000;stroke-width:11;stroke-miterlimit:10;}
	.st10{fill:#C6EBF4;stroke:#000000;stroke-width:11;stroke-miterlimit:10;}
	.st11{fill:none;stroke:#000000;stroke-width:11;stroke-linecap:round;stroke-linejoin:round;stroke-miterlimit:10;}
	.st12{fill:#F97A48;}
	.st13{fill:#C6EBF4;}
	.st14{fill:#EF5F37;}
	.st15{fill:none;stroke:#000000;stroke-width:10.6363;stroke-miterlimit:10;}
	.st16{fill:#26C6A7;}
	.st17{fill:none;stroke:#000000;stroke-width:11;stroke-linecap:round;stroke-miterlimit:10;}
	.st18{fill:#FD4347;}
	.st19{fill:#EF3043;}
	.st20{fill:#4BBC32;}
	.st21{fill:#31AA0F;}
	.st22{fill:#AEE4ED;}
	.st23{fill:#FCD259;}
	.st24{fill:#53ADFC;stroke:#000000;stroke-width:11;stroke-miterlimit:10;}
	.st25{fill:#FFBCA4;stroke:#000000;stroke-width:11;stroke-miterlimit:10;}
	.st26{fill:#53ADFC;}
	.st27{fill:#B9D6ED;stroke:#000000;stroke-width:11;stroke-miterlimit:10;}
	.st28{fill:#24A1ED;}
	.st29{fill:#F4C245;}
	.st30{fill:none;stroke:#000000;stroke-miterlimit:10;}
	.st31{fill:#F95594;stroke:#000000;stroke-width:11;stroke-miterlimit:10;}
	.st32{fill:#24A1ED;stroke:#000000;stroke-width:11;stroke-miterlimit:10;}
	.st33{fill:#F95594;}
	.st34{fill:#4B5B6D;}
	.st35{fill:#3E5366;}
	.st36{fill:#FFDA00;stroke:#000000;stroke-width:5;stroke-miterlimit:10;}
	.st37{fill:#85AFDD;stroke:#000000;stroke-width:11;stroke-miterlimit:10;}
	.st38{fill:#FFA071;stroke:#1D1D1B;stroke-width:11;stroke-miterlimit:10;}
	.st39{fill:#FFFFFF;stroke:#1D1D1B;stroke-width:11;stroke-miterlimit:10;}
	.st40{fill:#FFDC64;}
	.st41{fill:#1D1D1B;}
	.st42{fill:#FF6C9D;stroke:#1D1D1B;stroke-width:11;stroke-miterlimit:10;}
	.st43{fill:#6FCEA6;}
	.st44{fill:#C6EBF4;stroke:#1D1D1B;stroke-width:11;stroke-miterlimit:10;}
	.st45{fill:#53C48E;}
	.st46{fill:#FFFFFF;stroke:#000000;stroke-width:11;stroke-miterlimit:10;}
	.st47{fill:#AEE4ED;stroke:#000000;stroke-width:11;stroke-miterlimit:10;}
	.st48{fill:#F97A48;stroke:#1D1D1B;stroke-width:11;stroke-miterlimit:10;}
	.st49{stroke:#1D1D1B;stroke-width:11;stroke-miterlimit:10;}
	.st50{fill:#FFA071;}
	.st51{fill:#53ADFC;stroke:#1D1D1B;stroke-width:11;stroke-miterlimit:10;}
	.st52{fill:#31AA0F;stroke:#000000;stroke-width:11;stroke-miterlimit:10;}
	.st53{fill:#4BBC32;stroke:#000000;stroke-width:11;stroke-miterlimit:10;}
	.st54{fill:#DD0E2C;}
	.st55{fill:#EA3106;}
	.st56{fill:#F22F7E;}
	.st57{fill:#FCD259;stroke:#000000;stroke-width:11;stroke-miterlimit:10;}
	.st58{fill:#FD4347;stroke:#000000;stroke-width:11;stroke-miterlimit:10;}
	.st59{fill:#FCB439;}
	.st60{fill:#F43842;}
	.st61{fill:#178DFB;}
	.st62{fill:#32AF14;}
	.st63{fill:#FFDA00;stroke:#1D1D1B;stroke-width:11.1327;stroke-miterlimit:10;}
	.st64{fill:#FCB439;stroke:#FFFFFF;stroke-width:14.5517;stroke-miterlimit:10;}
	.st65{fill:#FFFFFF;}
	.st66{clip-path:url(#SVGID_2_);}
	.st67{fill:#D8D8D8;}
	.st68{clip-path:url(#SVGID_4_);}
	.st69{clip-path:url(#SVGID_6_);}
	.st70{fill:#999999;stroke:#FFFFFF;stroke-width:14.5517;stroke-miterlimit:10;}
	.st71{clip-path:url(#SVGID_8_);}
	.st72{clip-path:url(#SVGID_10_);}
	.st73{fill:#EA461F;}
	.st74{clip-path:url(#SVGID_12_);}
	.st75{fill:#C41820;}
	.st76{clip-path:url(#SVGID_14_);}
	.st77{fill:#075492;}
	.st78{fill:#003662;}
	.st79{clip-path:url(#SVGID_16_);}
	.st80{clip-path:url(#SVGID_18_);}
	.st81{clip-path:url(#SVGID_20_);}
	.st82{clip-path:url(#SVGID_22_);}
	.st83{fill:#DDDDDD;}
	.st84{fill:none;stroke:#1D1D1B;stroke-width:11;stroke-linecap:round;stroke-linejoin:round;stroke-miterlimit:10;}
	.st85{fill:none;stroke:#1D1D1B;stroke-width:11.6468;stroke-linecap:round;stroke-linejoin:round;stroke-miterlimit:10;}
	.st86{fill:#C6EBF4;stroke:#1D1D1B;stroke-width:11;stroke-linecap:round;stroke-linejoin:round;stroke-miterlimit:10;}
	.st87{fill:none;stroke:#000000;stroke-width:12.0562;stroke-linecap:round;stroke-linejoin:round;stroke-miterlimit:10;}
	.st88{fill:#F4C245;stroke:#000000;stroke-width:12.0562;stroke-linecap:round;stroke-miterlimit:10;}
	.st89{fill:none;stroke:#000000;stroke-width:12.0562;stroke-linecap:round;stroke-miterlimit:10;}
	.st90{fill:#FCD259;stroke:#000000;stroke-width:12.0562;stroke-miterlimit:10;}
	.st91{fill:none;stroke:#000000;stroke-width:12.0562;stroke-miterlimit:10;}
	.st92{fill:none;}
	.st93{fill:none;stroke:#000000;stroke-width:14.133;stroke-linecap:round;stroke-linejoin:round;stroke-miterlimit:10;}
	.st94{fill:#FFDA00;stroke:#000000;stroke-width:12.0562;stroke-miterlimit:10;}
	.st95{fill:none;stroke:#000000;stroke-width:10.6363;stroke-linecap:round;stroke-miterlimit:10;}
	.st96{fill:none;stroke:#000000;stroke-width:9;stroke-linecap:round;stroke-linejoin:round;stroke-miterlimit:10;}
	.st97{fill:#78909C;}
	.st98{fill:#4A6068;}
	.st99{stroke:#000000;stroke-width:11;stroke-miterlimit:10;}
	.st100{fill:#AEACB3;stroke:#000000;stroke-width:11;stroke-miterlimit:10;}
	.st101{fill:#C6EBF4;stroke:#000000;stroke-width:11;stroke-linecap:round;stroke-linejoin:round;stroke-miterlimit:10;}
	.st102{fill:#FFDA00;stroke:#000000;stroke-width:11;stroke-linecap:round;stroke-linejoin:round;stroke-miterlimit:10;}
	.st103{fill:#4BBC32;stroke:#000000;stroke-width:11;stroke-linecap:round;stroke-miterlimit:10;}
	.st104{fill:none;stroke:#231F20;stroke-width:11;stroke-miterlimit:10;}
	.st105{fill:#C6EBF4;stroke:#1D1D1B;stroke-width:10.3784;stroke-linecap:round;stroke-linejoin:round;stroke-miterlimit:10;}
	.st106{fill:#C6EBF4;stroke:#1D1D1B;stroke-width:6.959;stroke-linecap:round;stroke-linejoin:round;stroke-miterlimit:10;}
	.st107{fill:none;stroke:#1D1D1B;stroke-width:10.3442;stroke-linecap:round;stroke-linejoin:round;stroke-miterlimit:10;}
	.st108{fill:#C6EBF4;stroke:#1D1D1B;stroke-width:8.7624;stroke-linecap:round;stroke-linejoin:round;stroke-miterlimit:10;}
	.st109{fill:#AEE4ED;stroke:#1D1D1B;stroke-width:11;stroke-miterlimit:10;}
</style>
<polygon class="st26" points="455,395.7 57.4,395.7 46.8,304.6 455,304.6 "/>
<path class="st63" d="M451.3,266.7c-0.8-18.5-21.8-33-45.9-33.9c-9.5-0.3-19.3,1-26.8,4.8c-9,4.5-20,4.8-29.8,1.6
	c-3.4-1.1-7-1.8-10.7-1.9c-3.4-0.1-6.7,0.2-9.9,0.8c-8.9,1.9-18.3,0.9-26.3-3.1c-6.4-3.2-13.8-5.1-21.6-5.5
	c-6.7-0.3-13.2,0.7-19.1,2.7c-8.8,2.9-18.7,2.5-27.3-1.1c-5.7-2.4-12.1-3.9-18.8-4.2c-9.8-0.4-19,1.8-26.8,6
	c-10.7,5.7-24.1,6.3-34.9,0.6c-6.4-3.4-14-5.2-22.1-5.1c-12,0.2-22.8,5.1-30,12.8c-1.8,1.9-4.6,2.9-7.4,2.6c-0.4,0-0.8-0.1-1.2-0.1
	c-13.7,0.6-21.3,6.2-29.3,21.7c-4.6,9-12.1,24.1-1,26c3.8,0.6,33-7,36.3-7.8c7,9.4,19,15.9,32.7,16.4c2.8,0.1,5.5,0,8.1-0.4
	c18.5-2.5,37.4,0.7,54.5,7.5c5.5,2.2,11.5,3.5,17.9,3.8c12.6,0.5,24.2-3.3,33-9.9c8.3,7.3,19.6,12,32.1,12.5
	c11.8,0.5,22.7-2.8,31.3-8.7c7.3-5,16.7-7.1,26-6.3c0.5,0,1,0.1,1.5,0.1c2.2,0.1,4.3,0,6.4-0.3c13.3-1.6,27-0.3,39.1,5.1
	c5.3,2.4,11.2,3.8,17.5,4C423.2,308.6,452.2,288.7,451.3,266.7z"/>
<rect x="40.7" y="259.7" class="st26" width="416.2" height="44.9"/>
<polygon class="st28" points="446.1,262.6 468,262.6 468.7,301.5 446.1,305.9 "/>
<polygon class="st28" points="434.9,306.9 456.3,306.9 456.9,390.1 434.9,399.7 "/>
<polygon class="st28" points="46.8,321.8 46.8,303.7 456.9,304.6 460.7,321.8 "/>
<polygon class="st84" points="424.2,305.7 84.2,305.7 47.8,305.7 57.5,396.7 84.2,396.7 424.2,396.7 451,396.7 460.7,305.7 "/>
<rect x="39.8" y="259.7" class="st85" width="428.9" height="44.9"/>
<g>
	<path d="M254.3,353.4c0,0-0.1,0-0.2,0c-12.1,0-24.1,25.3-16.3,28.9c3.4,1.6,6.9,1.4,9.8,0.6c2.1-0.5,4.4-0.8,6.6-0.8
		c2.2,0,4.4,0.3,6.6,0.8c2.9,0.7,6.5,0.9,9.8-0.6C278.4,378.7,266.4,353.4,254.3,353.4z"/>
	<path d="M229,335.7c2.4,5.3,10,9.9,15.2,7.6c5.3-2.4,6.2-10.9,3.9-16.2c-2.4-5.3-8.6-7.6-13.9-5.3C229,324.2,226.6,330.4,229,335.7
		z"/>
	<path d="M214.5,361.3c4.1,2.7,12.7,3.6,15.4-0.6c2.7-4.1-1.4-11.6-5.5-14.4c-4.1-2.7-9.7-1.6-12.4,2.5S210.4,358.5,214.5,361.3z"/>
	<path d="M279.5,335.7c-2.4,5.3-10,9.9-15.2,7.6c-5.3-2.4-6.2-10.9-3.9-16.2c2.4-5.3,8.6-7.6,13.9-5.3
		C279.5,324.2,281.8,330.4,279.5,335.7z"/>
	<path d="M293.9,361.3c-4.1,2.7-12.7,3.6-15.4-0.6c-2.7-4.1,1.4-11.6,5.5-14.4c4.1-2.7,9.7-1.6,12.4,2.5
		C299.2,353,298.1,358.5,293.9,361.3z"/>
</g>
<path class="st86" d="M389.7,212.3c-3.6,3.1-7.4,6.8-11,11c-13.5,15.8-19.3,32.6-22.1,44.2c-2.7-11.5-8.6-28.4-22.1-44.2
	c-3.7-4.3-7.4-7.9-11-11c3.6-3.1,7.4-6.8,11-11c13.5-15.8,19.3-32.6,22.1-44.2c2.7,11.5,8.6,28.4,22.1,44.2
	C382.3,205.5,386.1,209.2,389.7,212.3z"/>
<path class="st86" d="M436,173.7c-2.5,2.2-5.2,4.7-7.7,7.7c-9.4,11-13.5,22.8-15.4,30.9c-1.9-8.1-6-19.8-15.4-30.9
	c-2.6-3-5.2-5.5-7.7-7.7c2.5-2.2,5.2-4.7,7.7-7.7c9.4-11,13.5-22.8,15.4-30.9c1.9,8.1,6,19.8,15.4,30.9
	C430.8,169,433.4,171.6,436,173.7z"/>
</svg>
