<?xml version="1.0" encoding="utf-8"?>
<!-- Generator: Adobe Illustrator 21.1.0, SVG Export Plug-In . SVG Version: 6.00 Build 0)  -->
<svg version="1.1" id="Layer_1" xmlns="http://www.w3.org/2000/svg" xmlns:xlink="http://www.w3.org/1999/xlink" x="0px" y="0px"
	 viewBox="0 0 512 512" style="enable-background:new 0 0 512 512;" xml:space="preserve">
<style type="text/css">
	.st0{fill:#F4C245;}
	.st1{fill:none;stroke:#000000;stroke-width:11;stroke-linecap:round;stroke-linejoin:round;stroke-miterlimit:10;}
	.st2{fill:#FCD259;}
	.st3{fill:#F4C245;stroke:#000000;stroke-width:11;stroke-linecap:round;stroke-miterlimit:10;}
	.st4{fill:#48D5BF;}
	.st5{fill:#26C6A7;}
	.st6{fill:none;stroke:#000000;stroke-width:11;stroke-linecap:round;stroke-miterlimit:10;}
	.st7{fill:none;stroke:#000000;stroke-width:11;stroke-miterlimit:10;}
	.st8{fill:#FD4347;}
	.st9{fill:#EF3043;}
	.st10{fill:#F97A48;}
	.st11{fill:#EF5F37;}
	.st12{fill:#F97A48;stroke:#000000;stroke-width:11;stroke-miterlimit:10;}
	.st13{fill:#4BBC32;}
	.st14{fill:#31AA0F;}
	.st15{fill:#C6EBF4;}
	.st16{fill:#AEE4ED;}
	.st17{fill:#53ADFC;stroke:#000000;stroke-width:11;stroke-miterlimit:10;}
	.st18{fill:#FFDA00;}
	.st19{fill:#EFC700;}
	.st20{fill:#FFDA00;stroke:#000000;stroke-width:11;stroke-miterlimit:10;}
	.st21{fill:#FFBCA4;stroke:#000000;stroke-width:11;stroke-miterlimit:10;}
	.st22{fill:#53ADFC;}
	.st23{fill:#B9D6ED;stroke:#000000;stroke-width:11;stroke-miterlimit:10;}
	.st24{fill:#24A1ED;}
	.st25{fill:none;stroke:#000000;stroke-miterlimit:10;}
	.st26{fill:#F95594;stroke:#000000;stroke-width:11;stroke-miterlimit:10;}
	.st27{fill:#24A1ED;stroke:#000000;stroke-width:11;stroke-miterlimit:10;}
	.st28{fill:#FF6C9D;}
	.st29{fill:#F95594;}
	.st30{fill:#4B5B6D;}
	.st31{fill:#3E5366;}
	.st32{fill:#FFDA00;stroke:#000000;stroke-width:5;stroke-miterlimit:10;}
	.st33{fill:#85AFDD;stroke:#000000;stroke-width:11;stroke-miterlimit:10;}
	.st34{fill:#FFA071;stroke:#1D1D1B;stroke-width:11;stroke-miterlimit:10;}
	.st35{fill:#FFFFFF;stroke:#1D1D1B;stroke-width:11;stroke-miterlimit:10;}
	.st36{fill:#FFDC64;}
	.st37{fill:#1D1D1B;}
	.st38{fill:#FF6C9D;stroke:#1D1D1B;stroke-width:11;stroke-miterlimit:10;}
	.st39{fill:#6FCEA6;}
	.st40{fill:#C6EBF4;stroke:#000000;stroke-width:11;stroke-miterlimit:10;}
	.st41{fill:#C6EBF4;stroke:#1D1D1B;stroke-width:11;stroke-miterlimit:10;}
	.st42{fill:#53C48E;}
	.st43{fill:#48D5BF;stroke:#000000;stroke-width:11;stroke-miterlimit:10;}
	.st44{fill:#FFFFFF;stroke:#000000;stroke-width:11;stroke-miterlimit:10;}
	.st45{fill:#AEE4ED;stroke:#1D1D1B;stroke-width:11;stroke-miterlimit:10;}
	.st46{stroke:#1D1D1B;stroke-width:11;stroke-miterlimit:10;}
	.st47{fill:#FFA071;}
	.st48{fill:#53ADFC;stroke:#1D1D1B;stroke-width:11;stroke-miterlimit:10;}
	.st49{fill:#31AA0F;stroke:#000000;stroke-width:11;stroke-miterlimit:10;}
	.st50{fill:#4BBC32;stroke:#000000;stroke-width:11;stroke-miterlimit:10;}
	.st51{fill:#EA3106;}
	.st52{fill:#DD0E2C;}
	.st53{fill:#F22F7E;}
	.st54{fill:#FCD259;stroke:#000000;stroke-width:11;stroke-miterlimit:10;}
	.st55{fill:#FD4347;stroke:#000000;stroke-width:11;stroke-miterlimit:10;}
	.st56{fill:#FCB439;}
	.st57{fill:#F43842;}
	.st58{fill:#178DFB;}
	.st59{fill:#32AF14;}
	.st60{fill:#F97A48;stroke:#000000;stroke-width:11;stroke-linecap:round;stroke-linejoin:round;stroke-miterlimit:10;}
	.st61{fill:#FFDA00;stroke:#1D1D1B;stroke-width:11.1327;stroke-miterlimit:10;}
	.st62{fill:#FCB439;stroke:#FFFFFF;stroke-width:14.5517;stroke-miterlimit:10;}
	.st63{fill:#FFFFFF;}
	.st64{clip-path:url(#SVGID_2_);}
	.st65{fill:#D8D8D8;}
	.st66{clip-path:url(#SVGID_4_);}
	.st67{clip-path:url(#SVGID_6_);}
	.st68{fill:#999999;stroke:#FFFFFF;stroke-width:14.5517;stroke-miterlimit:10;}
	.st69{clip-path:url(#SVGID_8_);}
	.st70{clip-path:url(#SVGID_10_);}
	.st71{fill:#EA461F;}
	.st72{clip-path:url(#SVGID_12_);}
	.st73{fill:#C41820;}
	.st74{clip-path:url(#SVGID_14_);}
	.st75{fill:#075492;}
	.st76{fill:#003662;}
	.st77{clip-path:url(#SVGID_16_);}
	.st78{clip-path:url(#SVGID_18_);}
	.st79{clip-path:url(#SVGID_20_);}
	.st80{clip-path:url(#SVGID_22_);}
	.st81{fill:#DDDDDD;}
	.st82{fill:none;stroke:#1D1D1B;stroke-width:11;stroke-linecap:round;stroke-linejoin:round;stroke-miterlimit:10;}
	.st83{fill:none;stroke:#1D1D1B;stroke-width:11.6468;stroke-linecap:round;stroke-linejoin:round;stroke-miterlimit:10;}
	.st84{fill:#C6EBF4;stroke:#1D1D1B;stroke-width:11;stroke-linecap:round;stroke-linejoin:round;stroke-miterlimit:10;}
</style>
<polygon class="st22" points="454,424.7 56.4,424.7 45.8,333.6 454,333.6 "/>
<path class="st61" d="M450.3,295.7c-0.8-18.5-21.8-33-45.9-33.9c-9.5-0.3-19.3,1-26.8,4.8c-9,4.5-20,4.8-29.8,1.6
	c-3.4-1.1-7-1.8-10.7-1.9c-3.4-0.1-6.7,0.2-9.9,0.8c-8.9,1.9-18.3,0.9-26.3-3.1c-6.4-3.2-13.8-5.1-21.6-5.5
	c-6.7-0.3-13.2,0.7-19.1,2.7c-8.8,2.9-18.7,2.5-27.3-1.1c-5.7-2.4-12.1-3.9-18.8-4.2c-9.8-0.4-19,1.8-26.8,6
	c-10.7,5.7-24.1,6.3-34.9,0.6c-6.4-3.4-14-5.2-22.1-5.1c-12,0.2-22.8,5.1-30,12.8c-1.8,1.9-4.6,2.9-7.4,2.6c-0.4,0-0.8-0.1-1.2-0.1
	c-13.7,0.6-21.3,6.2-29.3,21.7c-4.6,9-12.1,24.1-1,26c3.8,0.6,33-7,36.3-7.8c7,9.4,19,15.9,32.7,16.4c2.8,0.1,5.5,0,8.1-0.4
	c18.5-2.5,37.4,0.7,54.5,7.5c5.5,2.2,11.5,3.5,17.9,3.8c12.6,0.5,24.2-3.3,33-9.9c8.3,7.3,19.6,12,32.1,12.5
	c11.8,0.5,22.7-2.8,31.3-8.7c7.3-5,16.7-7.1,26-6.3c0.5,0,1,0.1,1.5,0.1c2.2,0.1,4.3,0,6.4-0.3c13.3-1.6,27-0.3,39.1,5.1
	c5.3,2.4,11.2,3.8,17.5,4C422.2,337.6,451.2,317.7,450.3,295.7z"/>
<rect x="39.7" y="288.7" class="st22" width="416.2" height="44.9"/>
<polygon class="st24" points="445.1,291.6 467,291.6 467.7,330.5 445.1,334.9 "/>
<polygon class="st24" points="433.9,335.9 455.3,335.9 455.9,419.1 433.9,428.7 "/>
<polygon class="st24" points="45.8,350.8 45.8,332.7 455.9,333.6 459.7,350.8 "/>
<polygon class="st82" points="423.2,334.7 83.2,334.7 46.8,334.7 56.5,425.7 83.2,425.7 423.2,425.7 450,425.7 459.7,334.7 "/>
<rect x="38.8" y="288.7" class="st83" width="428.9" height="44.9"/>
<g>
	<path d="M253.3,382.4c0,0-0.1,0-0.2,0c-12.1,0-24.1,25.3-16.3,28.9c3.4,1.6,6.9,1.4,9.8,0.6c2.1-0.5,4.4-0.8,6.6-0.8
		c2.2,0,4.4,0.3,6.6,0.8c2.9,0.7,6.5,0.9,9.8-0.6C277.4,407.7,265.4,382.4,253.3,382.4z"/>
	<path d="M228,364.7c2.4,5.3,10,9.9,15.2,7.6c5.3-2.4,6.2-10.9,3.9-16.2c-2.4-5.3-8.6-7.6-13.9-5.3C228,353.2,225.6,359.4,228,364.7
		z"/>
	<path d="M213.5,390.3c4.1,2.7,12.7,3.6,15.4-0.6c2.7-4.1-1.4-11.6-5.5-14.4c-4.1-2.7-9.7-1.6-12.4,2.5S209.4,387.5,213.5,390.3z"/>
	<path d="M278.5,364.7c-2.4,5.3-10,9.9-15.2,7.6c-5.3-2.4-6.2-10.9-3.9-16.2c2.4-5.3,8.6-7.6,13.9-5.3
		C278.5,353.2,280.8,359.4,278.5,364.7z"/>
	<path d="M292.9,390.3c-4.1,2.7-12.7,3.6-15.4-0.6c-2.7-4.1,1.4-11.6,5.5-14.4c4.1-2.7,9.7-1.6,12.4,2.5
		C298.2,382,297.1,387.5,292.9,390.3z"/>
</g>
<path class="st84" d="M388.7,241.3c-3.6,3.1-7.4,6.8-11,11c-13.5,15.8-19.3,32.6-22.1,44.2c-2.7-11.5-8.6-28.4-22.1-44.2
	c-3.7-4.3-7.4-7.9-11-11c3.6-3.1,7.4-6.8,11-11c13.5-15.8,19.3-32.6,22.1-44.2c2.7,11.5,8.6,28.4,22.1,44.2
	C381.3,234.5,385.1,238.2,388.7,241.3z"/>
<path class="st84" d="M435,202.7c-2.5,2.2-5.2,4.7-7.7,7.7c-9.4,11-13.5,22.8-15.4,30.9c-1.9-8.1-6-19.8-15.4-30.9
	c-2.6-3-5.2-5.5-7.7-7.7c2.5-2.2,5.2-4.7,7.7-7.7c9.4-11,13.5-22.8,15.4-30.9c1.9,8.1,6,19.8,15.4,30.9
	C429.8,198,432.4,200.6,435,202.7z"/>
</svg>
