<?xml version="1.0" encoding="utf-8"?>
<!-- Generator: Adobe Illustrator 21.1.0, SVG Export Plug-In . SVG Version: 6.00 Build 0)  -->
<svg version="1.1" id="Layer_1" xmlns="http://www.w3.org/2000/svg" xmlns:xlink="http://www.w3.org/1999/xlink" x="0px" y="0px"
	 viewBox="0 0 512 512" style="enable-background:new 0 0 512 512;" xml:space="preserve">
<style type="text/css">
	.st0{fill:#F4C245;}
	.st1{fill:none;stroke:#000000;stroke-width:11;stroke-linecap:round;stroke-linejoin:round;stroke-miterlimit:10;}
	.st2{fill:#FCD259;}
	.st3{fill:#F4C245;stroke:#000000;stroke-width:11;stroke-linecap:round;stroke-miterlimit:10;}
	.st4{fill:#48D5BF;}
	.st5{fill:#26C6A7;}
	.st6{fill:none;stroke:#000000;stroke-width:11;stroke-linecap:round;stroke-miterlimit:10;}
	.st7{fill:none;stroke:#000000;stroke-width:11;stroke-miterlimit:10;}
	.st8{fill:#FD4347;}
	.st9{fill:#EF3043;}
	.st10{fill:#F97A48;}
	.st11{fill:#EF5F37;}
	.st12{fill:#F97A48;stroke:#000000;stroke-width:11;stroke-miterlimit:10;}
	.st13{fill:#4BBC32;}
	.st14{fill:#31AA0F;}
	.st15{fill:#C6EBF4;}
	.st16{fill:#AEE4ED;}
	.st17{fill:#53ADFC;stroke:#000000;stroke-width:11;stroke-miterlimit:10;}
	.st18{fill:#FFDA00;}
	.st19{fill:#EFC700;}
	.st20{fill:#FFDA00;stroke:#000000;stroke-width:11;stroke-miterlimit:10;}
	.st21{fill:#FFBCA4;stroke:#000000;stroke-width:11;stroke-miterlimit:10;}
	.st22{fill:#53ADFC;}
	.st23{fill:#B9D6ED;stroke:#000000;stroke-width:11;stroke-miterlimit:10;}
	.st24{fill:#24A1ED;}
	.st25{fill:none;stroke:#000000;stroke-miterlimit:10;}
	.st26{fill:#F95594;stroke:#000000;stroke-width:11;stroke-miterlimit:10;}
	.st27{fill:#24A1ED;stroke:#000000;stroke-width:11;stroke-miterlimit:10;}
	.st28{fill:#FF6C9D;}
	.st29{fill:#F95594;}
	.st30{fill:#4B5B6D;}
	.st31{fill:#3E5366;}
	.st32{fill:#FFDA00;stroke:#000000;stroke-width:5;stroke-miterlimit:10;}
	.st33{fill:#85AFDD;stroke:#000000;stroke-width:11;stroke-miterlimit:10;}
	.st34{fill:#FFA071;stroke:#1D1D1B;stroke-width:11;stroke-miterlimit:10;}
	.st35{fill:#FFFFFF;stroke:#1D1D1B;stroke-width:11;stroke-miterlimit:10;}
	.st36{fill:#FFDC64;}
	.st37{fill:#1D1D1B;}
	.st38{fill:#FF6C9D;stroke:#1D1D1B;stroke-width:11;stroke-miterlimit:10;}
	.st39{fill:#6FCEA6;}
	.st40{fill:#C6EBF4;stroke:#000000;stroke-width:11;stroke-miterlimit:10;}
	.st41{fill:#C6EBF4;stroke:#1D1D1B;stroke-width:11;stroke-miterlimit:10;}
	.st42{fill:#53C48E;}
	.st43{fill:#48D5BF;stroke:#000000;stroke-width:11;stroke-miterlimit:10;}
	.st44{fill:#FFFFFF;stroke:#000000;stroke-width:11;stroke-miterlimit:10;}
	.st45{fill:#AEE4ED;stroke:#1D1D1B;stroke-width:11;stroke-miterlimit:10;}
	.st46{stroke:#1D1D1B;stroke-width:11;stroke-miterlimit:10;}
	.st47{fill:#FFA071;}
	.st48{fill:#53ADFC;stroke:#1D1D1B;stroke-width:11;stroke-miterlimit:10;}
	.st49{fill:#31AA0F;stroke:#000000;stroke-width:11;stroke-miterlimit:10;}
	.st50{fill:#4BBC32;stroke:#000000;stroke-width:11;stroke-miterlimit:10;}
	.st51{fill:#EA3106;}
	.st52{fill:#DD0E2C;}
	.st53{fill:#F22F7E;}
	.st54{fill:#FCD259;stroke:#000000;stroke-width:11;stroke-miterlimit:10;}
	.st55{fill:#FD4347;stroke:#000000;stroke-width:11;stroke-miterlimit:10;}
	.st56{fill:#FCB439;}
	.st57{fill:#F43842;}
	.st58{fill:#178DFB;}
	.st59{fill:#32AF14;}
	.st60{fill:#F97A48;stroke:#000000;stroke-width:11;stroke-linecap:round;stroke-linejoin:round;stroke-miterlimit:10;}
	.st61{fill:#FFDA00;stroke:#1D1D1B;stroke-width:11.1327;stroke-miterlimit:10;}
	.st62{fill:#FCB439;stroke:#FFFFFF;stroke-width:14.5517;stroke-miterlimit:10;}
	.st63{fill:#FFFFFF;}
	.st64{clip-path:url(#SVGID_2_);}
	.st65{fill:#D8D8D8;}
	.st66{clip-path:url(#SVGID_4_);}
	.st67{clip-path:url(#SVGID_6_);}
	.st68{fill:#999999;stroke:#FFFFFF;stroke-width:14.5517;stroke-miterlimit:10;}
	.st69{clip-path:url(#SVGID_8_);}
	.st70{clip-path:url(#SVGID_10_);}
	.st71{fill:#EA461F;}
	.st72{clip-path:url(#SVGID_12_);}
	.st73{fill:#C41820;}
	.st74{clip-path:url(#SVGID_14_);}
	.st75{fill:#075492;}
	.st76{fill:#003662;}
	.st77{clip-path:url(#SVGID_16_);}
	.st78{clip-path:url(#SVGID_18_);}
	.st79{clip-path:url(#SVGID_20_);}
	.st80{clip-path:url(#SVGID_22_);}
	.st81{fill:#DDDDDD;}
	.st82{fill:none;stroke:#1D1D1B;stroke-width:11;stroke-linecap:round;stroke-linejoin:round;stroke-miterlimit:10;}
	.st83{fill:none;stroke:#1D1D1B;stroke-width:11.6468;stroke-linecap:round;stroke-linejoin:round;stroke-miterlimit:10;}
	.st84{fill:#C6EBF4;stroke:#1D1D1B;stroke-width:11;stroke-linecap:round;stroke-linejoin:round;stroke-miterlimit:10;}
</style>
<path class="st28" d="M332,469.8H73.7c-7,0-12.6-5.6-12.6-12.6V63.1c0-7,5.6-12.6,12.6-12.6H332c7,0,12.6,5.6,12.6,12.6v394.2
	C344.6,464.2,338.9,469.8,332,469.8z"/>
<path class="st35" d="M289.4,216.4H128.2c-7.3,0-13.1-5.9-13.1-13.1v-94c0-7.3,5.9-13.1,13.1-13.1h161.2c7.3,0,13.1,5.9,13.1,13.1
	v94C302.5,210.5,296.6,216.4,289.4,216.4z"/>
<path class="st10" d="M404.6,97.1V68.8c0-7.9,6.4-14.4,14.4-14.4h6c7.9,0,14.4,6.4,14.4,14.4v332.3L422,460.5l-17.4-59.3
	C404.6,401.2,404.6,189.7,404.6,97.1z"/>
<polygon class="st2" points="404.6,399 420.2,454.2 439.4,399 425,387 413.5,387 "/>
<path class="st7" d="M439.4,394.6L425,387c-1.9-1-4.1-1-6,0l-14.4,7.6"/>
<rect x="404.6" y="102.1" class="st22" width="34.8" height="20"/>
<rect x="404.6" y="55.8" class="st28" width="34.8" height="44"/>
<line class="st35" x1="404.6" y1="102.1" x2="439.4" y2="102.1"/>
<line class="st35" x1="404.6" y1="122.1" x2="439.4" y2="122.1"/>
<path class="st7" d="M404.6,97.1V68.8c0-7.9,6.4-14.4,14.4-14.4h6c7.9,0,14.4,6.4,14.4,14.4v332.3L422,460.5l-17.4-59.3
	C404.6,401.2,404.6,189.7,404.6,97.1z"/>
<line class="st7" x1="422" y1="135.8" x2="422" y2="367.8"/>
<path class="st37" d="M413.3,429.6c5.2-3.1,11.1-2.6,17.3,0l-9.9,29.4L413.3,429.6z"/>
<rect x="322" y="50.5" class="st29" width="22.5" height="419.4"/>
<path class="st7" d="M332,469.8H73.7c-7,0-12.6-5.6-12.6-12.6V63.1c0-7,5.6-12.6,12.6-12.6H332c7,0,12.6,5.6,12.6,12.6v394.2
	C344.6,464.2,338.9,469.8,332,469.8z"/>
<rect x="47" y="50.5" class="st38" width="27" height="419.4"/>
</svg>
