<?xml version="1.0" encoding="utf-8"?>
<!-- Generator: Adobe Illustrator 21.1.0, SVG Export Plug-In . SVG Version: 6.00 Build 0)  -->
<svg version="1.1" id="Layer_1" xmlns="http://www.w3.org/2000/svg" xmlns:xlink="http://www.w3.org/1999/xlink" x="0px" y="0px"
	 viewBox="0 0 512 512" style="enable-background:new 0 0 512 512;" xml:space="preserve">
<style type="text/css">
	.st0{fill:#F4C245;}
	.st1{fill:none;stroke:#000000;stroke-width:11;stroke-linecap:round;stroke-linejoin:round;stroke-miterlimit:10;}
	.st2{fill:#FCD259;}
	.st3{fill:#F4C245;stroke:#000000;stroke-width:11;stroke-linecap:round;stroke-miterlimit:10;}
	.st4{fill:#48D5BF;}
	.st5{fill:#26C6A7;}
	.st6{fill:none;stroke:#000000;stroke-width:11;stroke-linecap:round;stroke-miterlimit:10;}
	.st7{fill:none;stroke:#000000;stroke-width:11;stroke-miterlimit:10;}
	.st8{fill:#FD4347;}
	.st9{fill:#EF3043;}
	.st10{fill:#F97A48;}
	.st11{fill:#EF5F37;}
	.st12{fill:#F97A48;stroke:#000000;stroke-width:11;stroke-miterlimit:10;}
	.st13{fill:#4BBC32;}
	.st14{fill:#31AA0F;}
	.st15{fill:#C6EBF4;}
	.st16{fill:#AEE4ED;}
	.st17{fill:#53ADFC;stroke:#000000;stroke-width:11;stroke-miterlimit:10;}
	.st18{fill:#FFDA00;}
	.st19{fill:#EFC700;}
	.st20{fill:#FFDA00;stroke:#000000;stroke-width:11;stroke-miterlimit:10;}
	.st21{fill:#FFBCA4;stroke:#000000;stroke-width:11;stroke-miterlimit:10;}
	.st22{fill:#53ADFC;}
	.st23{fill:#B9D6ED;stroke:#000000;stroke-width:11;stroke-miterlimit:10;}
	.st24{fill:#24A1ED;}
	.st25{fill:none;stroke:#000000;stroke-miterlimit:10;}
	.st26{fill:#F95594;stroke:#000000;stroke-width:11;stroke-miterlimit:10;}
	.st27{fill:#24A1ED;stroke:#000000;stroke-width:11;stroke-miterlimit:10;}
	.st28{fill:#FF6C9D;}
	.st29{fill:#F95594;}
	.st30{fill:#4B5B6D;}
	.st31{fill:#3E5366;}
	.st32{fill:#FFDA00;stroke:#000000;stroke-width:5;stroke-miterlimit:10;}
	.st33{fill:#85AFDD;stroke:#000000;stroke-width:11;stroke-miterlimit:10;}
	.st34{fill:#FFA071;stroke:#1D1D1B;stroke-width:11;stroke-miterlimit:10;}
	.st35{fill:#FFFFFF;stroke:#1D1D1B;stroke-width:11;stroke-miterlimit:10;}
	.st36{fill:#FFDC64;}
	.st37{fill:#1D1D1B;}
	.st38{fill:#FF6C9D;stroke:#1D1D1B;stroke-width:11;stroke-miterlimit:10;}
	.st39{fill:#6FCEA6;}
	.st40{fill:#C6EBF4;stroke:#000000;stroke-width:11;stroke-miterlimit:10;}
	.st41{fill:#C6EBF4;stroke:#1D1D1B;stroke-width:11;stroke-miterlimit:10;}
	.st42{fill:#53C48E;}
	.st43{fill:#48D5BF;stroke:#000000;stroke-width:11;stroke-miterlimit:10;}
	.st44{fill:#FFFFFF;stroke:#000000;stroke-width:11;stroke-miterlimit:10;}
	.st45{fill:#AEE4ED;stroke:#1D1D1B;stroke-width:11;stroke-miterlimit:10;}
	.st46{stroke:#1D1D1B;stroke-width:11;stroke-miterlimit:10;}
	.st47{fill:#FFA071;}
	.st48{fill:#53ADFC;stroke:#1D1D1B;stroke-width:11;stroke-miterlimit:10;}
	.st49{fill:#31AA0F;stroke:#000000;stroke-width:11;stroke-miterlimit:10;}
	.st50{fill:#4BBC32;stroke:#000000;stroke-width:11;stroke-miterlimit:10;}
	.st51{fill:#EA3106;}
	.st52{fill:#DD0E2C;}
	.st53{fill:#F22F7E;}
	.st54{fill:#FCD259;stroke:#000000;stroke-width:11;stroke-miterlimit:10;}
	.st55{fill:#FD4347;stroke:#000000;stroke-width:11;stroke-miterlimit:10;}
	.st56{fill:#FCB439;}
	.st57{fill:#F43842;}
	.st58{fill:#178DFB;}
	.st59{fill:#32AF14;}
	.st60{fill:#F97A48;stroke:#000000;stroke-width:11;stroke-linecap:round;stroke-linejoin:round;stroke-miterlimit:10;}
	.st61{fill:#FFDA00;stroke:#1D1D1B;stroke-width:11.1327;stroke-miterlimit:10;}
	.st62{fill:#FCB439;stroke:#FFFFFF;stroke-width:14.5517;stroke-miterlimit:10;}
	.st63{fill:#FFFFFF;}
	.st64{clip-path:url(#SVGID_2_);}
	.st65{fill:#D8D8D8;}
	.st66{clip-path:url(#SVGID_4_);}
	.st67{clip-path:url(#SVGID_6_);}
	.st68{fill:#999999;stroke:#FFFFFF;stroke-width:14.5517;stroke-miterlimit:10;}
	.st69{clip-path:url(#SVGID_8_);}
	.st70{clip-path:url(#SVGID_10_);}
	.st71{fill:#EA461F;}
	.st72{clip-path:url(#SVGID_12_);}
	.st73{fill:#C41820;}
	.st74{clip-path:url(#SVGID_14_);}
	.st75{fill:#075492;}
	.st76{fill:#003662;}
	.st77{clip-path:url(#SVGID_16_);}
	.st78{clip-path:url(#SVGID_18_);}
	.st79{clip-path:url(#SVGID_20_);}
	.st80{clip-path:url(#SVGID_22_);}
	.st81{fill:#DDDDDD;}
	.st82{fill:none;stroke:#1D1D1B;stroke-width:11;stroke-linecap:round;stroke-linejoin:round;stroke-miterlimit:10;}
	.st83{fill:none;stroke:#1D1D1B;stroke-width:11.6468;stroke-linecap:round;stroke-linejoin:round;stroke-miterlimit:10;}
	.st84{fill:#C6EBF4;stroke:#1D1D1B;stroke-width:11;stroke-linecap:round;stroke-linejoin:round;stroke-miterlimit:10;}
</style>
<path class="st18" d="M457.4,255H64.1v-22.9c0-8.8,7.2-16,16-16h361.3c8.8,0,16,7.2,16,16V255z"/>
<path class="st19" d="M457.4,255h-19v-34.9c0-2.2,1.8-4,4-4h11c2.2,0,4,1.8,4,4V255z"/>
<rect x="24.6" y="255" class="st10" width="472.4" height="90.4"/>
<path class="st12" d="M38.9,147.3h-5.6c-4.8,0-8.7,3.9-8.7,8.7v98.6h23V156C47.6,151.2,43.7,147.3,38.9,147.3z"/>
<rect x="24.6" y="345.4" class="st12" width="35.4" height="40.2"/>
<rect x="461.7" y="345.4" class="st10" width="35.4" height="40.2"/>
<path class="st47" d="M488.3,210.6h-5.6c-4.8,0-8.7,3.9-8.7,8.7v35.3h23v-35.3C497,214.5,493.1,210.6,488.3,210.6z"/>
<rect x="476.9" y="210.6" class="st11" width="20.1" height="172.6"/>
<rect x="252.4" y="100.7" transform="matrix(-1.836970e-16 1 -1 -1.836970e-16 597.7745 72.8588)" class="st11" width="20.1" height="469.1"/>
<rect x="24.6" y="255" class="st7" width="472.4" height="90.4"/>
<rect x="461.7" y="345.4" class="st7" width="35.4" height="40.2"/>
<path class="st7" d="M488.3,210.6h-5.6c-4.8,0-8.7,3.9-8.7,8.7v35.3h23v-35.3C497,214.5,493.1,210.6,488.3,210.6z"/>
<path class="st7" d="M457.4,255H64.1v-22.9c0-8.8,7.2-16,16-16h361.3c8.8,0,16,7.2,16,16V255z"/>
<rect x="107.2" y="216.1" class="st43" width="307.1" height="90.4"/>
<rect x="393.2" y="216.1" class="st5" width="21.1" height="88.3"/>
<rect x="107.2" y="216.1" class="st7" width="307.1" height="90.4"/>
<path class="st48" d="M168.9,219.7h-68.7c-4.5,0-8.1-3.6-8.1-8.1v-21.1c0-4.5,1.8-6.8,8.1-8.1c22.9-4.1,45.8-4.1,68.7,0
	c6.3,2.1,8.1,3.6,8.1,8.1v21.1C177,216.1,173.4,219.7,168.9,219.7z"/>
</svg>
