<?xml version="1.0" encoding="utf-8"?>
<!-- Generator: Adobe Illustrator 21.1.0, SVG Export Plug-In . SVG Version: 6.00 Build 0)  -->
<svg version="1.1" id="Layer_1" xmlns="http://www.w3.org/2000/svg" xmlns:xlink="http://www.w3.org/1999/xlink" x="0px" y="0px"
	 viewBox="0 0 512 512" style="enable-background:new 0 0 512 512;" xml:space="preserve">
<style type="text/css">
	.st0{fill:#F4C245;}
	.st1{fill:none;stroke:#000000;stroke-width:11;stroke-linecap:round;stroke-linejoin:round;stroke-miterlimit:10;}
	.st2{fill:#FCD259;}
	.st3{fill:#F4C245;stroke:#000000;stroke-width:11;stroke-linecap:round;stroke-miterlimit:10;}
	.st4{fill:#48D5BF;}
	.st5{fill:#26C6A7;}
	.st6{fill:none;stroke:#000000;stroke-width:11;stroke-linecap:round;stroke-miterlimit:10;}
	.st7{fill:none;stroke:#000000;stroke-width:11;stroke-miterlimit:10;}
	.st8{fill:#FD4347;}
	.st9{fill:#EF3043;}
	.st10{fill:#F97A48;}
	.st11{fill:#EF5F37;}
	.st12{fill:#F97A48;stroke:#000000;stroke-width:11;stroke-miterlimit:10;}
	.st13{fill:#4BBC32;}
	.st14{fill:#31AA0F;}
	.st15{fill:#C6EBF4;}
	.st16{fill:#AEE4ED;}
	.st17{fill:#53ADFC;stroke:#000000;stroke-width:11;stroke-miterlimit:10;}
	.st18{fill:#FFDA00;}
	.st19{fill:#EFC700;}
	.st20{fill:#FFDA00;stroke:#000000;stroke-width:11;stroke-miterlimit:10;}
	.st21{fill:#FFBCA4;stroke:#000000;stroke-width:11;stroke-miterlimit:10;}
	.st22{fill:#53ADFC;}
	.st23{fill:#B9D6ED;stroke:#000000;stroke-width:11;stroke-miterlimit:10;}
	.st24{fill:#24A1ED;}
	.st25{fill:none;stroke:#000000;stroke-miterlimit:10;}
	.st26{fill:#F95594;stroke:#000000;stroke-width:11;stroke-miterlimit:10;}
	.st27{fill:#24A1ED;stroke:#000000;stroke-width:11;stroke-miterlimit:10;}
	.st28{fill:#FF6C9D;}
	.st29{fill:#F95594;}
	.st30{fill:#4B5B6D;}
	.st31{fill:#3E5366;}
	.st32{fill:#FFDA00;stroke:#000000;stroke-width:5;stroke-miterlimit:10;}
	.st33{fill:#85AFDD;stroke:#000000;stroke-width:11;stroke-miterlimit:10;}
	.st34{fill:#FFA071;stroke:#1D1D1B;stroke-width:11;stroke-miterlimit:10;}
	.st35{fill:#FFFFFF;stroke:#1D1D1B;stroke-width:11;stroke-miterlimit:10;}
	.st36{fill:#FFDC64;}
	.st37{fill:#1D1D1B;}
	.st38{fill:#FF6C9D;stroke:#1D1D1B;stroke-width:11;stroke-miterlimit:10;}
	.st39{fill:#6FCEA6;}
	.st40{fill:#C6EBF4;stroke:#000000;stroke-width:11;stroke-miterlimit:10;}
	.st41{fill:#C6EBF4;stroke:#1D1D1B;stroke-width:11;stroke-miterlimit:10;}
	.st42{fill:#53C48E;}
	.st43{fill:#48D5BF;stroke:#000000;stroke-width:11;stroke-miterlimit:10;}
	.st44{fill:#FFFFFF;stroke:#000000;stroke-width:11;stroke-miterlimit:10;}
	.st45{fill:#AEE4ED;stroke:#1D1D1B;stroke-width:11;stroke-miterlimit:10;}
	.st46{stroke:#1D1D1B;stroke-width:11;stroke-miterlimit:10;}
	.st47{fill:#FFA071;}
	.st48{fill:#53ADFC;stroke:#1D1D1B;stroke-width:11;stroke-miterlimit:10;}
	.st49{fill:#31AA0F;stroke:#000000;stroke-width:11;stroke-miterlimit:10;}
	.st50{fill:#4BBC32;stroke:#000000;stroke-width:11;stroke-miterlimit:10;}
	.st51{fill:#EA3106;}
	.st52{fill:#DD0E2C;}
	.st53{fill:#F22F7E;}
	.st54{fill:#FCD259;stroke:#000000;stroke-width:11;stroke-miterlimit:10;}
	.st55{fill:#FD4347;stroke:#000000;stroke-width:11;stroke-miterlimit:10;}
	.st56{fill:#FCB439;}
	.st57{fill:#F43842;}
	.st58{fill:#178DFB;}
	.st59{fill:#32AF14;}
	.st60{fill:#F97A48;stroke:#000000;stroke-width:11;stroke-linecap:round;stroke-linejoin:round;stroke-miterlimit:10;}
	.st61{fill:#FFDA00;stroke:#1D1D1B;stroke-width:11.1327;stroke-miterlimit:10;}
	.st62{fill:#FCB439;stroke:#FFFFFF;stroke-width:14.5517;stroke-miterlimit:10;}
	.st63{fill:#FFFFFF;}
	.st64{clip-path:url(#SVGID_2_);}
	.st65{fill:#D8D8D8;}
	.st66{clip-path:url(#SVGID_4_);}
	.st67{clip-path:url(#SVGID_6_);}
	.st68{fill:#999999;stroke:#FFFFFF;stroke-width:14.5517;stroke-miterlimit:10;}
	.st69{clip-path:url(#SVGID_8_);}
	.st70{clip-path:url(#SVGID_10_);}
	.st71{fill:#EA461F;}
	.st72{clip-path:url(#SVGID_12_);}
	.st73{fill:#C41820;}
	.st74{clip-path:url(#SVGID_14_);}
	.st75{fill:#075492;}
	.st76{fill:#003662;}
	.st77{clip-path:url(#SVGID_16_);}
	.st78{clip-path:url(#SVGID_18_);}
	.st79{clip-path:url(#SVGID_20_);}
	.st80{clip-path:url(#SVGID_22_);}
	.st81{fill:#DDDDDD;}
	.st82{fill:none;stroke:#1D1D1B;stroke-width:11;stroke-linecap:round;stroke-linejoin:round;stroke-miterlimit:10;}
	.st83{fill:none;stroke:#1D1D1B;stroke-width:11.6468;stroke-linecap:round;stroke-linejoin:round;stroke-miterlimit:10;}
	.st84{fill:#C6EBF4;stroke:#1D1D1B;stroke-width:11;stroke-linecap:round;stroke-linejoin:round;stroke-miterlimit:10;}
</style>
<g>
	<path class="st10" d="M420.3,153.6c-4.9,0-9.5,0.9-13.9,2.5c-3.5-18.1-19.5-31.8-38.7-31.8c-4.8,0-9.3,0.8-13.6,2.4
		c-2.5-19.3-19-34.2-39.1-34.2c-8.9,0-17.1,3-23.7,7.9c-6.4-13.1-19.9-22.2-35.4-22.2s-29.1,9.1-35.4,22.2c-6.6-5-14.8-7.9-23.7-7.9
		c-20,0-36.5,14.9-39.1,34.2c-4.2-1.6-8.8-2.4-13.6-2.4c-19.2,0-35.1,13.7-38.7,31.8c-4.3-1.6-9-2.5-13.9-2.5
		c-21.8,0-45.3,44.3,17,74.9c30.8,16.2,85.2,27,147.3,27s116.5-10.8,147.3-27C465.6,197.9,442.1,153.6,420.3,153.6z"/>
</g>
<g>
	<path class="st11" d="M347.5,135.7c0.9-0.3,0.7-0.8,2.2-1.5c0-23.2-14.4-37.5-37.6-37.5c-3.8,0-18.9,4.9-22.6,11.6
		C324.3,102.1,338.2,112.6,347.5,135.7z"/>
	<path class="st11" d="M398.8,165.2c1.5-0.6,2.4-1.3,4.8-2.3c-4-25.1-21-34-40-34c-3.8,0-13.1,3.7-16.1,6.9
		C378.4,139,388.2,144.2,398.8,165.2z"/>
	<path class="st11" d="M419.8,157.7c-4.6,0-17.3,5.2-21,7.5c30.1,8.9,42.6,40.2-11.2,66.3c-29,15-89.3,25.4-146.7,26.6
		c3.6,0.1,7.3,0.1,11,0.1c62.1,0,116.5-10.6,147.3-26.6C461.3,201.3,441.5,157.7,419.8,157.7z"/>
</g>
<path class="st13" d="M478.9,319.1c-6.8-39.5-34.3-93.8-44.9-113.6c-6.3,7.9-16.2,15.9-30.8,23c0,0,0,0,0,0c-2.9,1.5-5.9,3-9.2,4.4
	c0,0-0.1,0-0.1,0.1c-3.2,1.4-6.7,2.8-10.3,4c-0.1,0-0.1,0-0.2,0.1c-1.2,0.4-2.3,0.8-3.5,1.2c0,0-0.1,0-0.1,0
	c-2.5,0.8-5.1,1.7-7.7,2.4c0,0-0.1,0-0.1,0c-1.2,0.4-2.5,0.7-3.8,1.1c-0.1,0-0.3,0.1-0.4,0.1c-4,1.1-8.1,2.2-12.4,3.2
	c-0.2,0-0.4,0.1-0.6,0.1c-1.3,0.3-2.6,0.6-3.8,0.9c-0.2,0-0.3,0.1-0.5,0.1c-2.9,0.6-5.9,1.2-8.9,1.8c-0.2,0-0.5,0.1-0.7,0.1
	c-1.3,0.2-2.5,0.5-3.8,0.7c-0.3,0.1-0.6,0.1-0.9,0.2c-1.5,0.3-2.9,0.5-4.4,0.7c0,0,0,0-0.1,0c-1.6,0.3-3.2,0.5-4.8,0.7
	c-0.2,0-0.5,0.1-0.7,0.1c-1.3,0.2-2.6,0.4-3.9,0.6c-0.4,0.1-0.8,0.1-1.2,0.2c-1.3,0.2-2.6,0.3-3.9,0.5c-0.3,0-0.6,0.1-0.9,0.1
	c-1.6,0.2-3.2,0.4-4.9,0.6c-0.1,0-0.2,0-0.3,0c-1.5,0.2-3,0.3-4.5,0.5c-0.4,0-0.9,0.1-1.3,0.1c-1.2,0.1-2.5,0.2-3.7,0.3
	c-0.4,0-0.9,0.1-1.3,0.1c-1.5,0.1-3.1,0.3-4.7,0.4c-0.1,0-0.2,0-0.3,0c-1.7,0.1-3.3,0.2-5,0.4c-0.4,0-0.9,0.1-1.3,0.1
	c-1.2,0.1-2.5,0.2-3.8,0.2c-0.5,0-1.1,0.1-1.6,0.1c-1.3,0.1-2.6,0.1-3.9,0.2c-0.4,0-0.8,0-1.2,0.1c-1.7,0.1-3.4,0.1-5.1,0.2
	c-0.4,0-0.7,0-1.1,0c-1.4,0-2.8,0.1-4.1,0.1c-0.6,0-1.1,0-1.7,0c-1.3,0-2.5,0-3.8,0.1c-0.5,0-1,0-1.6,0c-1.7,0-3.5,0-5.3,0
	c-1.8,0-3.5,0-5.3,0c-0.5,0-1,0-1.6,0c-1.3,0-2.5,0-3.8-0.1c-0.6,0-1.1,0-1.7,0c-1.4,0-2.8-0.1-4.1-0.1c-0.3,0-0.7,0-1.1,0
	c-1.7-0.1-3.4-0.1-5.1-0.2c-0.4,0-0.8,0-1.2-0.1c-1.3-0.1-2.6-0.1-3.9-0.2c-0.5,0-1.1-0.1-1.6-0.1c-1.3-0.1-2.5-0.1-3.8-0.2
	c-0.4,0-0.9-0.1-1.3-0.1c-1.7-0.1-3.4-0.2-5-0.4c-0.1,0-0.2,0-0.3,0c-1.6-0.1-3.1-0.3-4.7-0.4c-0.4,0-0.9-0.1-1.3-0.1
	c-1.2-0.1-2.5-0.2-3.7-0.3c-0.4,0-0.9-0.1-1.3-0.1c-1.5-0.2-3-0.3-4.5-0.5c-0.1,0-0.2,0-0.3,0c-1.6-0.2-3.3-0.4-4.9-0.6
	c-0.3,0-0.6-0.1-0.9-0.1c-1.3-0.2-2.6-0.3-3.9-0.5c-0.4-0.1-0.8-0.1-1.2-0.2c-1.3-0.2-2.6-0.4-3.9-0.6c-0.2,0-0.5-0.1-0.7-0.1
	c-1.6-0.2-3.2-0.5-4.7-0.7c0,0-0.1,0-0.1,0c-1.5-0.2-3-0.5-4.4-0.7c-0.3-0.1-0.6-0.1-0.9-0.2c-1.3-0.2-2.5-0.5-3.8-0.7
	c-0.2,0-0.5-0.1-0.7-0.1c-3-0.6-6-1.2-8.9-1.8c-0.1,0-0.3-0.1-0.4-0.1c-1.3-0.3-2.6-0.6-3.9-0.9c-0.2,0-0.4-0.1-0.6-0.1
	c-4.3-1-8.4-2-12.4-3.2c-0.1,0-0.3-0.1-0.4-0.1c-1.3-0.4-2.5-0.7-3.8-1.1c0,0-0.1,0-0.1,0c-2.6-0.8-5.2-1.6-7.7-2.4c0,0-0.1,0-0.1,0
	c-1.2-0.4-2.4-0.8-3.5-1.2c-0.1,0-0.1,0-0.2-0.1c-3.6-1.3-7-2.6-10.3-4c0,0-0.1,0-0.1-0.1c-3.3-1.4-6.3-2.9-9.2-4.4c0,0,0,0,0,0
	c-14.6-7.2-24.5-15.1-30.8-23c-10.6,19.9-38.2,74.4-45,114c-0.8,3.3-1.3,6.7-1.3,10c-0.1,0.8,0,1.6,0.1,2.4
	c3,51,102.3,91.9,224.2,91.9c122.3,0,221.7-41.1,224.2-92.3c0-0.5,0.1-0.9,0-1.4c0-0.2,0-0.4,0-0.6
	C480.3,326,479.8,322.5,478.9,319.1z"/>
<path class="st14" d="M478.9,319.1c-6.8-39.5-34.3-93.8-44.9-113.6c-3.7,4.6-8.5,9.2-14.8,13.7c12.7,25.1,32.2,67.5,37.8,99.9
	c0.9,3.4,1.4,6.9,1.4,10.4c0,0.2,0,0.4,0,0.6c0,0.5,0,0.9,0,1.4c-2.4,49.6-96.1,89.8-213.3,92.2c3.6,0.1,7.3,0.1,11,0.1
	c122.3,0,221.7-41.1,224.2-92.3c0-0.5,0.1-0.9,0-1.4c0-0.2,0-0.4,0-0.6C480.3,326,479.8,322.5,478.9,319.1z"/>
<g>
	<path class="st44" d="M256.1,342.7c0,0-0.2,0-0.3,0c-19.7,0-39.2,41.2-26.6,47.1c5.5,2.6,11.3,2.2,16,1c3.5-0.9,7.1-1.3,10.7-1.3
		c3.6,0,7.2,0.4,10.7,1.3c4.7,1.2,10.5,1.5,16-1C295.4,383.8,275.8,342.7,256.1,342.7z"/>
	<path class="st44" d="M214.9,313.8c3.9,8.6,16.2,16.2,24.8,12.3c8.6-3.9,10.2-17.7,6.3-26.3c-3.9-8.6-14-12.4-22.6-8.6
		C214.9,295.1,211.1,305.2,214.9,313.8z"/>
	<path class="st44" d="M191.4,355.5c6.7,4.5,20.7,5.8,25.1-0.9c4.5-6.7-2.2-19-9-23.4s-15.8-2.6-20.2,4.1
		C182.8,342,184.6,351.1,191.4,355.5z"/>
	<path class="st44" d="M297.1,313.8c-3.9,8.6-16.2,16.2-24.8,12.3c-8.6-3.9-10.2-17.7-6.3-26.3c3.9-8.6,14-12.4,22.6-8.6
		C297.1,295.1,300.9,305.2,297.1,313.8z"/>
	<path class="st44" d="M320.6,355.5c-6.7,4.5-20.7,5.8-25.1-0.9s2.2-19,9-23.4c6.7-4.5,15.8-2.6,20.2,4.1
		C329.2,342,327.4,351.1,320.6,355.5z"/>
</g>
<path class="st7" d="M478.9,319.1c-6.8-39.5-34.3-93.8-44.9-113.6c-6.3,7.9-16.2,15.9-30.8,23c0,0,0,0,0,0c-2.9,1.5-5.9,3-9.2,4.4
	c0,0-0.1,0-0.1,0.1c-3.2,1.4-6.7,2.8-10.3,4c-0.1,0-0.1,0-0.2,0.1c-1.2,0.4-2.3,0.8-3.5,1.2c0,0-0.1,0-0.1,0
	c-2.5,0.8-5.1,1.7-7.7,2.4c0,0-0.1,0-0.1,0c-1.2,0.4-2.5,0.7-3.8,1.1c-0.1,0-0.3,0.1-0.4,0.1c-4,1.1-8.1,2.2-12.4,3.2
	c-0.2,0-0.4,0.1-0.6,0.1c-1.3,0.3-2.6,0.6-3.8,0.9c-0.2,0-0.3,0.1-0.5,0.1c-2.9,0.6-5.9,1.2-8.9,1.8c-0.2,0-0.5,0.1-0.7,0.1
	c-1.3,0.2-2.5,0.5-3.8,0.7c-0.3,0.1-0.6,0.1-0.9,0.2c-1.5,0.3-2.9,0.5-4.4,0.7c0,0,0,0-0.1,0c-1.6,0.3-3.2,0.5-4.8,0.7
	c-0.2,0-0.5,0.1-0.7,0.1c-1.3,0.2-2.6,0.4-3.9,0.6c-0.4,0.1-0.8,0.1-1.2,0.2c-1.3,0.2-2.6,0.3-3.9,0.5c-0.3,0-0.6,0.1-0.9,0.1
	c-1.6,0.2-3.2,0.4-4.9,0.6c-0.1,0-0.2,0-0.3,0c-1.5,0.2-3,0.3-4.5,0.5c-0.4,0-0.9,0.1-1.3,0.1c-1.2,0.1-2.5,0.2-3.7,0.3
	c-0.4,0-0.9,0.1-1.3,0.1c-1.5,0.1-3.1,0.3-4.7,0.4c-0.1,0-0.2,0-0.3,0c-1.7,0.1-3.3,0.2-5,0.4c-0.4,0-0.9,0.1-1.3,0.1
	c-1.2,0.1-2.5,0.2-3.8,0.2c-0.5,0-1.1,0.1-1.6,0.1c-1.3,0.1-2.6,0.1-3.9,0.2c-0.4,0-0.8,0-1.2,0.1c-1.7,0.1-3.4,0.1-5.1,0.2
	c-0.4,0-0.7,0-1.1,0c-1.4,0-2.8,0.1-4.1,0.1c-0.6,0-1.1,0-1.7,0c-1.3,0-2.5,0-3.8,0.1c-0.5,0-1,0-1.6,0c-1.7,0-3.5,0-5.3,0
	c-1.8,0-3.5,0-5.3,0c-0.5,0-1,0-1.6,0c-1.3,0-2.5,0-3.8-0.1c-0.6,0-1.1,0-1.7,0c-1.4,0-2.8-0.1-4.1-0.1c-0.3,0-0.7,0-1.1,0
	c-1.7-0.1-3.4-0.1-5.1-0.2c-0.4,0-0.8,0-1.2-0.1c-1.3-0.1-2.6-0.1-3.9-0.2c-0.5,0-1.1-0.1-1.6-0.1c-1.3-0.1-2.5-0.1-3.8-0.2
	c-0.4,0-0.9-0.1-1.3-0.1c-1.7-0.1-3.4-0.2-5-0.4c-0.1,0-0.2,0-0.3,0c-1.6-0.1-3.1-0.3-4.7-0.4c-0.4,0-0.9-0.1-1.3-0.1
	c-1.2-0.1-2.5-0.2-3.7-0.3c-0.4,0-0.9-0.1-1.3-0.1c-1.5-0.2-3-0.3-4.5-0.5c-0.1,0-0.2,0-0.3,0c-1.6-0.2-3.3-0.4-4.9-0.6
	c-0.3,0-0.6-0.1-0.9-0.1c-1.3-0.2-2.6-0.3-3.9-0.5c-0.4-0.1-0.8-0.1-1.2-0.2c-1.3-0.2-2.6-0.4-3.9-0.6c-0.2,0-0.5-0.1-0.7-0.1
	c-1.6-0.2-3.2-0.5-4.7-0.7c0,0-0.1,0-0.1,0c-1.5-0.2-3-0.5-4.4-0.7c-0.3-0.1-0.6-0.1-0.9-0.2c-1.3-0.2-2.5-0.5-3.8-0.7
	c-0.2,0-0.5-0.1-0.7-0.1c-3-0.6-6-1.2-8.9-1.8c-0.1,0-0.3-0.1-0.4-0.1c-1.3-0.3-2.6-0.6-3.9-0.9c-0.2,0-0.4-0.1-0.6-0.1
	c-4.3-1-8.4-2-12.4-3.2c-0.1,0-0.3-0.1-0.4-0.1c-1.3-0.4-2.5-0.7-3.8-1.1c0,0-0.1,0-0.1,0c-2.6-0.8-5.2-1.6-7.7-2.4c0,0-0.1,0-0.1,0
	c-1.2-0.4-2.4-0.8-3.5-1.2c-0.1,0-0.1,0-0.2-0.1c-3.6-1.3-7-2.6-10.3-4c0,0-0.1,0-0.1-0.1c-3.3-1.4-6.3-2.9-9.2-4.4c0,0,0,0,0,0
	c-14.6-7.2-24.5-15.1-30.8-23c-10.6,19.9-38.2,74.4-45,114c-0.8,3.3-1.3,6.7-1.3,10c-0.1,0.8,0,1.6,0.1,2.4
	c3,51,102.3,91.9,224.2,91.9c122.3,0,221.7-41.1,224.2-92.3c0-0.5,0.1-0.9,0-1.4c0-0.2,0-0.4,0-0.6
	C480.3,326,479.8,322.5,478.9,319.1z"/>
<g>
	<path class="st7" d="M420.3,153.6c-4.9,0-9.5,0.9-13.9,2.5c-3.5-18.1-19.5-31.8-38.7-31.8c-4.8,0-9.3,0.8-13.6,2.4
		c-2.5-19.3-19-34.2-39.1-34.2c-8.9,0-17.1,3-23.7,7.9c-6.4-13.1-19.9-22.2-35.4-22.2s-29.1,9.1-35.4,22.2c-6.6-5-14.8-7.9-23.7-7.9
		c-20,0-36.5,14.9-39.1,34.2c-4.2-1.6-8.8-2.4-13.6-2.4c-19.2,0-35.1,13.7-38.7,31.8c-4.3-1.6-9-2.5-13.9-2.5
		c-21.8,0-45.3,44.3,17,74.9c30.8,16.2,85.2,27,147.3,27s116.5-10.8,147.3-27C465.6,197.9,442.1,153.6,420.3,153.6z"/>
</g>
<path class="st7" d="M202.6,166.1c0.9-36.1,46.4-35.6,45.3,0"/>
<path class="st7" d="M280.5,166.1c0.9-36.1,46.4-35.6,45.3,0"/>
<path class="st7" d="M138.4,200.5c0.9-36.1,46.4-35.6,45.3,0"/>
<path class="st7" d="M235.3,224.9c0.9-36.1,46.4-35.6,45.3,0"/>
<path class="st7" d="M332.1,205.5c0.9-36.1,46.4-35.6,45.3,0"/>
</svg>
