<?xml version="1.0" encoding="utf-8"?>
<!-- Generator: Adobe Illustrator 21.1.0, SVG Export Plug-In . SVG Version: 6.00 Build 0)  -->
<svg version="1.1" id="Layer_1" xmlns="http://www.w3.org/2000/svg" xmlns:xlink="http://www.w3.org/1999/xlink" x="0px" y="0px"
	 viewBox="0 0 512 512" style="enable-background:new 0 0 512 512;" xml:space="preserve">
<style type="text/css">
	.st0{fill:#F97A48;stroke:#000000;stroke-width:11;stroke-miterlimit:10;}
	.st1{fill:#F97A48;stroke:#000000;stroke-width:11;stroke-linecap:round;stroke-linejoin:round;stroke-miterlimit:10;}
	.st2{fill:#FFDA00;}
	.st3{fill:#EFC700;}
	.st4{fill:none;stroke:#000000;stroke-width:11;stroke-miterlimit:10;}
	.st5{fill:#FF6C9D;}
	.st6{fill:#FF6C9D;stroke:#1D1D1B;stroke-width:11;stroke-linecap:round;stroke-linejoin:round;stroke-miterlimit:10;}
	.st7{fill:#48D5BF;}
	.st8{fill:#48D5BF;stroke:#000000;stroke-width:11;stroke-miterlimit:10;}
	.st9{fill:#FFDA00;stroke:#000000;stroke-width:11;stroke-miterlimit:10;}
	.st10{fill:#C6EBF4;stroke:#000000;stroke-width:11;stroke-miterlimit:10;}
	.st11{fill:none;stroke:#000000;stroke-width:11;stroke-linecap:round;stroke-linejoin:round;stroke-miterlimit:10;}
	.st12{fill:#F97A48;}
	.st13{fill:#C6EBF4;}
	.st14{fill:#EF5F37;}
	.st15{fill:none;stroke:#000000;stroke-width:10.6363;stroke-miterlimit:10;}
	.st16{fill:#26C6A7;}
	.st17{fill:none;stroke:#000000;stroke-width:11;stroke-linecap:round;stroke-miterlimit:10;}
	.st18{fill:#FD4347;}
	.st19{fill:#EF3043;}
	.st20{fill:#4BBC32;}
	.st21{fill:#31AA0F;}
	.st22{fill:#AEE4ED;}
	.st23{fill:#FCD259;}
	.st24{fill:#53ADFC;stroke:#000000;stroke-width:11;stroke-miterlimit:10;}
	.st25{fill:#FFBCA4;stroke:#000000;stroke-width:11;stroke-miterlimit:10;}
	.st26{fill:#53ADFC;}
	.st27{fill:#B9D6ED;stroke:#000000;stroke-width:11;stroke-miterlimit:10;}
	.st28{fill:#24A1ED;}
	.st29{fill:#F4C245;}
	.st30{fill:none;stroke:#000000;stroke-miterlimit:10;}
	.st31{fill:#F95594;stroke:#000000;stroke-width:11;stroke-miterlimit:10;}
	.st32{fill:#24A1ED;stroke:#000000;stroke-width:11;stroke-miterlimit:10;}
	.st33{fill:#F95594;}
	.st34{fill:#4B5B6D;}
	.st35{fill:#3E5366;}
	.st36{fill:#FFDA00;stroke:#000000;stroke-width:5;stroke-miterlimit:10;}
	.st37{fill:#85AFDD;stroke:#000000;stroke-width:11;stroke-miterlimit:10;}
	.st38{fill:#FFA071;stroke:#1D1D1B;stroke-width:11;stroke-miterlimit:10;}
	.st39{fill:#FFFFFF;stroke:#1D1D1B;stroke-width:11;stroke-miterlimit:10;}
	.st40{fill:#FFDC64;}
	.st41{fill:#1D1D1B;}
	.st42{fill:#FF6C9D;stroke:#1D1D1B;stroke-width:11;stroke-miterlimit:10;}
	.st43{fill:#6FCEA6;}
	.st44{fill:#C6EBF4;stroke:#1D1D1B;stroke-width:11;stroke-miterlimit:10;}
	.st45{fill:#53C48E;}
	.st46{fill:#FFFFFF;stroke:#000000;stroke-width:11;stroke-miterlimit:10;}
	.st47{fill:#AEE4ED;stroke:#000000;stroke-width:11;stroke-miterlimit:10;}
	.st48{fill:#F97A48;stroke:#1D1D1B;stroke-width:11;stroke-miterlimit:10;}
	.st49{stroke:#1D1D1B;stroke-width:11;stroke-miterlimit:10;}
	.st50{fill:#FFA071;}
	.st51{fill:#53ADFC;stroke:#1D1D1B;stroke-width:11;stroke-miterlimit:10;}
	.st52{fill:#31AA0F;stroke:#000000;stroke-width:11;stroke-miterlimit:10;}
	.st53{fill:#4BBC32;stroke:#000000;stroke-width:11;stroke-miterlimit:10;}
	.st54{fill:#DD0E2C;}
	.st55{fill:#EA3106;}
	.st56{fill:#F22F7E;}
	.st57{fill:#FCD259;stroke:#000000;stroke-width:11;stroke-miterlimit:10;}
	.st58{fill:#FD4347;stroke:#000000;stroke-width:11;stroke-miterlimit:10;}
	.st59{fill:#FCB439;}
	.st60{fill:#F43842;}
	.st61{fill:#178DFB;}
	.st62{fill:#32AF14;}
	.st63{fill:#FFDA00;stroke:#1D1D1B;stroke-width:11.1327;stroke-miterlimit:10;}
	.st64{fill:#FCB439;stroke:#FFFFFF;stroke-width:14.5517;stroke-miterlimit:10;}
	.st65{fill:#FFFFFF;}
	.st66{clip-path:url(#SVGID_2_);}
	.st67{fill:#D8D8D8;}
	.st68{clip-path:url(#SVGID_4_);}
	.st69{clip-path:url(#SVGID_6_);}
	.st70{fill:#999999;stroke:#FFFFFF;stroke-width:14.5517;stroke-miterlimit:10;}
	.st71{clip-path:url(#SVGID_8_);}
	.st72{clip-path:url(#SVGID_10_);}
	.st73{fill:#EA461F;}
	.st74{clip-path:url(#SVGID_12_);}
	.st75{fill:#C41820;}
	.st76{clip-path:url(#SVGID_14_);}
	.st77{fill:#075492;}
	.st78{fill:#003662;}
	.st79{clip-path:url(#SVGID_16_);}
	.st80{clip-path:url(#SVGID_18_);}
	.st81{clip-path:url(#SVGID_20_);}
	.st82{clip-path:url(#SVGID_22_);}
	.st83{fill:#DDDDDD;}
	.st84{fill:none;stroke:#1D1D1B;stroke-width:11;stroke-linecap:round;stroke-linejoin:round;stroke-miterlimit:10;}
	.st85{fill:none;stroke:#1D1D1B;stroke-width:11.6468;stroke-linecap:round;stroke-linejoin:round;stroke-miterlimit:10;}
	.st86{fill:#C6EBF4;stroke:#1D1D1B;stroke-width:11;stroke-linecap:round;stroke-linejoin:round;stroke-miterlimit:10;}
	.st87{fill:none;stroke:#000000;stroke-width:12.0562;stroke-linecap:round;stroke-linejoin:round;stroke-miterlimit:10;}
	.st88{fill:#F4C245;stroke:#000000;stroke-width:12.0562;stroke-linecap:round;stroke-miterlimit:10;}
	.st89{fill:none;stroke:#000000;stroke-width:12.0562;stroke-linecap:round;stroke-miterlimit:10;}
	.st90{fill:#FCD259;stroke:#000000;stroke-width:12.0562;stroke-miterlimit:10;}
	.st91{fill:none;stroke:#000000;stroke-width:12.0562;stroke-miterlimit:10;}
	.st92{fill:none;}
	.st93{fill:none;stroke:#000000;stroke-width:14.133;stroke-linecap:round;stroke-linejoin:round;stroke-miterlimit:10;}
	.st94{fill:#FFDA00;stroke:#000000;stroke-width:12.0562;stroke-miterlimit:10;}
	.st95{fill:none;stroke:#000000;stroke-width:10.6363;stroke-linecap:round;stroke-miterlimit:10;}
	.st96{fill:none;stroke:#000000;stroke-width:9;stroke-linecap:round;stroke-linejoin:round;stroke-miterlimit:10;}
	.st97{fill:#78909C;}
	.st98{fill:#4A6068;}
	.st99{stroke:#000000;stroke-width:11;stroke-miterlimit:10;}
	.st100{fill:#AEACB3;stroke:#000000;stroke-width:11;stroke-miterlimit:10;}
	.st101{fill:#C6EBF4;stroke:#000000;stroke-width:11;stroke-linecap:round;stroke-linejoin:round;stroke-miterlimit:10;}
	.st102{fill:#FFDA00;stroke:#000000;stroke-width:11;stroke-linecap:round;stroke-linejoin:round;stroke-miterlimit:10;}
	.st103{fill:#4BBC32;stroke:#000000;stroke-width:11;stroke-linecap:round;stroke-miterlimit:10;}
	.st104{fill:none;stroke:#231F20;stroke-width:11;stroke-miterlimit:10;}
	.st105{fill:#C6EBF4;stroke:#1D1D1B;stroke-width:10.3784;stroke-linecap:round;stroke-linejoin:round;stroke-miterlimit:10;}
	.st106{fill:#C6EBF4;stroke:#1D1D1B;stroke-width:6.959;stroke-linecap:round;stroke-linejoin:round;stroke-miterlimit:10;}
	.st107{fill:none;stroke:#1D1D1B;stroke-width:10.3442;stroke-linecap:round;stroke-linejoin:round;stroke-miterlimit:10;}
	.st108{fill:#C6EBF4;stroke:#1D1D1B;stroke-width:8.7624;stroke-linecap:round;stroke-linejoin:round;stroke-miterlimit:10;}
	.st109{fill:#AEE4ED;stroke:#1D1D1B;stroke-width:11;stroke-miterlimit:10;}
</style>
<g>
	<path class="st12" d="M419.4,178.1c-4.9,0-9.5,0.8-13.9,2.3c-3.5-16.9-19.5-29.7-38.7-29.7c-4.8,0-9.3,0.8-13.6,2.2
		c-2.5-18.1-19-32-39.1-32c-8.9,0-17.1,2.8-23.7,7.4c-6.4-12.3-19.9-20.7-35.4-20.7s-29.1,8.5-35.4,20.7c-6.6-4.7-14.8-7.4-23.7-7.4
		c-20,0-36.5,13.9-39.1,32c-4.2-1.5-8.8-2.2-13.6-2.2c-19.2,0-35.1,12.8-38.7,29.7c-4.3-1.5-9-2.3-13.9-2.3
		c-21.8,0-45.3,41.4,17,70.1c30.8,15.2,85.2,25.3,147.3,25.3s116.5-10.1,147.3-25.3C464.6,219.5,441.1,178.1,419.4,178.1z"/>
</g>
<g>
	<path class="st14" d="M346.5,154.7c0.9-0.3,0.7-0.8,2.2-1.5c0-23.2-14.4-37.5-37.6-37.5c-3.8,0-18.9,4.9-22.6,11.6
		C323.4,121.2,337.2,131.7,346.5,154.7z"/>
	<path class="st14" d="M397.8,184.2c1.5-0.6,2.4-1.3,4.8-2.3c-4-25.1-21-34-40-34c-3.8,0-13.1,3.7-16.1,6.9
		C377.4,158.1,387.2,163.3,397.8,184.2z"/>
	<path class="st14" d="M418.8,176.7c-4.6,0-17.3,5.2-21,7.5c30.1,8.9,42.6,40.2-11.2,66.3c-29,15-89.3,25.4-146.7,26.6
		c3.6,0.1,7.3,0.1,11,0.1c62.1,0,116.5-10.6,147.3-26.6C460.4,220.4,440.6,176.7,418.8,176.7z"/>
</g>
<g>
	<path class="st15" d="M419.4,178.1c-4.9,0-9.5,0.8-13.9,2.3c-3.5-16.9-19.5-29.7-38.7-29.7c-4.8,0-9.3,0.8-13.6,2.2
		c-2.5-18.1-19-32-39.1-32c-8.9,0-17.1,2.8-23.7,7.4c-6.4-12.3-19.9-20.7-35.4-20.7s-29.1,8.5-35.4,20.7c-6.6-4.7-14.8-7.4-23.7-7.4
		c-20,0-36.5,13.9-39.1,32c-4.2-1.5-8.8-2.2-13.6-2.2c-19.2,0-35.1,12.8-38.7,29.7c-4.3-1.5-9-2.3-13.9-2.3
		c-21.8,0-45.3,41.4,17,70.1c30.8,15.2,85.2,25.3,147.3,25.3s116.5-10.1,147.3-25.3C464.6,219.5,441.1,178.1,419.4,178.1z"/>
</g>
<path class="st20" d="M478.4,322.1c-8.8-42.3-26.7-78.9-37.2-98.7c-13,4.7-109,18.8-204.2,25.8c0,0-164.8-21.3-171.1-29.2
	c-10.6,19.9-22.3,61.7-31.4,102.5c-0.8,3.3-3.3,27.6-3.3,31c-0.1,0.8,0,1.6,0.1,2.4c3,51,102.3,71,224.3,71
	c122.3,0,220.6-24.5,223.1-75.6c0-0.5,1.2-17.6,1.2-18.1C479.8,332.9,479.3,325.5,478.4,322.1z"/>
<path class="st21" d="M475.9,319.1c-6.8-39.5-23.3-77.8-33.9-97.6c-3.7,4.6-14.5,2.2-20.8,6.7c12.7,25.1,30.2,58.5,35.8,90.9
	c0.9,3.4,1.4,15.3,1.4,18.8c0,0.2,0-8,0-7.8c0,13.9,0,9.4,0,9.8c-2.4,49.6-96.1,81.4-213.3,83.8c3.6,0.1,7.3,0.1,11,0.1
	c122.3,0,221.7-22.2,224.2-73.3c0-0.5,0.1-23.8,0.1-24.2c0-0.2,0,22.5,0,22.3C480.3,345,476.8,322.5,475.9,319.1z"/>
<g>
	<path class="st46" d="M256.1,342.7c0,0-0.2,0-0.3,0c-19.7,0-39.2,41.2-26.6,47.1c5.5,2.6,11.3,2.2,16,1c3.5-0.9,7.1-1.3,10.7-1.3
		c3.6,0,7.2,0.4,10.7,1.3c4.7,1.2,10.5,1.5,16-1C295.4,383.8,275.8,342.7,256.1,342.7z"/>
	<path class="st46" d="M214.9,313.8c3.9,8.6,16.2,16.2,24.8,12.3c8.6-3.9,10.2-17.7,6.3-26.3c-3.9-8.6-14-12.4-22.6-8.6
		C214.9,295.1,211.1,305.2,214.9,313.8z"/>
	<path class="st46" d="M191.4,355.5c6.7,4.5,20.7,5.8,25.1-0.9c4.5-6.7-2.2-19-9-23.4s-15.8-2.6-20.2,4.1
		C182.8,342,184.6,351.1,191.4,355.5z"/>
	<path class="st46" d="M297.1,313.8c-3.9,8.6-16.2,16.2-24.8,12.3c-8.6-3.9-10.2-17.7-6.3-26.3c3.9-8.6,14-12.4,22.6-8.6
		C297.1,295.1,300.9,305.2,297.1,313.8z"/>
	<path class="st46" d="M320.6,355.5c-6.7,4.5-20.7,5.8-25.1-0.9s2.2-19,9-23.4c6.7-4.5,15.8-2.6,20.2,4.1
		C329.2,342,327.4,351.1,320.6,355.5z"/>
</g>
<path class="st4" d="M475.9,319.1c-6.2-35.9-18.5-68-30.6-91.3c-1.7-3.3-5.5-5.1-9.2-4.2C360.5,252,162,252.5,74.4,224
	c-3.1-1.6-6.9-0.3-8.5,2.9c-10.9,22.5-23.3,54-29.9,92.6c-4.2,21.8-4.3,31.7-4.2,32.5c3,51,102.3,71.9,224.2,71.9
	c122.3,0,221.7-21.1,224.2-72.3c0-0.5,0.1-0.9,0-1.4c0-0.2,0-0.4,0-0.6C480.3,344.1,477.1,325.1,475.9,319.1z"/>
<path class="st95" d="M153.3,203.8c0-10.8,10.8-19.6,24-19.6s24,8.8,24,19.6"/>
<path class="st95" d="M318.7,210.1c0-10.8,10.8-19.6,24-19.6s24,8.8,24,19.6"/>
<path class="st95" d="M245.1,175.8c0-10.8,10.8-19.6,24-19.6c13.3,0,24,8.8,24,19.6"/>
</svg>
