<?xml version="1.0" encoding="utf-8"?>
<!-- Generator: Adobe Illustrator 21.1.0, SVG Export Plug-In . SVG Version: 6.00 Build 0)  -->
<svg version="1.1" id="Layer_1" xmlns="http://www.w3.org/2000/svg" xmlns:xlink="http://www.w3.org/1999/xlink" x="0px" y="0px"
	 viewBox="0 0 512 512" style="enable-background:new 0 0 512 512;" xml:space="preserve">
<style type="text/css">
	.st0{fill:#F97A48;stroke:#000000;stroke-width:11;stroke-miterlimit:10;}
	.st1{fill:#F97A48;stroke:#000000;stroke-width:11;stroke-linecap:round;stroke-linejoin:round;stroke-miterlimit:10;}
	.st2{fill:#FFDA00;}
	.st3{fill:#EFC700;}
	.st4{fill:none;stroke:#000000;stroke-width:11;stroke-miterlimit:10;}
	.st5{fill:#FF6C9D;}
	.st6{fill:#FF6C9D;stroke:#1D1D1B;stroke-width:11;stroke-linecap:round;stroke-linejoin:round;stroke-miterlimit:10;}
	.st7{fill:#48D5BF;}
	.st8{fill:#48D5BF;stroke:#000000;stroke-width:11;stroke-miterlimit:10;}
	.st9{fill:#FFDA00;stroke:#000000;stroke-width:11;stroke-miterlimit:10;}
	.st10{fill:#C6EBF4;stroke:#000000;stroke-width:11;stroke-miterlimit:10;}
	.st11{fill:none;stroke:#000000;stroke-width:11;stroke-linecap:round;stroke-linejoin:round;stroke-miterlimit:10;}
	.st12{fill:#F97A48;}
	.st13{fill:#C6EBF4;}
	.st14{fill:#EF5F37;}
	.st15{fill:none;stroke:#000000;stroke-width:10.6363;stroke-miterlimit:10;}
	.st16{fill:#26C6A7;}
	.st17{fill:none;stroke:#000000;stroke-width:11;stroke-linecap:round;stroke-miterlimit:10;}
	.st18{fill:#FD4347;}
	.st19{fill:#EF3043;}
	.st20{fill:#4BBC32;}
	.st21{fill:#31AA0F;}
	.st22{fill:#AEE4ED;}
	.st23{fill:#FCD259;}
	.st24{fill:#53ADFC;stroke:#000000;stroke-width:11;stroke-miterlimit:10;}
	.st25{fill:#FFBCA4;stroke:#000000;stroke-width:11;stroke-miterlimit:10;}
	.st26{fill:#53ADFC;}
	.st27{fill:#B9D6ED;stroke:#000000;stroke-width:11;stroke-miterlimit:10;}
	.st28{fill:#24A1ED;}
	.st29{fill:#F4C245;}
	.st30{fill:none;stroke:#000000;stroke-miterlimit:10;}
	.st31{fill:#F95594;stroke:#000000;stroke-width:11;stroke-miterlimit:10;}
	.st32{fill:#24A1ED;stroke:#000000;stroke-width:11;stroke-miterlimit:10;}
	.st33{fill:#F95594;}
	.st34{fill:#4B5B6D;}
	.st35{fill:#3E5366;}
	.st36{fill:#FFDA00;stroke:#000000;stroke-width:5;stroke-miterlimit:10;}
	.st37{fill:#85AFDD;stroke:#000000;stroke-width:11;stroke-miterlimit:10;}
	.st38{fill:#FFA071;stroke:#1D1D1B;stroke-width:11;stroke-miterlimit:10;}
	.st39{fill:#FFFFFF;stroke:#1D1D1B;stroke-width:11;stroke-miterlimit:10;}
	.st40{fill:#FFDC64;}
	.st41{fill:#1D1D1B;}
	.st42{fill:#FF6C9D;stroke:#1D1D1B;stroke-width:11;stroke-miterlimit:10;}
	.st43{fill:#6FCEA6;}
	.st44{fill:#C6EBF4;stroke:#1D1D1B;stroke-width:11;stroke-miterlimit:10;}
	.st45{fill:#53C48E;}
	.st46{fill:#FFFFFF;stroke:#000000;stroke-width:11;stroke-miterlimit:10;}
	.st47{fill:#AEE4ED;stroke:#000000;stroke-width:11;stroke-miterlimit:10;}
	.st48{fill:#F97A48;stroke:#1D1D1B;stroke-width:11;stroke-miterlimit:10;}
	.st49{stroke:#1D1D1B;stroke-width:11;stroke-miterlimit:10;}
	.st50{fill:#FFA071;}
	.st51{fill:#53ADFC;stroke:#1D1D1B;stroke-width:11;stroke-miterlimit:10;}
	.st52{fill:#31AA0F;stroke:#000000;stroke-width:11;stroke-miterlimit:10;}
	.st53{fill:#4BBC32;stroke:#000000;stroke-width:11;stroke-miterlimit:10;}
	.st54{fill:#DD0E2C;}
	.st55{fill:#EA3106;}
	.st56{fill:#F22F7E;}
	.st57{fill:#FCD259;stroke:#000000;stroke-width:11;stroke-miterlimit:10;}
	.st58{fill:#FD4347;stroke:#000000;stroke-width:11;stroke-miterlimit:10;}
	.st59{fill:#FCB439;}
	.st60{fill:#F43842;}
	.st61{fill:#178DFB;}
	.st62{fill:#32AF14;}
	.st63{fill:#FFDA00;stroke:#1D1D1B;stroke-width:11.1327;stroke-miterlimit:10;}
	.st64{fill:#FCB439;stroke:#FFFFFF;stroke-width:14.5517;stroke-miterlimit:10;}
	.st65{fill:#FFFFFF;}
	.st66{clip-path:url(#SVGID_2_);}
	.st67{fill:#D8D8D8;}
	.st68{clip-path:url(#SVGID_4_);}
	.st69{clip-path:url(#SVGID_6_);}
	.st70{fill:#999999;stroke:#FFFFFF;stroke-width:14.5517;stroke-miterlimit:10;}
	.st71{clip-path:url(#SVGID_8_);}
	.st72{clip-path:url(#SVGID_10_);}
	.st73{fill:#EA461F;}
	.st74{clip-path:url(#SVGID_12_);}
	.st75{fill:#C41820;}
	.st76{clip-path:url(#SVGID_14_);}
	.st77{fill:#075492;}
	.st78{fill:#003662;}
	.st79{clip-path:url(#SVGID_16_);}
	.st80{clip-path:url(#SVGID_18_);}
	.st81{clip-path:url(#SVGID_20_);}
	.st82{clip-path:url(#SVGID_22_);}
	.st83{fill:#DDDDDD;}
	.st84{fill:none;stroke:#1D1D1B;stroke-width:11;stroke-linecap:round;stroke-linejoin:round;stroke-miterlimit:10;}
	.st85{fill:none;stroke:#1D1D1B;stroke-width:11.6468;stroke-linecap:round;stroke-linejoin:round;stroke-miterlimit:10;}
	.st86{fill:#C6EBF4;stroke:#1D1D1B;stroke-width:11;stroke-linecap:round;stroke-linejoin:round;stroke-miterlimit:10;}
	.st87{fill:none;stroke:#000000;stroke-width:12.0562;stroke-linecap:round;stroke-linejoin:round;stroke-miterlimit:10;}
	.st88{fill:#F4C245;stroke:#000000;stroke-width:12.0562;stroke-linecap:round;stroke-miterlimit:10;}
	.st89{fill:none;stroke:#000000;stroke-width:12.0562;stroke-linecap:round;stroke-miterlimit:10;}
	.st90{fill:#FCD259;stroke:#000000;stroke-width:12.0562;stroke-miterlimit:10;}
	.st91{fill:none;stroke:#000000;stroke-width:12.0562;stroke-miterlimit:10;}
	.st92{fill:none;}
	.st93{fill:none;stroke:#000000;stroke-width:14.133;stroke-linecap:round;stroke-linejoin:round;stroke-miterlimit:10;}
	.st94{fill:#FFDA00;stroke:#000000;stroke-width:12.0562;stroke-miterlimit:10;}
	.st95{fill:none;stroke:#000000;stroke-width:10.6363;stroke-linecap:round;stroke-miterlimit:10;}
	.st96{fill:none;stroke:#000000;stroke-width:9;stroke-linecap:round;stroke-linejoin:round;stroke-miterlimit:10;}
	.st97{fill:#78909C;}
	.st98{fill:#4A6068;}
	.st99{stroke:#000000;stroke-width:11;stroke-miterlimit:10;}
	.st100{fill:#AEACB3;stroke:#000000;stroke-width:11;stroke-miterlimit:10;}
	.st101{fill:#C6EBF4;stroke:#000000;stroke-width:11;stroke-linecap:round;stroke-linejoin:round;stroke-miterlimit:10;}
	.st102{fill:#FFDA00;stroke:#000000;stroke-width:11;stroke-linecap:round;stroke-linejoin:round;stroke-miterlimit:10;}
	.st103{fill:#4BBC32;stroke:#000000;stroke-width:11;stroke-linecap:round;stroke-miterlimit:10;}
	.st104{fill:none;stroke:#231F20;stroke-width:11;stroke-miterlimit:10;}
	.st105{fill:#C6EBF4;stroke:#1D1D1B;stroke-width:10.3784;stroke-linecap:round;stroke-linejoin:round;stroke-miterlimit:10;}
	.st106{fill:#C6EBF4;stroke:#1D1D1B;stroke-width:6.959;stroke-linecap:round;stroke-linejoin:round;stroke-miterlimit:10;}
	.st107{fill:none;stroke:#1D1D1B;stroke-width:10.3442;stroke-linecap:round;stroke-linejoin:round;stroke-miterlimit:10;}
	.st108{fill:#C6EBF4;stroke:#1D1D1B;stroke-width:8.7624;stroke-linecap:round;stroke-linejoin:round;stroke-miterlimit:10;}
	.st109{fill:#AEE4ED;stroke:#1D1D1B;stroke-width:11;stroke-miterlimit:10;}
</style>
<path class="st10" d="M263.2,145.8c-71.1,0-128.8,57.7-128.8,128.8s57.7,128.8,128.8,128.8S392,345.7,392,274.6
	S334.3,145.8,263.2,145.8z"/>
<path class="st10" d="M263.2,369c-9.6,0-19.2-1.5-28.3-4.3c-49.8-15.5-77.5-68.5-62-118.3c9.2-29.6,32.4-52.8,62-62
	c9.2-2.8,18.7-4.3,28.3-4.3c52.2,0,94.4,42.3,94.4,94.4S315.3,369,263.2,369z"/>
<path class="st0" d="M116.7,201.7c0-1.8-0.6-88.9-0.6-88.9c0-4.5-4-8.1-8.7-7.4c-3.7,0.6-6.3,3.9-6.3,7.6v63.8
	c0,11.7-15.4,11.7-15.4,0.2v-63.9c0-4-3-7.5-7-7.8c-4.4-0.3-8,3.2-8,7.5V177c0,11.5-15.4,11.5-15.4,0.1l0-64c0-4-3-7.5-7-7.8
	c-4.4-0.3-8,3.2-8,7.5c0,0-0.1,88-0.1,88.9c0,10.6,9.1,20.4,16.9,25.4c5.9,3.8,9.5,8.3,9.3,15.2l-3.2,174.7
	c0,5.7,4.7,10.3,10.3,10.3h9.8c5.7,0,10.3-4.7,10.3-10.3l-3.2-174.7c-0.1-7,3.5-11.5,9.3-15.2C107.6,222.1,116.7,212.3,116.7,201.7z
	"/>
<path class="st12" d="M430.6,279.8c3.6,2.4,5.8,6.4,5.7,10.8L433.9,419c0,5.7,4.7,10.3,10.3,10.3h9.8c5.7,0,10.3-4.7,10.3-10.3
	c0,0-2.4-131-2.5-136.4c0-5.4,0-9.4,0-9.4V113.7c0-5.7-4.7-10.3-10.3-10.3c-17,0-31,89.7-31,106.8v51.2
	C420.6,268.8,424.3,275.7,430.6,279.8L430.6,279.8z"/>
<path class="st22" d="M263.2,145.8c-3.8,0-7.6,0.2-11.4,0.5c65.8,5.8,117.4,61,117.4,128.3s-51.6,122.5-117.4,128.3
	c3.7,0.3,7.5,0.5,11.4,0.5c71.1,0,128.8-57.7,128.8-128.8S334.3,145.8,263.2,145.8z"/>
<path class="st4" d="M263.2,145.8c-71.1,0-128.8,57.7-128.8,128.8s57.7,128.8,128.8,128.8S392,345.7,392,274.6
	S334.3,145.8,263.2,145.8z"/>
<polygon class="st14" points="460.2,429.2 447.2,429.2 447.2,103 460.2,110 "/>
<path class="st4" d="M430.6,279.8c3.6,2.4,5.8,6.4,5.7,10.8L433.9,419c0,5.7,4.7,10.3,10.3,10.3h9.8c5.7,0,10.3-4.7,10.3-10.3
	c0,0-2.4-131-2.5-136.4c0-5.4,0-9.4,0-9.4V113.7c0-5.7-4.7-10.3-10.3-10.3c-17,0-31,89.7-31,106.8v51.2
	C420.6,268.8,424.3,275.7,430.6,279.8L430.6,279.8z"/>
</svg>
