<?xml version="1.0" encoding="utf-8"?>
<!-- Generator: Adobe Illustrator 21.1.0, SVG Export Plug-In . SVG Version: 6.00 Build 0)  -->
<svg version="1.1" id="Layer_1" xmlns="http://www.w3.org/2000/svg" xmlns:xlink="http://www.w3.org/1999/xlink" x="0px" y="0px"
	 viewBox="0 0 512 512" style="enable-background:new 0 0 512 512;" xml:space="preserve">
<style type="text/css">
	.st0{fill:#F97A48;stroke:#000000;stroke-width:11;stroke-miterlimit:10;}
	.st1{fill:#F97A48;stroke:#000000;stroke-width:11;stroke-linecap:round;stroke-linejoin:round;stroke-miterlimit:10;}
	.st2{fill:#FFDA00;}
	.st3{fill:#EFC700;}
	.st4{fill:none;stroke:#000000;stroke-width:11;stroke-miterlimit:10;}
	.st5{fill:#FF6C9D;}
	.st6{fill:#FF6C9D;stroke:#1D1D1B;stroke-width:11;stroke-linecap:round;stroke-linejoin:round;stroke-miterlimit:10;}
	.st7{fill:#48D5BF;}
	.st8{fill:#48D5BF;stroke:#000000;stroke-width:11;stroke-miterlimit:10;}
	.st9{fill:#FFDA00;stroke:#000000;stroke-width:11;stroke-miterlimit:10;}
	.st10{fill:#C6EBF4;stroke:#000000;stroke-width:11;stroke-miterlimit:10;}
	.st11{fill:none;stroke:#000000;stroke-width:11;stroke-linecap:round;stroke-linejoin:round;stroke-miterlimit:10;}
	.st12{fill:#F97A48;}
	.st13{fill:#C6EBF4;}
	.st14{fill:#EF5F37;}
	.st15{fill:none;stroke:#000000;stroke-width:10.6363;stroke-miterlimit:10;}
	.st16{fill:#26C6A7;}
	.st17{fill:none;stroke:#000000;stroke-width:11;stroke-linecap:round;stroke-miterlimit:10;}
	.st18{fill:#FD4347;}
	.st19{fill:#EF3043;}
	.st20{fill:#4BBC32;}
	.st21{fill:#31AA0F;}
	.st22{fill:#AEE4ED;}
	.st23{fill:#FCD259;}
	.st24{fill:#53ADFC;stroke:#000000;stroke-width:11;stroke-miterlimit:10;}
	.st25{fill:#FFBCA4;stroke:#000000;stroke-width:11;stroke-miterlimit:10;}
	.st26{fill:#53ADFC;}
	.st27{fill:#B9D6ED;stroke:#000000;stroke-width:11;stroke-miterlimit:10;}
	.st28{fill:#24A1ED;}
	.st29{fill:#F4C245;}
	.st30{fill:none;stroke:#000000;stroke-miterlimit:10;}
	.st31{fill:#F95594;stroke:#000000;stroke-width:11;stroke-miterlimit:10;}
	.st32{fill:#24A1ED;stroke:#000000;stroke-width:11;stroke-miterlimit:10;}
	.st33{fill:#F95594;}
	.st34{fill:#4B5B6D;}
	.st35{fill:#3E5366;}
	.st36{fill:#FFDA00;stroke:#000000;stroke-width:5;stroke-miterlimit:10;}
	.st37{fill:#85AFDD;stroke:#000000;stroke-width:11;stroke-miterlimit:10;}
	.st38{fill:#FFA071;stroke:#1D1D1B;stroke-width:11;stroke-miterlimit:10;}
	.st39{fill:#FFFFFF;stroke:#1D1D1B;stroke-width:11;stroke-miterlimit:10;}
	.st40{fill:#FFDC64;}
	.st41{fill:#1D1D1B;}
	.st42{fill:#FF6C9D;stroke:#1D1D1B;stroke-width:11;stroke-miterlimit:10;}
	.st43{fill:#6FCEA6;}
	.st44{fill:#C6EBF4;stroke:#1D1D1B;stroke-width:11;stroke-miterlimit:10;}
	.st45{fill:#53C48E;}
	.st46{fill:#FFFFFF;stroke:#000000;stroke-width:11;stroke-miterlimit:10;}
	.st47{fill:#AEE4ED;stroke:#000000;stroke-width:11;stroke-miterlimit:10;}
	.st48{fill:#F97A48;stroke:#1D1D1B;stroke-width:11;stroke-miterlimit:10;}
	.st49{stroke:#1D1D1B;stroke-width:11;stroke-miterlimit:10;}
	.st50{fill:#FFA071;}
	.st51{fill:#53ADFC;stroke:#1D1D1B;stroke-width:11;stroke-miterlimit:10;}
	.st52{fill:#31AA0F;stroke:#000000;stroke-width:11;stroke-miterlimit:10;}
	.st53{fill:#4BBC32;stroke:#000000;stroke-width:11;stroke-miterlimit:10;}
	.st54{fill:#DD0E2C;}
	.st55{fill:#EA3106;}
	.st56{fill:#F22F7E;}
	.st57{fill:#FCD259;stroke:#000000;stroke-width:11;stroke-miterlimit:10;}
	.st58{fill:#FD4347;stroke:#000000;stroke-width:11;stroke-miterlimit:10;}
	.st59{fill:#FCB439;}
	.st60{fill:#F43842;}
	.st61{fill:#178DFB;}
	.st62{fill:#32AF14;}
	.st63{fill:#FFDA00;stroke:#1D1D1B;stroke-width:11.1327;stroke-miterlimit:10;}
	.st64{fill:#FCB439;stroke:#FFFFFF;stroke-width:14.5517;stroke-miterlimit:10;}
	.st65{fill:#FFFFFF;}
	.st66{clip-path:url(#SVGID_2_);}
	.st67{fill:#D8D8D8;}
	.st68{clip-path:url(#SVGID_4_);}
	.st69{clip-path:url(#SVGID_6_);}
	.st70{fill:#999999;stroke:#FFFFFF;stroke-width:14.5517;stroke-miterlimit:10;}
	.st71{clip-path:url(#SVGID_8_);}
	.st72{clip-path:url(#SVGID_10_);}
	.st73{fill:#EA461F;}
	.st74{clip-path:url(#SVGID_12_);}
	.st75{fill:#C41820;}
	.st76{clip-path:url(#SVGID_14_);}
	.st77{fill:#075492;}
	.st78{fill:#003662;}
	.st79{clip-path:url(#SVGID_16_);}
	.st80{clip-path:url(#SVGID_18_);}
	.st81{clip-path:url(#SVGID_20_);}
	.st82{clip-path:url(#SVGID_22_);}
	.st83{fill:#DDDDDD;}
	.st84{fill:none;stroke:#1D1D1B;stroke-width:11;stroke-linecap:round;stroke-linejoin:round;stroke-miterlimit:10;}
	.st85{fill:none;stroke:#1D1D1B;stroke-width:11.6468;stroke-linecap:round;stroke-linejoin:round;stroke-miterlimit:10;}
	.st86{fill:#C6EBF4;stroke:#1D1D1B;stroke-width:11;stroke-linecap:round;stroke-linejoin:round;stroke-miterlimit:10;}
	.st87{fill:none;stroke:#000000;stroke-width:12.0562;stroke-linecap:round;stroke-linejoin:round;stroke-miterlimit:10;}
	.st88{fill:#F4C245;stroke:#000000;stroke-width:12.0562;stroke-linecap:round;stroke-miterlimit:10;}
	.st89{fill:none;stroke:#000000;stroke-width:12.0562;stroke-linecap:round;stroke-miterlimit:10;}
	.st90{fill:#FCD259;stroke:#000000;stroke-width:12.0562;stroke-miterlimit:10;}
	.st91{fill:none;stroke:#000000;stroke-width:12.0562;stroke-miterlimit:10;}
	.st92{fill:none;}
	.st93{fill:none;stroke:#000000;stroke-width:14.133;stroke-linecap:round;stroke-linejoin:round;stroke-miterlimit:10;}
	.st94{fill:#FFDA00;stroke:#000000;stroke-width:12.0562;stroke-miterlimit:10;}
	.st95{fill:none;stroke:#000000;stroke-width:10.6363;stroke-linecap:round;stroke-miterlimit:10;}
	.st96{fill:none;stroke:#000000;stroke-width:9;stroke-linecap:round;stroke-linejoin:round;stroke-miterlimit:10;}
	.st97{fill:#78909C;}
	.st98{fill:#4A6068;}
	.st99{stroke:#000000;stroke-width:11;stroke-miterlimit:10;}
	.st100{fill:#AEACB3;stroke:#000000;stroke-width:11;stroke-miterlimit:10;}
	.st101{fill:#C6EBF4;stroke:#000000;stroke-width:11;stroke-linecap:round;stroke-linejoin:round;stroke-miterlimit:10;}
	.st102{fill:#FFDA00;stroke:#000000;stroke-width:11;stroke-linecap:round;stroke-linejoin:round;stroke-miterlimit:10;}
	.st103{fill:#4BBC32;stroke:#000000;stroke-width:11;stroke-linecap:round;stroke-miterlimit:10;}
	.st104{fill:none;stroke:#231F20;stroke-width:11;stroke-miterlimit:10;}
	.st105{fill:#C6EBF4;stroke:#1D1D1B;stroke-width:10.3784;stroke-linecap:round;stroke-linejoin:round;stroke-miterlimit:10;}
	.st106{fill:#C6EBF4;stroke:#1D1D1B;stroke-width:6.959;stroke-linecap:round;stroke-linejoin:round;stroke-miterlimit:10;}
	.st107{fill:none;stroke:#1D1D1B;stroke-width:10.3442;stroke-linecap:round;stroke-linejoin:round;stroke-miterlimit:10;}
	.st108{fill:#C6EBF4;stroke:#1D1D1B;stroke-width:8.7624;stroke-linecap:round;stroke-linejoin:round;stroke-miterlimit:10;}
	.st109{fill:#AEE4ED;stroke:#1D1D1B;stroke-width:11;stroke-miterlimit:10;}
</style>
<path class="st7" d="M132.6,447.1l-30.4-128.6c-0.2-0.8,0.3-1.5,1.1-1.7l12.4-2.5c0.6-0.1,1.3,0.2,1.5,0.8l12.4,27.3
	c0.7,1.5,2.9,0.8,2.6-0.8l-12.4-92.6c-0.1-0.7,0.4-1.4,1.1-1.5l11.1-2.2c0.7-0.1,1.3,0.2,1.6,0.9c4.4,11.6,9.3,27.3,12.7,38.8
	c0.5,1.6,2.9,1.1,2.7-0.5l-11.6-109c-0.1-0.7,0.4-1.4,1.1-1.5l16.5-3.3c0.8-0.2,1.5,0.3,1.6,1.1l10.7,53.1c0.3,1.7,2.9,1.4,2.8-0.4
	l-8-115.1c0-0.7,0.4-1.3,1.1-1.5l18.1-3.6c0.8-0.2,1.6,0.4,1.7,1.2l5.4,48.7c0.2,1.6,2.5,1.7,2.8,0.1l13.8-78
	c0.1-0.8,0.9-1.3,1.6-1.1l20.3,3.6c0.8,0.1,1.3,0.9,1.1,1.6l-13.8,77.6c-0.3,1.6,1.9,2.3,2.6,0.9l20.7-40.7c0.4-0.7,1.3-1,2-0.6
	l15.9,9.5c0.6,0.4,0.8,1.1,0.6,1.8l-46.2,105.7c-0.7,1.6,1.6,2.8,2.5,1.3l27.9-46.4c0.4-0.7,1.3-0.9,1.9-0.5l14.4,8.6
	c0.6,0.4,0.8,1.1,0.5,1.8l-47.5,98.8c-0.7,1.5,1.4,2.8,2.4,1.4c7.1-9.6,17-22.8,25-32.3c0.4-0.5,1.2-0.6,1.8-0.3l9.7,5.8
	c0.6,0.4,0.9,1.2,0.5,1.8l-42.8,83c-0.7,1.4,1.1,2.8,2.2,1.6l20.9-21.5c0.5-0.5,1.2-0.6,1.7-0.2l10.8,6.5c0.7,0.4,0.9,1.3,0.4,2
	l-68.8,99.2"/>
<g>
	<path class="st16" d="M202.3,154.8c-0.3,1.6,12,3.1,12,3.1l8.8-76.6c0.1-0.8-0.4-1.5-1.1-1.6l-6.1-1.1L202.3,154.8z"/>
	<path class="st16" d="M243.4,123.9c0.6,0.4,0.8,1.1,0.6,1.8l-46.2,105.7c-0.7,1.6,7.3,5.4,7.3,5.4l46-107.1c0.3-0.6,0-1.4-0.6-1.8
		l-15.9-9.5c-0.2-0.1-0.3-0.2-0.5-0.2L243.4,123.9z"/>
	<path class="st16" d="M243.3,273.8l-9.7-5.8c-0.2-0.1-0.3-0.2-0.5-0.2l3.2,1.9c0.6,0.4,0.9,1.2,0.5,1.8l-42.8,83
		c-0.7,1.4,8.4,8.2,8.4,8.2l41.5-87.2C244.2,275,243.9,274.2,243.3,273.8z"/>
	<path class="st16" d="M236.7,345.1l-10.8-6.5c-0.2-0.1-0.3-0.1-0.5-0.2l4.3,2.6c0.7,0.4,0.9,1.3,0.4,2l-68.8,99.2l-34.7,1.6l1,4.3
		l40.7-1.9l68.8-99.2C237.5,346.4,237.3,345.5,236.7,345.1z"/>
	<path class="st16" d="M251.4,198.5l-14.4-8.6c-0.2-0.1-0.3-0.2-0.5-0.2l7.9,4.8c0.6,0.4,0.8,1.1,0.5,1.8L197.4,295
		c-0.7,1.5,1.1,4.8,8.9,6.4l45.6-101.2C252.3,199.6,252,198.9,251.4,198.5z"/>
</g>
<path class="st17" d="M132.6,447.1l-30.4-128.6c-0.2-0.8,0.3-1.5,1.1-1.7l12.4-2.5c0.6-0.1,1.3,0.2,1.5,0.8l12.4,27.3
	c0.7,1.5,2.9,0.8,2.6-0.8l-12.4-92.6c-0.1-0.7,0.4-1.4,1.1-1.5l11.1-2.2c0.7-0.1,1.3,0.2,1.6,0.9c4.4,11.6,9.3,27.3,12.7,38.8
	c0.5,1.6,2.9,1.1,2.7-0.5l-11.6-109c-0.1-0.7,0.4-1.4,1.1-1.5l16.5-3.3c0.8-0.2,1.5,0.3,1.6,1.1l10.7,53.1c0.3,1.7,2.9,1.4,2.8-0.4
	l-8-115.1c0-0.7,0.4-1.3,1.1-1.5l18.1-3.6c0.8-0.2,1.6,0.4,1.7,1.2l5.4,48.7c0.2,1.6,2.5,1.7,2.8,0.1l13.8-78
	c0.1-0.8,0.9-1.3,1.6-1.1l20.3,3.6c0.8,0.1,1.3,0.9,1.1,1.6l-13.8,77.6c-0.3,1.6,1.9,2.3,2.6,0.9l20.7-40.7c0.4-0.7,1.3-1,2-0.6
	l15.9,9.5c0.6,0.4,0.8,1.1,0.6,1.8l-46.2,105.7c-0.7,1.6,1.6,2.8,2.5,1.3l27.9-46.4c0.4-0.7,1.3-0.9,1.9-0.5l14.4,8.6
	c0.6,0.4,0.8,1.1,0.5,1.8l-47.5,98.8c-0.7,1.5,1.4,2.8,2.4,1.4c7.1-9.6,17-22.8,25-32.3c0.4-0.5,1.2-0.6,1.8-0.3l9.7,5.8
	c0.6,0.4,0.9,1.2,0.5,1.8l-42.8,83c-0.7,1.4,1.1,2.8,2.2,1.6l20.9-21.5c0.5-0.5,1.2-0.6,1.7-0.2l10.8,6.5c0.7,0.4,0.9,1.3,0.4,2
	l-68.8,99.2"/>
<path class="st7" d="M117.6,448.4l-60.3-78.1c-0.5-0.6-0.3-1.5,0.3-2l8.5-5.9c0.5-0.4,1.2-0.3,1.7,0.1l17.7,15.9
	c1.2,1.1,2.9-0.4,2.1-1.8l-40.2-66.3c-0.4-0.6-0.2-1.4,0.4-1.9l7.6-5.3c0.6-0.4,1.3-0.3,1.8,0.2c6.8,7,15.1,16.5,21.4,23.9
	c1.1,1.3,3.1-0.1,2.3-1.6L36.1,247c-0.4-0.6-0.2-1.4,0.4-1.8l11.3-7.9c0.6-0.4,1.5-0.3,1.9,0.3l24.3,34.7c1,1.4,3.2,0.1,2.4-1.4
	l-43.6-83.6c-0.3-0.6-0.1-1.4,0.4-1.8l12.5-8.7c0.7-0.5,1.6-0.3,2,0.4l19.8,34.5c0.8,1.4,2.9,0.5,2.6-1l-15.3-63.6
	c-0.2-0.7,0.3-1.5,1-1.7l16.5-4c0.7-0.2,1.5,0.3,1.7,1l15.2,63.4c0.4,1.6,2.6,1.4,2.7-0.2l2.2-37c0-0.8,0.8-1.4,1.6-1.3l15.2,2
	c0.7,0.1,1.2,0.7,1.2,1.4l-0.1,94.3c0,1.7,2.5,1.9,2.8,0.2l5.5-42c0.1-0.8,0.8-1.3,1.6-1.2l13.7,1.8c0.7,0.1,1.2,0.7,1.2,1.4
	l-3.3,90.4c-0.1,1.7,2.4,2,2.7,0.4c2.2-9.6,5.1-21.8,7.9-31.1c0.2-0.7,0.8-1.1,1.5-1l9.1,1.2c0.7,0.1,1.3,0.7,1.2,1.5l-5,77.4
	c-0.1,1.6,2.1,2.1,2.7,0.6l8.4-22.3c0.2-0.6,0.8-1,1.5-0.9l10.2,1.3c0.8,0.1,1.3,0.8,1.2,1.6l-18.4,102.9"/>
<path class="st53" d="M332.9,282.4c22.3-1.6,43,12.8,54.4,22.8c5.7,4.9,6.3,13.5,1.4,19.2c-9.9,11.5-28.2,28.8-50.6,30.4
	c-21,1.5-40.6-11.2-52.3-21c-7-5.9-7.8-16.3-1.7-23.1C294.4,299.4,311.9,284,332.9,282.4z"/>
<g>
	<path class="st16" d="M78.9,213.3c0.3,1.3,10.4-1.7,10.4-1.7L70,143.7c-0.2-0.6-0.8-1-1.4-0.9l-5.1,1.2L78.9,213.3z"/>
	<path class="st16" d="M100.5,170.1c0.6,0.1,1,0.6,1,1.2l-0.1,98.4c0,1.5,7.5,1.7,7.5,1.7l-0.6-99.3c0-0.6-0.4-1.1-1-1.2l-15.7-2
		c-0.2,0-0.3,0-0.5,0L100.5,170.1z"/>
	<path class="st16" d="M151.5,287.3l-9.6-1.2c-0.2,0-0.3,0-0.5,0l3.2,0.4c0.6,0.1,1.1,0.6,1,1.3l-5.2,79.5c-0.1,1.4,9.3,3.5,9.3,3.5
		l2.7-82.2C152.6,287.9,152.1,287.4,151.5,287.3z"/>
	<path class="st16" d="M151.6,447.7l20-101c0.1-0.7-0.3-1.3-1-1.4l-10.7-1.4c-0.2,0-0.3,0-0.5,0l4.3,0.6c0.7,0.1,1.1,0.7,1,1.4
		l-20,101"/>
	<path class="st16" d="M132.2,225.7l-14.2-1.8c-0.2,0-0.3,0-0.5,0l7.8,1c0.6,0.1,1.1,0.6,1,1.2l-3.5,93.4c-0.1,1.4,2.5,3.4,9.2,2
		l1.1-94.6C133.2,226.3,132.8,225.8,132.2,225.7z"/>
</g>
<path class="st17" d="M117.6,448.4l-60.3-78.1c-0.5-0.6-0.3-1.5,0.3-2l8.5-5.9c0.5-0.4,1.2-0.3,1.7,0.1l17.7,15.9
	c1.2,1.1,2.9-0.4,2.1-1.8l-40.2-66.3c-0.4-0.6-0.2-1.4,0.4-1.9l7.6-5.3c0.6-0.4,1.3-0.3,1.8,0.2c6.8,7,15.1,16.5,21.4,23.9
	c1.1,1.3,3.1-0.1,2.3-1.6L36.1,247c-0.4-0.6-0.2-1.4,0.4-1.8l11.3-7.9c0.6-0.4,1.5-0.3,1.9,0.3l24.3,34.7c1,1.4,3.2,0.1,2.4-1.4
	l-43.6-83.6c-0.3-0.6-0.1-1.4,0.4-1.8l12.5-8.7c0.7-0.5,1.6-0.3,2,0.4l19.8,34.5c0.8,1.4,2.9,0.5,2.6-1l-15.3-63.6
	c-0.2-0.7,0.3-1.5,1-1.7l16.5-4c0.7-0.2,1.5,0.3,1.7,1l15.2,63.4c0.4,1.6,2.6,1.4,2.7-0.2l2.2-37c0-0.8,0.8-1.4,1.6-1.3l15.2,2
	c0.7,0.1,1.2,0.7,1.2,1.4l-0.1,94.3c0,1.7,2.5,1.9,2.8,0.2l5.5-42c0.1-0.8,0.8-1.3,1.6-1.2l13.7,1.8c0.7,0.1,1.2,0.7,1.2,1.4
	l-3.3,90.4c-0.1,1.7,2.4,2,2.7,0.4c2.2-9.6,5.1-21.8,7.9-31.1c0.2-0.7,0.8-1.1,1.5-1l9.1,1.2c0.7,0.1,1.3,0.7,1.2,1.5l-5,77.4
	c-0.1,1.6,2.1,2.1,2.7,0.6l8.4-22.3c0.2-0.6,0.8-1,1.5-0.9l10.2,1.3c0.8,0.1,1.3,0.8,1.2,1.6l-18.4,102.9"/>
<path class="st52" d="M375.6,448.4h18.5c55.4-157.4-29.8-214.5-29.8-214.5L354,241C354,241,435.6,286.4,375.6,448.4H41"/>
<path class="st53" d="M314.2,145.7c30.1,19.1,41.2,59.2,44.9,79.4c1.3,7.1-3.1,14.1-10.1,15.9c-19.9,5.3-60.8,12.5-91-6.6
	c-29.1-18.4-40.4-56.5-44.5-77.3c-1.7-8.3,3.5-16.5,11.8-18.6C245.9,133.4,285.1,127.3,314.2,145.7z"/>
<path class="st20" d="M388.4,178c2.2,17.9-7.7,35.1-15.6,45.7c-4.7,6.3-13.7,7.5-19.9,2.5c-10.2-8.2-24.1-22.5-26.4-40.4
	c-2.1-16.7,6.5-33,14.1-43.6c5.4-7.6,16.2-9,23.3-2.9C373.9,147.6,386.3,161.2,388.4,178z"/>
<path class="st20" d="M410.5,236c11.9-19.8,36-29.1,51.8-33.1c8.7-2.3,17.5,3,19.6,11.8c3.8,15.9,7,41.5-4.9,61.3
	c-13.3,22.2-42,31.1-57.1,34.4c-5.7,1.2-11.4-2.2-13-7.8C402.7,287.7,397.2,258.2,410.5,236z"/>
<line class="st4" x1="485.4" y1="448.4" x2="326.3" y2="448.4"/>
<path class="st21" d="M468,207c0,0,25.5,73-55.2,96.5C423,321,467.1,288,467.1,288S506,220,468,207z"/>
<path class="st4" d="M410.5,236c11.9-19.8,36-29.1,51.8-33.1c8.7-2.3,17.5,3,19.6,11.8c3.8,15.9,7,41.5-4.9,61.3
	c-13.3,22.2-42,31.1-57.1,34.4c-5.7,1.2-11.4-2.2-13-7.8C402.7,287.7,397.2,258.2,410.5,236z"/>
<path class="st21" d="M354.5,138c0,0,29.7,44.8,4.6,87.2C361.5,242.5,423,164.5,354.5,138z"/>
<path class="st4" d="M388.4,178c2.2,17.9-7.7,35.1-15.6,45.7c-4.7,6.3-13.7,7.5-19.9,2.5c-10.2-8.2-24.1-22.5-26.4-40.4
	c-2.1-16.7,6.5-33,14.1-43.6c5.4-7.6,16.2-9,23.3-2.9C373.9,147.6,386.3,161.2,388.4,178z"/>
</svg>
