<?xml version="1.0" encoding="utf-8"?>
<!-- Generator: Adobe Illustrator 21.1.0, SVG Export Plug-In . SVG Version: 6.00 Build 0)  -->
<svg version="1.1" id="Layer_1" xmlns="http://www.w3.org/2000/svg" xmlns:xlink="http://www.w3.org/1999/xlink" x="0px" y="0px"
	 viewBox="0 0 512 512" style="enable-background:new 0 0 512 512;" xml:space="preserve">
<style type="text/css">
	.st0{fill:#F97A48;stroke:#000000;stroke-width:11;stroke-miterlimit:10;}
	.st1{fill:#F97A48;stroke:#000000;stroke-width:11;stroke-linecap:round;stroke-linejoin:round;stroke-miterlimit:10;}
	.st2{fill:#FFDA00;}
	.st3{fill:#EFC700;}
	.st4{fill:none;stroke:#000000;stroke-width:11;stroke-miterlimit:10;}
	.st5{fill:#FF6C9D;}
	.st6{fill:#FF6C9D;stroke:#1D1D1B;stroke-width:11;stroke-linecap:round;stroke-linejoin:round;stroke-miterlimit:10;}
	.st7{fill:#48D5BF;}
	.st8{fill:#48D5BF;stroke:#000000;stroke-width:11;stroke-miterlimit:10;}
	.st9{fill:#FFDA00;stroke:#000000;stroke-width:11;stroke-miterlimit:10;}
	.st10{fill:#C6EBF4;stroke:#000000;stroke-width:11;stroke-miterlimit:10;}
	.st11{fill:none;stroke:#000000;stroke-width:11;stroke-linecap:round;stroke-linejoin:round;stroke-miterlimit:10;}
	.st12{fill:#F97A48;}
	.st13{fill:#C6EBF4;}
	.st14{fill:#EF5F37;}
	.st15{fill:none;stroke:#000000;stroke-width:10.6363;stroke-miterlimit:10;}
	.st16{fill:#26C6A7;}
	.st17{fill:none;stroke:#000000;stroke-width:11;stroke-linecap:round;stroke-miterlimit:10;}
	.st18{fill:#FD4347;}
	.st19{fill:#EF3043;}
	.st20{fill:#4BBC32;}
	.st21{fill:#31AA0F;}
	.st22{fill:#AEE4ED;}
	.st23{fill:#FCD259;}
	.st24{fill:#53ADFC;stroke:#000000;stroke-width:11;stroke-miterlimit:10;}
	.st25{fill:#FFBCA4;stroke:#000000;stroke-width:11;stroke-miterlimit:10;}
	.st26{fill:#53ADFC;}
	.st27{fill:#B9D6ED;stroke:#000000;stroke-width:11;stroke-miterlimit:10;}
	.st28{fill:#24A1ED;}
	.st29{fill:#F4C245;}
	.st30{fill:none;stroke:#000000;stroke-miterlimit:10;}
	.st31{fill:#F95594;stroke:#000000;stroke-width:11;stroke-miterlimit:10;}
	.st32{fill:#24A1ED;stroke:#000000;stroke-width:11;stroke-miterlimit:10;}
	.st33{fill:#F95594;}
	.st34{fill:#4B5B6D;}
	.st35{fill:#3E5366;}
	.st36{fill:#FFDA00;stroke:#000000;stroke-width:5;stroke-miterlimit:10;}
	.st37{fill:#85AFDD;stroke:#000000;stroke-width:11;stroke-miterlimit:10;}
	.st38{fill:#FFA071;stroke:#1D1D1B;stroke-width:11;stroke-miterlimit:10;}
	.st39{fill:#FFFFFF;stroke:#1D1D1B;stroke-width:11;stroke-miterlimit:10;}
	.st40{fill:#FFDC64;}
	.st41{fill:#1D1D1B;}
	.st42{fill:#FF6C9D;stroke:#1D1D1B;stroke-width:11;stroke-miterlimit:10;}
	.st43{fill:#6FCEA6;}
	.st44{fill:#C6EBF4;stroke:#1D1D1B;stroke-width:11;stroke-miterlimit:10;}
	.st45{fill:#53C48E;}
	.st46{fill:#FFFFFF;stroke:#000000;stroke-width:11;stroke-miterlimit:10;}
	.st47{fill:#AEE4ED;stroke:#000000;stroke-width:11;stroke-miterlimit:10;}
	.st48{fill:#F97A48;stroke:#1D1D1B;stroke-width:11;stroke-miterlimit:10;}
	.st49{stroke:#1D1D1B;stroke-width:11;stroke-miterlimit:10;}
	.st50{fill:#FFA071;}
	.st51{fill:#53ADFC;stroke:#1D1D1B;stroke-width:11;stroke-miterlimit:10;}
	.st52{fill:#31AA0F;stroke:#000000;stroke-width:11;stroke-miterlimit:10;}
	.st53{fill:#4BBC32;stroke:#000000;stroke-width:11;stroke-miterlimit:10;}
	.st54{fill:#DD0E2C;}
	.st55{fill:#EA3106;}
	.st56{fill:#F22F7E;}
	.st57{fill:#FCD259;stroke:#000000;stroke-width:11;stroke-miterlimit:10;}
	.st58{fill:#FD4347;stroke:#000000;stroke-width:11;stroke-miterlimit:10;}
	.st59{fill:#FCB439;}
	.st60{fill:#F43842;}
	.st61{fill:#178DFB;}
	.st62{fill:#32AF14;}
	.st63{fill:#FFDA00;stroke:#1D1D1B;stroke-width:11.1327;stroke-miterlimit:10;}
	.st64{fill:#FCB439;stroke:#FFFFFF;stroke-width:14.5517;stroke-miterlimit:10;}
	.st65{fill:#FFFFFF;}
	.st66{clip-path:url(#SVGID_2_);}
	.st67{fill:#D8D8D8;}
	.st68{clip-path:url(#SVGID_4_);}
	.st69{clip-path:url(#SVGID_6_);}
	.st70{fill:#999999;stroke:#FFFFFF;stroke-width:14.5517;stroke-miterlimit:10;}
	.st71{clip-path:url(#SVGID_8_);}
	.st72{clip-path:url(#SVGID_10_);}
	.st73{fill:#EA461F;}
	.st74{clip-path:url(#SVGID_12_);}
	.st75{fill:#C41820;}
	.st76{clip-path:url(#SVGID_14_);}
	.st77{fill:#075492;}
	.st78{fill:#003662;}
	.st79{clip-path:url(#SVGID_16_);}
	.st80{clip-path:url(#SVGID_18_);}
	.st81{clip-path:url(#SVGID_20_);}
	.st82{clip-path:url(#SVGID_22_);}
	.st83{fill:#DDDDDD;}
	.st84{fill:none;stroke:#1D1D1B;stroke-width:11;stroke-linecap:round;stroke-linejoin:round;stroke-miterlimit:10;}
	.st85{fill:none;stroke:#1D1D1B;stroke-width:11.6468;stroke-linecap:round;stroke-linejoin:round;stroke-miterlimit:10;}
	.st86{fill:#C6EBF4;stroke:#1D1D1B;stroke-width:11;stroke-linecap:round;stroke-linejoin:round;stroke-miterlimit:10;}
	.st87{fill:none;stroke:#000000;stroke-width:12.0562;stroke-linecap:round;stroke-linejoin:round;stroke-miterlimit:10;}
	.st88{fill:#F4C245;stroke:#000000;stroke-width:12.0562;stroke-linecap:round;stroke-miterlimit:10;}
	.st89{fill:none;stroke:#000000;stroke-width:12.0562;stroke-linecap:round;stroke-miterlimit:10;}
	.st90{fill:#FCD259;stroke:#000000;stroke-width:12.0562;stroke-miterlimit:10;}
	.st91{fill:none;stroke:#000000;stroke-width:12.0562;stroke-miterlimit:10;}
	.st92{fill:none;}
	.st93{fill:none;stroke:#000000;stroke-width:14.133;stroke-linecap:round;stroke-linejoin:round;stroke-miterlimit:10;}
	.st94{fill:#FFDA00;stroke:#000000;stroke-width:12.0562;stroke-miterlimit:10;}
	.st95{fill:none;stroke:#000000;stroke-width:10.6363;stroke-linecap:round;stroke-miterlimit:10;}
	.st96{fill:none;stroke:#000000;stroke-width:9;stroke-linecap:round;stroke-linejoin:round;stroke-miterlimit:10;}
	.st97{fill:#78909C;}
	.st98{fill:#4A6068;}
	.st99{stroke:#000000;stroke-width:11;stroke-miterlimit:10;}
	.st100{fill:#AEACB3;stroke:#000000;stroke-width:11;stroke-miterlimit:10;}
	.st101{fill:#C6EBF4;stroke:#000000;stroke-width:11;stroke-linecap:round;stroke-linejoin:round;stroke-miterlimit:10;}
	.st102{fill:#FFDA00;stroke:#000000;stroke-width:11;stroke-linecap:round;stroke-linejoin:round;stroke-miterlimit:10;}
	.st103{fill:#4BBC32;stroke:#000000;stroke-width:11;stroke-linecap:round;stroke-miterlimit:10;}
	.st104{fill:none;stroke:#231F20;stroke-width:11;stroke-miterlimit:10;}
	.st105{fill:#C6EBF4;stroke:#1D1D1B;stroke-width:10.3784;stroke-linecap:round;stroke-linejoin:round;stroke-miterlimit:10;}
	.st106{fill:#C6EBF4;stroke:#1D1D1B;stroke-width:6.959;stroke-linecap:round;stroke-linejoin:round;stroke-miterlimit:10;}
	.st107{fill:none;stroke:#1D1D1B;stroke-width:10.3442;stroke-linecap:round;stroke-linejoin:round;stroke-miterlimit:10;}
	.st108{fill:#C6EBF4;stroke:#1D1D1B;stroke-width:8.7624;stroke-linecap:round;stroke-linejoin:round;stroke-miterlimit:10;}
	.st109{fill:#AEE4ED;stroke:#1D1D1B;stroke-width:11;stroke-miterlimit:10;}
</style>
<path class="st8" d="M167,477.8H62.4c-7.5,0-13.5-7.1-12.9-15.4c0-0.1,0-0.2,0-0.3c0.9-9.1,7.5-16.4,15.6-17.4
	c1.7-0.2,3.4-0.1,5.1,0.2c1.8,0.3,3.6-0.8,4.3-2.7c4.4-11.4,14.6-19.4,26.4-19.4c9.5,0,17.9,5.1,23.1,12.9c1.1,1.7,3.1,2.2,4.8,1.4
	c3.3-1.6,7-2.4,10.8-2.2c11.5,0.8,20.9,11,21.8,23.7c0.3,3.6-0.2,7.1-1.1,10.3l-7.7,8.9"/>
<path class="st9" d="M176.4,361.2L176.4,361.2c4.2,0,7.5-3.4,7.5-7.5V33.4c0-4.2-3.4-7.5-7.5-7.5h0c-4.2,0-7.5,3.4-7.5,7.5v320.3
	C168.8,357.8,172.2,361.2,176.4,361.2z"/>
<path class="st0" d="M208.5,388h-64.3c-5.2,0-9.5-4.3-9.5-9.5v0c0-13.9,11.4-25.3,25.3-25.3h32.7c13.9,0,25.3,11.4,25.3,25.3v0
	C218,383.7,213.7,388,208.5,388z"/>
<path class="st10" d="M293.3,416h-75.5c-2.9,0-5.3-2.3-5.4-5.2L211,386h-71l-0.9,56.1c0,20.3,16.6,36.8,36.8,36.8h117.3
	c5.2,0,9.5-4.3,9.5-9.5v-44C302.7,420.2,298.5,416,293.3,416z"/>
<path class="st11" d="M164.6,400.9v35.4c0,12.6,4.8,24.8,13.4,34l6.6,7.2"/>
<path class="st11" d="M186.8,409v27.3c0,12.6,4.8,24.8,13.4,34l6.6,7.2"/>
<line class="st11" x1="227.9" y1="458.9" x2="311.7" y2="458.9"/>
<line class="st11" x1="206.8" y1="436.2" x2="298.8" y2="436.2"/>
<path class="st2" d="M406.1,480h-117c-12.1,0-21.8-9.1-21.8-20.4l-17.6-179.1h195.9l-17.6,179.1C427.9,470.8,418.2,480,406.1,480z"
	/>
<path class="st2" d="M448.5,291H246.7c-5.5,0-9.9-4.4-9.9-9.9v-5.2c0-5.5,4.4-9.9,9.9-9.9h201.7c5.5,0,9.9,4.4,9.9,9.9v5.2
	C458.3,286.6,453.9,291,448.5,291z"/>
<path class="st3" d="M423.1,293.8l-15.5,183.6c0,0,15,10.6,22.8-17.8c7.7-28.5,15.2-172.1,15.2-172.1L423.1,293.8z"/>
<polygon class="st3" points="254.1,311.1 446.6,311.1 446.6,291 249.6,291.5 "/>
<polygon class="st3" points="454.6,291.7 456.3,266.4 432.3,264.8 431.2,290.7 "/>
<path class="st4" d="M406.1,480h-117c-12.1,0-21.8-9.1-21.8-20.4l-17.6-168.1h195.9l-17.6,168.1C427.9,470.8,418.2,480,406.1,480z"
	/>
<path class="st4" d="M448.5,291H246.7c-5.5,0-9.9-4.4-9.9-9.9v-5.2c0-5.5,4.4-9.9,9.9-9.9h201.7c5.5,0,9.9,4.4,9.9,9.9v5.2
	C458.3,286.6,453.9,291,448.5,291z"/>
<path class="st0" d="M451.6,396l-2.9,2.6c-2.6,2.4-6.6,2.2-8.9-0.4l-98.7-107.8c-2.4-2.6-2.2-6.6,0.4-8.9l2.9-2.6
	c2.6-2.4,6.6-2.2,8.9,0.4L452,387.1C454.4,389.7,454.2,393.7,451.6,396z"/>
<path class="st7" d="M313.6,241.4c-7.8,0-14.5,5.1-16.9,12.1c-2.7-1-5.6-1.5-8.6-1.5c-4.5,0-8.8,1.2-12.4,3.3
	c-2.8-4-7.5-6.6-12.8-6.6c-8.6,0-15.6,7-15.6,15.6c0,8.6,7,15.6,15.6,15.6c0.1,0,0.1,0,0.2,0c1.4,12.6,12.1,22.5,25.1,22.5
	c13.9,0,25.2-11.3,25.2-25.2c0-0.1,0-0.1,0-0.2c0.1,0,0.2,0,0.2,0c9.8,0,17.8-8,17.8-17.8C331.4,249.4,323.4,241.4,313.6,241.4z"/>
<path class="st16" d="M313.4,247.1c-1,0-2,0.1-2.9,0.3c5.7,1.3,10,6.5,10,12.6c0,6.2-4.3,11.3-10,12.6c0.9,0.2,1.9,0.3,2.9,0.3
	c7.2,0,13-5.8,13-13C326.4,252.9,320.6,247.1,313.4,247.1z"/>
<path class="st16" d="M309.7,274.7c-0.2-0.4-0.7-1.2-1.4-2.1c-2.4,11.4-5.4,14.9-14,18.8c-5.6,2.5-19.4,2.9-25.8-4.2
	c0.4,1.5,1,3,1.8,4.4c5.7,10.1,18.5,13.8,28.6,8.1C309.1,294.1,315.4,284.9,309.7,274.7z"/>
<path class="st11" d="M313.6,241.4c-7.8,0-14.5,5.1-16.9,12.1c-2.7-1-5.6-1.5-8.6-1.5c-4.5,0-8.8,1.2-12.4,3.3
	c-2.8-4-7.5-6.6-12.8-6.6c-8.6,0-15.6,7-15.6,15.6c0,8.6,7,15.6,15.6,15.6c0.1,0,0.1,0,0.2,0c1.4,12.6,12.1,22.5,25.1,22.5
	c13.9,0,25.2-11.3,25.2-25.2c0-0.1,0-0.1,0-0.2c0.1,0,0.2,0,0.2,0c9.8,0,17.8-8,17.8-17.8C331.4,249.4,323.4,241.4,313.6,241.4z"/>
</svg>
