<?xml version="1.0" encoding="utf-8"?>
<!-- Generator: Adobe Illustrator 19.0.0, SVG Export Plug-In . SVG Version: 6.00 Build 0)  -->
<svg version="1.1" id="Capa_1" xmlns="http://www.w3.org/2000/svg" xmlns:xlink="http://www.w3.org/1999/xlink" x="0px" y="0px"
	 viewBox="-49 141 512 512" style="enable-background:new -49 141 512 512;" xml:space="preserve">
<style type="text/css">
	.st0{fill:#FFFFFF;}
	.st1{fill:#B1E8FF;stroke:#000000;stroke-width:10;stroke-miterlimit:10;}
	.st2{fill:#FFAF68;stroke:#000000;stroke-width:10;stroke-miterlimit:10;}
	.st3{fill:#CB7C52;stroke:#000000;stroke-width:10;stroke-miterlimit:10;}
	.st4{fill:#AB5436;stroke:#000000;stroke-width:10;stroke-miterlimit:10;}
	.st5{fill:#63C3EA;stroke:#000000;stroke-width:10;stroke-miterlimit:10;}
	.st6{opacity:0.1;}
	.st7{fill:#FF9F3D;stroke:#000000;stroke-width:10;stroke-miterlimit:10;}
	.st8{fill:#FFBB4A;stroke:#000000;stroke-width:10;stroke-miterlimit:10;}
	.st9{opacity:0.1;enable-background:new    ;}
	.st10{fill:#3EAF91;stroke:#000000;stroke-width:10;stroke-miterlimit:10;}
	.st11{fill:#FCC96C;stroke:#000000;stroke-width:10;stroke-miterlimit:10;}
	.st12{fill:#86D5B5;stroke:#000000;stroke-width:10;stroke-miterlimit:10;}
</style>
<path class="st0" d="M439.8,464.1h-63.2c-2.8,0-5,2.3-5,5v11.4c0,1.6,0.8,3.1,2,4c0.8-0.6,1.9-1,3-1h63.2c1.1,0,2.1,0.4,3,1
	c1.2-0.9,2-2.4,2-4v-11.4C444.8,466.3,442.6,464.1,439.8,464.1z"/>
<path class="st1" d="M444.6,501.1c0.1-0.4,0.2-0.9,0.2-1.3v-11.4c0-2.8-2.3-5-5-5h-63.2c-2.8,0-5,2.3-5,5v11.4
	c0,0.5,0.1,0.9,0.2,1.3H444.6z"/>
<g>
	<path class="st2" d="M360.9,567.9v20.8c0,2.8,2.3,5,5,5h9c2.8,0,5-2.3,5-5v-20.8H360.9z"/>
	<path class="st2" d="M436.5,588.7c0,2.8,2.3,5,5,5h9c2.8,0,5-2.3,5-5v-20.8h-19V588.7z"/>
</g>
<rect x="360.9" y="546.7" class="st3" width="94.6" height="21.2"/>
<path class="st4" d="M450.4,501.1H366c-2.8,0-5.1,2.3-5.1,5.1v40.5h94.6v-40.5C455.5,503.4,453.2,501.1,450.4,501.1z"/>
<path class="st5" d="M26.8,588.6v-18.4h-55.7c-2.8,0-5,2.3-5,5v13.6c0,2.8,2.2,5,5,5h56c0.9,0,1.7-0.3,2.4-0.7
	C27.9,592.2,26.8,590.5,26.8,588.6z"/>
<g class="st6">
	<path d="M-12,588.7v-13.6c0-2.8,2.3-5,5-5h-21.9c-2.8,0-5,2.3-5,5v13.6c0,2.8,2.2,5,5,5H-7C-9.8,593.7-12,591.5-12,588.7z"/>
</g>
<path class="st7" d="M39.8,371.8c0,2.8-2.3,5-5,5h-71.3c-2.8,0-5-2.3-5-5v-90.8c0-2.8,2.3-5,5-5h71.3c2.8,0,5,2.3,5,5V371.8z"/>
<g class="st6">
	<path d="M-20,371.8v-90.8c0-2.8,2.3-5,5-5h-21.5c-2.8,0-5,2.3-5,5v90.8c0,2.8,2.3,5,5,5H-15C-17.8,376.8-20,374.6-20,371.8z"/>
</g>
<path class="st8" d="M312.8,409.1H72.4c-5.5,0-10,4.5-10,10V479c5.1,0.5,9.2,4.9,9.2,10.1v27.4h242.1v-27.4c0-5.3,4-9.6,9.2-10.1
	v-59.9C322.8,413.6,318.3,409.1,312.8,409.1z"/>
<path class="st9" d="M71.5,516.6h13.9c-0.9-1.5-1.4-3.2-1.4-5.1v-92.4c0-5.5,4.5-10,10-10H72.4c-5.5,0-10,4.5-10,10V479
	c5.1,0.5,9.2,4.9,9.2,10.1V516.6z"/>
<g>
	<path class="st10" d="M105.1,516.6H154c1.8-0.8,3-2.5,3-4.6v-45c0-2.8-2.3-5-5-5h-44.9c-2.8,0-5,2.3-5,5v45
		C102.1,514,103.3,515.8,105.1,516.6z"/>
	<path class="st10" d="M235.3,516.6h48.9c1.8-0.8,3-2.5,3-4.6v-45c0-2.8-2.3-5-5-5h-44.9c-2.8,0-5,2.3-5,5v45
		C232.3,514,233.5,515.8,235.3,516.6z"/>
</g>
<rect x="71.5" y="516.6" class="st7" width="242.1" height="51.5"/>
<path class="st11" d="M61.4,479H37c-5.6,0-10.2,4.6-10.2,10.2v99.4c0,2.8,2.3,5.1,5.1,5.1h34.6c2.8,0,5.1-2.3,5.1-5.1v-99.4
	C71.5,483.6,67,479,61.4,479z"/>
<g class="st6">
	<path d="M48.2,588.6v-99.4c0-5.6,4.6-10.2,10.2-10.2H37c-5.6,0-10.2,4.6-10.2,10.2v99.4c0,2.8,2.3,5.1,5.1,5.1h21.5
		C50.5,593.7,48.2,591.4,48.2,588.6z"/>
</g>
<path class="st11" d="M348.2,479h-24.4c-5.6,0-10.2,4.6-10.2,10.2v99.4c0,2.8,2.3,5.1,5.1,5.1h34.6c2.8,0,5.1-2.3,5.1-5.1v-99.4
	C358.4,483.6,353.8,479,348.2,479z"/>
<g class="st6">
	<path d="M330,588.6v-99.4c0-5.6,4.6-10.2,10.2-10.2h-16.4c-5.6,0-10.2,4.6-10.2,10.2v99.4c0,2.8,2.3,5.1,5.1,5.1h16.4
		C332.3,593.7,330,591.4,330,588.6z"/>
</g>
<path class="st4" d="M305,223.3H80.2c-2.9,0-5.3,2.4-5.3,5.3v124.1c0,2.9,2.4,5.3,5.3,5.3H305c2.9,0,5.3-2.4,5.3-5.3V228.6
	C310.3,225.7,307.9,223.3,305,223.3z"/>
<rect x="96.1" y="244.5" class="st1" width="192.9" height="92.3"/>
<path class="st12" d="M281,336.8c1.6,0,2.3-1.1,1.4-2.5l-30.9-47.2c-0.9-1.4-2.4-1.4-3.3,0l-30.9,47.2c-0.9,1.4-0.3,2.5,1.4,2.5H281
	z"/>
<g class="st6">
	<rect x="96.1" y="244.5" width="16.9" height="92.3"/>
</g>
<g>
	<path class="st8" d="M360.8,409c-1.2,0-2.2-0.8-2.5-1.9c-4.2-13.5-7-16.4-20.4-20.7c-1.1-0.4-1.9-1.4-1.9-2.6
		c0-1.2,0.8-2.2,1.9-2.6c13.4-4.2,16.3-7.1,20.4-20.7c0.3-1.1,1.4-1.9,2.5-1.9c1.2,0,2.2,0.8,2.5,1.9c4.2,13.6,7,16.4,20.4,20.7
		c1.1,0.4,1.9,1.4,1.9,2.6c0,1.2-0.8,2.2-1.9,2.6c-13.4,4.2-16.3,7.1-20.4,20.7C363,408.2,362,409,360.8,409z"/>
	<path class="st8" d="M397.5,302c-1.3,0-2.4-0.8-2.8-2.1c-4.6-15-7.8-18.2-22.6-22.9c-1.2-0.4-2.1-1.5-2.1-2.8
		c0-1.3,0.8-2.5,2.1-2.8c14.8-4.7,18-7.9,22.6-22.9c0.4-1.2,1.5-2.1,2.8-2.1c1.3,0,2.4,0.9,2.8,2.1c4.6,15,7.8,18.2,22.6,22.9
		c1.2,0.4,2.1,1.5,2.1,2.8c0,1.3-0.8,2.5-2.1,2.8c-14.8,4.7-18,7.9-22.6,22.9C399.9,301.2,398.8,302,397.5,302z"/>
	<path class="st8" d="M28,241.9c-1,0-1.8-0.6-2.1-1.6c-3.4-11.2-5.8-13.6-16.9-17.1c-0.9-0.3-1.5-1.1-1.5-2.1c0-1,0.6-1.8,1.5-2.1
		c11.1-3.5,13.5-5.9,16.9-17.1c0.3-0.9,1.1-1.6,2.1-1.6s1.8,0.6,2.1,1.6c3.5,11.2,5.8,13.6,16.9,17.1c0.9,0.3,1.5,1.2,1.5,2.1
		c0,1-0.6,1.8-1.5,2.1c-11.1,3.5-13.4,5.9-16.9,17.1C29.8,241.2,29,241.9,28,241.9z"/>
</g>
<path class="st10" d="M193.9,264.7c-0.9-1.4-2.4-1.4-3.3,0l-45.5,69.6c-0.9,1.4-0.3,2.5,1.4,2.5H238c1.6,0,2.3-1.1,1.4-2.5
	L193.9,264.7z"/>
<path class="st12" d="M137.6,286.1c-0.9-1.4-2.4-1.4-3.3,0l-31.5,48.2c-0.9,1.4-0.3,2.5,1.4,2.5h63.6c1.6,0,2.3-1.1,1.4-2.5
	L137.6,286.1z"/>
<path d="M398.5,534.8h19.3c4.1,0,7.5-3.4,7.5-7.5c0-4.1-3.4-7.5-7.5-7.5h-19.3c-4.1,0-7.5,3.4-7.5,7.5
	C391,531.4,394.4,534.8,398.5,534.8z"/>
</svg>
