<?xml version="1.0" encoding="utf-8"?>
<!-- Generator: Adobe Illustrator 21.1.0, SVG Export Plug-In . SVG Version: 6.00 Build 0)  -->
<svg version="1.1" id="Layer_1" xmlns="http://www.w3.org/2000/svg" xmlns:xlink="http://www.w3.org/1999/xlink" x="0px" y="0px"
	 viewBox="0 0 512 512" style="enable-background:new 0 0 512 512;" xml:space="preserve">
<style type="text/css">
	.st0{fill:#F97A48;stroke:#000000;stroke-width:11;stroke-miterlimit:10;}
	.st1{fill:#F97A48;stroke:#000000;stroke-width:11;stroke-linecap:round;stroke-linejoin:round;stroke-miterlimit:10;}
	.st2{fill:#FFDA00;}
	.st3{fill:#EFC700;}
	.st4{fill:none;stroke:#000000;stroke-width:11;stroke-miterlimit:10;}
	.st5{fill:#FF6C9D;}
	.st6{fill:#FF6C9D;stroke:#1D1D1B;stroke-width:11;stroke-linecap:round;stroke-linejoin:round;stroke-miterlimit:10;}
	.st7{fill:#48D5BF;}
	.st8{fill:#48D5BF;stroke:#000000;stroke-width:11;stroke-miterlimit:10;}
	.st9{fill:#FFDA00;stroke:#000000;stroke-width:11;stroke-miterlimit:10;}
	.st10{fill:#C6EBF4;stroke:#000000;stroke-width:11;stroke-miterlimit:10;}
	.st11{fill:none;stroke:#000000;stroke-width:11;stroke-linecap:round;stroke-linejoin:round;stroke-miterlimit:10;}
	.st12{fill:#F97A48;}
	.st13{fill:#C6EBF4;}
	.st14{fill:#EF5F37;}
	.st15{fill:none;stroke:#000000;stroke-width:10.6363;stroke-miterlimit:10;}
	.st16{fill:#26C6A7;}
	.st17{fill:none;stroke:#000000;stroke-width:11;stroke-linecap:round;stroke-miterlimit:10;}
	.st18{fill:#FD4347;}
	.st19{fill:#EF3043;}
	.st20{fill:#4BBC32;}
	.st21{fill:#31AA0F;}
	.st22{fill:#AEE4ED;}
	.st23{fill:#FCD259;}
	.st24{fill:#53ADFC;stroke:#000000;stroke-width:11;stroke-miterlimit:10;}
	.st25{fill:#FFBCA4;stroke:#000000;stroke-width:11;stroke-miterlimit:10;}
	.st26{fill:#53ADFC;}
	.st27{fill:#B9D6ED;stroke:#000000;stroke-width:11;stroke-miterlimit:10;}
	.st28{fill:#24A1ED;}
	.st29{fill:#F4C245;}
	.st30{fill:none;stroke:#000000;stroke-miterlimit:10;}
	.st31{fill:#F95594;stroke:#000000;stroke-width:11;stroke-miterlimit:10;}
	.st32{fill:#24A1ED;stroke:#000000;stroke-width:11;stroke-miterlimit:10;}
	.st33{fill:#F95594;}
	.st34{fill:#4B5B6D;}
	.st35{fill:#3E5366;}
	.st36{fill:#FFDA00;stroke:#000000;stroke-width:5;stroke-miterlimit:10;}
	.st37{fill:#85AFDD;stroke:#000000;stroke-width:11;stroke-miterlimit:10;}
	.st38{fill:#FFA071;stroke:#1D1D1B;stroke-width:11;stroke-miterlimit:10;}
	.st39{fill:#FFFFFF;stroke:#1D1D1B;stroke-width:11;stroke-miterlimit:10;}
	.st40{fill:#FFDC64;}
	.st41{fill:#1D1D1B;}
	.st42{fill:#FF6C9D;stroke:#1D1D1B;stroke-width:11;stroke-miterlimit:10;}
	.st43{fill:#6FCEA6;}
	.st44{fill:#C6EBF4;stroke:#1D1D1B;stroke-width:11;stroke-miterlimit:10;}
	.st45{fill:#53C48E;}
	.st46{fill:#FFFFFF;stroke:#000000;stroke-width:11;stroke-miterlimit:10;}
	.st47{fill:#AEE4ED;stroke:#000000;stroke-width:11;stroke-miterlimit:10;}
	.st48{fill:#F97A48;stroke:#1D1D1B;stroke-width:11;stroke-miterlimit:10;}
	.st49{stroke:#1D1D1B;stroke-width:11;stroke-miterlimit:10;}
	.st50{fill:#FFA071;}
	.st51{fill:#53ADFC;stroke:#1D1D1B;stroke-width:11;stroke-miterlimit:10;}
	.st52{fill:#31AA0F;stroke:#000000;stroke-width:11;stroke-miterlimit:10;}
	.st53{fill:#4BBC32;stroke:#000000;stroke-width:11;stroke-miterlimit:10;}
	.st54{fill:#DD0E2C;}
	.st55{fill:#EA3106;}
	.st56{fill:#F22F7E;}
	.st57{fill:#FCD259;stroke:#000000;stroke-width:11;stroke-miterlimit:10;}
	.st58{fill:#FD4347;stroke:#000000;stroke-width:11;stroke-miterlimit:10;}
	.st59{fill:#FCB439;}
	.st60{fill:#F43842;}
	.st61{fill:#178DFB;}
	.st62{fill:#32AF14;}
	.st63{fill:#FFDA00;stroke:#1D1D1B;stroke-width:11.1327;stroke-miterlimit:10;}
	.st64{fill:#FCB439;stroke:#FFFFFF;stroke-width:14.5517;stroke-miterlimit:10;}
	.st65{fill:#FFFFFF;}
	.st66{clip-path:url(#SVGID_2_);}
	.st67{fill:#D8D8D8;}
	.st68{clip-path:url(#SVGID_4_);}
	.st69{clip-path:url(#SVGID_6_);}
	.st70{fill:#999999;stroke:#FFFFFF;stroke-width:14.5517;stroke-miterlimit:10;}
	.st71{clip-path:url(#SVGID_8_);}
	.st72{clip-path:url(#SVGID_10_);}
	.st73{fill:#EA461F;}
	.st74{clip-path:url(#SVGID_12_);}
	.st75{fill:#C41820;}
	.st76{clip-path:url(#SVGID_14_);}
	.st77{fill:#075492;}
	.st78{fill:#003662;}
	.st79{clip-path:url(#SVGID_16_);}
	.st80{clip-path:url(#SVGID_18_);}
	.st81{clip-path:url(#SVGID_20_);}
	.st82{clip-path:url(#SVGID_22_);}
	.st83{fill:#DDDDDD;}
	.st84{fill:none;stroke:#1D1D1B;stroke-width:11;stroke-linecap:round;stroke-linejoin:round;stroke-miterlimit:10;}
	.st85{fill:none;stroke:#1D1D1B;stroke-width:11.6468;stroke-linecap:round;stroke-linejoin:round;stroke-miterlimit:10;}
	.st86{fill:#C6EBF4;stroke:#1D1D1B;stroke-width:11;stroke-linecap:round;stroke-linejoin:round;stroke-miterlimit:10;}
	.st87{fill:none;stroke:#000000;stroke-width:12.0562;stroke-linecap:round;stroke-linejoin:round;stroke-miterlimit:10;}
	.st88{fill:#F4C245;stroke:#000000;stroke-width:12.0562;stroke-linecap:round;stroke-miterlimit:10;}
	.st89{fill:none;stroke:#000000;stroke-width:12.0562;stroke-linecap:round;stroke-miterlimit:10;}
	.st90{fill:#FCD259;stroke:#000000;stroke-width:12.0562;stroke-miterlimit:10;}
	.st91{fill:none;stroke:#000000;stroke-width:12.0562;stroke-miterlimit:10;}
	.st92{fill:none;}
	.st93{fill:none;stroke:#000000;stroke-width:14.133;stroke-linecap:round;stroke-linejoin:round;stroke-miterlimit:10;}
	.st94{fill:#FFDA00;stroke:#000000;stroke-width:12.0562;stroke-miterlimit:10;}
	.st95{fill:none;stroke:#000000;stroke-width:10.6363;stroke-linecap:round;stroke-miterlimit:10;}
	.st96{fill:none;stroke:#000000;stroke-width:9;stroke-linecap:round;stroke-linejoin:round;stroke-miterlimit:10;}
	.st97{fill:#78909C;}
	.st98{fill:#4A6068;}
	.st99{stroke:#000000;stroke-width:11;stroke-miterlimit:10;}
	.st100{fill:#AEACB3;stroke:#000000;stroke-width:11;stroke-miterlimit:10;}
	.st101{fill:#C6EBF4;stroke:#000000;stroke-width:11;stroke-linecap:round;stroke-linejoin:round;stroke-miterlimit:10;}
	.st102{fill:#FFDA00;stroke:#000000;stroke-width:11;stroke-linecap:round;stroke-linejoin:round;stroke-miterlimit:10;}
	.st103{fill:#4BBC32;stroke:#000000;stroke-width:11;stroke-linecap:round;stroke-miterlimit:10;}
	.st104{fill:none;stroke:#231F20;stroke-width:11;stroke-miterlimit:10;}
	.st105{fill:#C6EBF4;stroke:#1D1D1B;stroke-width:10.3784;stroke-linecap:round;stroke-linejoin:round;stroke-miterlimit:10;}
	.st106{fill:#C6EBF4;stroke:#1D1D1B;stroke-width:6.959;stroke-linecap:round;stroke-linejoin:round;stroke-miterlimit:10;}
	.st107{fill:none;stroke:#1D1D1B;stroke-width:10.3442;stroke-linecap:round;stroke-linejoin:round;stroke-miterlimit:10;}
	.st108{fill:#C6EBF4;stroke:#1D1D1B;stroke-width:8.7624;stroke-linecap:round;stroke-linejoin:round;stroke-miterlimit:10;}
	.st109{fill:#AEE4ED;stroke:#1D1D1B;stroke-width:11;stroke-miterlimit:10;}
</style>
<path class="st0" d="M226.7,271.1h-72.6c-47.5,0-86.4-38.9-86.4-86.4v-8.8c0-47.5,38.9-86.4,86.4-86.4h72.6
	c47.5,0,86.4,38.9,86.4,86.4v8.8C313.2,232.2,274.3,271.1,226.7,271.1z"/>
<path class="st1" d="M166.9,126.1h37.6c46.4,0,85,35.3,90.2,80.4"/>
<path class="st2" d="M372.6,268.9h-75.2c-39,0-70.9-31.9-70.9-70.9v-7.2c0-39,31.9-70.9,70.9-70.9h75.2c39,0,70.9,31.9,70.9,70.9
	v7.2C443.6,237,411.7,268.9,372.6,268.9z"/>
<path class="st3" d="M372.6,119.8h-26c39,0,70.9,31.9,70.9,70.9v7.2c0,39-31.9,70.9-70.9,70.9h26c39,0,70.9-31.9,70.9-70.9v-7.2
	C443.6,151.7,411.7,119.8,372.6,119.8z"/>
<path class="st4" d="M372.6,268.9h-75.2c-39,0-70.9-31.9-70.9-70.9v-7.2c0-39,31.9-70.9,70.9-70.9h75.2c39,0,70.9,31.9,70.9,70.9
	v7.2C443.6,237,411.7,268.9,372.6,268.9z"/>
<path class="st5" d="M65.2,249c-1.8-6.4-2.8-13.2-2.8-20.2v0c0-40.9,33.5-60.7,74.4-60.7h238.4c40.9,0,74.4,19.8,74.4,60.7v0
	c0,5.1-0.7,11.4-1.7,16.3"/>
<path class="st6" d="M133.6,217.4h104.2c40.9,0,74.4,33.5,74.4,74.4v0c0,5.1-0.7,11.4-1.7,16.3"/>
<path class="st7" d="M57.6,288.2l33.3,152.3c1.8,8.1,11,14.1,21.7,14.1h290.9c10.8,0,20-6,21.8-14.3L457,288.2H57.6z M370.3,317.1
	c6.9,0,12.5,4.3,12.5,9.6v18.1c0,4.9-4,8.9-8.9,8.9h-7.2c-4.9,0-8.9-4-8.9-8.9v-18.1C357.8,321.4,363.4,317.1,370.3,317.1z
	 M314.2,317.1c6.9,0,12.5,4.3,12.5,9.6v18.1c0,4.9-4,8.9-8.9,8.9h-7.2c-4.9,0-8.9-4-8.9-8.9v-18.1
	C301.7,321.4,307.4,317.1,314.2,317.1z M258.2,317.1L258.2,317.1c6.9,0,12.5,4.3,12.5,9.6v18.1c0,4.9-4,8.9-8.9,8.9h-7.2
	c-4.9,0-8.9-4-8.9-8.9v-18.1C245.7,321.4,251.3,317.1,258.2,317.1z M202.1,317.1c6.9,0,12.5,4.3,12.5,9.6v18.1c0,4.9-4,8.9-8.9,8.9
	h-7.2c-4.9,0-8.9-4-8.9-8.9v-18.1C189.6,321.4,195.2,317.1,202.1,317.1z M146,317.1L146,317.1c6.9,0,12.5,4.3,12.5,9.6v18.1
	c0,4.9-4,8.9-8.9,8.9h-7.2c-4.9,0-8.9-4-8.9-8.9v-18.1C133.5,321.4,139.1,317.1,146,317.1z M146,420.4L146,420.4
	c-6.9,0-12.5-4.3-12.5-9.6v-19.1c0-4.9,4-8.9,8.9-8.9h7.2c4.9,0,8.9,4,8.9,8.9v19.1C158.5,416,152.9,420.4,146,420.4z M202.1,420.4
	c-6.9,0-12.5-4.3-12.5-9.6v-19.1c0-4.9,4-8.9,8.9-8.9h7.2c4.9,0,8.9,4,8.9,8.9v19.1C214.6,416,209,420.4,202.1,420.4z M258.2,420.4
	L258.2,420.4c-6.9,0-12.5-4.3-12.5-9.6v-19.1c0-4.9,4-8.9,8.9-8.9h7.2c4.9,0,8.9,4,8.9,8.9v19.1C270.7,416,265,420.4,258.2,420.4z
	 M314.2,420.4c-6.9,0-12.5-4.3-12.5-9.6v-19.1c0-4.9,4-8.9,8.9-8.9h7.2c4.9,0,8.9,4,8.9,8.9v19.1C326.8,416,321.1,420.4,314.2,420.4
	z M370.3,420.4c-6.9,0-12.5-4.3-12.5-9.6v-19.1c0-4.9,4-8.9,8.9-8.9h7.2c4.9,0,8.9,4,8.9,8.9v19.1
	C382.8,416,377.2,420.4,370.3,420.4z"/>
<path class="st7" d="M459.3,288.2h-404c-6.5,0-11.8-5.3-11.8-11.8v-14.5c0-6.5,5.3-11.8,11.8-11.8h404c6.5,0,11.8,5.3,11.8,11.8
	v14.5C471.1,282.9,465.8,288.2,459.3,288.2z"/>
<rect x="443.6" y="250" class="st16" width="26.9" height="38.2"/>
<polygon class="st16" points="418.3,448.9 398.8,453.4 434.7,286.9 456.1,289.6 "/>
<path class="st4" d="M458.6,288.2h-404c-6.5,0-11.8-5.3-11.8-11.8v-14.5c0-6.5,5.3-11.8,11.8-11.8h404c6.5,0,11.8,5.3,11.8,11.8
	v14.5C470.4,282.9,465.2,288.2,458.6,288.2z"/>
<rect x="57.6" y="288.2" class="st16" width="395.3" height="18.6"/>
<path class="st104" d="M57.6,288.2l33.3,152.3c1.8,8.1,11,14.1,21.7,14.1h290.9c10.8,0,20-6,21.8-14.3L457,288.2H57.6z M370.3,317.1
	c6.9,0,12.5,4.3,12.5,9.6v18.1c0,4.9-4,8.9-8.9,8.9h-7.2c-4.9,0-8.9-4-8.9-8.9v-18.1C357.8,321.4,363.4,317.1,370.3,317.1z
	 M314.2,317.1c6.9,0,12.5,4.3,12.5,9.6v18.1c0,4.9-4,8.9-8.9,8.9h-7.2c-4.9,0-8.9-4-8.9-8.9v-18.1
	C301.7,321.4,307.4,317.1,314.2,317.1z M258.2,317.1L258.2,317.1c6.9,0,12.5,4.3,12.5,9.6v18.1c0,4.9-4,8.9-8.9,8.9h-7.2
	c-4.9,0-8.9-4-8.9-8.9v-18.1C245.7,321.4,251.3,317.1,258.2,317.1z M202.1,317.1c6.9,0,12.5,4.3,12.5,9.6v18.1c0,4.9-4,8.9-8.9,8.9
	h-7.2c-4.9,0-8.9-4-8.9-8.9v-18.1C189.6,321.4,195.2,317.1,202.1,317.1z M146,317.1L146,317.1c6.9,0,12.5,4.3,12.5,9.6v18.1
	c0,4.9-4,8.9-8.9,8.9h-7.2c-4.9,0-8.9-4-8.9-8.9v-18.1C133.5,321.4,139.1,317.1,146,317.1z M146,420.4L146,420.4
	c-6.9,0-12.5-4.3-12.5-9.6v-19.1c0-4.9,4-8.9,8.9-8.9h7.2c4.9,0,8.9,4,8.9,8.9v19.1C158.5,416,152.9,420.4,146,420.4z M202.1,420.4
	c-6.9,0-12.5-4.3-12.5-9.6v-19.1c0-4.9,4-8.9,8.9-8.9h7.2c4.9,0,8.9,4,8.9,8.9v19.1C214.6,416,209,420.4,202.1,420.4z M258.2,420.4
	L258.2,420.4c-6.9,0-12.5-4.3-12.5-9.6v-19.1c0-4.9,4-8.9,8.9-8.9h7.2c4.9,0,8.9,4,8.9,8.9v19.1C270.7,416,265,420.4,258.2,420.4z
	 M314.2,420.4c-6.9,0-12.5-4.3-12.5-9.6v-19.1c0-4.9,4-8.9,8.9-8.9h7.2c4.9,0,8.9,4,8.9,8.9v19.1C326.8,416,321.1,420.4,314.2,420.4
	z M370.3,420.4c-6.9,0-12.5-4.3-12.5-9.6v-19.1c0-4.9,4-8.9,8.9-8.9h7.2c4.9,0,8.9,4,8.9,8.9v19.1
	C382.8,416,377.2,420.4,370.3,420.4z"/>
<path class="st5" d="M374.2,216.8h-23.9h-4.8h-9.8c-18.4,0-33.5,15.1-33.5,33.5v53.5c0,11.9,9.7,21.6,21.6,21.6h5
	c11.9,0,21.6-9.7,21.6-21.6v-15.9c0-21.6-1-21.6,21.6-21.6h54.2c11.9,0,19.3-9.3,21.6-21.6v0"/>
<g>
	<path class="st33" d="M449.1,228.9c0-40.9-33.5-60.7-74.4-60.7h-20c40.9,0,74.4,19.8,74.4,60.7v0c0,5-0.6,11.1-1.6,15.9l0,0
		c-2.3,12.3-9.7,21.6-21.7,21.6h20.3c11.9,0,19.3-9.3,21.6-21.6v0h-0.3C448.5,240,449.1,233.8,449.1,228.9L449.1,228.9z"/>
	<path class="st33" d="M334.1,284.3v15.9c0,9.2-5.8,17.1-13.9,20.2c2.4,0.9,5,1.4,7.7,1.4h5c11.9,0,21.6-9.7,21.6-21.6v-15.9
		c0-21.6-1-21.6,21.6-21.6h-20.3C333.1,262.7,334.1,262.7,334.1,284.3z"/>
</g>
<path class="st84" d="M65.2,249c-1.8-6.4-2.8-13.2-2.8-20.2v0c0-40.9,33.5-60.7,74.4-60.7h238.4c40.9,0,74.4,19.8,74.4,60.7v0
	c0,5.1-0.7,11.4-1.7,16.3"/>
<path class="st84" d="M374.2,216.8h-23.9h-4.8h-9.8c-18.4,0-33.5,15.1-33.5,33.5v53.5c0,11.9,9.7,21.6,21.6,21.6h5
	c11.9,0,21.6-9.7,21.6-21.6v-15.9c0-21.6-1-21.6,21.6-21.6h54.2c11.9,0,19.3-9.3,21.6-21.6v0"/>
</svg>
