<?xml version="1.0" encoding="utf-8"?>
<!-- Generator: Adobe Illustrator 21.1.0, SVG Export Plug-In . SVG Version: 6.00 Build 0)  -->
<svg version="1.1" id="Layer_1" xmlns="http://www.w3.org/2000/svg" xmlns:xlink="http://www.w3.org/1999/xlink" x="0px" y="0px"
	 viewBox="0 0 512 512" style="enable-background:new 0 0 512 512;" xml:space="preserve">
<style type="text/css">
	.st0{fill:#F97A48;stroke:#000000;stroke-width:11;stroke-miterlimit:10;}
	.st1{fill:#F97A48;stroke:#000000;stroke-width:11;stroke-linecap:round;stroke-linejoin:round;stroke-miterlimit:10;}
	.st2{fill:#FFDA00;}
	.st3{fill:#EFC700;}
	.st4{fill:none;stroke:#000000;stroke-width:11;stroke-miterlimit:10;}
	.st5{fill:#FF6C9D;}
	.st6{fill:#FF6C9D;stroke:#1D1D1B;stroke-width:11;stroke-linecap:round;stroke-linejoin:round;stroke-miterlimit:10;}
	.st7{fill:#48D5BF;}
	.st8{fill:#48D5BF;stroke:#000000;stroke-width:11;stroke-miterlimit:10;}
	.st9{fill:#FFDA00;stroke:#000000;stroke-width:11;stroke-miterlimit:10;}
	.st10{fill:#C6EBF4;stroke:#000000;stroke-width:11;stroke-miterlimit:10;}
	.st11{fill:none;stroke:#000000;stroke-width:11;stroke-linecap:round;stroke-linejoin:round;stroke-miterlimit:10;}
	.st12{fill:#F97A48;}
	.st13{fill:#C6EBF4;}
	.st14{fill:#EF5F37;}
	.st15{fill:none;stroke:#000000;stroke-width:10.6363;stroke-miterlimit:10;}
	.st16{fill:#26C6A7;}
	.st17{fill:none;stroke:#000000;stroke-width:11;stroke-linecap:round;stroke-miterlimit:10;}
	.st18{fill:#FD4347;}
	.st19{fill:#EF3043;}
	.st20{fill:#4BBC32;}
	.st21{fill:#31AA0F;}
	.st22{fill:#AEE4ED;}
	.st23{fill:#FCD259;}
	.st24{fill:#53ADFC;stroke:#000000;stroke-width:11;stroke-miterlimit:10;}
	.st25{fill:#FFBCA4;stroke:#000000;stroke-width:11;stroke-miterlimit:10;}
	.st26{fill:#53ADFC;}
	.st27{fill:#B9D6ED;stroke:#000000;stroke-width:11;stroke-miterlimit:10;}
	.st28{fill:#24A1ED;}
	.st29{fill:#F4C245;}
	.st30{fill:none;stroke:#000000;stroke-miterlimit:10;}
	.st31{fill:#F95594;stroke:#000000;stroke-width:11;stroke-miterlimit:10;}
	.st32{fill:#24A1ED;stroke:#000000;stroke-width:11;stroke-miterlimit:10;}
	.st33{fill:#F95594;}
	.st34{fill:#4B5B6D;}
	.st35{fill:#3E5366;}
	.st36{fill:#FFDA00;stroke:#000000;stroke-width:5;stroke-miterlimit:10;}
	.st37{fill:#85AFDD;stroke:#000000;stroke-width:11;stroke-miterlimit:10;}
	.st38{fill:#FFA071;stroke:#1D1D1B;stroke-width:11;stroke-miterlimit:10;}
	.st39{fill:#FFFFFF;stroke:#1D1D1B;stroke-width:11;stroke-miterlimit:10;}
	.st40{fill:#FFDC64;}
	.st41{fill:#1D1D1B;}
	.st42{fill:#FF6C9D;stroke:#1D1D1B;stroke-width:11;stroke-miterlimit:10;}
	.st43{fill:#6FCEA6;}
	.st44{fill:#C6EBF4;stroke:#1D1D1B;stroke-width:11;stroke-miterlimit:10;}
	.st45{fill:#53C48E;}
	.st46{fill:#FFFFFF;stroke:#000000;stroke-width:11;stroke-miterlimit:10;}
	.st47{fill:#AEE4ED;stroke:#000000;stroke-width:11;stroke-miterlimit:10;}
	.st48{fill:#F97A48;stroke:#1D1D1B;stroke-width:11;stroke-miterlimit:10;}
	.st49{stroke:#1D1D1B;stroke-width:11;stroke-miterlimit:10;}
	.st50{fill:#FFA071;}
	.st51{fill:#53ADFC;stroke:#1D1D1B;stroke-width:11;stroke-miterlimit:10;}
	.st52{fill:#31AA0F;stroke:#000000;stroke-width:11;stroke-miterlimit:10;}
	.st53{fill:#4BBC32;stroke:#000000;stroke-width:11;stroke-miterlimit:10;}
	.st54{fill:#DD0E2C;}
	.st55{fill:#EA3106;}
	.st56{fill:#F22F7E;}
	.st57{fill:#FCD259;stroke:#000000;stroke-width:11;stroke-miterlimit:10;}
	.st58{fill:#FD4347;stroke:#000000;stroke-width:11;stroke-miterlimit:10;}
	.st59{fill:#FCB439;}
	.st60{fill:#F43842;}
	.st61{fill:#178DFB;}
	.st62{fill:#32AF14;}
	.st63{fill:#FFDA00;stroke:#1D1D1B;stroke-width:11.1327;stroke-miterlimit:10;}
	.st64{fill:#FCB439;stroke:#FFFFFF;stroke-width:14.5517;stroke-miterlimit:10;}
	.st65{fill:#FFFFFF;}
	.st66{clip-path:url(#SVGID_2_);}
	.st67{fill:#D8D8D8;}
	.st68{clip-path:url(#SVGID_4_);}
	.st69{clip-path:url(#SVGID_6_);}
	.st70{fill:#999999;stroke:#FFFFFF;stroke-width:14.5517;stroke-miterlimit:10;}
	.st71{clip-path:url(#SVGID_8_);}
	.st72{clip-path:url(#SVGID_10_);}
	.st73{fill:#EA461F;}
	.st74{clip-path:url(#SVGID_12_);}
	.st75{fill:#C41820;}
	.st76{clip-path:url(#SVGID_14_);}
	.st77{fill:#075492;}
	.st78{fill:#003662;}
	.st79{clip-path:url(#SVGID_16_);}
	.st80{clip-path:url(#SVGID_18_);}
	.st81{clip-path:url(#SVGID_20_);}
	.st82{clip-path:url(#SVGID_22_);}
	.st83{fill:#DDDDDD;}
	.st84{fill:none;stroke:#1D1D1B;stroke-width:11;stroke-linecap:round;stroke-linejoin:round;stroke-miterlimit:10;}
	.st85{fill:none;stroke:#1D1D1B;stroke-width:11.6468;stroke-linecap:round;stroke-linejoin:round;stroke-miterlimit:10;}
	.st86{fill:#C6EBF4;stroke:#1D1D1B;stroke-width:11;stroke-linecap:round;stroke-linejoin:round;stroke-miterlimit:10;}
	.st87{fill:none;stroke:#000000;stroke-width:12.0562;stroke-linecap:round;stroke-linejoin:round;stroke-miterlimit:10;}
	.st88{fill:#F4C245;stroke:#000000;stroke-width:12.0562;stroke-linecap:round;stroke-miterlimit:10;}
	.st89{fill:none;stroke:#000000;stroke-width:12.0562;stroke-linecap:round;stroke-miterlimit:10;}
	.st90{fill:#FCD259;stroke:#000000;stroke-width:12.0562;stroke-miterlimit:10;}
	.st91{fill:none;stroke:#000000;stroke-width:12.0562;stroke-miterlimit:10;}
	.st92{fill:none;}
	.st93{fill:none;stroke:#000000;stroke-width:14.133;stroke-linecap:round;stroke-linejoin:round;stroke-miterlimit:10;}
	.st94{fill:#FFDA00;stroke:#000000;stroke-width:12.0562;stroke-miterlimit:10;}
	.st95{fill:none;stroke:#000000;stroke-width:10.6363;stroke-linecap:round;stroke-miterlimit:10;}
	.st96{fill:none;stroke:#000000;stroke-width:9;stroke-linecap:round;stroke-linejoin:round;stroke-miterlimit:10;}
	.st97{fill:#78909C;}
	.st98{fill:#4A6068;}
	.st99{stroke:#000000;stroke-width:11;stroke-miterlimit:10;}
	.st100{fill:#AEACB3;stroke:#000000;stroke-width:11;stroke-miterlimit:10;}
	.st101{fill:#C6EBF4;stroke:#000000;stroke-width:11;stroke-linecap:round;stroke-linejoin:round;stroke-miterlimit:10;}
	.st102{fill:#FFDA00;stroke:#000000;stroke-width:11;stroke-linecap:round;stroke-linejoin:round;stroke-miterlimit:10;}
	.st103{fill:#4BBC32;stroke:#000000;stroke-width:11;stroke-linecap:round;stroke-miterlimit:10;}
	.st104{fill:none;stroke:#231F20;stroke-width:11;stroke-miterlimit:10;}
	.st105{fill:#C6EBF4;stroke:#1D1D1B;stroke-width:10.3784;stroke-linecap:round;stroke-linejoin:round;stroke-miterlimit:10;}
	.st106{fill:#C6EBF4;stroke:#1D1D1B;stroke-width:6.959;stroke-linecap:round;stroke-linejoin:round;stroke-miterlimit:10;}
	.st107{fill:none;stroke:#1D1D1B;stroke-width:10.3442;stroke-linecap:round;stroke-linejoin:round;stroke-miterlimit:10;}
	.st108{fill:#C6EBF4;stroke:#1D1D1B;stroke-width:8.7624;stroke-linecap:round;stroke-linejoin:round;stroke-miterlimit:10;}
	.st109{fill:#AEE4ED;stroke:#1D1D1B;stroke-width:11;stroke-miterlimit:10;}
</style>
<circle class="st97" cx="116.5" cy="359.1" r="43.5"/>
<circle class="st97" cx="377.2" cy="359.1" r="43.5"/>
<path class="st18" d="M444.2,266.6L382,248h0l-41.5-53.4c-16.5-21.2-41.8-33.6-68.6-33.6H88.2c-9.1,0-17.3,5.7-20.4,14.3L41.4,248h0
	l0,0c-4.6,12.8-7,26.3-7,39.9v27.7c0,21.3,17.3,38.6,38.6,38.6h0.3c2.4-21.7,20.8-38.6,43.2-38.6c22.4,0,40.8,16.9,43.2,38.6H334
	c2.4-21.7,20.8-38.6,43.2-38.6c22.4,0,40.8,16.9,43.2,38.6h43.2c8.3,0,15-6.7,15-15v-26.3C478.6,291.6,464.6,272.8,444.2,266.6z"/>
<path class="st98" d="M145,356.5c1.2,20.6-12.2,38.7-31.3,44.3c3.1,0.5,6.4,0.7,9.7,0.5c24-1.4,42.3-21.9,40.9-45.9
	c-1.4-24-21.9-42.3-45.9-40.9c-3.3,0.2-6.5,0.8-9.6,1.7C128.4,319.4,143.8,335.8,145,356.5z"/>
<circle class="st4" cx="116.5" cy="359.1" r="43.5"/>
<circle class="st99" cx="116.5" cy="359.1" r="11.2"/>
<path class="st98" d="M405.7,356.5c1.2,20.6-12.2,38.7-31.3,44.3c3.1,0.5,6.4,0.7,9.7,0.5c24-1.4,42.3-21.9,40.9-45.9
	c-1.4-24-21.9-42.3-45.9-40.9c-3.3,0.2-6.5,0.8-9.6,1.7C389.1,319.4,404.5,335.8,405.7,356.5z"/>
<circle class="st4" cx="377.2" cy="359.1" r="43.5"/>
<g>
	<path class="st19" d="M447.2,267.6L385,249h0l-41.5-53.4c-16.5-21.2-41.8-33.6-68.6-33.6l-21.4,2.4c26.8,0,58,20.3,76.4,45.1
		l41.5,53.4h0l59.2,16.6c20.4,6.1,34.4,24.9,34.4,46.2v26.3c0,0.4,0,0.7-0.1,1.1c7.7-0.7,16.7-5.1,16.7-13v-26.3
		C481.6,292.6,467.6,273.8,447.2,267.6z"/>
</g>
<circle class="st99" cx="377.2" cy="359.1" r="11.2"/>
<path class="st9" d="M450.6,287c5.9,0,16.9,5.5,16.9,12.4c0,6.8-0.8,8.9-10.7,8.9c-9.7,0-10.6-2-10.6-8.9
	C446.2,292.5,444.7,287,450.6,287z"/>
<path class="st11" d="M444.2,266.6L382,248h0l-41.5-53.4c-16.5-21.2-41.8-33.6-68.6-33.6H88.2c-9.1,0-17.3,5.7-20.4,14.3L41.4,248h0
	l0,0c-4.6,12.8-7,26.3-7,39.9v27.7c0,21.3,17.3,38.6,38.6,38.6h0.3c2.4-21.7,20.8-38.6,43.2-38.6c22.4,0,40.8,16.9,43.2,38.6H334
	c2.4-21.7,20.8-38.6,43.2-38.6c22.4,0,40.8,16.9,43.2,38.6h43.2c8.3,0,15-6.7,15-15v-26.3C478.6,291.6,464.6,272.8,444.2,266.6z"/>
<path class="st24" d="M230,250.7h100.2c7.6,0,11.8-8,7.2-13.5c-5-8.7-14-20.3-21.5-29.2c-15.7-18.6-38.9-24.8-64.4-24.8H230
	c-5.3,0-9.6,4-9.6,8.8v49.9C220.5,246.7,224.7,250.7,230,250.7z"/>
<path class="st24" d="M177.8,183.2h-73.5c-4,0-7.6,2.3-9,5.8l-19.9,50.4c-2.2,5.5,2.2,11.3,8.5,11.3h93.8c5.3,0,9.6-4,9.6-8.8V192
	C187.4,187.1,183.1,183.2,177.8,183.2z"/>
<path class="st7" d="M317.4,325.2c-7.2,0-13.3,4.7-15.5,11.1c-2.5-0.9-5.1-1.4-7.9-1.4c-4.2,0-8.1,1.1-11.4,3
	c-2.6-3.7-6.9-6.1-11.7-6.1c-7.9,0-14.4,6.4-14.4,14.4s6.4,14.4,14.4,14.4c0,0,0.1,0,0.1,0c1.3,11.6,11.1,20.6,23,20.6
	c12.8,0,23.2-10.4,23.2-23.2c0-0.1,0-0.1,0-0.2c0.1,0,0.1,0,0.2,0c9,0,16.4-7.3,16.4-16.4S326.4,325.2,317.4,325.2z"/>
<circle class="st7" cx="458.4" cy="176.9" r="12.4"/>
<path class="st7" d="M159.9,130.6c-2.4,0-4.6,0.6-6.6,1.5c-3.3-5.8-9.6-9.7-16.7-9.7c-7.4,0-13.9,4.2-17.1,10.3
	c-2.3-1.4-5-2.2-7.9-2.2c-8.4,0-15.2,6.8-15.2,15.2c0,8.4,6.8,15.2,15.2,15.2c4.6,0,44,0,48.3,0c8.4,0,15.2-6.8,15.2-15.2
	C175.2,137.5,168.3,130.6,159.9,130.6z"/>
<path class="st7" d="M448.9,243.8c-0.1,0-0.1,0-0.2,0c0.1-0.8,0.1-1.6,0.1-2.3c-0.3-10.6-9.1-18.9-19.7-18.6
	c-4.3,0.1-8.3,1.7-11.4,4.2c-3.2-3.6-7.9-5.9-13.1-5.7c-9.3,0.3-16.7,8-16.4,17.4c0.1,4.4,1.9,8.4,4.8,11.3
	c3.2,3.3,51.1,16.8,56.7,18.6c8.8,2.8,12.8-6,12-12.7C460.9,249,455.8,243.6,448.9,243.8z"/>
<circle class="st7" cx="438.1" cy="131.6" r="10.8"/>
<path class="st16" d="M456.5,166c-0.8,0-1.7,0.1-2.5,0.3c4.8,1.1,8.4,5.4,8.4,10.6c0,5.2-3.6,9.5-8.4,10.6c0.8,0.2,1.6,0.3,2.5,0.3
	c6,0,10.9-4.9,10.9-10.9C467.4,170.9,462.5,166,456.5,166z"/>
<path class="st16" d="M317.3,330.4c-0.9,0-1.8,0.1-2.7,0.3c5.3,1.2,9.2,6,9.2,11.6c0,5.7-3.9,10.4-9.2,11.6c0.9,0.2,1.8,0.3,2.7,0.3
	c6.6,0,11.9-5.3,11.9-11.9C329.2,335.7,323.9,330.4,317.3,330.4z"/>
<path class="st16" d="M313.9,355.7c-0.2-0.4-0.7-1.1-1.2-1.9c-2.2,10.5-4.9,13.7-12.9,17.3c-5.1,2.3-17.8,2.7-23.7-3.9
	c0.4,1.4,1,2.7,1.7,4.1c5.2,9.3,17,12.6,26.3,7.4C313.3,373.5,319.1,365.1,313.9,355.7z"/>
<path class="st11" d="M317.4,325.2c-7.2,0-13.3,4.7-15.5,11.1c-2.5-0.9-5.1-1.4-7.9-1.4c-4.2,0-8.1,1.1-11.4,3
	c-2.6-3.7-6.9-6.1-11.7-6.1c-7.9,0-14.4,6.4-14.4,14.4s6.4,14.4,14.4,14.4c0,0,0.1,0,0.1,0c1.3,11.6,11.1,20.6,23,20.6
	c12.8,0,23.2-10.4,23.2-23.2c0-0.1,0-0.1,0-0.2c0.1,0,0.1,0,0.2,0c9,0,16.4-7.3,16.4-16.4S326.4,325.2,317.4,325.2z"/>
<path class="st16" d="M122.3,137.4c2.2-3.4,6.5-5.2,12.8-5.2c6.1,0,11.4,3.3,14.2,8.2c1.7-0.8,3.6-1.3,5.7-1.3
	c7.1,0,12.9,5.8,12.9,12.9c0,1.2-0.2,2.3-0.5,3.4c1.4-2.1,3.5-5.2,3.5-7.9c0-7.1-5.8-12.9-12.9-12.9c-2,0-5.1,1.1-6.8,1.9
	c-2.8-4.9-8.4-8.8-14.5-8.8c-6.3,0-11.5,4.2-14.3,9.4C120.5,135.8,120.4,136.2,122.3,137.4z"/>
<circle class="st11" cx="458.4" cy="176.9" r="12.4"/>
<path class="st11" d="M159.9,130.6c-2.4,0-4.6,0.6-6.6,1.5c-3.3-5.8-9.6-9.7-16.7-9.7c-7.4,0-13.9,4.2-17.1,10.3
	c-2.3-1.4-5-2.2-7.9-2.2c-8.4,0-15.2,6.8-15.2,15.2c0,8.4,6.8,15.2,15.2,15.2c4.6,0,44,0,48.3,0c8.4,0,15.2-6.8,15.2-15.2
	C175.2,137.5,168.3,130.6,159.9,130.6z"/>
<path class="st16" d="M457.3,257.6c-0.7-6.1-6.1-10.3-12.3-10.1c0,0-0.1,0-0.1,0c0.1-0.7,0.1-1.4,0.1-2.1
	c-0.3-9.5-5.4-17.9-14.9-17.6c-3.9,0.1-7.8,0.2-10.7,2.5c-0.6,0.4-1.1,2.2-1.1,2.2c2.3-0.5,2.3-0.5,4.5-0.4
	c9.5,0.5,17.5,7.2,17.8,16.8c0,0.7,0,1.4-0.1,2.1c0,0,0.1,0,0.1,0c6.2-0.2,10.8,4.7,11.5,10.8c0.3,2.7-0.2,5.9-1.7,8.2
	C455,268.8,457.9,262.3,457.3,257.6z"/>
<path class="st11" d="M448.9,243.8c-0.1,0-0.1,0-0.2,0c0.1-0.8,0.1-1.6,0.1-2.3c-0.3-10.6-9.1-18.9-19.7-18.6
	c-4.3,0.1-8.3,1.7-11.4,4.2c-3.2-3.6-7.9-5.9-13.1-5.7c-9.3,0.3-16.7,8-16.4,17.4c0.1,4.4,1.9,8.4,4.8,11.3
	c3.2,3.3,51.1,16.8,56.7,18.6c8.8,2.8,12.8-6,12-12.7C460.9,249,455.8,243.6,448.9,243.8z"/>
<path class="st16" d="M433.9,120.8c-0.8,0-1.7,0.1-2.5,0.3c4.8,1.1,8.4,5.4,8.4,10.6c0,5.2-3.6,9.5-8.4,10.6
	c0.8,0.2,1.6,0.3,2.5,0.3c6,0,10.9-4.9,10.9-10.9C444.8,125.7,439.9,120.8,433.9,120.8z"/>
<circle class="st11" cx="438.1" cy="131.6" r="10.8"/>
</svg>
