<?xml version="1.0" encoding="utf-8"?>
<!-- Generator: Adobe Illustrator 21.1.0, SVG Export Plug-In . SVG Version: 6.00 Build 0)  -->
<svg version="1.1" id="Layer_1" xmlns="http://www.w3.org/2000/svg" xmlns:xlink="http://www.w3.org/1999/xlink" x="0px" y="0px"
	 viewBox="0 0 512 512" style="enable-background:new 0 0 512 512;" xml:space="preserve">
<style type="text/css">
	.st0{fill:#F4C245;}
	.st1{fill:none;stroke:#000000;stroke-width:11;stroke-linecap:round;stroke-linejoin:round;stroke-miterlimit:10;}
	.st2{fill:#FCD259;}
	.st3{fill:#F4C245;stroke:#000000;stroke-width:11;stroke-linecap:round;stroke-miterlimit:10;}
	.st4{fill:#48D5BF;}
	.st5{fill:#26C6A7;}
	.st6{fill:none;stroke:#000000;stroke-width:11;stroke-linecap:round;stroke-miterlimit:10;}
	.st7{fill:none;stroke:#000000;stroke-width:11;stroke-miterlimit:10;}
	.st8{fill:#FD4347;}
	.st9{fill:#EF3043;}
	.st10{fill:#F97A48;}
	.st11{fill:#EF5F37;}
	.st12{fill:#F97A48;stroke:#000000;stroke-width:11;stroke-miterlimit:10;}
	.st13{fill:#4BBC32;}
	.st14{fill:#31AA0F;}
	.st15{fill:#C6EBF4;}
	.st16{fill:#AEE4ED;}
	.st17{fill:#53ADFC;stroke:#000000;stroke-width:11;stroke-miterlimit:10;}
	.st18{fill:#FFDA00;}
	.st19{fill:#EFC700;}
	.st20{fill:#FFDA00;stroke:#000000;stroke-width:11;stroke-miterlimit:10;}
	.st21{fill:#FFBCA4;stroke:#000000;stroke-width:11;stroke-miterlimit:10;}
	.st22{fill:#53ADFC;}
	.st23{fill:#B9D6ED;stroke:#000000;stroke-width:11;stroke-miterlimit:10;}
	.st24{fill:#24A1ED;}
	.st25{fill:none;stroke:#000000;stroke-miterlimit:10;}
	.st26{fill:#F95594;stroke:#000000;stroke-width:11;stroke-miterlimit:10;}
	.st27{fill:#24A1ED;stroke:#000000;stroke-width:11;stroke-miterlimit:10;}
	.st28{fill:#FF6C9D;}
	.st29{fill:#F95594;}
	.st30{fill:#4B5B6D;}
	.st31{fill:#3E5366;}
	.st32{fill:#FFDA00;stroke:#000000;stroke-width:5;stroke-miterlimit:10;}
	.st33{fill:#85AFDD;stroke:#000000;stroke-width:11;stroke-miterlimit:10;}
	.st34{fill:#FFA071;stroke:#1D1D1B;stroke-width:11;stroke-miterlimit:10;}
	.st35{fill:#FFFFFF;stroke:#1D1D1B;stroke-width:11;stroke-miterlimit:10;}
	.st36{fill:#FFDC64;}
	.st37{fill:#1D1D1B;}
	.st38{fill:#FF6C9D;stroke:#1D1D1B;stroke-width:11;stroke-miterlimit:10;}
	.st39{fill:#6FCEA6;}
	.st40{fill:#C6EBF4;stroke:#000000;stroke-width:11;stroke-miterlimit:10;}
	.st41{fill:#C6EBF4;stroke:#1D1D1B;stroke-width:11;stroke-miterlimit:10;}
	.st42{fill:#53C48E;}
	.st43{fill:#48D5BF;stroke:#000000;stroke-width:11;stroke-miterlimit:10;}
	.st44{fill:#FFFFFF;stroke:#000000;stroke-width:11;stroke-miterlimit:10;}
	.st45{fill:#AEE4ED;stroke:#1D1D1B;stroke-width:11;stroke-miterlimit:10;}
	.st46{stroke:#1D1D1B;stroke-width:11;stroke-miterlimit:10;}
	.st47{fill:#FFA071;}
	.st48{fill:#53ADFC;stroke:#1D1D1B;stroke-width:11;stroke-miterlimit:10;}
	.st49{fill:#31AA0F;stroke:#000000;stroke-width:11;stroke-miterlimit:10;}
	.st50{fill:#4BBC32;stroke:#000000;stroke-width:11;stroke-miterlimit:10;}
	.st51{fill:#EA3106;}
	.st52{fill:#DD0E2C;}
	.st53{fill:#F22F7E;}
	.st54{fill:#FCD259;stroke:#000000;stroke-width:11;stroke-miterlimit:10;}
	.st55{fill:#FD4347;stroke:#000000;stroke-width:11;stroke-miterlimit:10;}
	.st56{fill:#FCB439;}
	.st57{fill:#F43842;}
	.st58{fill:#178DFB;}
	.st59{fill:#32AF14;}
	.st60{fill:#F97A48;stroke:#000000;stroke-width:11;stroke-linecap:round;stroke-linejoin:round;stroke-miterlimit:10;}
	.st61{fill:#FFDA00;stroke:#1D1D1B;stroke-width:11.1327;stroke-miterlimit:10;}
	.st62{fill:#FCB439;stroke:#FFFFFF;stroke-width:14.5517;stroke-miterlimit:10;}
	.st63{fill:#FFFFFF;}
	.st64{clip-path:url(#SVGID_2_);}
	.st65{fill:#D8D8D8;}
	.st66{clip-path:url(#SVGID_4_);}
	.st67{clip-path:url(#SVGID_6_);}
	.st68{fill:#999999;stroke:#FFFFFF;stroke-width:14.5517;stroke-miterlimit:10;}
	.st69{clip-path:url(#SVGID_8_);}
	.st70{clip-path:url(#SVGID_10_);}
	.st71{fill:#EA461F;}
	.st72{clip-path:url(#SVGID_12_);}
	.st73{fill:#C41820;}
	.st74{clip-path:url(#SVGID_14_);}
	.st75{fill:#075492;}
	.st76{fill:#003662;}
	.st77{clip-path:url(#SVGID_16_);}
	.st78{clip-path:url(#SVGID_18_);}
	.st79{clip-path:url(#SVGID_20_);}
	.st80{clip-path:url(#SVGID_22_);}
	.st81{fill:#DDDDDD;}
	.st82{fill:none;stroke:#1D1D1B;stroke-width:11;stroke-linecap:round;stroke-linejoin:round;stroke-miterlimit:10;}
	.st83{fill:none;stroke:#1D1D1B;stroke-width:11.6468;stroke-linecap:round;stroke-linejoin:round;stroke-miterlimit:10;}
	.st84{fill:#C6EBF4;stroke:#1D1D1B;stroke-width:11;stroke-linecap:round;stroke-linejoin:round;stroke-miterlimit:10;}
</style>
<path class="st10" d="M191.9,233.2l-15.8,5.4c-38.6,13.3-80.9,4.6-95.4-46.4c-11.8-39.8-1.2-105.6,37.4-118.9l17.6-6.1
	C174.3,54,224,95.7,238.5,137.8C260.3,200.8,230.5,219.9,191.9,233.2z"/>
<path class="st11" d="M191.9,233.2c35.7-61.4,29-146.6-56.2-165.9C174.3,54,224,95.7,238.5,137.8
	C260.3,200.8,230.5,219.9,191.9,233.2z"/>
<path class="st10" d="M142.1,29.9c-4.7-0.2-9,3.2-11.3,8.3c-4.8-7.6-12.8-11.6-19.7-9.1c-6.4,2.3-9.9,9.5-9.4,17.7
	c-3.6-1.4-7.3-1.3-10.2,0.7c-5.6,3.7-6.2,12.7-1.3,20c4.9,7.4,22.7,9.3,37.1,4.3c14.4-5.9,25.6-16.6,26-25.4S148.8,30.2,142.1,29.9z
	"/>
<path class="st11" d="M136.3,37.9c0,0,11.5,8.9-3.4,24.5s19.4-11.2,19.4-11.2s2.4-14.9-2.7-17.8c-5.1-2.9-14.7-0.8-14.7,2.2
	C135,38.6,136.3,37.9,136.3,37.9z"/>
<path class="st7" d="M191.9,233.2l-15.8,5.4c-38.6,13.3-80.9,4.6-95.4-46.4c-11.8-39.8-1.2-105.6,37.4-118.9l17.6-6.1
	C174.3,54,224,95.7,238.5,137.8C260.3,200.8,230.5,219.9,191.9,233.2z"/>
<path class="st7" d="M142.1,29.9c-4.7-0.2-9,3.2-11.3,8.3c-4.8-7.6-12.8-11.6-19.7-9.1c-6.4,2.3-9.9,9.5-9.4,17.7
	c-3.6-1.4-7.3-1.3-10.2,0.7c-5.6,3.7-6.2,12.7-1.3,20c4.9,7.4,22.7,9.3,37.1,4.3c14.4-5.9,25.6-16.6,26-25.4S148.8,30.2,142.1,29.9z
	"/>
<path class="st13" d="M306.8,484.6H76.5c-14.4,0-26-11.7-26-26V172.1c0-12.8,10.3-23.1,23.1-23.1h236.1c12.8,0,23.1,10.3,23.1,23.1
	v286.5C332.8,472.9,321.1,484.6,306.8,484.6z"/>
<polygon class="st14" points="330.3,468.9 309.2,481.8 309.2,181.9 332.8,181.9 "/>
<path class="st7" d="M306.8,484.6H76.5c-14.4,0-26-11.7-26-26V172.1c0-12.8,10.3-23.1,23.1-23.1h236.1c12.8,0,23.1,10.3,23.1,23.1
	v286.5C332.8,472.9,321.1,484.6,306.8,484.6z"/>
<path class="st49" d="M276.6,441.6h2.1c4.7,0,8.6-3.8,8.6-8.6V214.9c0-3.1-2.5-5.6-5.6-5.6h-8c-3.1,0-5.6,2.5-5.6,5.6V433
	C268,437.7,271.9,441.6,276.6,441.6z"/>
<path class="st49" d="M219.3,441.6h2.1c4.7,0,8.6-3.8,8.6-8.6V214.9c0-3.1-2.5-5.6-5.6-5.6h-8c-3.1,0-5.6,2.5-5.6,5.6V433
	C210.7,437.7,214.5,441.6,219.3,441.6z"/>
<path class="st49" d="M161.9,441.6h2.1c4.7,0,8.6-3.8,8.6-8.6V214.9c0-3.1-2.5-5.6-5.6-5.6h-8c-3.1,0-5.6,2.5-5.6,5.6V433
	C153.3,437.7,157.2,441.6,161.9,441.6z"/>
<path class="st49" d="M104.5,441.6h2.1c4.7,0,8.6-3.8,8.6-8.6V214.9c0-3.1-2.5-5.6-5.6-5.6h-8c-3.1,0-5.6,2.5-5.6,5.6V433
	C96,437.7,99.8,441.6,104.5,441.6z"/>
<path class="st50" d="M335.9,181.9H49.6c-6.2,0-11.3-5.1-11.3-11.3v-10.3c0-6.2,5.1-11.3,11.3-11.3h286.3c6.2,0,11.3,5.1,11.3,11.3
	v10.3C347.2,176.9,342.1,181.9,335.9,181.9z"/>
<path class="st10" d="M404.8,489.6h-16.7c-40.8,0-78-22.1-75-74.9c1.8-41.4,33.4-100.2,74.2-100.2h18.6c40.8,0,74.2,55.6,74.2,100.2
	C480,481.3,445.6,489.6,404.8,489.6z"/>
<path class="st11" d="M404.8,489.6c78.9-26.6,75.2-129.1,1-175.2c40.8,0,74.2,55.6,74.2,100.2C480,481.3,445.6,489.6,404.8,489.6z"
	/>
<path class="st10" d="M424.1,281.2c-4.4-1.8-9.6,0.1-13.4,4.2c-2.1-8.8-8.3-15.1-15.6-15c-6.8,0.1-12.5,5.8-14.7,13.7
	c-2.9-2.5-6.5-3.6-9.9-2.7c-6.5,1.7-10,10-7.7,18.5c2.2,8.5,18.4,16.2,33.7,16.2c15.5-0.9,29.6-7.3,32.9-15.5
	C432.7,292.3,430.3,283.7,424.1,281.2z"/>
<path class="st11" d="M416,286.8c0,0,8,12.2-11.2,22s22-4.3,22-4.3s7.1-13.3,3.3-17.8c-3.8-4.4-13.7-5.6-14.6-2.7
	C414.5,287.1,416,286.8,416,286.8z"/>
<path class="st7" d="M404.8,489.6h-16.7c-40.8,0-78-22.1-75-74.9c1.8-41.4,33.4-100.2,74.2-100.2h18.6c40.8,0,74.2,55.6,74.2,100.2
	C480,481.3,445.6,489.6,404.8,489.6z"/>
<path class="st7" d="M424.1,281.2c-4.4-1.8-9.6,0.1-13.4,4.2c-2.1-8.8-8.3-15.1-15.6-15c-6.8,0.1-12.5,5.8-14.7,13.7
	c-2.9-2.5-6.5-3.6-9.9-2.7c-6.5,1.7-10,10-7.7,18.5c2.2,8.5,18.4,16.2,33.7,16.2c15.5-0.9,29.6-7.3,32.9-15.5
	C432.7,292.3,430.3,283.7,424.1,281.2z"/>
<rect x="309.2" y="149" class="st14" width="32.9" height="32.9"/>
<path class="st7" d="M335.9,181.9H49.6c-6.2,0-11.3-5.1-11.3-11.3v-10.3c0-6.2,5.1-11.3,11.3-11.3h286.3c6.2,0,11.3,5.1,11.3,11.3
	v10.3C347.2,176.9,342.1,181.9,335.9,181.9z"/>
</svg>
