<?xml version="1.0" encoding="utf-8"?>
<!-- Generator: Adobe Illustrator 21.1.0, SVG Export Plug-In . SVG Version: 6.00 Build 0)  -->
<svg version="1.1" id="Layer_1" xmlns="http://www.w3.org/2000/svg" xmlns:xlink="http://www.w3.org/1999/xlink" x="0px" y="0px"
	 viewBox="0 0 512 512" style="enable-background:new 0 0 512 512;" xml:space="preserve">
<style type="text/css">
	.st0{fill:#F4C245;}
	.st1{fill:none;stroke:#000000;stroke-width:11;stroke-linecap:round;stroke-linejoin:round;stroke-miterlimit:10;}
	.st2{fill:#FCD259;}
	.st3{fill:#F4C245;stroke:#000000;stroke-width:11;stroke-linecap:round;stroke-miterlimit:10;}
	.st4{fill:#48D5BF;}
	.st5{fill:#26C6A7;}
	.st6{fill:none;stroke:#000000;stroke-width:11;stroke-linecap:round;stroke-miterlimit:10;}
	.st7{fill:none;stroke:#000000;stroke-width:11;stroke-miterlimit:10;}
	.st8{fill:#FD4347;}
	.st9{fill:#EF3043;}
	.st10{fill:#F97A48;}
	.st11{fill:#EF5F37;}
	.st12{fill:#F97A48;stroke:#000000;stroke-width:11;stroke-miterlimit:10;}
	.st13{fill:#4BBC32;}
	.st14{fill:#31AA0F;}
	.st15{fill:#C6EBF4;}
	.st16{fill:#AEE4ED;}
	.st17{fill:#53ADFC;stroke:#000000;stroke-width:11;stroke-miterlimit:10;}
	.st18{fill:#FFDA00;}
	.st19{fill:#EFC700;}
	.st20{fill:#FFDA00;stroke:#000000;stroke-width:11;stroke-miterlimit:10;}
	.st21{fill:#FFBCA4;stroke:#000000;stroke-width:11;stroke-miterlimit:10;}
	.st22{fill:#53ADFC;}
	.st23{fill:#B9D6ED;stroke:#000000;stroke-width:11;stroke-miterlimit:10;}
	.st24{fill:#24A1ED;}
	.st25{fill:none;stroke:#000000;stroke-miterlimit:10;}
	.st26{fill:#F95594;stroke:#000000;stroke-width:11;stroke-miterlimit:10;}
	.st27{fill:#24A1ED;stroke:#000000;stroke-width:11;stroke-miterlimit:10;}
	.st28{fill:#FF6C9D;}
	.st29{fill:#F95594;}
	.st30{fill:#4B5B6D;}
	.st31{fill:#3E5366;}
	.st32{fill:#FFDA00;stroke:#000000;stroke-width:5;stroke-miterlimit:10;}
	.st33{fill:#85AFDD;stroke:#000000;stroke-width:11;stroke-miterlimit:10;}
	.st34{fill:#FFA071;stroke:#1D1D1B;stroke-width:11;stroke-miterlimit:10;}
	.st35{fill:#FFFFFF;stroke:#1D1D1B;stroke-width:11;stroke-miterlimit:10;}
	.st36{fill:#FFDC64;}
	.st37{fill:#1D1D1B;}
	.st38{fill:#FF6C9D;stroke:#1D1D1B;stroke-width:11;stroke-miterlimit:10;}
	.st39{fill:#6FCEA6;}
	.st40{fill:#C6EBF4;stroke:#000000;stroke-width:11;stroke-miterlimit:10;}
	.st41{fill:#C6EBF4;stroke:#1D1D1B;stroke-width:11;stroke-miterlimit:10;}
	.st42{fill:#53C48E;}
	.st43{fill:#48D5BF;stroke:#000000;stroke-width:11;stroke-miterlimit:10;}
	.st44{fill:#FFFFFF;stroke:#000000;stroke-width:11;stroke-miterlimit:10;}
	.st45{fill:#AEE4ED;stroke:#1D1D1B;stroke-width:11;stroke-miterlimit:10;}
	.st46{stroke:#1D1D1B;stroke-width:11;stroke-miterlimit:10;}
	.st47{fill:#FFA071;}
	.st48{fill:#53ADFC;stroke:#1D1D1B;stroke-width:11;stroke-miterlimit:10;}
	.st49{fill:#31AA0F;stroke:#000000;stroke-width:11;stroke-miterlimit:10;}
	.st50{fill:#4BBC32;stroke:#000000;stroke-width:11;stroke-miterlimit:10;}
	.st51{fill:#EA3106;}
	.st52{fill:#DD0E2C;}
	.st53{fill:#F22F7E;}
	.st54{fill:#FCD259;stroke:#000000;stroke-width:11;stroke-miterlimit:10;}
	.st55{fill:#FD4347;stroke:#000000;stroke-width:11;stroke-miterlimit:10;}
	.st56{fill:#FCB439;}
	.st57{fill:#F43842;}
	.st58{fill:#178DFB;}
	.st59{fill:#32AF14;}
	.st60{fill:#F97A48;stroke:#000000;stroke-width:11;stroke-linecap:round;stroke-linejoin:round;stroke-miterlimit:10;}
	.st61{fill:#FFDA00;stroke:#1D1D1B;stroke-width:11.1327;stroke-miterlimit:10;}
	.st62{fill:#FCB439;stroke:#FFFFFF;stroke-width:14.5517;stroke-miterlimit:10;}
	.st63{fill:#FFFFFF;}
	.st64{clip-path:url(#SVGID_2_);}
	.st65{fill:#D8D8D8;}
	.st66{clip-path:url(#SVGID_4_);}
	.st67{clip-path:url(#SVGID_6_);}
	.st68{fill:#999999;stroke:#FFFFFF;stroke-width:14.5517;stroke-miterlimit:10;}
	.st69{clip-path:url(#SVGID_8_);}
	.st70{clip-path:url(#SVGID_10_);}
	.st71{fill:#EA461F;}
	.st72{clip-path:url(#SVGID_12_);}
	.st73{fill:#C41820;}
	.st74{clip-path:url(#SVGID_14_);}
	.st75{fill:#075492;}
	.st76{fill:#003662;}
	.st77{clip-path:url(#SVGID_16_);}
	.st78{clip-path:url(#SVGID_18_);}
	.st79{clip-path:url(#SVGID_20_);}
	.st80{clip-path:url(#SVGID_22_);}
	.st81{fill:#DDDDDD;}
	.st82{fill:none;stroke:#1D1D1B;stroke-width:11;stroke-linecap:round;stroke-linejoin:round;stroke-miterlimit:10;}
	.st83{fill:none;stroke:#1D1D1B;stroke-width:11.6468;stroke-linecap:round;stroke-linejoin:round;stroke-miterlimit:10;}
	.st84{fill:#C6EBF4;stroke:#1D1D1B;stroke-width:11;stroke-linecap:round;stroke-linejoin:round;stroke-miterlimit:10;}
	.st85{fill:none;}
	.st86{fill:none;stroke:#000000;stroke-width:12.8948;stroke-linecap:round;stroke-linejoin:round;stroke-miterlimit:10;}
</style>
<g>
	<path class="st0" d="M347.4,402.2c-1.1-1.1-2.1-2.2-3.1-3.3c-5.3-5.6-4.4-9.7,1.7-10.6c40.1-5.6,77.9-35.8,102.7-87.4
		c3.8-7.9,10.7-12.1,16-8.3c1,0.7,2.1,1.5,3.1,2.3c5.4,3.9,7.5,14.7,3.8,22.9c-23.9,53.4-61.7,85.7-102.7,93.6
		C362.6,412.5,352.7,407.8,347.4,402.2z"/>
</g>
<g>
	<path class="st1" d="M347.4,402.2c-1.1-1.1-2.1-2.2-3.1-3.3c-5.3-5.6-4.4-9.7,1.7-10.6c40.1-5.6,77.9-35.8,102.7-87.4
		c3.8-7.9,10.7-12.1,16-8.3c1,0.7,2.1,1.5,3.1,2.3c5.4,3.9,7.5,14.7,3.8,22.9c-23.9,53.4-61.7,85.7-102.7,93.6
		C362.6,412.5,352.7,407.8,347.4,402.2z"/>
</g>
<path class="st2" d="M372.2,409.2c-17,44.2-62.4,39.6-131.9,39.6c-14.8,0-27.1-3.3-37.2-9.1c-0.9,5.7-5.9,10.1-11.8,10.1H154
	c-6.6,0-12-5.4-12-12v-4.1c0-12.4,10.2-22.6,22.6-22.6c0,0,3.7,0,3.8,0c-4.1-38.3-6.3-74.8-8.6-109.9c-0.4-6.7-0.5-13.5-0.2-20.2
	c6-130.4-21.9-116.2,55.4-116.2c79.2,0,153.3,60,161.3,139.8c3.2,28.9,4.1,52.1,2.7,70.6l-0.4,4.6"/>
<g>
	<path class="st0" d="M152.8,423.5c-0.3-2.8-0.6-5.6-0.9-8.5c-3.3,2.2-6,5.4-7.8,9c1.6-0.3,3.2-0.5,4.8-0.5
		C149,423.5,152.7,423.5,152.8,423.5z"/>
	<path class="st0" d="M376.3,304.6c-8-79.8-82.1-139.8-161.3-139.8c-41.3,0-52.6-4-55.1,12.1c8.4-0.6,20.9,0.2,39.5,0.2
		c79.2,0,153.3,60,161.3,139.8c3.2,28.9,4.1,52.1,2.7,70.6l-0.4,4.6l-6.4,29.4c-2.6,6.8-5.9,12.4-9.8,17.1
		c11.4-5.9,19.9-15.1,25.4-29.4l6.4-29.4l0.4-4.6C380.5,356.7,379.6,333.5,376.3,304.6z"/>
</g>
<path class="st6" d="M372.2,409.2c-17,44.2-62.4,39.6-131.9,39.6c-14.8,0-27.1-3.3-37.2-9.1c-0.9,5.7-5.9,10.1-11.8,10.1H154
	c-6.6,0-12-5.4-12-12v-4.1c0-12.4,10.2-22.6,22.6-22.6c0,0,3.7,0,3.8,0c-4.1-38.3-6.3-74.8-8.6-109.9c-0.4-6.7-0.5-13.5-0.2-20.2
	c6-130.4-21.9-116.2,55.4-116.2c79.2,0,153.3,60,161.3,139.8c3.2,28.9,4.1,52.1,2.7,70.6l-0.4,4.6"/>
<path class="st2" d="M193.7,81.2c-18.5,0.3-35.3,7.3-48.2,18.6c-10.1,8.9-22.7,14.3-36.1,15.5c-32.7,3-34.4,22.5-36.5,45.8
	c-2.5,27.8,20.2,52.6,50.6,55.3c5.6,0.5,11,1,16.1,1.2c8.5,0.3,16.7,2.4,24.4,5.9c9.4,4.2,19.7,6.6,30.7,6.6
	c41.7,0,75.4-34.3,74.5-76.3C268.3,113.2,234.3,80.6,193.7,81.2z"/>
<ellipse transform="matrix(0.8893 -0.4573 0.4573 0.8893 -48.3285 56.2595)" cx="92" cy="128" rx="18.5" ry="15.3"/>
<circle cx="172.1" cy="131.2" r="8.2"/>
<path class="st0" d="M251.3,150.3c0,0,1.4,20.9-6,32.2c3.5,2.9,13.4,6,13.4,6l10.6-24.1l-1.8-25L251.3,150.3z"/>
<path class="st54" d="M315.8,314.9c-40.6,0-76.9,31-76.9,69.1c0,12.1,0.8,22.1,2.6,30.4h-23.7c-14.7,0-26.7,12-26.7,26.7
	c0,6.6,5.4,12,12,12h96.4c0.7,0,1.3-0.1,1.9-0.2c4.5,0.1,9.4,0.2,14.4,0.2c28.1,0,36.9-4.6,39.8-28.5"/>
<path class="st7" d="M265.7,178.5c2.5-7.7,3.8-16.1,3.6-24.7c-1-40.6-34.9-73.3-75.6-72.7c-18.5,0.3-35.3,7.3-48.2,18.6
	c-10.1,8.9-22.7,14.3-36.1,15.5c-32.7,3-34.4,22.5-36.5,45.8c-2.5,27.8,20.2,52.6,50.6,55.3c5.6,0.5,11,1,16.1,1.2
	c8.5,0.3,16.7,2.4,24.4,5.9c9.4,4.2,19.7,6.6,30.7,6.6"/>
<path class="st85" d="M194.8,230.1c33.2,0,61.2-21.7,70.9-51.6"/>
<ellipse transform="matrix(0.6059 -0.7956 0.7956 0.6059 3.6325 238.2708)" class="st2" cx="242.3" cy="115.5" rx="31.3" ry="40.2"/>
<path class="st0" d="M262.3,91.4c17.1,18.9,8.7,29.9-1.2,42.9c-6.3,8.2-16.3,12.3-27.4,12.2c15.4,6.8,32.1,4.5,40.6-6.7
	C284.6,126.2,293,115.2,262.3,91.4z"/>
<ellipse transform="matrix(0.6059 -0.7956 0.7956 0.6059 3.6325 238.2708)" class="st6" cx="242.3" cy="115.5" rx="31.3" ry="40.2"/>
<polygon class="st8" points="295.3,185.7 154.4,259.4 150,231.1 276.5,164.9 "/>
<polygon class="st9" points="260.8,179.8 275.5,196.1 295.3,185.7 276.5,164.9 "/>
<polygon class="st86" points="295.3,185.7 154.4,259.4 150,231.1 276.5,164.9 "/>
<ellipse class="st20" cx="152.2" cy="270.8" rx="10.2" ry="14.8"/>
</svg>
