<?xml version="1.0" encoding="utf-8"?>
<!-- Generator: Adobe Illustrator 21.1.0, SVG Export Plug-In . SVG Version: 6.00 Build 0)  -->
<svg version="1.1" id="Layer_1" xmlns="http://www.w3.org/2000/svg" xmlns:xlink="http://www.w3.org/1999/xlink" x="0px" y="0px"
	 viewBox="0 0 512 512" style="enable-background:new 0 0 512 512;" xml:space="preserve">
<style type="text/css">
	.st0{fill:#F97A48;stroke:#000000;stroke-width:11;stroke-miterlimit:10;}
	.st1{fill:#F97A48;stroke:#000000;stroke-width:11;stroke-linecap:round;stroke-linejoin:round;stroke-miterlimit:10;}
	.st2{fill:#FFDA00;}
	.st3{fill:#EFC700;}
	.st4{fill:none;stroke:#000000;stroke-width:11;stroke-miterlimit:10;}
	.st5{fill:#FF6C9D;}
	.st6{fill:#FF6C9D;stroke:#1D1D1B;stroke-width:11;stroke-linecap:round;stroke-linejoin:round;stroke-miterlimit:10;}
	.st7{fill:#48D5BF;}
	.st8{fill:#48D5BF;stroke:#000000;stroke-width:11;stroke-miterlimit:10;}
	.st9{fill:#FFDA00;stroke:#000000;stroke-width:11;stroke-miterlimit:10;}
	.st10{fill:#C6EBF4;stroke:#000000;stroke-width:11;stroke-miterlimit:10;}
	.st11{fill:none;stroke:#000000;stroke-width:11;stroke-linecap:round;stroke-linejoin:round;stroke-miterlimit:10;}
	.st12{fill:#F97A48;}
	.st13{fill:#C6EBF4;}
	.st14{fill:#EF5F37;}
	.st15{fill:none;stroke:#000000;stroke-width:10.6363;stroke-miterlimit:10;}
	.st16{fill:#26C6A7;}
	.st17{fill:none;stroke:#000000;stroke-width:11;stroke-linecap:round;stroke-miterlimit:10;}
	.st18{fill:#FD4347;}
	.st19{fill:#EF3043;}
	.st20{fill:#4BBC32;}
	.st21{fill:#31AA0F;}
	.st22{fill:#AEE4ED;}
	.st23{fill:#FCD259;}
	.st24{fill:#53ADFC;stroke:#000000;stroke-width:11;stroke-miterlimit:10;}
	.st25{fill:#FFBCA4;stroke:#000000;stroke-width:11;stroke-miterlimit:10;}
	.st26{fill:#53ADFC;}
	.st27{fill:#B9D6ED;stroke:#000000;stroke-width:11;stroke-miterlimit:10;}
	.st28{fill:#24A1ED;}
	.st29{fill:#F4C245;}
	.st30{fill:none;stroke:#000000;stroke-miterlimit:10;}
	.st31{fill:#F95594;stroke:#000000;stroke-width:11;stroke-miterlimit:10;}
	.st32{fill:#24A1ED;stroke:#000000;stroke-width:11;stroke-miterlimit:10;}
	.st33{fill:#F95594;}
	.st34{fill:#4B5B6D;}
	.st35{fill:#3E5366;}
	.st36{fill:#FFDA00;stroke:#000000;stroke-width:5;stroke-miterlimit:10;}
	.st37{fill:#85AFDD;stroke:#000000;stroke-width:11;stroke-miterlimit:10;}
	.st38{fill:#FFA071;stroke:#1D1D1B;stroke-width:11;stroke-miterlimit:10;}
	.st39{fill:#FFFFFF;stroke:#1D1D1B;stroke-width:11;stroke-miterlimit:10;}
	.st40{fill:#FFDC64;}
	.st41{fill:#1D1D1B;}
	.st42{fill:#FF6C9D;stroke:#1D1D1B;stroke-width:11;stroke-miterlimit:10;}
	.st43{fill:#6FCEA6;}
	.st44{fill:#C6EBF4;stroke:#1D1D1B;stroke-width:11;stroke-miterlimit:10;}
	.st45{fill:#53C48E;}
	.st46{fill:#FFFFFF;stroke:#000000;stroke-width:11;stroke-miterlimit:10;}
	.st47{fill:#AEE4ED;stroke:#000000;stroke-width:11;stroke-miterlimit:10;}
	.st48{fill:#F97A48;stroke:#1D1D1B;stroke-width:11;stroke-miterlimit:10;}
	.st49{stroke:#1D1D1B;stroke-width:11;stroke-miterlimit:10;}
	.st50{fill:#FFA071;}
	.st51{fill:#53ADFC;stroke:#1D1D1B;stroke-width:11;stroke-miterlimit:10;}
	.st52{fill:#31AA0F;stroke:#000000;stroke-width:11;stroke-miterlimit:10;}
	.st53{fill:#4BBC32;stroke:#000000;stroke-width:11;stroke-miterlimit:10;}
	.st54{fill:#DD0E2C;}
	.st55{fill:#EA3106;}
	.st56{fill:#F22F7E;}
	.st57{fill:#FCD259;stroke:#000000;stroke-width:11;stroke-miterlimit:10;}
	.st58{fill:#FD4347;stroke:#000000;stroke-width:11;stroke-miterlimit:10;}
	.st59{fill:#FCB439;}
	.st60{fill:#F43842;}
	.st61{fill:#178DFB;}
	.st62{fill:#32AF14;}
	.st63{fill:#FFDA00;stroke:#1D1D1B;stroke-width:11.1327;stroke-miterlimit:10;}
	.st64{fill:#FCB439;stroke:#FFFFFF;stroke-width:14.5517;stroke-miterlimit:10;}
	.st65{fill:#FFFFFF;}
	.st66{clip-path:url(#SVGID_2_);}
	.st67{fill:#D8D8D8;}
	.st68{clip-path:url(#SVGID_4_);}
	.st69{clip-path:url(#SVGID_6_);}
	.st70{fill:#999999;stroke:#FFFFFF;stroke-width:14.5517;stroke-miterlimit:10;}
	.st71{clip-path:url(#SVGID_8_);}
	.st72{clip-path:url(#SVGID_10_);}
	.st73{fill:#EA461F;}
	.st74{clip-path:url(#SVGID_12_);}
	.st75{fill:#C41820;}
	.st76{clip-path:url(#SVGID_14_);}
	.st77{fill:#075492;}
	.st78{fill:#003662;}
	.st79{clip-path:url(#SVGID_16_);}
	.st80{clip-path:url(#SVGID_18_);}
	.st81{clip-path:url(#SVGID_20_);}
	.st82{clip-path:url(#SVGID_22_);}
	.st83{fill:#DDDDDD;}
	.st84{fill:none;stroke:#1D1D1B;stroke-width:11;stroke-linecap:round;stroke-linejoin:round;stroke-miterlimit:10;}
	.st85{fill:none;stroke:#1D1D1B;stroke-width:11.6468;stroke-linecap:round;stroke-linejoin:round;stroke-miterlimit:10;}
	.st86{fill:#C6EBF4;stroke:#1D1D1B;stroke-width:11;stroke-linecap:round;stroke-linejoin:round;stroke-miterlimit:10;}
	.st87{fill:none;stroke:#000000;stroke-width:12.0562;stroke-linecap:round;stroke-linejoin:round;stroke-miterlimit:10;}
	.st88{fill:#F4C245;stroke:#000000;stroke-width:12.0562;stroke-linecap:round;stroke-miterlimit:10;}
	.st89{fill:none;stroke:#000000;stroke-width:12.0562;stroke-linecap:round;stroke-miterlimit:10;}
	.st90{fill:#FCD259;stroke:#000000;stroke-width:12.0562;stroke-miterlimit:10;}
	.st91{fill:none;stroke:#000000;stroke-width:12.0562;stroke-miterlimit:10;}
	.st92{fill:none;}
	.st93{fill:none;stroke:#000000;stroke-width:14.133;stroke-linecap:round;stroke-linejoin:round;stroke-miterlimit:10;}
	.st94{fill:#FFDA00;stroke:#000000;stroke-width:12.0562;stroke-miterlimit:10;}
	.st95{fill:none;stroke:#000000;stroke-width:10.6363;stroke-linecap:round;stroke-miterlimit:10;}
	.st96{fill:none;stroke:#000000;stroke-width:9;stroke-linecap:round;stroke-linejoin:round;stroke-miterlimit:10;}
	.st97{fill:#78909C;}
	.st98{fill:#4A6068;}
	.st99{stroke:#000000;stroke-width:11;stroke-miterlimit:10;}
	.st100{fill:#AEACB3;stroke:#000000;stroke-width:11;stroke-miterlimit:10;}
	.st101{fill:#C6EBF4;stroke:#000000;stroke-width:11;stroke-linecap:round;stroke-linejoin:round;stroke-miterlimit:10;}
	.st102{fill:#FFDA00;stroke:#000000;stroke-width:11;stroke-linecap:round;stroke-linejoin:round;stroke-miterlimit:10;}
	.st103{fill:#4BBC32;stroke:#000000;stroke-width:11;stroke-linecap:round;stroke-miterlimit:10;}
	.st104{fill:none;stroke:#231F20;stroke-width:11;stroke-miterlimit:10;}
	.st105{fill:#C6EBF4;stroke:#1D1D1B;stroke-width:10.3784;stroke-linecap:round;stroke-linejoin:round;stroke-miterlimit:10;}
	.st106{fill:#C6EBF4;stroke:#1D1D1B;stroke-width:6.959;stroke-linecap:round;stroke-linejoin:round;stroke-miterlimit:10;}
	.st107{fill:none;stroke:#1D1D1B;stroke-width:10.3442;stroke-linecap:round;stroke-linejoin:round;stroke-miterlimit:10;}
	.st108{fill:#C6EBF4;stroke:#1D1D1B;stroke-width:8.7624;stroke-linecap:round;stroke-linejoin:round;stroke-miterlimit:10;}
	.st109{fill:#AEE4ED;stroke:#1D1D1B;stroke-width:11;stroke-miterlimit:10;}
</style>
<g>
	<path class="st29" d="M338.4,430.7c-1.8-1.9-3.6-3.7-5.3-5.5c-5.3-5.5-4.4-9.7,1.7-10.6c44.7-6,86.9-39.7,114.4-97.4
		c3.8-7.9,10.7-12.1,16-8.4c1.8,1.3,3.5,2.5,5.3,3.8c5.4,3.9,7.5,14.7,3.8,22.9c-26.5,59.7-68.7,95.7-114.4,104.2
		C353.6,441,343.8,436.4,338.4,430.7z"/>
</g>
<g>
	<path class="st87" d="M338.4,430.7c-1.8-1.9-3.6-3.7-5.3-5.5c-5.3-5.5-4.4-9.7,1.7-10.6c44.7-6,86.9-39.7,114.4-97.4
		c3.8-7.9,10.7-12.1,16-8.4c1.8,1.3,3.5,2.5,5.3,3.8c5.4,3.9,7.5,14.7,3.8,22.9c-26.5,59.7-68.7,95.7-114.4,104.2
		C353.6,441,343.8,436.4,338.4,430.7z"/>
</g>
<path class="st23" d="M366.2,420.2c-18.6,48.4-68.4,43.4-144.6,43.4c-16.3,0-29.7-3.6-40.7-9.9c-1,6.2-6.5,11-13,11H127
	c-7.2,0-13.2-5.9-13.2-13.2v-4.5c0-13.6,11.1-24.8,24.8-24.8c0,0,4.1,0,4.2,0c-4.5-41.9-6.9-82-9.4-120.4
	c-0.5-7.4-0.6-14.8-0.2-22.2c6.6-142.9-24-127.4,60.8-127.4c86.8,0,168.1,65.8,176.8,153.2c3.6,31.7,4.5,57.1,3,77.3l-0.5,5.1"/>
<g>
	<path class="st29" d="M125.7,435.9c-0.3-3.1-0.6-6.2-0.9-9.3c-3.6,2.5-6.6,5.9-8.5,9.9c1.7-0.4,3.5-0.6,5.3-0.6
		C121.5,435.9,125.6,435.9,125.7,435.9z"/>
	<path class="st29" d="M370.7,305.6c-8.8-87.5-90-153.2-176.8-153.2c-45.3,0-57.7-4.4-60.3,13.2c9.2-0.6,22.9,0.3,43.3,0.3
		c86.8,0,168.1,65.8,176.8,153.2c3.6,31.7,4.5,57.1,3,77.3l-0.5,5.1l-7,32.2c-2.9,7.4-6.5,13.6-10.8,18.7c4.5-2.3,8.1-12,12.8-16.8
		c2.4-2.4,4.1-0.5,8.3-2.1c10.8-4,17.2-25.8,15.6-25.5c-15.7,5.4-1.8-20.1-1.8-20.1l0.5-5.1C375.2,362.6,374.2,337.3,370.7,305.6z"
		/>
</g>
<path class="st89" d="M354.7,439.8c-24,27.4-69.3,23.9-133.1,23.9c-16.3,0-29.7-3.6-40.7-9.9c-1,6.2-6.5,11-13,11H127
	c-7.2,0-13.2-5.9-13.2-13.2v-4.5c0-13.6,11.1-24.8,24.8-24.8c0,0,4.1,0,4.2,0c-4.5-41.9-6.9-82-9.4-120.4
	c-0.5-7.4-0.6-14.8-0.2-22.2c6.6-142.9-24-127.4,60.8-127.4c86.8,0,168.1,65.8,176.8,153.2c3.6,31.7,4.5,57.1,3,77.3
	c0,0-1.1,11.1-2.8,20.2"/>
<path class="st89" d="M362.5,439c-0.8,0.1-7.3,0.2-7.9,0.8"/>
<path class="st23" d="M170.5,60.7c-20.2,0.3-38.7,8-52.8,20.4c-11,9.7-24.9,15.7-39.5,17c-35.8,3.2-37.7,24.7-40,50.2
	c-2.7,30.5,22.1,57.6,55.5,60.6c6.1,0.5,12,1.1,17.6,1.3c9.3,0.3,18.3,2.7,26.7,6.5c10.3,4.6,21.6,7.2,33.6,7.2
	c45.7,0,82.7-37.6,81.6-83.6C252.3,95.8,215,60,170.5,60.7z"/>
<ellipse transform="matrix(0.8893 -0.4573 0.4573 0.8893 -44.659 39.4097)" cx="59.1" cy="112" rx="20.3" ry="16.8"/>
<circle cx="146.8" cy="115.5" r="9"/>
<path class="st29" d="M233.6,136.4c0,0,1.6,22.9-6.6,35.3c3.8,3.2,14.7,6.6,14.7,6.6l11.6-26.4l-2-27.4L233.6,136.4z"/>
<path class="st90" d="M304.3,316.8c-44.5,0-84.2,33.9-84.2,75.8c0,13.3,0.9,24.3,2.8,33.3h-26c-16.1,0-29.3,13.2-29.3,29.3
	c0,7.2,5.9,13.2,13.2,13.2h105.6c0.7,0,1.4-0.1,2.1-0.2c5,0.1,10.3,0.2,15.8,0.2c30.7,0,40.5-5.1,43.6-31.2"/>
<path class="st91" d="M249.4,167.4c2.7-8.5,4.1-17.6,3.9-27C252.3,95.8,215,60,170.5,60.7c-20.2,0.3-38.7,8-52.8,20.4
	c-11,9.7-24.9,15.7-39.5,17c-35.8,3.2-37.7,24.7-40,50.2c-2.7,30.5,22.1,57.6,55.5,60.6c6.1,0.5,12,1.1,17.6,1.3
	c9.3,0.3,18.3,2.7,26.7,6.5c10.3,4.6,21.6,7.2,33.6,7.2"/>
<path class="st92" d="M171.7,223.9c36.3,0,67.1-23.7,77.7-56.6"/>
<ellipse transform="matrix(0.6059 -0.7956 0.7956 0.6059 10.0111 216.7395)" class="st23" cx="223.8" cy="98.3" rx="34.3" ry="44.1"/>
<path class="st29" d="M245.7,71.9c18.8,20.7,9.6,32.8-1.3,47c-6.9,9-17.9,13.5-30.1,13.4c16.9,7.4,35.1,4.9,44.5-7.3
	C270.2,110.1,279.4,98,245.7,71.9z"/>
<ellipse transform="matrix(0.6059 -0.7956 0.7956 0.6059 10.0111 216.7395)" class="st89" cx="223.8" cy="98.3" rx="34.3" ry="44.1"/>
<polygon class="st18" points="281.9,175.3 127.4,256.1 122.6,225 261.3,152.5 "/>
<polygon class="st19" points="244.1,168.8 260.1,186.6 281.9,175.3 261.3,152.5 "/>
<polygon class="st93" points="281.9,175.3 127.4,256.1 122.6,225 261.3,152.5 "/>
<ellipse class="st94" cx="125" cy="268.5" rx="11.2" ry="16.2"/>
</svg>
