<?xml version="1.0" encoding="utf-8"?>
<!-- Generator: Adobe Illustrator 21.1.0, SVG Export Plug-In . SVG Version: 6.00 Build 0)  -->
<svg version="1.1" id="Layer_1" xmlns="http://www.w3.org/2000/svg" xmlns:xlink="http://www.w3.org/1999/xlink" x="0px" y="0px"
	 viewBox="0 0 512 512" style="enable-background:new 0 0 512 512;" xml:space="preserve">
<style type="text/css">
	.st0{fill:#C6EBF4;}
	.st1{fill:#FFDA00;stroke:#000000;stroke-width:11;stroke-miterlimit:10;}
	.st2{fill:#C6EBF4;stroke:#000000;stroke-width:11;stroke-miterlimit:10;}
	.st3{fill:#F97A48;}
	.st4{fill:#EF5F37;}
	.st5{fill:none;stroke:#000000;stroke-width:10.6363;stroke-miterlimit:10;}
	.st6{fill:#48D5BF;}
	.st7{fill:#26C6A7;}
	.st8{fill:none;stroke:#000000;stroke-width:11;stroke-linecap:round;stroke-miterlimit:10;}
	.st9{fill:none;stroke:#000000;stroke-width:11;stroke-miterlimit:10;}
	.st10{fill:#FD4347;}
	.st11{fill:#EF3043;}
	.st12{fill:#F97A48;stroke:#000000;stroke-width:11;stroke-miterlimit:10;}
	.st13{fill:#4BBC32;}
	.st14{fill:#31AA0F;}
	.st15{fill:#AEE4ED;}
	.st16{fill:#FCD259;}
	.st17{fill:#53ADFC;stroke:#000000;stroke-width:11;stroke-miterlimit:10;}
	.st18{fill:#FFDA00;}
	.st19{fill:#EFC700;}
	.st20{fill:#FFBCA4;stroke:#000000;stroke-width:11;stroke-miterlimit:10;}
	.st21{fill:#53ADFC;}
	.st22{fill:#B9D6ED;stroke:#000000;stroke-width:11;stroke-miterlimit:10;}
	.st23{fill:#24A1ED;}
	.st24{fill:#F4C245;}
	.st25{fill:none;stroke:#000000;stroke-miterlimit:10;}
	.st26{fill:#F95594;stroke:#000000;stroke-width:11;stroke-miterlimit:10;}
	.st27{fill:#24A1ED;stroke:#000000;stroke-width:11;stroke-miterlimit:10;}
	.st28{fill:#FF6C9D;}
	.st29{fill:#F95594;}
	.st30{fill:#4B5B6D;}
	.st31{fill:#3E5366;}
	.st32{fill:#FFDA00;stroke:#000000;stroke-width:5;stroke-miterlimit:10;}
	.st33{fill:#85AFDD;stroke:#000000;stroke-width:11;stroke-miterlimit:10;}
	.st34{fill:#FFA071;stroke:#1D1D1B;stroke-width:11;stroke-miterlimit:10;}
	.st35{fill:#FFFFFF;stroke:#1D1D1B;stroke-width:11;stroke-miterlimit:10;}
	.st36{fill:#FFDC64;}
	.st37{fill:#1D1D1B;}
	.st38{fill:#FF6C9D;stroke:#1D1D1B;stroke-width:11;stroke-miterlimit:10;}
	.st39{fill:#6FCEA6;}
	.st40{fill:#C6EBF4;stroke:#1D1D1B;stroke-width:11;stroke-miterlimit:10;}
	.st41{fill:#53C48E;}
	.st42{fill:#48D5BF;stroke:#000000;stroke-width:11;stroke-miterlimit:10;}
	.st43{fill:#FFFFFF;stroke:#000000;stroke-width:11;stroke-miterlimit:10;}
	.st44{fill:#AEE4ED;stroke:#000000;stroke-width:11;stroke-miterlimit:10;}
	.st45{fill:#FD4347;stroke:#1D1D1B;stroke-width:11;stroke-miterlimit:10;}
	.st46{stroke:#1D1D1B;stroke-width:11;stroke-miterlimit:10;}
	.st47{fill:#FFA071;}
	.st48{fill:#53ADFC;stroke:#1D1D1B;stroke-width:11;stroke-miterlimit:10;}
	.st49{fill:#31AA0F;stroke:#000000;stroke-width:11;stroke-miterlimit:10;}
	.st50{fill:#4BBC32;stroke:#000000;stroke-width:11;stroke-miterlimit:10;}
	.st51{fill:#DD0E2C;}
	.st52{fill:#EA3106;}
	.st53{fill:#F22F7E;}
	.st54{fill:#FCD259;stroke:#000000;stroke-width:11;stroke-miterlimit:10;}
	.st55{fill:#FD4347;stroke:#000000;stroke-width:11;stroke-miterlimit:10;}
	.st56{fill:#FCB439;}
	.st57{fill:#F43842;}
	.st58{fill:#178DFB;}
	.st59{fill:#32AF14;}
	.st60{fill:#F97A48;stroke:#000000;stroke-width:11;stroke-linecap:round;stroke-linejoin:round;stroke-miterlimit:10;}
	.st61{fill:#FFDA00;stroke:#1D1D1B;stroke-width:11.1327;stroke-miterlimit:10;}
	.st62{fill:#FCB439;stroke:#FFFFFF;stroke-width:14.5517;stroke-miterlimit:10;}
	.st63{fill:#FFFFFF;}
	.st64{clip-path:url(#SVGID_2_);}
	.st65{fill:#D8D8D8;}
	.st66{clip-path:url(#SVGID_4_);}
	.st67{clip-path:url(#SVGID_6_);}
	.st68{fill:#999999;stroke:#FFFFFF;stroke-width:14.5517;stroke-miterlimit:10;}
	.st69{clip-path:url(#SVGID_8_);}
	.st70{clip-path:url(#SVGID_10_);}
	.st71{fill:#EA461F;}
	.st72{clip-path:url(#SVGID_12_);}
	.st73{fill:#C41820;}
	.st74{clip-path:url(#SVGID_14_);}
	.st75{fill:#075492;}
	.st76{fill:#003662;}
	.st77{clip-path:url(#SVGID_16_);}
	.st78{clip-path:url(#SVGID_18_);}
	.st79{clip-path:url(#SVGID_20_);}
	.st80{clip-path:url(#SVGID_22_);}
	.st81{fill:#DDDDDD;}
	.st82{fill:none;stroke:#1D1D1B;stroke-width:11;stroke-linecap:round;stroke-linejoin:round;stroke-miterlimit:10;}
	.st83{fill:none;stroke:#1D1D1B;stroke-width:11.6468;stroke-linecap:round;stroke-linejoin:round;stroke-miterlimit:10;}
	.st84{fill:#C6EBF4;stroke:#1D1D1B;stroke-width:11;stroke-linecap:round;stroke-linejoin:round;stroke-miterlimit:10;}
	.st85{fill:none;stroke:#000000;stroke-width:12.0562;stroke-linecap:round;stroke-linejoin:round;stroke-miterlimit:10;}
	.st86{fill:#F4C245;stroke:#000000;stroke-width:12.0562;stroke-linecap:round;stroke-miterlimit:10;}
	.st87{fill:none;stroke:#000000;stroke-width:12.0562;stroke-linecap:round;stroke-miterlimit:10;}
	.st88{fill:#FCD259;stroke:#000000;stroke-width:12.0562;stroke-miterlimit:10;}
	.st89{fill:none;stroke:#000000;stroke-width:12.0562;stroke-miterlimit:10;}
	.st90{fill:none;}
	.st91{fill:none;stroke:#000000;stroke-width:14.133;stroke-linecap:round;stroke-linejoin:round;stroke-miterlimit:10;}
	.st92{fill:#FFDA00;stroke:#000000;stroke-width:12.0562;stroke-miterlimit:10;}
	.st93{fill:none;stroke:#000000;stroke-width:9;stroke-linecap:round;stroke-linejoin:round;stroke-miterlimit:10;}
	.st94{fill:none;stroke:#000000;stroke-width:11;stroke-linecap:round;stroke-linejoin:round;stroke-miterlimit:10;}
	.st95{fill:#78909C;}
	.st96{fill:#4A6068;}
	.st97{stroke:#000000;stroke-width:11;stroke-miterlimit:10;}
	.st98{fill:#AEACB3;}
	.st99{fill:#AEACB3;stroke:#000000;stroke-width:11;stroke-miterlimit:10;}
</style>
<path class="st18" d="M240,244l37.8-11c3.1-0.9,4.9-4.2,3.9-7.3l-18.2-58.5c-1.8-5.9-4.8-11.3-8.8-16v0c-4.6-5.4-10.4-9.6-16.9-12.4
	l-38.2-16.2c-4.4-1.9-9.5,0.4-11.1,4.9c-5,14.1-18.5,24.2-34.3,24.2c-15.5,0-28.7-9.6-34-23.2c-1.7-4.4-6.7-6.5-11-4.7l-35.5,15
	c-6.5,2.8-12.3,7-16.9,12.4l0,0c-4,4.7-7,10.1-8.8,16l-18.2,58.5c-1,3.1,0.8,6.4,3.9,7.3l37.8,11c2.6,0.8,5.5-0.4,6.8-2.8l4.1-7.6
	L86,225c0,0-5.4,148.8-6.3,156.1c-0.9,7.2,153.1,7.2,152.2,0c-0.9-7.2-6.3-156.1-6.3-156.1l3.6,8.6l4.1,7.6
	C234.5,243.6,237.4,244.8,240,244z"/>
<g>
	<path class="st19" d="M220.8,209l-7.5,5.7c0,0,4.2,150.1,5.6,174.1c5.4-0.6,8.4-2.2,8.3-3.1c-0.7-6.4-4.2-110.4-5.7-155.8
		L220.8,209z"/>
	<path class="st19" d="M277.7,230.7l-18.2-58.5c-1.8-5.9-4.8-11.3-8.8-16c-4.6-5.4-10.4-9.6-16.9-12.4l-38.2-16.2
		c-4.3-1.8-9.2,0.3-10.9,4.5c1.7-0.4,3.6-0.4,5.3,0.4l38.2,16.2c6.5,2.8,12.3,7,16.9,12.4l0,0c4,4.7,7,10.1,8.8,16l18.2,58.5
		c0.3,1,0.3,2,0.1,2.9l1.5-0.4C276.9,237.1,278.7,233.8,277.7,230.7z"/>
</g>
<path class="st19" d="M275.1,219.8l-42.9,13.1c0,0,2.5,8.2,9.4,4.8c8.2-2.4,36.1-10.6,36.1-10.6l-1.5-7.9L275.1,219.8z"/>
<path class="st9" d="M240,244l37.8-11c3.1-0.9,4.9-4.2,3.9-7.3l-18.2-58.5c-1.8-5.9-4.8-11.3-8.8-16v0c-4.6-5.4-10.4-9.6-16.9-12.4
	l-38.2-16.2c-4.4-1.9-9.5,0.4-11.1,4.9c-5,14.1-18.5,24.2-34.3,24.2c-15.5,0-28.7-9.6-34-23.2c-1.7-4.4-6.7-6.5-11-4.7l-35.5,15
	c-6.5,2.8-12.3,7-16.9,12.4l0,0c-4,4.7-7,10.1-8.8,16l-18.2,58.5c-1,3.1,0.8,6.4,3.9,7.3l37.8,11c2.6,0.8,5.5-0.4,6.8-2.8l4.1-7.6
	L86,225c0,0-5.4,148.8-6.3,156.1c-0.9,7.2,153.1,7.2,152.2,0c-0.9-7.2-6.3-156.1-6.3-156.1l3.6,8.6l4.1,7.6
	C234.5,243.6,237.4,244.8,240,244z"/>
<path class="st3" d="M393.8,122.9c-41.5,0-83.1,0-83.1,0v45.6l12.2,220.6h53.8c0,0,16.7-172.6,17-172.6c0,0,17,172.6,17,172.6h53.8
	l12.2-220.6v-45.6C476.8,122.9,435.3,122.9,393.8,122.9z"/>
<path class="st93" d="M352.3,141.6c0,0.5,0,0.9,0,1.4c0,13.5-10.9,24.4-24.4,24.4"/>
<path class="st93" d="M436.2,141.6c0,0.5,0,0.9,0,1.4c0,13.5,10.9,24.4,24.4,24.4"/>
<g>
	<path class="st4" d="M464.5,122.9v45.6l-12.2,220.6h8.1l12.2-220.6v-45.6C472.6,122.9,469.7,122.9,464.5,122.9z"/>
</g>
<path class="st94" d="M393.8,123.9c-41.5,0-83.1,0-83.1,0v45.6l12.2,220.6h53.8l17-172.6l17,172.6h53.8l12.2-220.6v-45.6
	C476.8,123.9,435.3,123.9,393.8,123.9z"/>
</svg>
