<?xml version="1.0" encoding="utf-8"?>
<!-- Generator: Adobe Illustrator 21.1.0, SVG Export Plug-In . SVG Version: 6.00 Build 0)  -->
<svg version="1.1" id="Layer_1" xmlns="http://www.w3.org/2000/svg" xmlns:xlink="http://www.w3.org/1999/xlink" x="0px" y="0px"
	 viewBox="0 0 512 512" style="enable-background:new 0 0 512 512;" xml:space="preserve">
<style type="text/css">
	.st0{fill:#F4C245;}
	.st1{fill:none;stroke:#000000;stroke-width:11;stroke-linecap:round;stroke-linejoin:round;stroke-miterlimit:10;}
	.st2{fill:#FCD259;}
	.st3{fill:#F4C245;stroke:#000000;stroke-width:11;stroke-linecap:round;stroke-miterlimit:10;}
	.st4{fill:#48D5BF;}
	.st5{fill:#26C6A7;}
	.st6{fill:none;stroke:#000000;stroke-width:11;stroke-linecap:round;stroke-miterlimit:10;}
	.st7{fill:none;stroke:#000000;stroke-width:11;stroke-miterlimit:10;}
	.st8{fill:#FD4347;}
	.st9{fill:#EF3043;}
	.st10{fill:#F97A48;}
	.st11{fill:#EF5F37;}
	.st12{fill:#F97A48;stroke:#000000;stroke-width:11;stroke-miterlimit:10;}
	.st13{fill:#4BBC32;}
	.st14{fill:#31AA0F;}
	.st15{fill:#C6EBF4;}
	.st16{fill:#AEE4ED;}
	.st17{fill:#53ADFC;stroke:#000000;stroke-width:11;stroke-miterlimit:10;}
	.st18{fill:#FFDA00;}
	.st19{fill:#EFC700;}
	.st20{fill:#FFDA00;stroke:#000000;stroke-width:11;stroke-miterlimit:10;}
	.st21{fill:#FFBCA4;stroke:#000000;stroke-width:11;stroke-miterlimit:10;}
	.st22{fill:#53ADFC;}
	.st23{fill:#B9D6ED;stroke:#000000;stroke-width:11;stroke-miterlimit:10;}
	.st24{fill:#24A1ED;}
	.st25{fill:none;stroke:#000000;stroke-miterlimit:10;}
	.st26{fill:#F95594;stroke:#000000;stroke-width:11;stroke-miterlimit:10;}
	.st27{fill:#24A1ED;stroke:#000000;stroke-width:11;stroke-miterlimit:10;}
	.st28{fill:#FF6C9D;}
	.st29{fill:#F95594;}
	.st30{fill:#4B5B6D;}
	.st31{fill:#3E5366;}
	.st32{fill:#FFDA00;stroke:#000000;stroke-width:5;stroke-miterlimit:10;}
	.st33{fill:#85AFDD;stroke:#000000;stroke-width:11;stroke-miterlimit:10;}
	.st34{fill:#FFA071;stroke:#1D1D1B;stroke-width:11;stroke-miterlimit:10;}
	.st35{fill:#FFFFFF;stroke:#1D1D1B;stroke-width:11;stroke-miterlimit:10;}
	.st36{fill:#FFDC64;}
	.st37{fill:#1D1D1B;}
	.st38{fill:#FF6C9D;stroke:#1D1D1B;stroke-width:11;stroke-miterlimit:10;}
	.st39{fill:#6FCEA6;}
	.st40{fill:#C6EBF4;stroke:#000000;stroke-width:11;stroke-miterlimit:10;}
	.st41{fill:#C6EBF4;stroke:#1D1D1B;stroke-width:11;stroke-miterlimit:10;}
	.st42{fill:#53C48E;}
	.st43{fill:#48D5BF;stroke:#000000;stroke-width:11;stroke-miterlimit:10;}
	.st44{fill:#FFFFFF;stroke:#000000;stroke-width:11;stroke-miterlimit:10;}
	.st45{fill:#AEE4ED;stroke:#1D1D1B;stroke-width:11;stroke-miterlimit:10;}
	.st46{stroke:#1D1D1B;stroke-width:11;stroke-miterlimit:10;}
	.st47{fill:#FFA071;}
	.st48{fill:#53ADFC;stroke:#1D1D1B;stroke-width:11;stroke-miterlimit:10;}
	.st49{fill:#31AA0F;stroke:#000000;stroke-width:11;stroke-miterlimit:10;}
	.st50{fill:#4BBC32;stroke:#000000;stroke-width:11;stroke-miterlimit:10;}
	.st51{fill:#EA3106;}
	.st52{fill:#DD0E2C;}
	.st53{fill:#F22F7E;}
	.st54{fill:#FCD259;stroke:#000000;stroke-width:11;stroke-miterlimit:10;}
	.st55{fill:#FD4347;stroke:#000000;stroke-width:11;stroke-miterlimit:10;}
	.st56{fill:#FCB439;}
	.st57{fill:#F43842;}
	.st58{fill:#178DFB;}
	.st59{fill:#32AF14;}
	.st60{fill:#F97A48;stroke:#000000;stroke-width:11;stroke-linecap:round;stroke-linejoin:round;stroke-miterlimit:10;}
	.st61{fill:#FFDA00;stroke:#1D1D1B;stroke-width:11.1327;stroke-miterlimit:10;}
	.st62{fill:#FCB439;stroke:#FFFFFF;stroke-width:14.5517;stroke-miterlimit:10;}
	.st63{fill:#FFFFFF;}
	.st64{clip-path:url(#SVGID_2_);}
	.st65{fill:#D8D8D8;}
	.st66{clip-path:url(#SVGID_4_);}
	.st67{clip-path:url(#SVGID_6_);}
	.st68{fill:#999999;stroke:#FFFFFF;stroke-width:14.5517;stroke-miterlimit:10;}
	.st69{clip-path:url(#SVGID_8_);}
	.st70{clip-path:url(#SVGID_10_);}
	.st71{fill:#EA461F;}
	.st72{clip-path:url(#SVGID_12_);}
	.st73{fill:#C41820;}
	.st74{clip-path:url(#SVGID_14_);}
	.st75{fill:#075492;}
	.st76{fill:#003662;}
	.st77{clip-path:url(#SVGID_16_);}
	.st78{clip-path:url(#SVGID_18_);}
	.st79{clip-path:url(#SVGID_20_);}
	.st80{clip-path:url(#SVGID_22_);}
	.st81{fill:#DDDDDD;}
	.st82{fill:none;stroke:#1D1D1B;stroke-width:11;stroke-linecap:round;stroke-linejoin:round;stroke-miterlimit:10;}
	.st83{fill:none;stroke:#1D1D1B;stroke-width:11.6468;stroke-linecap:round;stroke-linejoin:round;stroke-miterlimit:10;}
	.st84{fill:#C6EBF4;stroke:#1D1D1B;stroke-width:11;stroke-linecap:round;stroke-linejoin:round;stroke-miterlimit:10;}
</style>
<ellipse class="st10" cx="269.3" cy="243.8" rx="114.7" ry="102"/>
<path class="st11" d="M384,243.8c0,56.3-51.3,102-114.7,102c69.7-4.8,165.2-139.9,0-203.9C332.7,141.9,384,187.5,384,243.8z"/>
<ellipse class="st7" cx="269.3" cy="243.8" rx="114.7" ry="102"/>
<circle class="st10" cx="325.1" cy="61.6" r="23.4"/>
<path class="st11" d="M348.5,61.6c0,12.9-10.5,23.4-23.4,23.4c-12.9,0,30.6-16.5,0-46.8C338,38.2,348.5,48.7,348.5,61.6z"/>
<circle class="st7" cx="325.1" cy="61.6" r="23.4"/>
<circle class="st12" cx="223.4" cy="61.6" r="23.4"/>
<ellipse class="st10" cx="272.8" cy="119.8" rx="69.7" ry="65.3"/>
<path class="st11" d="M342.5,119.8c0,36.1-31.2,65.3-69.7,65.3c40.7-7.4,100.7-89.2,0-130.6C311.3,54.5,342.5,83.8,342.5,119.8z"/>
<ellipse class="st7" cx="272.8" cy="119.8" rx="69.7" ry="65.3"/>
<ellipse transform="matrix(0.9984 -5.624847e-02 5.624847e-02 0.9984 -14.693 9.0727)" class="st8" cx="153.8" cy="265.5" rx="93" ry="87.8"/>
<path class="st9" d="M148.9,177.8c51.3-2.9,95.1,34,97.8,82.5s-36.6,90-87.9,92.9C279,288.5,223.4,172.1,105.1,191
	C117.9,183.5,132.8,178.7,148.9,177.8z"/>
<ellipse transform="matrix(0.9984 -5.624847e-02 5.624847e-02 0.9984 -14.693 9.0727)" class="st7" cx="153.8" cy="265.5" rx="93" ry="87.8"/>
<rect x="56" y="276.7" class="st18" width="400" height="183.8"/>
<rect x="434.5" y="304" class="st19" width="21.5" height="159.3"/>
<rect x="245.3" y="124.2" transform="matrix(6.123234e-17 -1 1 6.123234e-17 -65.0908 577.1701)" class="st19" width="21.5" height="393.9"/>
<rect x="368" y="240.7" class="st4" width="80.7" height="35.8"/>
<rect x="287.3" y="240.7" class="st43" width="80.7" height="35.8"/>
<rect x="324.7" y="204.2" class="st4" width="80.7" height="35.8"/>
<ellipse transform="matrix(0.7611 -0.6486 0.6486 0.7611 -109.0028 110.8112)" class="st20" cx="95.9" cy="203.4" rx="14.5" ry="8.8"/>
<rect x="56" y="276.7" class="st7" width="400" height="183.8"/>
<rect x="45.5" y="276.5" class="st18" width="421" height="30.4"/>
<rect x="434.5" y="276.5" class="st19" width="32" height="30.4"/>
<ellipse class="st54" cx="272.8" cy="137.7" rx="34.4" ry="32.2"/>
<ellipse cx="299.4" cy="93.8" rx="6.5" ry="6.1"/>
<ellipse cx="244.9" cy="93.8" rx="6.5" ry="6.1"/>
<ellipse cx="272.8" cy="111.3" rx="12.2" ry="11.4"/>
<rect x="45.5" y="276.5" class="st7" width="421" height="30.4"/>
<rect x="389" y="205.9" class="st5" width="13.3" height="32.3"/>
<rect x="431.9" y="242.5" class="st5" width="13.3" height="32.3"/>
<rect x="368" y="240.7" class="st7" width="80.7" height="35.8"/>
<rect x="324.7" y="204.2" class="st7" width="80.7" height="35.8"/>
</svg>
