<?xml version="1.0" encoding="utf-8"?>
<!-- Generator: Adobe Illustrator 21.1.0, SVG Export Plug-In . SVG Version: 6.00 Build 0)  -->
<svg version="1.1" id="Layer_1" xmlns="http://www.w3.org/2000/svg" xmlns:xlink="http://www.w3.org/1999/xlink" x="0px" y="0px"
	 viewBox="0 0 512 512" style="enable-background:new 0 0 512 512;" xml:space="preserve">
<style type="text/css">
	.st0{fill:#F97A48;stroke:#000000;stroke-width:11;stroke-miterlimit:10;}
	.st1{fill:#F97A48;stroke:#000000;stroke-width:11;stroke-linecap:round;stroke-linejoin:round;stroke-miterlimit:10;}
	.st2{fill:#FFDA00;}
	.st3{fill:#EFC700;}
	.st4{fill:none;stroke:#000000;stroke-width:11;stroke-miterlimit:10;}
	.st5{fill:#FF6C9D;}
	.st6{fill:#FF6C9D;stroke:#1D1D1B;stroke-width:11;stroke-linecap:round;stroke-linejoin:round;stroke-miterlimit:10;}
	.st7{fill:#48D5BF;}
	.st8{fill:#48D5BF;stroke:#000000;stroke-width:11;stroke-miterlimit:10;}
	.st9{fill:#FFDA00;stroke:#000000;stroke-width:11;stroke-miterlimit:10;}
	.st10{fill:#C6EBF4;stroke:#000000;stroke-width:11;stroke-miterlimit:10;}
	.st11{fill:none;stroke:#000000;stroke-width:11;stroke-linecap:round;stroke-linejoin:round;stroke-miterlimit:10;}
	.st12{fill:#F97A48;}
	.st13{fill:#C6EBF4;}
	.st14{fill:#EF5F37;}
	.st15{fill:none;stroke:#000000;stroke-width:10.6363;stroke-miterlimit:10;}
	.st16{fill:#26C6A7;}
	.st17{fill:none;stroke:#000000;stroke-width:11;stroke-linecap:round;stroke-miterlimit:10;}
	.st18{fill:#FD4347;}
	.st19{fill:#EF3043;}
	.st20{fill:#4BBC32;}
	.st21{fill:#31AA0F;}
	.st22{fill:#AEE4ED;}
	.st23{fill:#FCD259;}
	.st24{fill:#53ADFC;stroke:#000000;stroke-width:11;stroke-miterlimit:10;}
	.st25{fill:#FFBCA4;stroke:#000000;stroke-width:11;stroke-miterlimit:10;}
	.st26{fill:#53ADFC;}
	.st27{fill:#B9D6ED;stroke:#000000;stroke-width:11;stroke-miterlimit:10;}
	.st28{fill:#24A1ED;}
	.st29{fill:#F4C245;}
	.st30{fill:none;stroke:#000000;stroke-miterlimit:10;}
	.st31{fill:#F95594;stroke:#000000;stroke-width:11;stroke-miterlimit:10;}
	.st32{fill:#24A1ED;stroke:#000000;stroke-width:11;stroke-miterlimit:10;}
	.st33{fill:#F95594;}
	.st34{fill:#4B5B6D;}
	.st35{fill:#3E5366;}
	.st36{fill:#FFDA00;stroke:#000000;stroke-width:5;stroke-miterlimit:10;}
	.st37{fill:#85AFDD;stroke:#000000;stroke-width:11;stroke-miterlimit:10;}
	.st38{fill:#FFA071;stroke:#1D1D1B;stroke-width:11;stroke-miterlimit:10;}
	.st39{fill:#FFFFFF;stroke:#1D1D1B;stroke-width:11;stroke-miterlimit:10;}
	.st40{fill:#FFDC64;}
	.st41{fill:#1D1D1B;}
	.st42{fill:#FF6C9D;stroke:#1D1D1B;stroke-width:11;stroke-miterlimit:10;}
	.st43{fill:#6FCEA6;}
	.st44{fill:#C6EBF4;stroke:#1D1D1B;stroke-width:11;stroke-miterlimit:10;}
	.st45{fill:#53C48E;}
	.st46{fill:#FFFFFF;stroke:#000000;stroke-width:11;stroke-miterlimit:10;}
	.st47{fill:#AEE4ED;stroke:#000000;stroke-width:11;stroke-miterlimit:10;}
	.st48{fill:#F97A48;stroke:#1D1D1B;stroke-width:11;stroke-miterlimit:10;}
	.st49{stroke:#1D1D1B;stroke-width:11;stroke-miterlimit:10;}
	.st50{fill:#FFA071;}
	.st51{fill:#53ADFC;stroke:#1D1D1B;stroke-width:11;stroke-miterlimit:10;}
	.st52{fill:#31AA0F;stroke:#000000;stroke-width:11;stroke-miterlimit:10;}
	.st53{fill:#4BBC32;stroke:#000000;stroke-width:11;stroke-miterlimit:10;}
	.st54{fill:#DD0E2C;}
	.st55{fill:#EA3106;}
	.st56{fill:#F22F7E;}
	.st57{fill:#FCD259;stroke:#000000;stroke-width:11;stroke-miterlimit:10;}
	.st58{fill:#FD4347;stroke:#000000;stroke-width:11;stroke-miterlimit:10;}
	.st59{fill:#FCB439;}
	.st60{fill:#F43842;}
	.st61{fill:#178DFB;}
	.st62{fill:#32AF14;}
	.st63{fill:#FFDA00;stroke:#1D1D1B;stroke-width:11.1327;stroke-miterlimit:10;}
	.st64{fill:#FCB439;stroke:#FFFFFF;stroke-width:14.5517;stroke-miterlimit:10;}
	.st65{fill:#FFFFFF;}
	.st66{clip-path:url(#SVGID_2_);}
	.st67{fill:#D8D8D8;}
	.st68{clip-path:url(#SVGID_4_);}
	.st69{clip-path:url(#SVGID_6_);}
	.st70{fill:#999999;stroke:#FFFFFF;stroke-width:14.5517;stroke-miterlimit:10;}
	.st71{clip-path:url(#SVGID_8_);}
	.st72{clip-path:url(#SVGID_10_);}
	.st73{fill:#EA461F;}
	.st74{clip-path:url(#SVGID_12_);}
	.st75{fill:#C41820;}
	.st76{clip-path:url(#SVGID_14_);}
	.st77{fill:#075492;}
	.st78{fill:#003662;}
	.st79{clip-path:url(#SVGID_16_);}
	.st80{clip-path:url(#SVGID_18_);}
	.st81{clip-path:url(#SVGID_20_);}
	.st82{clip-path:url(#SVGID_22_);}
	.st83{fill:#DDDDDD;}
	.st84{fill:none;stroke:#1D1D1B;stroke-width:11;stroke-linecap:round;stroke-linejoin:round;stroke-miterlimit:10;}
	.st85{fill:none;stroke:#1D1D1B;stroke-width:11.6468;stroke-linecap:round;stroke-linejoin:round;stroke-miterlimit:10;}
	.st86{fill:#C6EBF4;stroke:#1D1D1B;stroke-width:11;stroke-linecap:round;stroke-linejoin:round;stroke-miterlimit:10;}
	.st87{fill:none;stroke:#000000;stroke-width:12.0562;stroke-linecap:round;stroke-linejoin:round;stroke-miterlimit:10;}
	.st88{fill:#F4C245;stroke:#000000;stroke-width:12.0562;stroke-linecap:round;stroke-miterlimit:10;}
	.st89{fill:none;stroke:#000000;stroke-width:12.0562;stroke-linecap:round;stroke-miterlimit:10;}
	.st90{fill:#FCD259;stroke:#000000;stroke-width:12.0562;stroke-miterlimit:10;}
	.st91{fill:none;stroke:#000000;stroke-width:12.0562;stroke-miterlimit:10;}
	.st92{fill:none;}
	.st93{fill:none;stroke:#000000;stroke-width:14.133;stroke-linecap:round;stroke-linejoin:round;stroke-miterlimit:10;}
	.st94{fill:#FFDA00;stroke:#000000;stroke-width:12.0562;stroke-miterlimit:10;}
	.st95{fill:none;stroke:#000000;stroke-width:10.6363;stroke-linecap:round;stroke-miterlimit:10;}
	.st96{fill:none;stroke:#000000;stroke-width:9;stroke-linecap:round;stroke-linejoin:round;stroke-miterlimit:10;}
	.st97{fill:#78909C;}
	.st98{fill:#4A6068;}
	.st99{stroke:#000000;stroke-width:11;stroke-miterlimit:10;}
	.st100{fill:#AEACB3;stroke:#000000;stroke-width:11;stroke-miterlimit:10;}
	.st101{fill:#C6EBF4;stroke:#000000;stroke-width:11;stroke-linecap:round;stroke-linejoin:round;stroke-miterlimit:10;}
	.st102{fill:#FFDA00;stroke:#000000;stroke-width:11;stroke-linecap:round;stroke-linejoin:round;stroke-miterlimit:10;}
	.st103{fill:#4BBC32;stroke:#000000;stroke-width:11;stroke-linecap:round;stroke-miterlimit:10;}
	.st104{fill:none;stroke:#231F20;stroke-width:11;stroke-miterlimit:10;}
	.st105{fill:#C6EBF4;stroke:#1D1D1B;stroke-width:10.3784;stroke-linecap:round;stroke-linejoin:round;stroke-miterlimit:10;}
	.st106{fill:#C6EBF4;stroke:#1D1D1B;stroke-width:6.959;stroke-linecap:round;stroke-linejoin:round;stroke-miterlimit:10;}
	.st107{fill:none;stroke:#1D1D1B;stroke-width:10.3442;stroke-linecap:round;stroke-linejoin:round;stroke-miterlimit:10;}
	.st108{fill:#C6EBF4;stroke:#1D1D1B;stroke-width:8.7624;stroke-linecap:round;stroke-linejoin:round;stroke-miterlimit:10;}
	.st109{fill:#AEE4ED;stroke:#1D1D1B;stroke-width:11;stroke-miterlimit:10;}
</style>
<ellipse class="st12" cx="269.3" cy="243.8" rx="114.7" ry="102"/>
<path class="st14" d="M384,243.8c0,56.3-51.3,102-114.7,102c69.7-4.8,165.2-139.9,0-203.9C332.7,141.9,384,187.5,384,243.8z"/>
<ellipse class="st4" cx="269.3" cy="243.8" rx="114.7" ry="102"/>
<circle class="st12" cx="325.1" cy="61.6" r="23.4"/>
<path class="st14" d="M348.5,61.6c0,12.9-10.5,23.4-23.4,23.4c-12.9,0,30.6-16.5,0-46.8C338,38.2,348.5,48.7,348.5,61.6z"/>
<circle class="st4" cx="325.1" cy="61.6" r="23.4"/>
<circle class="st0" cx="223.4" cy="61.6" r="23.4"/>
<ellipse class="st12" cx="272.8" cy="119.8" rx="69.7" ry="65.3"/>
<path class="st14" d="M342.5,119.8c0,36.1-31.2,65.3-69.7,65.3c40.7-7.4,100.7-89.2,0-130.6C311.3,54.5,342.5,83.8,342.5,119.8z"/>
<ellipse class="st4" cx="272.8" cy="119.8" rx="69.7" ry="65.3"/>
<ellipse transform="matrix(0.9984 -5.624847e-02 5.624847e-02 0.9984 -14.693 9.0727)" class="st18" cx="153.8" cy="265.5" rx="93" ry="87.8"/>
<path class="st19" d="M148.9,177.8c51.3-2.9,95.1,34,97.8,82.5s-36.6,90-87.9,92.9C279,288.5,223.4,172.1,105.1,191
	C117.9,183.5,132.8,178.7,148.9,177.8z"/>
<ellipse transform="matrix(0.9984 -5.624847e-02 5.624847e-02 0.9984 -14.693 9.0727)" class="st4" cx="153.8" cy="265.5" rx="93" ry="87.8"/>
<rect x="56" y="276.7" class="st2" width="400" height="183.8"/>
<rect x="434.5" y="304" class="st3" width="21.5" height="159.3"/>
<rect x="245.3" y="124.2" transform="matrix(6.123234e-17 -1 1 6.123234e-17 -65.0908 577.1701)" class="st3" width="21.5" height="393.9"/>
<rect x="368" y="240.7" class="st7" width="80.7" height="35.8"/>
<path class="st8" d="M363,276.5h-70.7c-2.7,0-5-2.2-5-5v-25.9c0-2.7,2.2-5,5-5H363c2.7,0,5,2.2,5,5v25.9
	C368,274.3,365.8,276.5,363,276.5z"/>
<rect x="324.7" y="204.2" class="st7" width="80.7" height="35.8"/>
<ellipse transform="matrix(0.7611 -0.6486 0.6486 0.7611 -109.0028 110.8112)" class="st9" cx="95.9" cy="203.4" rx="14.5" ry="8.8"/>
<path class="st4" d="M448.6,460.5H63.4c-4.1,0-7.4-3.3-7.4-7.4v-169c0-4.1,3.3-7.4,7.4-7.4h385.3c4.1,0,7.4,3.3,7.4,7.4v169
	C456,457.2,452.7,460.5,448.6,460.5z"/>
<rect x="45.5" y="276.5" class="st2" width="421" height="30.4"/>
<rect x="434.5" y="276.5" class="st3" width="32" height="30.4"/>
<ellipse class="st57" cx="272.8" cy="137.7" rx="34.4" ry="32.2"/>
<ellipse cx="299.4" cy="93.8" rx="6.5" ry="6.1"/>
<ellipse cx="244.9" cy="93.8" rx="6.5" ry="6.1"/>
<ellipse cx="272.8" cy="111.3" rx="12.2" ry="11.4"/>
<path class="st4" d="M459.1,307H52.9c-4.1,0-7.4-3.3-7.4-7.4v-15.7c0-4.1,3.3-7.4,7.4-7.4h406.3c4.1,0,7.4,3.3,7.4,7.4v15.7
	C466.5,303.7,463.2,307,459.1,307z"/>
<rect x="389" y="205.9" class="st16" width="13.3" height="32.3"/>
<rect x="431.9" y="242.5" class="st16" width="13.3" height="32.3"/>
<path class="st4" d="M443.7,276.5H373c-2.7,0-5-2.2-5-5v-25.9c0-2.7,2.2-5,5-5h70.7c2.7,0,5,2.2,5,5v25.9
	C448.7,274.3,446.4,276.5,443.7,276.5z"/>
<path class="st4" d="M400.4,240h-70.7c-2.7,0-5-2.2-5-5v-25.9c0-2.7,2.2-5,5-5h70.7c2.7,0,5,2.2,5,5V235
	C405.3,237.7,403.1,240,400.4,240z"/>
</svg>
