<?xml version="1.0" encoding="utf-8"?>
<!-- Generator: Adobe Illustrator 19.0.0, SVG Export Plug-In . SVG Version: 6.00 Build 0)  -->
<svg version="1.1" id="Layer_1" xmlns="http://www.w3.org/2000/svg" xmlns:xlink="http://www.w3.org/1999/xlink" x="0px" y="0px"
	 viewBox="-49 141 512 512" style="enable-background:new -49 141 512 512;" xml:space="preserve">
<style type="text/css">
	.st0{fill:#C6EBF4;}
	.st1{fill:#AEE4ED;}
	.st2{fill:none;stroke:#000000;stroke-width:11;stroke-miterlimit:10;}
	.st3{fill:#6FCEA6;}
	.st4{fill:#FF6C9D;}
	.st5{fill:#53ADFC;stroke:#000000;stroke-width:11;stroke-miterlimit:10;}
	.st6{fill:#F95594;}
	.st7{fill:#C6EBF4;stroke:#1D1D1B;stroke-width:11;stroke-miterlimit:10;}
	.st8{fill:#FFFFFF;stroke:#1D1D1B;stroke-width:11;stroke-miterlimit:10;}
	.st9{fill:#53C48E;}
	.st10{fill:#48D5BF;stroke:#000000;stroke-width:11;stroke-miterlimit:10;}
	.st11{fill:#EDE21B;}
	.st12{fill:#EAC71C;}
	.st13{fill:#F29F26;}
	.st14{fill:#231F20;}
</style>
<path class="st0" d="M189.3,240.7c-3.5-5.5-6.3-10.3-10.4-17.2c-4.2-7.1-5.6-7.5-11.3-7.5h-10.3c0-0.6,0-1.1,0-1.8V203
	c0-3.1-2.5-5.6-5.6-5.6h-18.1c-3.1,0-5.6,2.5-5.6,5.6v11.2c0,0.6,0,1.2,0.1,1.8h-10.8c-5.9,0-6.7,0.1-11.5,8
	c-2,3.3-4.2,7.2-6.3,10.5l-17.3,27.3c0,6.1,5.9,11.2,13.1,11.2h94.2c7.2,0,13.1-5,13.1-11.2L189.3,240.7z"/>
<polygon class="st1" points="157.2,216 180.5,260.6 202.6,261.8 174.4,217.6 "/>
<path class="st2" d="M378.7,297.7H323V181.2h55.7c7.1,0,12.8,5.7,12.8,12.8v90.8C391.6,291.9,385.8,297.7,378.7,297.7z"/>
<path class="st2" d="M189.3,240.7c-3.5-5.5-6.3-10.3-10.4-17.2c-4.2-7.1-5.6-7.5-11.3-7.5h-10.3c0-0.6,0-1.1,0-1.8V203
	c0-3.1-2.5-5.6-5.6-5.6h-18.1c-3.1,0-5.6,2.5-5.6,5.6v11.2c0,0.6,0,1.2,0.1,1.8h-10.8c-5.9,0-6.7,0.1-11.5,8
	c-2,3.3-4.2,7.2-6.3,10.5l-17.3,27.3c0,6.1,5.9,11.2,13.1,11.2h94.2c7.2,0,13.1-5,13.1-11.2L189.3,240.7z"/>
<path class="st3" d="M314.3,618.8h-7.9c-6.9,0-12.6-5.6-12.6-12.6V187.8c0-6.9,5.6-12.6,12.6-12.6h7.9c6.9,0,12.6,5.6,12.6,12.6
	v418.5C326.9,613.2,321.3,618.8,314.3,618.8z"/>
<line class="st2" x1="350.1" y1="201.8" x2="389.6" y2="201.8"/>
<line class="st2" x1="357.3" y1="227.1" x2="389.6" y2="227.1"/>
<line class="st2" x1="350.1" y1="252.3" x2="389.6" y2="252.3"/>
<line class="st2" x1="357.3" y1="277.5" x2="389.6" y2="277.5"/>
<path class="st4" d="M230.4,602.3H54.7c-7.2,0-13.1-5.9-13.1-13.1l33.9-315.3c0-7.2,5.9-13.1,13.1-13.1h107.8
	c7.2,0,13.1,5.9,13.1,13.1l33.9,315.3C243.6,596.3,237.6,602.3,230.4,602.3z"/>
<path class="st5" d="M167.1,216.4h-49.4v-25.5c0-2.4,2-4.4,4.4-4.4h40.5c2.4,0,4.4,2,4.4,4.4v25.5H167.1z"/>
<polygon class="st6" points="186.5,261.8 222,581 242.7,581 207,265.9 "/>
<path class="st2" d="M230.4,602.3H54.7c-7.2,0-13.1-5.9-13.1-13.1l33.9-315.3c0-7.2,5.9-13.1,13.1-13.1h107.8
	c7.2,0,13.1,5.9,13.1,13.1l33.9,315.3C243.6,596.3,237.6,602.3,230.4,602.3z"/>
<ellipse class="st7" cx="142.6" cy="417.7" rx="59.6" ry="65.9"/>
<circle class="st8" cx="172.5" cy="351" r="20"/>
<circle class="st8" cx="165.5" cy="376.8" r="13"/>
<circle class="st8" cx="136.8" cy="427.2" r="19.3"/>
<circle class="st8" cx="109.1" cy="427.2" r="14"/>
<circle class="st8" cx="151.6" cy="463.9" r="24.8"/>
<path class="st4" d="M241.5,619.1H42.9c-6.6,0-12-5.4-12-12v-11c0-6.6,5.4-12,12-12h198.6c6.6,0,12,5.4,12,12v11
	C253.5,613.7,248.1,619.1,241.5,619.1z"/>
<rect x="226.5" y="584.1" class="st6" width="27" height="34.7"/>
<rect x="310.4" y="300.5" class="st9" width="12.7" height="318.4"/>
<path class="st2" d="M241.5,619.1H42.9c-6.6,0-12-5.4-12-12v-11c0-6.6,5.4-12,12-12h198.6c6.6,0,12,5.4,12,12v11
	C253.5,613.7,248.1,619.1,241.5,619.1z"/>
<path class="st10" d="M314.3,618.8h-7.9c-6.9,0-12.6-5.6-12.6-12.6V187.8c0-6.9,5.6-12.6,12.6-12.6h7.9c6.9,0,12.6,5.6,12.6,12.6
	v418.5C326.9,613.2,321.3,618.8,314.3,618.8z"/>
<path class="st11" d="M352.5,476.2c-31.5-10.4-54.2-40.1-54.2-75c0-17.5,5.6-34,16.2-47.9c1.4-1.8,1.4-4.3-0.1-6.1
	c-1.4-1.8-3.9-2.4-6-1.4c-16.1,7.4-29.8,19.1-39.5,34c-10,15.3-15.3,33-15.3,51.3c0,51.7,42,93.7,93.7,93.7
	c18.3,0,36.1-5.3,51.3-15.3c14.9-9.7,26.6-23.4,34-39.5c0.9-2.1,0.4-4.5-1.4-6c-1.8-1.4-4.3-1.4-6.1-0.1
	c-13.9,10.6-30.4,16.2-47.9,16.2c-4.8,0-9.6-0.4-14.2-1.3"/>
<path class="st12" d="M409.7,499c-15.3,10-33,15.3-51.3,15.3c-51.7,0-93.7-42-93.7-93.7c0-18.3,5.3-36.1,15.3-51.3
	c2.5-3.8,5.2-7.4,8.2-10.8c-6.4,5.6-12.1,12.1-16.8,19.3c-10,15.3-15.3,33-15.3,51.3c0,51.7,42,93.7,93.7,93.7
	c18.3,0,36.1-5.3,51.3-15.3c7.1-4.6,13.4-10.2,19-16.4C416.9,494,413.4,496.6,409.7,499z"/>
<g>
	<path class="st13" d="M373.7,397.5c-9.5,0-17.3-7.7-17.3-17.3c0,9.5-7.7,17.3-17.3,17.3c9.5,0,17.3,7.7,17.3,17.3
		C356.4,405.3,364.2,397.5,373.7,397.5z"/>
	<circle class="st13" cx="385.4" cy="432.6" r="6.9"/>
	<circle class="st13" cx="260.5" cy="512.7" r="6.9"/>
</g>
<g>
	<path class="st14" d="M347.4,528.1c-53.5,0-97-43.5-97-97c0-18.9,5.5-37.3,15.8-53.1c10.1-15.4,24.2-27.5,40.9-35.2
		c3.4-1.6,7.5-0.6,9.9,2.4c2.4,3,2.4,7.1,0.1,10.1c-10.1,13.3-15.5,29.2-15.5,45.9c0,32.7,20.9,61.6,52,71.9
		c1.7,0.6,2.6,2.4,2.1,4.1c-0.6,1.7-2.4,2.6-4.1,2.1c-16.3-5.4-30.3-15.6-40.5-29.5c-10.4-14.2-15.9-31-15.9-48.6
		c0-18.2,5.8-35.4,16.8-49.9c0.5-0.6,0.5-1.5,0-2.1c-0.5-0.6-1.3-0.8-2-0.5c-15.6,7.1-28.7,18.5-38.1,32.8
		c-9.6,14.7-14.7,31.8-14.7,49.5c0,49.9,40.6,90.5,90.5,90.5c17.7,0,34.8-5.1,49.5-14.7c14.3-9.4,25.7-22.6,32.8-38.1
		c0.3-0.7,0.1-1.6-0.5-2c-0.6-0.5-1.5-0.5-2.1,0c-14.4,11-31.7,16.8-49.9,16.8c-4.9,0-9.9-0.4-14.7-1.3c-1.8-0.3-3-2-2.6-3.8
		c0.3-1.8,2-3,3.8-2.6c4.5,0.8,9,1.2,13.6,1.2c16.7,0,32.6-5.4,45.9-15.5c3-2.3,7.2-2.3,10.1,0.1c3,2.4,3.9,6.4,2.4,9.9
		c-7.6,16.7-19.8,30.8-35.2,40.9C384.7,522.6,366.3,528.1,347.4,528.1z"/>
	<path class="st14" d="M356.4,418.1c-1.8,0-3.3-1.5-3.3-3.3c0-7.7-6.3-14-14-14c-1.8,0-3.3-1.5-3.3-3.3c0-1.8,1.5-3.3,3.3-3.3
		c7.7,0,14-6.3,14-14c0-1.8,1.5-3.3,3.3-3.3c1.8,0,3.3,1.5,3.3,3.3c0,7.7,6.3,14,14,14c1.8,0,3.3,1.5,3.3,3.3c0,1.8-1.5,3.3-3.3,3.3
		c-7.7,0-14,6.3-14,14C359.7,416.6,358.2,418.1,356.4,418.1z M350.3,397.5c2.5,1.6,4.6,3.7,6.2,6.2c1.6-2.5,3.7-4.6,6.2-6.2
		c-2.5-1.6-4.6-3.7-6.2-6.2C354.9,393.8,352.7,395.9,350.3,397.5z"/>
	<path class="st14" d="M385.4,442.8c-5.6,0-10.2-4.6-10.2-10.2c0-5.6,4.6-10.2,10.2-10.2c5.6,0,10.2,4.6,10.2,10.2
		C395.6,438.2,391,442.8,385.4,442.8z M385.4,429c-2,0-3.6,1.6-3.6,3.6c0,2,1.6,3.6,3.6,3.6c2,0,3.6-1.6,3.6-3.6
		C389,430.6,387.4,429,385.4,429z"/>
	<path class="st14" d="M260.5,522.8c-5.6,0-10.2-4.6-10.2-10.2c0-5.6,4.6-10.2,10.2-10.2c5.6,0,10.2,4.6,10.2,10.2
		C270.6,518.3,266.1,522.8,260.5,522.8z M260.5,509.1c-2,0-3.6,1.6-3.6,3.6c0,2,1.6,3.6,3.6,3.6c2,0,3.6-1.6,3.6-3.6
		C264.1,510.7,262.5,509.1,260.5,509.1z"/>
	<circle class="st14" cx="356.4" cy="436.7" r="4.1"/>
	<circle class="st14" cx="249.5" cy="485.9" r="4.1"/>
	<circle class="st14" cx="382.7" cy="373.4" r="4.1"/>
</g>
</svg>
