<?xml version="1.0" encoding="utf-8"?>
<!-- Generator: Adobe Illustrator 19.0.0, SVG Export Plug-In . SVG Version: 6.00 Build 0)  -->
<svg version="1.1" id="Layer_1" xmlns="http://www.w3.org/2000/svg" xmlns:xlink="http://www.w3.org/1999/xlink" x="0px" y="0px"
	 viewBox="-49 141 512 512" style="enable-background:new -49 141 512 512;" xml:space="preserve">
<style type="text/css">
	.st0{fill:#6FCEA6;}
	.st1{fill:#53C48E;}
	.st2{fill:#48D5BF;stroke:#000000;stroke-width:11;stroke-miterlimit:10;}
	.st3{fill:#C6EBF4;}
	.st4{fill:#AEE4ED;}
	.st5{fill:none;stroke:#000000;stroke-width:11;stroke-miterlimit:10;}
	.st6{fill:#FF6C9D;}
	.st7{fill:#53ADFC;stroke:#000000;stroke-width:11;stroke-miterlimit:10;}
	.st8{fill:#F95594;}
	.st9{fill:#EAC71C;}
	.st10{fill:#EDE21B;}
	.st11{fill:#EF8229;}
	.st12{fill:#EDE21B;}
	.st13{fill:#231F20;}
	.st14{fill:#C6EBF4;stroke:#1D1D1B;stroke-width:11;stroke-miterlimit:10;}
	.st15{fill:#FFFFFF;stroke:#1D1D1B;stroke-width:11;stroke-miterlimit:10;}
</style>
<path class="st0" d="M314.3,618.8h-7.9c-6.9,0-12.6-5.6-12.6-12.6V187.8c0-6.9,5.6-12.6,12.6-12.6h7.9c6.9,0,12.6,5.6,12.6,12.6
	v418.5C326.9,613.2,321.3,618.8,314.3,618.8z"/>
<rect x="310.4" y="300.5" class="st1" width="12.7" height="318.4"/>
<path class="st2" d="M314.3,618.8h-7.9c-6.9,0-12.6-5.6-12.6-12.6V187.8c0-6.9,5.6-12.6,12.6-12.6h7.9c6.9,0,12.6,5.6,12.6,12.6
	v418.5C326.9,613.2,321.3,618.8,314.3,618.8z"/>
<path class="st3" d="M189.3,240.7c-3.5-5.5-6.3-10.3-10.4-17.2c-4.2-7.1-5.6-7.5-11.3-7.5h-10.3c0-0.6,0-1.1,0-1.8V203
	c0-3.1-2.5-5.6-5.6-5.6h-18.1c-3.1,0-5.6,2.5-5.6,5.6v11.2c0,0.6,0,1.2,0.1,1.8h-10.8c-5.9,0-6.7,0.1-11.5,8
	c-2,3.3-4.2,7.2-6.3,10.5l-17.3,27.3c0,6.1,5.9,11.2,13.1,11.2h94.2c7.2,0,13.1-5,13.1-11.2L189.3,240.7z"/>
<polygon class="st4" points="157.2,216 180.5,260.6 202.6,261.8 174.4,217.6 "/>
<path class="st5" d="M378.7,297.7H323V181.2h55.7c7.1,0,12.8,5.7,12.8,12.8v90.8C391.6,291.9,385.8,297.7,378.7,297.7z"/>
<path class="st5" d="M189.3,240.7c-3.5-5.5-6.3-10.3-10.4-17.2c-4.2-7.1-5.6-7.5-11.3-7.5h-10.3c0-0.6,0-1.1,0-1.8V203
	c0-3.1-2.5-5.6-5.6-5.6h-18.1c-3.1,0-5.6,2.5-5.6,5.6v11.2c0,0.6,0,1.2,0.1,1.8h-10.8c-5.9,0-6.7,0.1-11.5,8
	c-2,3.3-4.2,7.2-6.3,10.5l-17.3,27.3c0,6.1,5.9,11.2,13.1,11.2h94.2c7.2,0,13.1-5,13.1-11.2L189.3,240.7z"/>
<line class="st5" x1="350.1" y1="201.8" x2="389.6" y2="201.8"/>
<line class="st5" x1="357.3" y1="227.1" x2="389.6" y2="227.1"/>
<line class="st5" x1="350.1" y1="252.3" x2="389.6" y2="252.3"/>
<line class="st5" x1="357.3" y1="277.5" x2="389.6" y2="277.5"/>
<path class="st6" d="M230.4,602.3H54.7c-7.2,0-13.1-5.9-13.1-13.1l33.9-315.3c0-7.2,5.9-13.1,13.1-13.1h107.8
	c7.2,0,13.1,5.9,13.1,13.1l33.9,315.3C243.6,596.3,237.6,602.3,230.4,602.3z"/>
<path class="st7" d="M167.1,216.4h-49.4v-25.5c0-2.4,2-4.4,4.4-4.4h40.5c2.4,0,4.4,2,4.4,4.4v25.5H167.1z"/>
<polygon class="st8" points="186.5,261.8 222,581 242.7,581 207,265.9 "/>
<path class="st5" d="M230.4,602.3H54.7c-7.2,0-13.1-5.9-13.1-13.1l33.9-315.3c0-7.2,5.9-13.1,13.1-13.1h107.8
	c7.2,0,13.1,5.9,13.1,13.1l33.9,315.3C243.6,596.3,237.6,602.3,230.4,602.3z"/>
<path class="st9" d="M364,500.1c-9.2,5.5-20,8.6-31.5,8.6c-34.2,0-62-27.8-62-62c0-34.2,27.8-62,62-62c34.2,0,62,27.8,62,62
	c0,18.8-8.3,35.6-21.5,46.9"/>
<path class="st10" d="M369.6,397.1c-10.3-7.7-23.2-12.3-37.1-12.3l0,0h0c-3.7,0-7.3,0.3-10.9,1c-13.6,12.4-22.2,30.3-22.2,50.2
	c0,34.3,25.4,62.7,58.4,67.4c0.2-0.1,0.4-0.2,0.5-0.2c0.2-0.1,0.3-0.2,0.5-0.2c0.4-0.2,0.9-0.4,1.3-0.6c0.1-0.1,0.3-0.1,0.4-0.2
	c0.5-0.3,1.1-0.6,1.6-0.8c0.1-0.1,0.2-0.1,0.3-0.2c0.4-0.2,0.8-0.5,1.3-0.7c0.1,0,0.2-0.1,0.2-0.1l0,0c3.2-1.9,6.2-4,8.9-6.4l0,0
	c0,0,0,0,0,0c0.4-0.3,0.8-0.7,1.2-1.1c0,0,0,0,0,0c0.4-0.3,0.8-0.7,1.1-1.1c0.1-0.1,0.2-0.2,0.3-0.3c0.3-0.3,0.5-0.5,0.8-0.8
	c0.1-0.1,0.3-0.3,0.4-0.4c0.2-0.2,0.5-0.5,0.7-0.7c0.1-0.2,0.3-0.3,0.4-0.5c0.2-0.2,0.4-0.5,0.6-0.7c0.1-0.2,0.3-0.3,0.4-0.5
	c0.2-0.2,0.4-0.5,0.6-0.7c0.1-0.2,0.3-0.3,0.4-0.5c0.2-0.2,0.4-0.5,0.6-0.7c0.1-0.2,0.3-0.3,0.4-0.5c0.2-0.2,0.4-0.5,0.6-0.7
	c0.1-0.2,0.3-0.3,0.4-0.5c0.2-0.3,0.4-0.5,0.6-0.8c0.1-0.2,0.2-0.3,0.4-0.5c0.2-0.3,0.4-0.6,0.6-0.8c0.1-0.1,0.2-0.3,0.3-0.4
	c0.3-0.4,0.5-0.7,0.7-1.1c0-0.1,0.1-0.1,0.1-0.2c0.3-0.4,0.6-0.9,0.8-1.3c0.1-0.1,0.2-0.3,0.2-0.4c0.2-0.3,0.4-0.6,0.6-0.9
	c0.1-0.2,0.2-0.4,0.3-0.5c0.2-0.3,0.3-0.6,0.5-0.8c0.1-0.2,0.2-0.4,0.3-0.6c0.1-0.3,0.3-0.5,0.4-0.8c0.1-0.2,0.2-0.4,0.3-0.6
	c0.1-0.3,0.3-0.5,0.4-0.8c0.1-0.2,0.2-0.4,0.3-0.6c0.1-0.3,0.2-0.5,0.4-0.8c0.1-0.2,0.2-0.4,0.3-0.6c0.1-0.3,0.2-0.6,0.4-0.8
	c0.1-0.2,0.2-0.4,0.3-0.6c0.1-0.3,0.2-0.6,0.3-0.9c0.1-0.2,0.2-0.4,0.2-0.6c0.1-0.3,0.2-0.6,0.3-0.9c0.1-0.2,0.1-0.4,0.2-0.6
	c0.1-0.4,0.2-0.7,0.4-1.1c0-0.1,0.1-0.3,0.1-0.4c0.2-0.5,0.3-1,0.5-1.5c0-0.1,0.1-0.2,0.1-0.4c0.1-0.4,0.2-0.8,0.3-1.2
	c0-0.2,0.1-0.4,0.1-0.6c0.1-0.3,0.2-0.7,0.2-1c0-0.2,0.1-0.4,0.1-0.6c0.1-0.3,0.1-0.6,0.2-0.9c0-0.2,0.1-0.5,0.1-0.7
	c0.1-0.3,0.1-0.6,0.2-0.9c0-0.2,0.1-0.5,0.1-0.7c0-0.3,0.1-0.6,0.1-0.9c0-0.2,0.1-0.5,0.1-0.7c0-0.3,0.1-0.6,0.1-0.9
	c0-0.2,0.1-0.5,0.1-0.7c0-0.3,0.1-0.6,0.1-1c0-0.2,0-0.5,0.1-0.7c0-0.3,0-0.7,0.1-1c0-0.2,0-0.4,0-0.7c0-0.4,0-0.7,0-1.1
	c0-0.2,0-0.4,0-0.6c0-0.6,0-1.1,0-1.7c0-5.9-0.8-11.6-2.4-17C388.4,416.5,380.4,405.1,369.6,397.1z"/>

<path class="st12" d="M379.3,444.7c0-1.1-0.1-2.1-0.2-3.2c0-0.1,0-0.3,0-0.4c-0.1-1-0.3-2.1-0.5-3.1c0-0.1,0-0.2-0.1-0.4
	c-0.2-1-0.4-2-0.7-3c0-0.1-0.1-0.2-0.1-0.4c-0.3-1-0.6-2-0.9-2.9c0-0.1-0.1-0.2-0.1-0.3c-0.3-1-0.7-1.9-1.1-2.9
	c0-0.1-0.1-0.2-0.1-0.3c-0.4-0.9-0.9-1.8-1.3-2.7c-0.1-0.1-0.1-0.2-0.2-0.3c-0.5-0.9-1-1.8-1.5-2.6c-0.1-0.1-0.1-0.2-0.2-0.3
	c-2.3-3.6-5-6.8-8.1-9.7l0,0c0,0,0,0,0,0c-0.1-0.1-0.3-0.2-0.4-0.3c-0.1-0.1-0.3-0.3-0.4-0.4c-0.1-0.1-0.3-0.2-0.4-0.3
	c-0.1-0.1-0.3-0.2-0.4-0.4c-0.1-0.1-0.3-0.2-0.4-0.3c-0.1-0.1-0.3-0.2-0.4-0.3c-0.1-0.1-0.3-0.2-0.4-0.3c-0.1-0.1-0.3-0.2-0.4-0.3
	c-0.1-0.1-0.3-0.2-0.4-0.3c-0.1-0.1-0.3-0.2-0.4-0.3c-0.1-0.1-0.3-0.2-0.4-0.3c-0.1-0.1-0.3-0.2-0.4-0.3c-0.1-0.1-0.3-0.2-0.5-0.3
	c-0.2-0.1-0.3-0.2-0.5-0.3c-0.2-0.1-0.3-0.2-0.5-0.3c-0.2-0.1-0.3-0.2-0.5-0.3c-0.2-0.1-0.3-0.2-0.5-0.3c-0.2-0.1-0.3-0.2-0.5-0.3
	c-0.2-0.1-0.3-0.2-0.5-0.3c-0.2-0.1-0.3-0.2-0.5-0.3c-0.2-0.1-0.3-0.2-0.5-0.3c-0.2-0.1-0.3-0.2-0.5-0.3c-0.2-0.1-0.3-0.2-0.5-0.2
	c-0.2-0.1-0.4-0.2-0.5-0.3c-0.2-0.1-0.3-0.2-0.5-0.2c-0.2-0.1-0.4-0.2-0.6-0.3c-0.1-0.1-0.3-0.1-0.4-0.2c-0.2-0.1-0.5-0.2-0.7-0.3
	c-0.1,0-0.2-0.1-0.3-0.1c-0.3-0.1-0.7-0.3-1-0.4c-0.1-0.1-0.3-0.1-0.4-0.2c-0.2-0.1-0.4-0.2-0.6-0.2c-0.1-0.1-0.3-0.1-0.4-0.2
	c-0.2-0.1-0.4-0.1-0.6-0.2c-0.2-0.1-0.3-0.1-0.5-0.2c-0.2-0.1-0.4-0.1-0.6-0.2c-0.2-0.1-0.3-0.1-0.5-0.1c-0.2-0.1-0.4-0.1-0.6-0.2
	c-0.2,0-0.3-0.1-0.5-0.1c-0.2-0.1-0.4-0.1-0.6-0.2c-0.2,0-0.3-0.1-0.5-0.1c-0.2,0-0.4-0.1-0.6-0.1c-0.2,0-0.3-0.1-0.5-0.1
	c-0.2,0-0.4-0.1-0.6-0.1c-0.2,0-0.3-0.1-0.5-0.1c-0.2,0-0.4-0.1-0.6-0.1c-0.2,0-0.3-0.1-0.5-0.1c-0.2,0-0.4-0.1-0.6-0.1
	c-0.2,0-0.3-0.1-0.5-0.1c-0.2,0-0.4-0.1-0.6-0.1c-0.2,0-0.3,0-0.5-0.1c-0.2,0-0.4,0-0.6-0.1c-0.2,0-0.3,0-0.5-0.1
	c-0.2,0-0.4,0-0.7-0.1c-0.2,0-0.3,0-0.5,0c-0.2,0-0.5,0-0.7,0c-0.2,0-0.3,0-0.5,0c-0.3,0-0.5,0-0.8,0c-0.1,0-0.3,0-0.4,0
	c-0.4,0-0.8,0-1.2,0c0,0,0,0,0,0h0h0c0,0,0,0,0,0c-0.4,0-0.8,0-1.2,0c-0.1,0-0.3,0-0.4,0c-0.3,0-0.5,0-0.8,0c-0.2,0-0.3,0-0.5,0
	c-0.2,0-0.5,0-0.7,0c-0.2,0-0.3,0-0.5,0c-0.2,0-0.4,0-0.7,0.1c-0.2,0-0.3,0-0.5,0.1c-0.2,0-0.4,0-0.6,0.1c-0.2,0-0.3,0-0.5,0.1
	c-0.2,0-0.4,0.1-0.6,0.1c-0.2,0-0.3,0.1-0.5,0.1c-0.2,0-0.4,0.1-0.6,0.1c-0.2,0-0.3,0.1-0.5,0.1c-0.2,0-0.4,0.1-0.6,0.1
	c-0.2,0-0.3,0.1-0.5,0.1c-0.2,0-0.4,0.1-0.6,0.1c-0.2,0-0.3,0.1-0.5,0.1c-0.2,0-0.4,0.1-0.6,0.1c-0.2,0-0.3,0.1-0.5,0.1
	c-0.2,0.1-0.4,0.1-0.6,0.2c-0.2,0-0.3,0.1-0.5,0.1c-0.2,0.1-0.4,0.1-0.6,0.2c-0.2,0-0.3,0.1-0.5,0.1c-0.2,0.1-0.4,0.1-0.6,0.2
	c-0.2,0.1-0.3,0.1-0.5,0.2c-0.2,0.1-0.4,0.1-0.6,0.2c-0.1,0.1-0.3,0.1-0.4,0.2c-0.2,0.1-0.4,0.2-0.6,0.2c-0.1,0.1-0.3,0.1-0.4,0.2
	c-0.3,0.1-0.7,0.3-1,0.4c-0.1,0-0.2,0.1-0.3,0.1c-0.2,0.1-0.5,0.2-0.7,0.3c-0.1,0.1-0.3,0.1-0.4,0.2c-0.2,0.1-0.4,0.2-0.6,0.3
	c-0.2,0.1-0.3,0.2-0.5,0.2c-0.2,0.1-0.4,0.2-0.5,0.3c-0.2,0.1-0.3,0.2-0.5,0.2c-0.2,0.1-0.3,0.2-0.5,0.3c-0.2,0.1-0.3,0.2-0.5,0.3
	c-0.2,0.1-0.3,0.2-0.5,0.3c-0.2,0.1-0.3,0.2-0.5,0.3c-0.2,0.1-0.3,0.2-0.5,0.3c-0.2,0.1-0.3,0.2-0.5,0.3c-0.2,0.1-0.3,0.2-0.5,0.3
	c-0.2,0.1-0.3,0.2-0.5,0.3c-0.2,0.1-0.3,0.2-0.5,0.3c-0.2,0.1-0.3,0.2-0.5,0.3c-0.2,0.1-0.3,0.2-0.4,0.3c-0.1,0.1-0.3,0.2-0.4,0.3
	c0,0-0.1,0-0.1,0.1c-3.6,8.3-5.7,17.5-5.7,27.2c0,24.2,12.7,45.5,31.8,57.6c0.4,0,0.8,0,1.3,0h0h0c21.4,0,39.5-14.4,45-34
	c0.5-1.9,0.9-3.7,1.2-5.7c0.1-0.8,0.2-1.6,0.3-2.3c0.2-1.6,0.2-3.2,0.2-4.8c0-0.5,0-1.1,0-1.6C379.3,445,379.3,444.9,379.3,444.7z"
	/>
<g>
	<path class="st13" d="M362.3,497.3c-9,5.3-19.3,8.1-29.8,8.1c-32.3,0-58.6-26.3-58.6-58.6c0-32.3,26.3-58.6,58.6-58.6
		s58.6,26.3,58.6,58.6c0,17.1-7.4,33.3-20.4,44.4c-1.4,1.2-1.6,3.3-0.3,4.7c1.2,1.4,3.3,1.6,4.7,0.3c14.4-12.4,22.7-30.5,22.7-49.5
		c0-36-29.3-65.3-65.3-65.3s-65.3,29.3-65.3,65.3s29.3,65.3,65.3,65.3c11.7,0,23.2-3.1,33.2-9.1c1.6-0.9,2.1-3,1.2-4.6
		C366,496.9,363.9,496.3,362.3,497.3z"/>

	<path class="st13" d="M332.5,373.4c1.8,0,3.3-1.5,3.3-3.3v-19.2c0-1.8-1.5-3.3-3.3-3.3c-1.8,0-3.3,1.5-3.3,3.3v19.2
		C329.2,371.9,330.7,373.4,332.5,373.4z"/>
	<path class="st13" d="M332.5,520.1c-1.8,0-3.3,1.5-3.3,3.3v19.2c0,1.8,1.5,3.3,3.3,3.3c1.8,0,3.3-1.5,3.3-3.3v-19.2
		C335.9,521.6,334.4,520.1,332.5,520.1z"/>
	<path class="st13" d="M291.3,382c0.6,1.1,1.7,1.7,2.9,1.7c0.6,0,1.1-0.1,1.7-0.4c1.6-0.9,2.1-3,1.2-4.6l-9.6-16.7
		c-0.9-1.6-3-2.1-4.6-1.2c-1.6,0.9-2.1,3-1.2,4.6L291.3,382z"/>
	<path class="st13" d="M373.8,511.5c-0.9-1.6-3-2.1-4.6-1.2c-1.6,0.9-2.1,3-1.2,4.6l9.6,16.7c0.6,1.1,1.7,1.7,2.9,1.7
		c0.6,0,1.1-0.1,1.7-0.4c1.6-0.9,2.1-3,1.2-4.6L373.8,511.5z"/>
	<path class="st13" d="M247.8,401.7l16.7,9.6c0.5,0.3,1.1,0.4,1.7,0.4c1.2,0,2.3-0.6,2.9-1.7c0.9-1.6,0.4-3.6-1.2-4.6l-16.7-9.6
		c-1.6-0.9-3.6-0.4-4.6,1.2C245.7,398.7,246.2,400.8,247.8,401.7z"/>
	<path class="st13" d="M417.3,491.8l-16.7-9.6c-1.6-0.9-3.6-0.4-4.6,1.2c-0.9,1.6-0.4,3.6,1.2,4.6l16.7,9.6c0.5,0.3,1.1,0.4,1.7,0.4
		c1.2,0,2.3-0.6,2.9-1.7C419.4,494.8,418.9,492.7,417.3,491.8z"/>
	<path class="st13" d="M259.2,446.7c0-1.8-1.5-3.3-3.3-3.3h-19.2c-1.8,0-3.3,1.5-3.3,3.3c0,1.8,1.5,3.3,3.3,3.3h19.2
		C257.7,450.1,259.2,448.6,259.2,446.7z"/>
	<path class="st13" d="M428.5,443.4h-19.2c-1.8,0-3.3,1.5-3.3,3.3c0,1.8,1.5,3.3,3.3,3.3h19.2c1.8,0,3.3-1.5,3.3-3.3
		C431.8,444.9,430.3,443.4,428.5,443.4z"/>
	<path class="st13" d="M264.5,482.2l-16.7,9.6c-1.6,0.9-2.1,3-1.2,4.6c0.6,1.1,1.7,1.7,2.9,1.7c0.6,0,1.1-0.1,1.7-0.4l16.7-9.6
		c1.6-0.9,2.1-3,1.2-4.6C268.1,481.8,266.1,481.3,264.5,482.2z"/>
	<path class="st13" d="M398.9,411.7c0.6,0,1.1-0.1,1.7-0.4l16.7-9.6c1.6-0.9,2.1-3,1.2-4.6c-0.9-1.6-3-2.1-4.6-1.2l-16.7,9.6
		c-1.6,0.9-2.1,3-1.2,4.6C396.7,411.1,397.8,411.7,398.9,411.7z"/>
	<path class="st13" d="M295.9,510.2c-1.6-0.9-3.6-0.4-4.6,1.2l-9.6,16.7c-0.9,1.6-0.4,3.6,1.2,4.6c0.5,0.3,1.1,0.4,1.7,0.4
		c1.2,0,2.3-0.6,2.9-1.7l9.6-16.7C298,513.2,297.5,511.2,295.9,510.2z"/>
	<path class="st13" d="M369.2,383.2c0.5,0.3,1.1,0.4,1.7,0.4c1.2,0,2.3-0.6,2.9-1.7l9.6-16.7c0.9-1.6,0.4-3.6-1.2-4.6
		c-1.6-0.9-3.6-0.4-4.6,1.2l-9.6,16.7C367.1,380.3,367.6,382.3,369.2,383.2z"/>
</g>
<ellipse class="st14" cx="142.6" cy="417.7" rx="59.6" ry="65.9"/>
<circle class="st15" cx="172.5" cy="351" r="20"/>
<circle class="st15" cx="165.5" cy="376.8" r="13"/>
<circle class="st15" cx="136.8" cy="427.2" r="19.3"/>
<circle class="st15" cx="109.1" cy="427.2" r="14"/>
<circle class="st15" cx="151.6" cy="463.9" r="24.8"/>
<path class="st6" d="M241.5,619.1H42.9c-6.6,0-12-5.4-12-12v-11c0-6.6,5.4-12,12-12h198.6c6.6,0,12,5.4,12,12v11
	C253.5,613.7,248.1,619.1,241.5,619.1z"/>
<rect x="226.5" y="584.1" class="st8" width="27" height="34.7"/>
<path class="st5" d="M241.5,619.1H42.9c-6.6,0-12-5.4-12-12v-11c0-6.6,5.4-12,12-12h198.6c6.6,0,12,5.4,12,12v11
	C253.5,613.7,248.1,619.1,241.5,619.1z"/>
</svg>
