<?xml version="1.0" encoding="utf-8"?>
<!-- Generator: Adobe Illustrator 21.1.0, SVG Export Plug-In . SVG Version: 6.00 Build 0)  -->
<svg version="1.1" id="Layer_1" xmlns="http://www.w3.org/2000/svg" xmlns:xlink="http://www.w3.org/1999/xlink" x="0px" y="0px"
	 viewBox="0 0 512 512" style="enable-background:new 0 0 512 512;" xml:space="preserve">
<style type="text/css">
	.st0{fill:#F4C245;}
	.st1{fill:none;stroke:#000000;stroke-width:11;stroke-linecap:round;stroke-linejoin:round;stroke-miterlimit:10;}
	.st2{fill:#FCD259;}
	.st3{fill:#F4C245;stroke:#000000;stroke-width:11;stroke-linecap:round;stroke-miterlimit:10;}
	.st4{fill:#48D5BF;}
	.st5{fill:#26C6A7;}
	.st6{fill:none;stroke:#000000;stroke-width:11;stroke-linecap:round;stroke-miterlimit:10;}
	.st7{fill:none;stroke:#000000;stroke-width:11;stroke-miterlimit:10;}
	.st8{fill:#FD4347;}
	.st9{fill:#EF3043;}
	.st10{fill:#F97A48;}
	.st11{fill:#EF5F37;}
	.st12{fill:#F97A48;stroke:#000000;stroke-width:11;stroke-miterlimit:10;}
	.st13{fill:#4BBC32;}
	.st14{fill:#31AA0F;}
	.st15{fill:#C6EBF4;}
	.st16{fill:#AEE4ED;}
	.st17{fill:#53ADFC;stroke:#000000;stroke-width:11;stroke-miterlimit:10;}
	.st18{fill:#FFDA00;}
	.st19{fill:#EFC700;}
	.st20{fill:#FFDA00;stroke:#000000;stroke-width:11;stroke-miterlimit:10;}
	.st21{fill:#FFBCA4;stroke:#000000;stroke-width:11;stroke-miterlimit:10;}
	.st22{fill:#53ADFC;}
	.st23{fill:#B9D6ED;stroke:#000000;stroke-width:11;stroke-miterlimit:10;}
	.st24{fill:#24A1ED;}
	.st25{fill:none;stroke:#000000;stroke-miterlimit:10;}
	.st26{fill:#F95594;stroke:#000000;stroke-width:11;stroke-miterlimit:10;}
	.st27{fill:#24A1ED;stroke:#000000;stroke-width:11;stroke-miterlimit:10;}
	.st28{fill:#FF6C9D;}
	.st29{fill:#F95594;}
	.st30{fill:#4B5B6D;}
	.st31{fill:#3E5366;}
	.st32{fill:#FFDA00;stroke:#000000;stroke-width:5;stroke-miterlimit:10;}
	.st33{fill:#85AFDD;stroke:#000000;stroke-width:11;stroke-miterlimit:10;}
	.st34{fill:#FFA071;stroke:#1D1D1B;stroke-width:11;stroke-miterlimit:10;}
	.st35{fill:#FFFFFF;stroke:#1D1D1B;stroke-width:11;stroke-miterlimit:10;}
	.st36{fill:#FFDC64;}
	.st37{fill:#1D1D1B;}
	.st38{fill:#FF6C9D;stroke:#1D1D1B;stroke-width:11;stroke-miterlimit:10;}
	.st39{fill:#6FCEA6;}
	.st40{fill:#C6EBF4;stroke:#000000;stroke-width:11;stroke-miterlimit:10;}
	.st41{fill:#C6EBF4;stroke:#1D1D1B;stroke-width:11;stroke-miterlimit:10;}
	.st42{fill:#53C48E;}
	.st43{fill:#48D5BF;stroke:#000000;stroke-width:11;stroke-miterlimit:10;}
	.st44{fill:#FFFFFF;stroke:#000000;stroke-width:11;stroke-miterlimit:10;}
	.st45{fill:#AEE4ED;stroke:#1D1D1B;stroke-width:11;stroke-miterlimit:10;}
	.st46{stroke:#1D1D1B;stroke-width:11;stroke-miterlimit:10;}
	.st47{fill:#FFA071;}
	.st48{fill:#53ADFC;stroke:#1D1D1B;stroke-width:11;stroke-miterlimit:10;}
	.st49{fill:#31AA0F;stroke:#000000;stroke-width:11;stroke-miterlimit:10;}
	.st50{fill:#4BBC32;stroke:#000000;stroke-width:11;stroke-miterlimit:10;}
	.st51{fill:#EA3106;}
	.st52{fill:#DD0E2C;}
	.st53{fill:#F22F7E;}
	.st54{fill:#FCD259;stroke:#000000;stroke-width:11;stroke-miterlimit:10;}
	.st55{fill:#FD4347;stroke:#000000;stroke-width:11;stroke-miterlimit:10;}
	.st56{fill:#FCB439;}
	.st57{fill:#F43842;}
	.st58{fill:#178DFB;}
	.st59{fill:#32AF14;}
	.st60{fill:#F97A48;stroke:#000000;stroke-width:11;stroke-linecap:round;stroke-linejoin:round;stroke-miterlimit:10;}
	.st61{fill:#FFDA00;stroke:#1D1D1B;stroke-width:11.1327;stroke-miterlimit:10;}
	.st62{fill:#FCB439;stroke:#FFFFFF;stroke-width:14.5517;stroke-miterlimit:10;}
	.st63{fill:#FFFFFF;}
	.st64{clip-path:url(#SVGID_2_);}
	.st65{fill:#D8D8D8;}
	.st66{clip-path:url(#SVGID_4_);}
	.st67{clip-path:url(#SVGID_6_);}
	.st68{fill:#999999;stroke:#FFFFFF;stroke-width:14.5517;stroke-miterlimit:10;}
	.st69{clip-path:url(#SVGID_8_);}
	.st70{clip-path:url(#SVGID_10_);}
	.st71{fill:#EA461F;}
	.st72{clip-path:url(#SVGID_12_);}
	.st73{fill:#C41820;}
	.st74{clip-path:url(#SVGID_14_);}
	.st75{fill:#075492;}
	.st76{fill:#003662;}
	.st77{clip-path:url(#SVGID_16_);}
	.st78{clip-path:url(#SVGID_18_);}
	.st79{clip-path:url(#SVGID_20_);}
	.st80{clip-path:url(#SVGID_22_);}
	.st81{fill:#DDDDDD;}
	.st82{fill:none;stroke:#1D1D1B;stroke-width:11;stroke-linecap:round;stroke-linejoin:round;stroke-miterlimit:10;}
	.st83{fill:none;stroke:#1D1D1B;stroke-width:11.6468;stroke-linecap:round;stroke-linejoin:round;stroke-miterlimit:10;}
	.st84{fill:#C6EBF4;stroke:#1D1D1B;stroke-width:11;stroke-linecap:round;stroke-linejoin:round;stroke-miterlimit:10;}
</style>
<path class="st15" d="M238.3,99.7c-3.5-5.5-6.3-10.3-10.4-17.2c-4.2-7.1-5.6-7.5-11.3-7.5l-10.3,0c0-0.6,0-1.1,0-1.8V62
	c0-3.1-2.5-5.6-5.6-5.6h-18.1c-3.1,0-5.6,2.5-5.6,5.6v11.2c0,0.6,0,1.2,0.1,1.8h-10.8c-5.9,0-6.7,0.1-11.5,8
	c-2,3.3-4.2,7.2-6.3,10.5l-17.3,27.3c0,6.1,5.9,11.2,13.1,11.2h94.2c7.2,0,13.1-5,13.1-11.2L238.3,99.7z"/>
<polygon class="st16" points="206.2,75 229.5,119.6 251.6,120.8 223.4,76.6 "/>
<path class="st7" d="M427.7,156.7H372V40.2h55.7c7.1,0,12.8,5.7,12.8,12.8v90.8C440.6,150.9,434.8,156.7,427.7,156.7z"/>
<path class="st7" d="M238.3,99.7c-3.5-5.5-6.3-10.3-10.4-17.2c-4.2-7.1-5.6-7.5-11.3-7.5l-10.3,0c0-0.6,0-1.1,0-1.8V62
	c0-3.1-2.5-5.6-5.6-5.6h-18.1c-3.1,0-5.6,2.5-5.6,5.6v11.2c0,0.6,0,1.2,0.1,1.8h-10.8c-5.9,0-6.7,0.1-11.5,8
	c-2,3.3-4.2,7.2-6.3,10.5l-17.3,27.3c0,6.1,5.9,11.2,13.1,11.2h94.2c7.2,0,13.1-5,13.1-11.2L238.3,99.7z"/>
<path class="st39" d="M363.3,477.8h-7.9c-6.9,0-12.6-5.6-12.6-12.6V46.8c0-6.9,5.6-12.6,12.6-12.6h7.9c6.9,0,12.6,5.6,12.6,12.6
	v418.5C375.9,472.2,370.3,477.8,363.3,477.8z"/>
<line class="st40" x1="399.1" y1="60.8" x2="438.6" y2="60.8"/>
<line class="st40" x1="406.3" y1="86.1" x2="438.6" y2="86.1"/>
<line class="st40" x1="399.1" y1="111.3" x2="438.6" y2="111.3"/>
<line class="st40" x1="406.3" y1="136.5" x2="438.6" y2="136.5"/>
<path class="st28" d="M279.4,461.3H103.7c-7.2,0-13.1-5.9-13.1-13.1l33.9-315.3c0-7.2,5.9-13.1,13.1-13.1h107.8
	c7.2,0,13.1,5.9,13.1,13.1l33.9,315.3C292.6,455.3,286.6,461.3,279.4,461.3z"/>
<path class="st17" d="M216.1,75.4h-49.4V49.9c0-2.4,2-4.4,4.4-4.4h40.5c2.4,0,4.4,2,4.4,4.4V75.4z"/>
<polygon class="st29" points="235.5,120.8 271,440 291.7,440 256,124.9 "/>
<path class="st7" d="M279.4,461.3H103.7c-7.2,0-13.1-5.9-13.1-13.1l33.9-315.3c0-7.2,5.9-13.1,13.1-13.1h107.8
	c7.2,0,13.1,5.9,13.1,13.1l33.9,315.3C292.6,455.3,286.6,461.3,279.4,461.3z"/>
<ellipse class="st41" cx="191.6" cy="276.7" rx="59.6" ry="65.9"/>
<circle class="st35" cx="221.5" cy="210" r="20"/>
<circle class="st35" cx="214.5" cy="235.8" r="13"/>
<circle class="st35" cx="185.8" cy="286.2" r="19.3"/>
<circle class="st35" cx="158.1" cy="286.2" r="14"/>
<circle class="st35" cx="200.6" cy="322.9" r="24.8"/>
<path class="st28" d="M290.5,478.1H91.9c-6.6,0-12-5.4-12-12v-11c0-6.6,5.4-12,12-12h198.6c6.6,0,12,5.4,12,12v11
	C302.5,472.7,297.1,478.1,290.5,478.1z"/>
<rect x="275.5" y="443.1" class="st29" width="27" height="34.7"/>
<rect x="359.4" y="159.5" class="st42" width="12.7" height="318.4"/>
<path class="st7" d="M290.5,478.1H91.9c-6.6,0-12-5.4-12-12v-11c0-6.6,5.4-12,12-12h198.6c6.6,0,12,5.4,12,12v11
	C302.5,472.7,297.1,478.1,290.5,478.1z"/>
<path class="st43" d="M363.3,477.8h-7.9c-6.9,0-12.6-5.6-12.6-12.6V46.8c0-6.9,5.6-12.6,12.6-12.6h7.9c6.9,0,12.6,5.6,12.6,12.6
	v418.5C375.9,472.2,370.3,477.8,363.3,477.8z"/>
</svg>
