<?xml version="1.0" encoding="utf-8"?>
<!-- Generator: Adobe Illustrator 21.1.0, SVG Export Plug-In . SVG Version: 6.00 Build 0)  -->
<svg version="1.1" id="Layer_1" xmlns="http://www.w3.org/2000/svg" xmlns:xlink="http://www.w3.org/1999/xlink" x="0px" y="0px"
	 viewBox="0 0 512 512" style="enable-background:new 0 0 512 512;" xml:space="preserve">
<style type="text/css">
	.st0{fill:#F4C245;}
	.st1{fill:none;stroke:#000000;stroke-width:11;stroke-linecap:round;stroke-linejoin:round;stroke-miterlimit:10;}
	.st2{fill:#FCD259;}
	.st3{fill:#F4C245;stroke:#000000;stroke-width:11;stroke-linecap:round;stroke-miterlimit:10;}
	.st4{fill:#48D5BF;}
	.st5{fill:#26C6A7;}
	.st6{fill:none;stroke:#000000;stroke-width:11;stroke-linecap:round;stroke-miterlimit:10;}
	.st7{fill:none;stroke:#000000;stroke-width:11;stroke-miterlimit:10;}
	.st8{fill:#FD4347;}
	.st9{fill:#EF3043;}
	.st10{fill:#F97A48;}
	.st11{fill:#EF5F37;}
	.st12{fill:#F97A48;stroke:#000000;stroke-width:11;stroke-miterlimit:10;}
	.st13{fill:#4BBC32;}
	.st14{fill:#31AA0F;}
	.st15{fill:#C6EBF4;}
	.st16{fill:#AEE4ED;}
	.st17{fill:#53ADFC;stroke:#000000;stroke-width:11;stroke-miterlimit:10;}
	.st18{fill:#FFDA00;}
	.st19{fill:#EFC700;}
	.st20{fill:#FFDA00;stroke:#000000;stroke-width:11;stroke-miterlimit:10;}
	.st21{fill:#FFBCA4;stroke:#000000;stroke-width:11;stroke-miterlimit:10;}
	.st22{fill:#53ADFC;}
	.st23{fill:#B9D6ED;stroke:#000000;stroke-width:11;stroke-miterlimit:10;}
	.st24{fill:#24A1ED;}
	.st25{fill:none;stroke:#000000;stroke-miterlimit:10;}
	.st26{fill:#F95594;stroke:#000000;stroke-width:11;stroke-miterlimit:10;}
	.st27{fill:#24A1ED;stroke:#000000;stroke-width:11;stroke-miterlimit:10;}
	.st28{fill:#FF6C9D;}
	.st29{fill:#F95594;}
	.st30{fill:#4B5B6D;}
	.st31{fill:#3E5366;}
	.st32{fill:#FFDA00;stroke:#000000;stroke-width:5;stroke-miterlimit:10;}
	.st33{fill:#85AFDD;stroke:#000000;stroke-width:11;stroke-miterlimit:10;}
	.st34{fill:#FFA071;stroke:#1D1D1B;stroke-width:11;stroke-miterlimit:10;}
	.st35{fill:#FFFFFF;stroke:#1D1D1B;stroke-width:11;stroke-miterlimit:10;}
	.st36{fill:#FFDC64;}
	.st37{fill:#1D1D1B;}
	.st38{fill:#FF6C9D;stroke:#1D1D1B;stroke-width:11;stroke-miterlimit:10;}
	.st39{fill:#6FCEA6;}
	.st40{fill:#C6EBF4;stroke:#000000;stroke-width:11;stroke-miterlimit:10;}
	.st41{fill:#C6EBF4;stroke:#1D1D1B;stroke-width:11;stroke-miterlimit:10;}
	.st42{fill:#53C48E;}
	.st43{fill:#48D5BF;stroke:#000000;stroke-width:11;stroke-miterlimit:10;}
	.st44{fill:#FFFFFF;stroke:#000000;stroke-width:11;stroke-miterlimit:10;}
	.st45{fill:#AEE4ED;stroke:#1D1D1B;stroke-width:11;stroke-miterlimit:10;}
	.st46{stroke:#1D1D1B;stroke-width:11;stroke-miterlimit:10;}
	.st47{fill:#FFA071;}
	.st48{fill:#53ADFC;stroke:#1D1D1B;stroke-width:11;stroke-miterlimit:10;}
	.st49{fill:#31AA0F;stroke:#000000;stroke-width:11;stroke-miterlimit:10;}
	.st50{fill:#4BBC32;stroke:#000000;stroke-width:11;stroke-miterlimit:10;}
	.st51{fill:#EA3106;}
	.st52{fill:#DD0E2C;}
	.st53{fill:#F22F7E;}
	.st54{fill:#FCD259;stroke:#000000;stroke-width:11;stroke-miterlimit:10;}
	.st55{fill:#FD4347;stroke:#000000;stroke-width:11;stroke-miterlimit:10;}
	.st56{fill:#FCB439;}
	.st57{fill:#F43842;}
	.st58{fill:#178DFB;}
	.st59{fill:#32AF14;}
	.st60{fill:#F97A48;stroke:#000000;stroke-width:11;stroke-linecap:round;stroke-linejoin:round;stroke-miterlimit:10;}
	.st61{fill:#FFDA00;stroke:#1D1D1B;stroke-width:11.1327;stroke-miterlimit:10;}
	.st62{fill:#FCB439;stroke:#FFFFFF;stroke-width:14.5517;stroke-miterlimit:10;}
	.st63{fill:#FFFFFF;}
	.st64{clip-path:url(#SVGID_2_);}
	.st65{fill:#D8D8D8;}
	.st66{clip-path:url(#SVGID_4_);}
	.st67{clip-path:url(#SVGID_6_);}
	.st68{fill:#999999;stroke:#FFFFFF;stroke-width:14.5517;stroke-miterlimit:10;}
	.st69{clip-path:url(#SVGID_8_);}
	.st70{clip-path:url(#SVGID_10_);}
	.st71{fill:#EA461F;}
	.st72{clip-path:url(#SVGID_12_);}
	.st73{fill:#C41820;}
	.st74{clip-path:url(#SVGID_14_);}
	.st75{fill:#075492;}
	.st76{fill:#003662;}
	.st77{clip-path:url(#SVGID_16_);}
	.st78{clip-path:url(#SVGID_18_);}
	.st79{clip-path:url(#SVGID_20_);}
	.st80{clip-path:url(#SVGID_22_);}
	.st81{fill:#DDDDDD;}
	.st82{fill:none;stroke:#1D1D1B;stroke-width:11;stroke-linecap:round;stroke-linejoin:round;stroke-miterlimit:10;}
	.st83{fill:none;stroke:#1D1D1B;stroke-width:11.6468;stroke-linecap:round;stroke-linejoin:round;stroke-miterlimit:10;}
	.st84{fill:#C6EBF4;stroke:#1D1D1B;stroke-width:11;stroke-linecap:round;stroke-linejoin:round;stroke-miterlimit:10;}
</style>
<path class="st24" d="M78,50.8h360.5c8.3,0,15,6.7,15,15v375.5c0,8.3-6.7,15-15,15H78c-8.3,0-15-6.7-15-15V65.8
	C63,57.5,69.7,50.8,78,50.8z"/>
<path class="st22" d="M78,50.8h330.4c8.3,0,15,6.7,15,15v375.5c0,8.3-6.7,15-15,15H78c-8.3,0-15-6.7-15-15V65.8
	C63,57.5,69.7,50.8,78,50.8z"/>
<path class="st45" d="M310.8,178.4c-62.2,0-112.7,50.4-112.7,112.7s50.4,112.7,112.7,112.7s112.7-50.4,112.7-112.7
	S373,178.4,310.8,178.4z"/>
<g>
	<path class="st43" d="M85.5,456.3h60.1l0,0v22.5c0,4.1-3.4,7.5-7.5,7.5H93c-4.1,0-7.5-3.4-7.5-7.5L85.5,456.3L85.5,456.3z"/>
	<path class="st43" d="M370.9,456.3H431l0,0v22.5c0,4.1-3.4,7.5-7.5,7.5h-45.1c-4.1,0-7.5-3.4-7.5-7.5L370.9,456.3L370.9,456.3z"/>
</g>
<circle class="st43" cx="397.2" cy="99.6" r="18.8"/>
<path d="M93,118.4c-4.1,0-7.5-2.4-7.5-5.4V86.2c0-3,3.4-5.4,7.5-5.4s7.5,2.4,7.5,5.4V113C100.5,116,97.2,118.4,93,118.4z"/>
<path d="M123.1,118.4c-4.1,0-7.5-2.4-7.5-5.4V86.2c0-3,3.4-5.4,7.5-5.4s7.5,2.4,7.5,5.4V113C130.6,116,127.2,118.4,123.1,118.4z"/>
<path d="M153.1,118.4c-4.1,0-7.5-2.4-7.5-5.4V86.2c0-3,3.4-5.4,7.5-5.4c4.1,0,7.5,2.4,7.5,5.4V113
	C160.6,116,157.2,118.4,153.1,118.4z"/>
<path d="M183.1,118.4c-4.1,0-7.5-2.4-7.5-5.4V86.2c0-3,3.4-5.4,7.5-5.4s7.5,2.4,7.5,5.4V113C190.6,116,187.3,118.4,183.1,118.4z"/>
<path class="st45" d="M230.5,369.9c8.1,8.3,17.5,15.3,27.8,20.8c-55,29-123.2,7.9-152.2-47.1s-7.9-123.2,47.1-152.2
	c32.9-17.3,72.2-17.3,105,0c-55,29.1-76.1,97.2-47,152.2C216.3,353.3,222.8,362.2,230.5,369.9z"/>
<path class="st41" d="M198.2,291.1c0,29.5,11.6,57.9,32.3,78.9c-8,2.5-16.4,3.7-24.8,3.8c-45.6,0-82.6-37-82.6-82.6
	s37-82.6,82.6-82.6c8.4,0,16.8,1.3,24.8,3.8C209.7,233.2,198.1,261.6,198.2,291.1z"/>
<path class="st41" d="M310.8,373.7c-8.4,0-16.8-1.3-24.8-3.8c-43.6-13.6-67.8-59.9-54.2-103.5c8.1-25.9,28.4-46.1,54.2-54.2
	c8-2.5,16.4-3.7,24.8-3.8c45.6,0,82.6,37,82.6,82.6S356.4,373.7,310.8,373.7z"/>
<path class="st7" d="M78,50.8h360.5c8.3,0,15,6.7,15,15v375.5c0,8.3-6.7,15-15,15H78c-8.3,0-15-6.7-15-15V65.8
	C63,57.5,69.7,50.8,78,50.8z"/>
<line class="st7" x1="63" y1="401.5" x2="453.5" y2="401.5"/>
<line class="st46" x1="63" y1="304.5" x2="453.5" y2="304.5"/>
<line class="st46" x1="63" y1="149.4" x2="453.5" y2="149.4"/>
</svg>
