<?xml version="1.0" encoding="utf-8"?>
<!-- Generator: Adobe Illustrator 21.1.0, SVG Export Plug-In . SVG Version: 6.00 Build 0)  -->
<svg version="1.1" id="Layer_1" xmlns="http://www.w3.org/2000/svg" xmlns:xlink="http://www.w3.org/1999/xlink" x="0px" y="0px"
	 viewBox="0 0 512 512" style="enable-background:new 0 0 512 512;" xml:space="preserve">
<style type="text/css">
	.st0{fill:#F4C245;}
	.st1{fill:none;stroke:#000000;stroke-width:11;stroke-linecap:round;stroke-linejoin:round;stroke-miterlimit:10;}
	.st2{fill:#FCD259;}
	.st3{fill:#F4C245;stroke:#000000;stroke-width:11;stroke-linecap:round;stroke-miterlimit:10;}
	.st4{fill:#48D5BF;}
	.st5{fill:#26C6A7;}
	.st6{fill:none;stroke:#000000;stroke-width:11;stroke-linecap:round;stroke-miterlimit:10;}
	.st7{fill:none;stroke:#000000;stroke-width:11;stroke-miterlimit:10;}
	.st8{fill:#FD4347;}
	.st9{fill:#EF3043;}
	.st10{fill:#F97A48;}
	.st11{fill:#EF5F37;}
	.st12{fill:#F97A48;stroke:#000000;stroke-width:11;stroke-miterlimit:10;}
	.st13{fill:#4BBC32;}
	.st14{fill:#31AA0F;}
	.st15{fill:#C6EBF4;}
	.st16{fill:#AEE4ED;}
	.st17{fill:#53ADFC;stroke:#000000;stroke-width:11;stroke-miterlimit:10;}
	.st18{fill:#FFDA00;}
	.st19{fill:#EFC700;}
	.st20{fill:#FFDA00;stroke:#000000;stroke-width:11;stroke-miterlimit:10;}
	.st21{fill:#FFBCA4;stroke:#000000;stroke-width:11;stroke-miterlimit:10;}
	.st22{fill:#53ADFC;}
	.st23{fill:#B9D6ED;stroke:#000000;stroke-width:11;stroke-miterlimit:10;}
	.st24{fill:#24A1ED;}
	.st25{fill:none;stroke:#000000;stroke-miterlimit:10;}
	.st26{fill:#F95594;stroke:#000000;stroke-width:11;stroke-miterlimit:10;}
	.st27{fill:#24A1ED;stroke:#000000;stroke-width:11;stroke-miterlimit:10;}
	.st28{fill:#FF6C9D;}
	.st29{fill:#F95594;}
	.st30{fill:#4B5B6D;}
	.st31{fill:#3E5366;}
	.st32{fill:#FFDA00;stroke:#000000;stroke-width:5;stroke-miterlimit:10;}
	.st33{fill:#85AFDD;stroke:#000000;stroke-width:11;stroke-miterlimit:10;}
	.st34{fill:#FFA071;stroke:#1D1D1B;stroke-width:11;stroke-miterlimit:10;}
	.st35{fill:#FFFFFF;stroke:#1D1D1B;stroke-width:11;stroke-miterlimit:10;}
	.st36{fill:#FFDC64;}
	.st37{fill:#1D1D1B;}
	.st38{fill:#FF6C9D;stroke:#1D1D1B;stroke-width:11;stroke-miterlimit:10;}
	.st39{fill:#6FCEA6;}
	.st40{fill:#C6EBF4;stroke:#000000;stroke-width:11;stroke-miterlimit:10;}
	.st41{fill:#C6EBF4;stroke:#1D1D1B;stroke-width:11;stroke-miterlimit:10;}
	.st42{fill:#53C48E;}
	.st43{fill:#48D5BF;stroke:#000000;stroke-width:11;stroke-miterlimit:10;}
	.st44{fill:#FFFFFF;stroke:#000000;stroke-width:11;stroke-miterlimit:10;}
	.st45{fill:#AEE4ED;stroke:#1D1D1B;stroke-width:11;stroke-miterlimit:10;}
	.st46{stroke:#1D1D1B;stroke-width:11;stroke-miterlimit:10;}
	.st47{fill:#FFA071;}
	.st48{fill:#53ADFC;stroke:#1D1D1B;stroke-width:11;stroke-miterlimit:10;}
	.st49{fill:#31AA0F;stroke:#000000;stroke-width:11;stroke-miterlimit:10;}
	.st50{fill:#4BBC32;stroke:#000000;stroke-width:11;stroke-miterlimit:10;}
	.st51{fill:#EA3106;}
	.st52{fill:#DD0E2C;}
	.st53{fill:#F22F7E;}
	.st54{fill:#FCD259;stroke:#000000;stroke-width:11;stroke-miterlimit:10;}
	.st55{fill:#FD4347;stroke:#000000;stroke-width:11;stroke-miterlimit:10;}
	.st56{fill:#FCB439;}
	.st57{fill:#F43842;}
	.st58{fill:#178DFB;}
	.st59{fill:#32AF14;}
	.st60{fill:#F97A48;stroke:#000000;stroke-width:11;stroke-linecap:round;stroke-linejoin:round;stroke-miterlimit:10;}
	.st61{fill:#FFDA00;stroke:#1D1D1B;stroke-width:11.1327;stroke-miterlimit:10;}
	.st62{fill:#FCB439;stroke:#FFFFFF;stroke-width:14.5517;stroke-miterlimit:10;}
	.st63{fill:#FFFFFF;}
	.st64{clip-path:url(#SVGID_2_);}
	.st65{fill:#D8D8D8;}
	.st66{clip-path:url(#SVGID_4_);}
	.st67{clip-path:url(#SVGID_6_);}
	.st68{fill:#999999;stroke:#FFFFFF;stroke-width:14.5517;stroke-miterlimit:10;}
	.st69{clip-path:url(#SVGID_8_);}
	.st70{clip-path:url(#SVGID_10_);}
	.st71{fill:#EA461F;}
	.st72{clip-path:url(#SVGID_12_);}
	.st73{fill:#C41820;}
	.st74{clip-path:url(#SVGID_14_);}
	.st75{fill:#075492;}
	.st76{fill:#003662;}
	.st77{clip-path:url(#SVGID_16_);}
	.st78{clip-path:url(#SVGID_18_);}
	.st79{clip-path:url(#SVGID_20_);}
	.st80{clip-path:url(#SVGID_22_);}
	.st81{fill:#DDDDDD;}
	.st82{fill:none;stroke:#1D1D1B;stroke-width:11;stroke-linecap:round;stroke-linejoin:round;stroke-miterlimit:10;}
	.st83{fill:none;stroke:#1D1D1B;stroke-width:11.6468;stroke-linecap:round;stroke-linejoin:round;stroke-miterlimit:10;}
	.st84{fill:#C6EBF4;stroke:#1D1D1B;stroke-width:11;stroke-linecap:round;stroke-linejoin:round;stroke-miterlimit:10;}
</style>
<circle class="st8" cx="132.1" cy="169.9" r="47.4"/>
<path class="st9" d="M132.1,122.5c0,0,43.2,27.3,16.5,79.9c15,1.7,15,1.7,15,1.7s30.5-28.6,9.4-58.2S132.1,122.5,132.1,122.5z"/>
<circle class="st7" cx="132.1" cy="169.9" r="47.4"/>
<path class="st2" d="M470.6,432h-183c-6.6,0-12-5.4-12-12v-183c0-6.6,5.4-12,12-12h183c6.6,0,12,5.4,12,12v183
	C482.6,426.6,477.2,432,470.6,432z"/>
<path class="st8" d="M181.3,233.8H83c-3.9,0-7.1-3.2-7.1-7.1v-14c0-3.9,3.2-7.1,7.1-7.1h98.4c3.9,0,7.1,3.2,7.1,7.1v14
	C188.5,230.6,185.3,233.8,181.3,233.8z"/>
<path class="st8" d="M160.1,261.2h-27.6h-0.7h-27.6c0,22.3-20,122.7-57.5,146.9c68.4,0,82.3,0,85.1,0c0.7,0,0.7,0,0.7,0
	c2.8,0,16.7,0,85.1,0C180,383.9,160.1,283.6,160.1,261.2z"/>
<path class="st8" d="M228.6,434H35.7c-2.4,0-4.3-1.9-4.3-4.3v-22.8h201.5v22.8C232.9,432.1,231,434,228.6,434z"/>
<rect x="103.4" y="233.7" class="st8" width="57.6" height="28.3"/>
<circle cx="379.1" cy="328.4" r="15.2"/>
<circle cx="324.1" cy="273.9" r="15.2"/>
<circle cx="432.1" cy="273.9" r="15.2"/>
<circle cx="432.1" cy="385.2" r="15.2"/>
<circle cx="324.1" cy="385.2" r="15.2"/>
<rect x="455" y="224.9" class="st0" width="27" height="207"/>
<rect x="168" y="204.2" class="st9" width="20.5" height="30.9"/>
<rect x="142.7" y="230.3" class="st9" width="18.3" height="30.9"/>
<rect x="209.7" y="403.1" class="st9" width="21.6" height="30.9"/>
<path class="st7" d="M470.6,432h-183c-6.6,0-12-5.4-12-12v-183c0-6.6,5.4-12,12-12h183c6.6,0,12,5.4,12,12v183
	C482.6,426.6,477.2,432,470.6,432z"/>
<path class="st7" d="M181.3,233.8H83c-3.9,0-7.1-3.2-7.1-7.1v-14c0-3.9,3.2-7.1,7.1-7.1h98.4c3.9,0,7.1,3.2,7.1,7.1v14
	C188.5,230.6,185.3,233.8,181.3,233.8z"/>
<path class="st7" d="M160.1,261.2h-27.6h-0.7h-27.6c0,22.3-20,122.7-57.5,146.9c68.4,0,82.3,0,85.1,0c0.7,0,0.7,0,0.7,0
	c2.8,0,16.7,0,85.1,0C180,383.9,160.1,283.6,160.1,261.2z"/>
<path class="st9" d="M144.7,267.1c0,0,9.7,107.3,52.7,141c18.7,0,14.7-1.2,14.7-1.2c-31.8-28.3-47.2-79.4-53.7-143.1l-14.7,0
	L144.7,267.1z"/>
<path class="st7" d="M228.6,434H35.7c-2.4,0-4.3-1.9-4.3-4.3v-22.8h201.5v22.8C232.9,432.1,231,434,228.6,434z"/>
<rect x="103.4" y="233.7" class="st7" width="57.6" height="28.3"/>
</svg>
