<?xml version="1.0" encoding="utf-8"?>
<!-- Generator: Adobe Illustrator 21.1.0, SVG Export Plug-In . SVG Version: 6.00 Build 0)  -->
<svg version="1.1" id="Layer_1" xmlns="http://www.w3.org/2000/svg" xmlns:xlink="http://www.w3.org/1999/xlink" x="0px" y="0px"
	 viewBox="0 0 512 512" style="enable-background:new 0 0 512 512;" xml:space="preserve">
<style type="text/css">
	.st0{fill:#F4C245;}
	.st1{fill:none;stroke:#000000;stroke-width:11;stroke-linecap:round;stroke-linejoin:round;stroke-miterlimit:10;}
	.st2{fill:#FCD259;}
	.st3{fill:#F4C245;stroke:#000000;stroke-width:11;stroke-linecap:round;stroke-miterlimit:10;}
	.st4{fill:#48D5BF;}
	.st5{fill:#26C6A7;}
	.st6{fill:none;stroke:#000000;stroke-width:11;stroke-linecap:round;stroke-miterlimit:10;}
	.st7{fill:none;stroke:#000000;stroke-width:11;stroke-miterlimit:10;}
	.st8{fill:#FD4347;}
	.st9{fill:#EF3043;}
	.st10{fill:#F97A48;}
	.st11{fill:#EF5F37;}
	.st12{fill:#F97A48;stroke:#000000;stroke-width:11;stroke-miterlimit:10;}
	.st13{fill:#4BBC32;}
	.st14{fill:#31AA0F;}
	.st15{fill:#C6EBF4;}
	.st16{fill:#AEE4ED;}
	.st17{fill:#53ADFC;stroke:#000000;stroke-width:11;stroke-miterlimit:10;}
	.st18{fill:#FFDA00;}
	.st19{fill:#EFC700;}
	.st20{fill:#FFDA00;stroke:#000000;stroke-width:11;stroke-miterlimit:10;}
	.st21{fill:#FFBCA4;stroke:#000000;stroke-width:11;stroke-miterlimit:10;}
	.st22{fill:#53ADFC;}
	.st23{fill:#B9D6ED;stroke:#000000;stroke-width:11;stroke-miterlimit:10;}
	.st24{fill:#24A1ED;}
	.st25{fill:none;stroke:#000000;stroke-miterlimit:10;}
	.st26{fill:#F95594;stroke:#000000;stroke-width:11;stroke-miterlimit:10;}
	.st27{fill:#24A1ED;stroke:#000000;stroke-width:11;stroke-miterlimit:10;}
	.st28{fill:#FF6C9D;}
	.st29{fill:#F95594;}
	.st30{fill:#4B5B6D;}
	.st31{fill:#3E5366;}
	.st32{fill:#FFDA00;stroke:#000000;stroke-width:5;stroke-miterlimit:10;}
	.st33{fill:#85AFDD;stroke:#000000;stroke-width:11;stroke-miterlimit:10;}
	.st34{fill:#FFA071;stroke:#1D1D1B;stroke-width:11;stroke-miterlimit:10;}
	.st35{fill:#FFFFFF;stroke:#1D1D1B;stroke-width:11;stroke-miterlimit:10;}
	.st36{fill:#FFDC64;}
	.st37{fill:#1D1D1B;}
	.st38{fill:#FF6C9D;stroke:#1D1D1B;stroke-width:11;stroke-miterlimit:10;}
	.st39{fill:#6FCEA6;}
	.st40{fill:#C6EBF4;stroke:#000000;stroke-width:11;stroke-miterlimit:10;}
	.st41{fill:#C6EBF4;stroke:#1D1D1B;stroke-width:11;stroke-miterlimit:10;}
	.st42{fill:#53C48E;}
	.st43{fill:#48D5BF;stroke:#000000;stroke-width:11;stroke-miterlimit:10;}
	.st44{fill:#FFFFFF;stroke:#000000;stroke-width:11;stroke-miterlimit:10;}
	.st45{fill:#AEE4ED;stroke:#1D1D1B;stroke-width:11;stroke-miterlimit:10;}
	.st46{stroke:#1D1D1B;stroke-width:11;stroke-miterlimit:10;}
	.st47{fill:#FFA071;}
	.st48{fill:#53ADFC;stroke:#1D1D1B;stroke-width:11;stroke-miterlimit:10;}
	.st49{fill:#31AA0F;stroke:#000000;stroke-width:11;stroke-miterlimit:10;}
	.st50{fill:#4BBC32;stroke:#000000;stroke-width:11;stroke-miterlimit:10;}
	.st51{fill:#EA3106;}
	.st52{fill:#DD0E2C;}
	.st53{fill:#F22F7E;}
	.st54{fill:#FCD259;stroke:#000000;stroke-width:11;stroke-miterlimit:10;}
	.st55{fill:#FD4347;stroke:#000000;stroke-width:11;stroke-miterlimit:10;}
	.st56{fill:#FCB439;}
	.st57{fill:#F43842;}
	.st58{fill:#178DFB;}
	.st59{fill:#32AF14;}
	.st60{fill:#F97A48;stroke:#000000;stroke-width:11;stroke-linecap:round;stroke-linejoin:round;stroke-miterlimit:10;}
	.st61{fill:#FFDA00;stroke:#1D1D1B;stroke-width:11.1327;stroke-miterlimit:10;}
	.st62{fill:#FCB439;stroke:#FFFFFF;stroke-width:14.5517;stroke-miterlimit:10;}
	.st63{fill:#FFFFFF;}
	.st64{clip-path:url(#SVGID_2_);}
	.st65{fill:#D8D8D8;}
	.st66{clip-path:url(#SVGID_4_);}
	.st67{clip-path:url(#SVGID_6_);}
	.st68{fill:#999999;stroke:#FFFFFF;stroke-width:14.5517;stroke-miterlimit:10;}
	.st69{clip-path:url(#SVGID_8_);}
	.st70{clip-path:url(#SVGID_10_);}
	.st71{fill:#EA461F;}
	.st72{clip-path:url(#SVGID_12_);}
	.st73{fill:#C41820;}
	.st74{clip-path:url(#SVGID_14_);}
	.st75{fill:#075492;}
	.st76{fill:#003662;}
	.st77{clip-path:url(#SVGID_16_);}
	.st78{clip-path:url(#SVGID_18_);}
	.st79{clip-path:url(#SVGID_20_);}
	.st80{clip-path:url(#SVGID_22_);}
	.st81{fill:#DDDDDD;}
	.st82{fill:none;stroke:#1D1D1B;stroke-width:11;stroke-linecap:round;stroke-linejoin:round;stroke-miterlimit:10;}
	.st83{fill:none;stroke:#1D1D1B;stroke-width:11.6468;stroke-linecap:round;stroke-linejoin:round;stroke-miterlimit:10;}
	.st84{fill:#C6EBF4;stroke:#1D1D1B;stroke-width:11;stroke-linecap:round;stroke-linejoin:round;stroke-miterlimit:10;}
</style>
<path class="st10" d="M327.1,57.9c-3.3-2.5-6.1-5.5-8.2-8.8L191,136.7l-4.4,3L58.7,227.3c2.3,3.2,4.1,6.8,5.2,10.8
	c4.1,14.8-1.9,30.1-13.9,38.4l89,130.1c3.1-2.1,6.5-3.7,10.2-4.7c11.5-3.2,23.2-0.3,31.8,6.7l129-88.3l4.4-3l129-88.3
	c-3.4-10.5-1.9-22.5,5.3-32.1c2.3-3.1,5.1-5.7,8.1-7.8L368,58.9C355.9,67,339.5,67.1,327.1,57.9z"/>
<path class="st11" d="M443.1,228.9c0,0-4.1-12.8,0-21.3c4.1-8.6,12.3-22.7,12.3-22.7L368.9,58.3l-4.9,2.4c0,0,18.3,38.6,22.1,44.9
	c14.8,24.8,35.3,66,34.9,76.6c-0.4,10.6-0.4,10.6-18.4,13.7"/>
<path class="st7" d="M327.1,57.9c-1.4-1-2.6-2.1-3.8-3.3c-2.9-3-7.6-3.4-11-1L191,136.7l-4.4,3L65.3,222.8c-3.4,2.4-4.7,6.8-3,10.6
	c0.7,1.5,1.2,3.1,1.7,4.7c3.5,12.5-0.2,25.3-8.6,34c-2.8,2.9-3.1,7.5-0.8,10.8l80.4,117.4c2.3,3.4,6.7,4.6,10.5,3
	c1.3-0.6,2.7-1,4.1-1.4c9.6-2.7,19.5-1.1,27.4,3.6c2.9,1.7,6.4,1.6,9.2-0.2l124.2-85l4.4-3l124.2-85c2.7-1.9,4.1-5.2,3.5-8.5
	c-1.5-9.1,0.5-18.9,6.5-26.9c0.9-1.2,1.8-2.3,2.8-3.3c2.8-2.9,3.3-7.4,1-10.8L372.3,65.3c-2.3-3.4-6.6-4.7-10.4-3.1
	C350.8,66.8,337.5,65.7,327.1,57.9z"/>
<path class="st21" d="M307.9,100.8c-0.6-0.5-1.2-1-1.8-1.5c-3-2.7-7.3-3.1-10.6-0.8L206,159.8l-3.3,2.3l-89.5,61.3
	c-3.3,2.3-4.5,6.5-3.1,10.2c0.3,0.7,0.5,1.4,0.7,2.2c2.5,8.8,0.1,17.8-5.4,24.3c-2.6,3-2.9,7.4-0.7,10.8l58.1,84.8
	c2.2,3.3,6.4,4.6,10.1,3.3c0.6-0.2,1.2-0.4,1.8-0.6c6.9-1.9,13.9-0.9,19.7,2.2c2.8,1.5,6.3,1.3,9-0.6l91.7-62.8l3.3-2.3l91.7-62.8
	c2.7-1.8,4.2-5,3.8-8.2c-0.9-6.6,0.7-13.4,5-19.2c0.4-0.5,0.8-1,1.2-1.5c2.6-3,2.8-7.3,0.6-10.6l-58.1-84.8
	c-2.3-3.3-6.5-4.6-10.3-3.3C324.5,107.4,315.2,106.3,307.9,100.8z"/>
<polygon class="st11" points="290.3,170 305.7,179.2 322,171.8 317.9,189.2 330,202.4 312.2,204 303.4,219.5 296.4,203.1 
	278.9,199.5 292.4,187.8 "/>
<g>
	<path class="st22" d="M396.4,181c-0.9-1.4-1.8-2.9-2.5-4.3c-1.8-3.8-6-5.7-10.1-4.6l-141.9,38.6l-5.2,1.4L94.8,250.6
		c-4,1.1-6.7,4.9-6.4,9c0.1,1.6,0.2,3.3,0.1,5c-0.8,13-8.5,23.8-19.3,29.2c-3.6,1.8-5.4,6-4.3,10l37.3,137.3c1.1,4,4.8,6.5,8.9,6.2
		c1.4-0.1,2.9-0.1,4.3,0c10,0.6,18.7,5.4,24.7,12.5c2.1,2.5,5.5,3.7,8.7,2.8l145.3-39.5l5.2-1.4l145.3-39.5c3.2-0.9,5.6-3.6,6.1-6.8
		c1.6-9.1,6.7-17.7,15-23.2c1.2-0.8,2.5-1.5,3.7-2.2c3.7-1.8,5.6-5.9,4.5-9.9l-37.3-137.3c-1.1-3.9-4.7-6.6-8.8-6.4
		C415.8,197.2,403.6,191.8,396.4,181z"/>
	<path class="st23" d="M364.1,215.2c-0.4-0.6-0.8-1.3-1.2-2c-1.9-3.5-5.9-5.3-9.8-4.3l-104.6,28.4l-3.9,1.1L140,266.8
		c-3.9,1-6.4,4.6-6.3,8.6c0,0.8,0,1.5,0,2.3c-0.6,9.1-5.7,16.9-13.1,21.1c-3.5,2-5.2,6.1-4.2,9.9l27,99.2c1,3.8,4.5,6.4,8.4,6.4
		c0.6,0,1.3,0,1.9,0c7.1,0.4,13.4,3.7,17.9,8.6c2.2,2.4,5.6,3.3,8.7,2.4l107.3-29.1l3.9-1.1l107.3-29.1c3.1-0.8,5.6-3.3,6.2-6.5
		c1.4-6.5,5.1-12.5,11.1-16.4c0.5-0.4,1.1-0.7,1.6-1c3.4-2,5.1-6,4.1-9.8l-27-99.2c-1.1-3.9-4.6-6.5-8.6-6.5
		C377.6,226.8,369.2,222.8,364.1,215.2z"/>
</g>
<path class="st24" d="M402.9,193.1c0,0,8.8,15.6,13.2,27.8c4.3,11.9,24.6,87.2,29.2,103.7c3.2,11.3-4.7,30.2-15.1,42.4
	c-18.5,11-233.8,67.5-231.2,78.7c3.2,11.6,251.2-64.9,251.2-64.9s0.2-13.4,6.8-20.2s18.9-17.5,18.9-17.5l-41.3-147.6L402.9,193.1z"
	/>
<path class="st7" d="M396.4,181c-0.9-1.4-1.8-2.9-2.5-4.3c-1.8-3.8-6-5.7-10.1-4.6l-141.9,38.6l-5.2,1.4L94.8,250.6
	c-4,1.1-6.7,4.9-6.4,9c0.1,1.6,0.2,3.3,0.1,5c-0.8,13-8.5,23.8-19.3,29.2c-3.6,1.8-5.4,6-4.3,10l37.3,137.3c1.1,4,4.8,6.5,8.9,6.2
	c1.4-0.1,2.9-0.1,4.3,0c10,0.6,18.7,5.4,24.7,12.5c2.1,2.5,5.5,3.7,8.7,2.8l145.3-39.5l5.2-1.4l145.3-39.5c3.2-0.9,5.6-3.6,6.1-6.8
	c1.6-9.1,6.7-17.7,15-23.2c1.2-0.8,2.5-1.5,3.7-2.2c3.7-1.8,5.6-5.9,4.5-9.9l-37.3-137.3c-1.1-3.9-4.7-6.6-8.8-6.4
	C415.8,197.2,403.6,191.8,396.4,181z"/>
<polygon class="st24" points="198.5,310.2 210.5,323.5 228.2,321.2 219.3,336.7 227,352.9 209.5,349.1 196.5,361.4 194.6,343.6 
	178.9,335.1 195.3,327.8 "/>
<polygon class="st24" points="265.6,291.4 277.5,304.7 295.3,302.4 286.3,317.9 294,334 276.5,330.3 263.5,342.6 261.6,324.8 
	245.9,316.3 262.3,309 "/>
<polygon class="st24" points="332.6,272.6 344.5,285.9 362.3,283.6 353.3,299.1 361,315.2 343.5,311.5 330.5,323.8 328.7,306 
	313,297.4 329.3,290.2 "/>
</svg>
