<?xml version="1.0" encoding="utf-8"?>
<!-- Generator: Adobe Illustrator 21.1.0, SVG Export Plug-In . SVG Version: 6.00 Build 0)  -->
<svg version="1.1" id="Layer_1" xmlns="http://www.w3.org/2000/svg" xmlns:xlink="http://www.w3.org/1999/xlink" x="0px" y="0px"
	 viewBox="0 0 512 512" style="enable-background:new 0 0 512 512;" xml:space="preserve">
<style type="text/css">
	.st0{fill:#F97A48;stroke:#000000;stroke-width:11;stroke-miterlimit:10;}
	.st1{fill:#F97A48;stroke:#000000;stroke-width:11;stroke-linecap:round;stroke-linejoin:round;stroke-miterlimit:10;}
	.st2{fill:#FFDA00;}
	.st3{fill:#EFC700;}
	.st4{fill:none;stroke:#000000;stroke-width:11;stroke-miterlimit:10;}
	.st5{fill:#FF6C9D;}
	.st6{fill:#FF6C9D;stroke:#1D1D1B;stroke-width:11;stroke-linecap:round;stroke-linejoin:round;stroke-miterlimit:10;}
	.st7{fill:#48D5BF;}
	.st8{fill:#48D5BF;stroke:#000000;stroke-width:11;stroke-miterlimit:10;}
	.st9{fill:#FFDA00;stroke:#000000;stroke-width:11;stroke-miterlimit:10;}
	.st10{fill:#C6EBF4;stroke:#000000;stroke-width:11;stroke-miterlimit:10;}
	.st11{fill:none;stroke:#000000;stroke-width:11;stroke-linecap:round;stroke-linejoin:round;stroke-miterlimit:10;}
	.st12{fill:#F97A48;}
	.st13{fill:#C6EBF4;}
	.st14{fill:#EF5F37;}
	.st15{fill:none;stroke:#000000;stroke-width:10.6363;stroke-miterlimit:10;}
	.st16{fill:#26C6A7;}
	.st17{fill:none;stroke:#000000;stroke-width:11;stroke-linecap:round;stroke-miterlimit:10;}
	.st18{fill:#FD4347;}
	.st19{fill:#EF3043;}
	.st20{fill:#4BBC32;}
	.st21{fill:#31AA0F;}
	.st22{fill:#AEE4ED;}
	.st23{fill:#FCD259;}
	.st24{fill:#53ADFC;stroke:#000000;stroke-width:11;stroke-miterlimit:10;}
	.st25{fill:#FFBCA4;stroke:#000000;stroke-width:11;stroke-miterlimit:10;}
	.st26{fill:#53ADFC;}
	.st27{fill:#B9D6ED;stroke:#000000;stroke-width:11;stroke-miterlimit:10;}
	.st28{fill:#24A1ED;}
	.st29{fill:#F4C245;}
	.st30{fill:none;stroke:#000000;stroke-miterlimit:10;}
	.st31{fill:#F95594;stroke:#000000;stroke-width:11;stroke-miterlimit:10;}
	.st32{fill:#24A1ED;stroke:#000000;stroke-width:11;stroke-miterlimit:10;}
	.st33{fill:#F95594;}
	.st34{fill:#4B5B6D;}
	.st35{fill:#3E5366;}
	.st36{fill:#FFDA00;stroke:#000000;stroke-width:5;stroke-miterlimit:10;}
	.st37{fill:#85AFDD;stroke:#000000;stroke-width:11;stroke-miterlimit:10;}
	.st38{fill:#FFA071;stroke:#1D1D1B;stroke-width:11;stroke-miterlimit:10;}
	.st39{fill:#FFFFFF;stroke:#1D1D1B;stroke-width:11;stroke-miterlimit:10;}
	.st40{fill:#FFDC64;}
	.st41{fill:#1D1D1B;}
	.st42{fill:#FF6C9D;stroke:#1D1D1B;stroke-width:11;stroke-miterlimit:10;}
	.st43{fill:#6FCEA6;}
	.st44{fill:#C6EBF4;stroke:#1D1D1B;stroke-width:11;stroke-miterlimit:10;}
	.st45{fill:#53C48E;}
	.st46{fill:#FFFFFF;stroke:#000000;stroke-width:11;stroke-miterlimit:10;}
	.st47{fill:#AEE4ED;stroke:#000000;stroke-width:11;stroke-miterlimit:10;}
	.st48{fill:#F97A48;stroke:#1D1D1B;stroke-width:11;stroke-miterlimit:10;}
	.st49{stroke:#1D1D1B;stroke-width:11;stroke-miterlimit:10;}
	.st50{fill:#FFA071;}
	.st51{fill:#53ADFC;stroke:#1D1D1B;stroke-width:11;stroke-miterlimit:10;}
	.st52{fill:#31AA0F;stroke:#000000;stroke-width:11;stroke-miterlimit:10;}
	.st53{fill:#4BBC32;stroke:#000000;stroke-width:11;stroke-miterlimit:10;}
	.st54{fill:#DD0E2C;}
	.st55{fill:#EA3106;}
	.st56{fill:#F22F7E;}
	.st57{fill:#FCD259;stroke:#000000;stroke-width:11;stroke-miterlimit:10;}
	.st58{fill:#FD4347;stroke:#000000;stroke-width:11;stroke-miterlimit:10;}
	.st59{fill:#FCB439;}
	.st60{fill:#F43842;}
	.st61{fill:#178DFB;}
	.st62{fill:#32AF14;}
	.st63{fill:#FFDA00;stroke:#1D1D1B;stroke-width:11.1327;stroke-miterlimit:10;}
	.st64{fill:#FCB439;stroke:#FFFFFF;stroke-width:14.5517;stroke-miterlimit:10;}
	.st65{fill:#FFFFFF;}
	.st66{clip-path:url(#SVGID_2_);}
	.st67{fill:#D8D8D8;}
	.st68{clip-path:url(#SVGID_4_);}
	.st69{clip-path:url(#SVGID_6_);}
	.st70{fill:#999999;stroke:#FFFFFF;stroke-width:14.5517;stroke-miterlimit:10;}
	.st71{clip-path:url(#SVGID_8_);}
	.st72{clip-path:url(#SVGID_10_);}
	.st73{fill:#EA461F;}
	.st74{clip-path:url(#SVGID_12_);}
	.st75{fill:#C41820;}
	.st76{clip-path:url(#SVGID_14_);}
	.st77{fill:#075492;}
	.st78{fill:#003662;}
	.st79{clip-path:url(#SVGID_16_);}
	.st80{clip-path:url(#SVGID_18_);}
	.st81{clip-path:url(#SVGID_20_);}
	.st82{clip-path:url(#SVGID_22_);}
	.st83{fill:#DDDDDD;}
	.st84{fill:none;stroke:#1D1D1B;stroke-width:11;stroke-linecap:round;stroke-linejoin:round;stroke-miterlimit:10;}
	.st85{fill:none;stroke:#1D1D1B;stroke-width:11.6468;stroke-linecap:round;stroke-linejoin:round;stroke-miterlimit:10;}
	.st86{fill:#C6EBF4;stroke:#1D1D1B;stroke-width:11;stroke-linecap:round;stroke-linejoin:round;stroke-miterlimit:10;}
	.st87{fill:none;stroke:#000000;stroke-width:12.0562;stroke-linecap:round;stroke-linejoin:round;stroke-miterlimit:10;}
	.st88{fill:#F4C245;stroke:#000000;stroke-width:12.0562;stroke-linecap:round;stroke-miterlimit:10;}
	.st89{fill:none;stroke:#000000;stroke-width:12.0562;stroke-linecap:round;stroke-miterlimit:10;}
	.st90{fill:#FCD259;stroke:#000000;stroke-width:12.0562;stroke-miterlimit:10;}
	.st91{fill:none;stroke:#000000;stroke-width:12.0562;stroke-miterlimit:10;}
	.st92{fill:none;}
	.st93{fill:none;stroke:#000000;stroke-width:14.133;stroke-linecap:round;stroke-linejoin:round;stroke-miterlimit:10;}
	.st94{fill:#FFDA00;stroke:#000000;stroke-width:12.0562;stroke-miterlimit:10;}
	.st95{fill:none;stroke:#000000;stroke-width:10.6363;stroke-linecap:round;stroke-miterlimit:10;}
	.st96{fill:none;stroke:#000000;stroke-width:9;stroke-linecap:round;stroke-linejoin:round;stroke-miterlimit:10;}
	.st97{fill:#78909C;}
	.st98{fill:#4A6068;}
	.st99{stroke:#000000;stroke-width:11;stroke-miterlimit:10;}
	.st100{fill:#AEACB3;stroke:#000000;stroke-width:11;stroke-miterlimit:10;}
	.st101{fill:#C6EBF4;stroke:#000000;stroke-width:11;stroke-linecap:round;stroke-linejoin:round;stroke-miterlimit:10;}
	.st102{fill:#FFDA00;stroke:#000000;stroke-width:11;stroke-linecap:round;stroke-linejoin:round;stroke-miterlimit:10;}
	.st103{fill:#4BBC32;stroke:#000000;stroke-width:11;stroke-linecap:round;stroke-miterlimit:10;}
	.st104{fill:none;stroke:#231F20;stroke-width:11;stroke-miterlimit:10;}
	.st105{fill:#C6EBF4;stroke:#1D1D1B;stroke-width:10.3784;stroke-linecap:round;stroke-linejoin:round;stroke-miterlimit:10;}
	.st106{fill:#C6EBF4;stroke:#1D1D1B;stroke-width:6.959;stroke-linecap:round;stroke-linejoin:round;stroke-miterlimit:10;}
	.st107{fill:none;stroke:#1D1D1B;stroke-width:10.3442;stroke-linecap:round;stroke-linejoin:round;stroke-miterlimit:10;}
	.st108{fill:#C6EBF4;stroke:#1D1D1B;stroke-width:8.7624;stroke-linecap:round;stroke-linejoin:round;stroke-miterlimit:10;}
	.st109{fill:#AEE4ED;stroke:#1D1D1B;stroke-width:11;stroke-miterlimit:10;}
</style>
<polygon class="st26" points="442.7,349 442.7,443.4 80.3,443.4 80.3,342.5 321.8,342.5 442.7,342.5 "/>
<polygon class="st2" points="442.7,241.6 442.7,342.5 321.8,342.5 321.8,342.5 321.8,241.6 "/>
<g>
	<polygon class="st18" points="442.7,140.7 442.7,241.6 321.8,241.6 181.3,241.6 173,241.6 136.7,241.6 126.6,241.6 80.3,241.6 
		80.3,140.7 102.7,140.7 178.6,140.7 223.5,140.7 299.5,140.7 346.1,140.7 422.1,140.7 	"/>
	<path class="st18" d="M422.1,97.2v43.4h-75.9V97.2c0-8.1,6.5-14.6,14.6-14.6h46.7C415.5,82.6,422.1,89.2,422.1,97.2z"/>
</g>
<polygon class="st8" points="321.8,241.6 321.8,342.5 80.3,342.5 80.3,241.6 126.6,241.6 136.7,241.6 173,241.6 181.3,241.6 "/>
<g>
	<path class="st58" d="M299.5,97.2v43.4h-75.9V97.2c0-8.1,6.5-14.6,14.6-14.6h46.7C292.9,82.6,299.5,89.2,299.5,97.2z"/>
	<path class="st58" d="M178.6,97.2v43.4h-75.9V97.2c0-8.1,6.5-14.6,14.6-14.6H164C172.1,82.6,178.6,89.2,178.6,97.2z"/>
</g>
<rect x="411" y="342.5" class="st28" width="29.9" height="100.9"/>
<rect x="411" y="241.6" class="st3" width="29.9" height="100.9"/>
<rect x="411" y="140.7" class="st19" width="29.9" height="100.9"/>
<rect x="398" y="87.3" class="st19" width="24" height="53.3"/>
<path class="st4" d="M442.7,349v85.2c0,5.1-4.1,9.2-9.2,9.2H89.6c-5.1,0-9.2-4.1-9.2-9.2v-91.7h241.5h120.8V349z"/>
<polygon class="st4" points="442.7,241.6 442.7,342.5 321.8,342.5 321.8,342.5 321.8,241.6 "/>
<g>
	<path class="st4" d="M442.7,149.9v91.7H321.8H181.3H173h-36.3h-10.1H80.3v-91.7c0-5.1,4.1-9.2,9.2-9.2h13.1h75.9h44.9h75.9h46.7
		h75.9h11.4C438.5,140.7,442.7,144.8,442.7,149.9z"/>
	<path class="st4" d="M422.1,97.2v43.4h-75.9V97.2c0-8.1,6.5-14.6,14.6-14.6h46.7C415.5,82.6,422.1,89.2,422.1,97.2z"/>
</g>
</svg>
