<?xml version="1.0" encoding="utf-8"?>
<!-- Generator: Adobe Illustrator 21.1.0, SVG Export Plug-In . SVG Version: 6.00 Build 0)  -->
<svg version="1.1" id="Layer_1" xmlns="http://www.w3.org/2000/svg" xmlns:xlink="http://www.w3.org/1999/xlink" x="0px" y="0px"
	 viewBox="0 0 512 512" style="enable-background:new 0 0 512 512;" xml:space="preserve">
<style type="text/css">
	.st0{fill:#F4C245;}
	.st1{fill:none;stroke:#000000;stroke-width:11;stroke-linecap:round;stroke-linejoin:round;stroke-miterlimit:10;}
	.st2{fill:#FCD259;}
	.st3{fill:#F4C245;stroke:#000000;stroke-width:11;stroke-linecap:round;stroke-miterlimit:10;}
	.st4{fill:#48D5BF;}
	.st5{fill:#26C6A7;}
	.st6{fill:none;stroke:#000000;stroke-width:11;stroke-linecap:round;stroke-miterlimit:10;}
	.st7{fill:none;stroke:#000000;stroke-width:11;stroke-miterlimit:10;}
	.st8{fill:#FD4347;}
	.st9{fill:#EF3043;}
	.st10{fill:#F97A48;}
	.st11{fill:#EF5F37;}
	.st12{fill:#F97A48;stroke:#000000;stroke-width:11;stroke-miterlimit:10;}
	.st13{fill:#4BBC32;}
	.st14{fill:#31AA0F;}
	.st15{fill:#C6EBF4;}
	.st16{fill:#AEE4ED;}
	.st17{fill:#53ADFC;stroke:#000000;stroke-width:11;stroke-miterlimit:10;}
	.st18{fill:#FFDA00;}
	.st19{fill:#EFC700;}
	.st20{fill:#FFDA00;stroke:#000000;stroke-width:11;stroke-miterlimit:10;}
	.st21{fill:#FFBCA4;stroke:#000000;stroke-width:11;stroke-miterlimit:10;}
	.st22{fill:#53ADFC;}
	.st23{fill:#B9D6ED;stroke:#000000;stroke-width:11;stroke-miterlimit:10;}
	.st24{fill:#24A1ED;}
	.st25{fill:none;stroke:#000000;stroke-miterlimit:10;}
	.st26{fill:#F95594;stroke:#000000;stroke-width:11;stroke-miterlimit:10;}
	.st27{fill:#24A1ED;stroke:#000000;stroke-width:11;stroke-miterlimit:10;}
	.st28{fill:#FF6C9D;}
	.st29{fill:#F95594;}
	.st30{fill:#4B5B6D;}
	.st31{fill:#3E5366;}
	.st32{fill:#FFDA00;stroke:#000000;stroke-width:5;stroke-miterlimit:10;}
	.st33{fill:#85AFDD;stroke:#000000;stroke-width:11;stroke-miterlimit:10;}
	.st34{fill:#FFA071;stroke:#1D1D1B;stroke-width:11;stroke-miterlimit:10;}
	.st35{fill:#FFFFFF;stroke:#1D1D1B;stroke-width:11;stroke-miterlimit:10;}
	.st36{fill:#FFDC64;}
	.st37{fill:#1D1D1B;}
	.st38{fill:#FF6C9D;stroke:#1D1D1B;stroke-width:11;stroke-miterlimit:10;}
	.st39{fill:#6FCEA6;}
	.st40{fill:#C6EBF4;stroke:#000000;stroke-width:11;stroke-miterlimit:10;}
	.st41{fill:#C6EBF4;stroke:#1D1D1B;stroke-width:11;stroke-miterlimit:10;}
	.st42{fill:#53C48E;}
	.st43{fill:#48D5BF;stroke:#000000;stroke-width:11;stroke-miterlimit:10;}
	.st44{fill:#FFFFFF;stroke:#000000;stroke-width:11;stroke-miterlimit:10;}
	.st45{fill:#AEE4ED;stroke:#1D1D1B;stroke-width:11;stroke-miterlimit:10;}
	.st46{stroke:#1D1D1B;stroke-width:11;stroke-miterlimit:10;}
	.st47{fill:#FFA071;}
	.st48{fill:#53ADFC;stroke:#1D1D1B;stroke-width:11;stroke-miterlimit:10;}
	.st49{fill:#31AA0F;stroke:#000000;stroke-width:11;stroke-miterlimit:10;}
	.st50{fill:#4BBC32;stroke:#000000;stroke-width:11;stroke-miterlimit:10;}
	.st51{fill:#EA3106;}
	.st52{fill:#DD0E2C;}
	.st53{fill:#F22F7E;}
	.st54{fill:#FCD259;stroke:#000000;stroke-width:11;stroke-miterlimit:10;}
	.st55{fill:#FD4347;stroke:#000000;stroke-width:11;stroke-miterlimit:10;}
	.st56{fill:#FCB439;}
	.st57{fill:#F43842;}
	.st58{fill:#178DFB;}
	.st59{fill:#32AF14;}
	.st60{fill:#F97A48;stroke:#000000;stroke-width:11;stroke-linecap:round;stroke-linejoin:round;stroke-miterlimit:10;}
	.st61{fill:#FFDA00;stroke:#1D1D1B;stroke-width:11.1327;stroke-miterlimit:10;}
	.st62{fill:#FCB439;stroke:#FFFFFF;stroke-width:14.5517;stroke-miterlimit:10;}
	.st63{fill:#FFFFFF;}
	.st64{clip-path:url(#SVGID_2_);}
	.st65{fill:#D8D8D8;}
	.st66{clip-path:url(#SVGID_4_);}
	.st67{clip-path:url(#SVGID_6_);}
	.st68{fill:#999999;stroke:#FFFFFF;stroke-width:14.5517;stroke-miterlimit:10;}
	.st69{clip-path:url(#SVGID_8_);}
	.st70{clip-path:url(#SVGID_10_);}
	.st71{fill:#EA461F;}
	.st72{clip-path:url(#SVGID_12_);}
	.st73{fill:#C41820;}
	.st74{clip-path:url(#SVGID_14_);}
	.st75{fill:#075492;}
	.st76{fill:#003662;}
	.st77{clip-path:url(#SVGID_16_);}
	.st78{clip-path:url(#SVGID_18_);}
	.st79{clip-path:url(#SVGID_20_);}
	.st80{clip-path:url(#SVGID_22_);}
	.st81{fill:#DDDDDD;}
	.st82{fill:none;stroke:#1D1D1B;stroke-width:11;stroke-linecap:round;stroke-linejoin:round;stroke-miterlimit:10;}
	.st83{fill:none;stroke:#1D1D1B;stroke-width:11.6468;stroke-linecap:round;stroke-linejoin:round;stroke-miterlimit:10;}
	.st84{fill:#C6EBF4;stroke:#1D1D1B;stroke-width:11;stroke-linecap:round;stroke-linejoin:round;stroke-miterlimit:10;}
</style>
<path class="st2" d="M151.8,223.6c-1.9-4.7,1.5-9.8,6.5-9.8l107-0.4l107-0.4c5.1,0,8.5,5.1,6.6,9.8l-54.3,133.6L273,483.7
	c-2.4,5.9-10.7,5.9-13.2,0.1l-52.7-127L151.8,223.6z"/>
<polygon class="st0" points="377.4,226.8 376.8,228.3 271.5,486.1 256.1,480.6 353.8,230.7 377.4,213 "/>
<line class="st7" x1="325.4" y1="317.4" x2="228.7" y2="413.9"/>
<line class="st7" x1="313.7" y1="383.6" x2="246.2" y2="450.9"/>
<line class="st7" x1="315.7" y1="377.8" x2="275.3" y2="337.2"/>
<line class="st7" x1="330.5" y1="341.6" x2="308.2" y2="319.1"/>
<line class="st7" x1="299.4" y1="416" x2="239.8" y2="356.3"/>
<line class="st7" x1="284.8" y1="450.9" x2="218.7" y2="384.7"/>
<path class="st7" d="M151.8,223.6c-1.9-4.7,1.5-9.8,6.5-9.8l107-0.4l107-0.4c5.1,0,8.5,5.1,6.6,9.8l-54.3,133.6L273,483.7
	c-2.4,5.9-10.7,5.9-13.2,0.1l-52.7-127L151.8,223.6z"/>
<path class="st26" d="M268.2,227.3c-11.1,23.4-34.7,39.6-62,39.6c-21,0-39.8-9.5-52.4-24.5c-6.9-8.3-6.5-20.4,0.6-28.6
	C210.4,149.1,272.2,218.7,268.2,227.3z"/>
<path class="st27" d="M260.3,227.3c11.1,23.4,34.7,39.6,62,39.6c24.4,0,45.9-12.9,58.1-32.4c2.7-4.2,2.3-9.8-0.7-13.8
	C322.4,144.3,256.1,218.4,260.3,227.3z"/>
<circle class="st28" cx="207.6" cy="183.7" r="61.6"/>
<path class="st29" d="M151.3,202.1c17.9,23.6,64.7,53,109.1-8.3c13.6,8.2-17.7,40.6-17.7,40.6S177.6,268.4,151.3,202.1z"/>
<circle class="st7" cx="207.6" cy="183.7" r="61.6"/>
<circle class="st22" cx="322" cy="183.7" r="61.6"/>
<path class="st24" d="M271,207.9c17.9,23.6,84.4,39.5,108.6-27.8c13.6,8.2-19.7,54.3-19.7,54.3S297.3,263.2,271,207.9z"/>
<circle class="st7" cx="322" cy="183.7" r="61.6"/>
<circle class="st10" cx="260.4" cy="94.5" r="61.6"/>
<path class="st11" d="M209.5,119c17.9,23.6,84.4,39.5,108.6-27.8c13.6,8.2-19.7,54.3-19.7,54.3S235.8,174.3,209.5,119z"/>
<circle class="st7" cx="260.4" cy="94.5" r="61.6"/>
</svg>
