<?xml version="1.0" encoding="utf-8"?>
<!-- Generator: Adobe Illustrator 21.1.0, SVG Export Plug-In . SVG Version: 6.00 Build 0)  -->
<svg version="1.1" id="Layer_1" xmlns="http://www.w3.org/2000/svg" xmlns:xlink="http://www.w3.org/1999/xlink" x="0px" y="0px"
	 viewBox="0 0 512 512" style="enable-background:new 0 0 512 512;" xml:space="preserve">
<style type="text/css">
	.st0{fill:#F97A48;stroke:#000000;stroke-width:11;stroke-miterlimit:10;}
	.st1{fill:#F97A48;stroke:#000000;stroke-width:11;stroke-linecap:round;stroke-linejoin:round;stroke-miterlimit:10;}
	.st2{fill:#FFDA00;}
	.st3{fill:#EFC700;}
	.st4{fill:none;stroke:#000000;stroke-width:11;stroke-miterlimit:10;}
	.st5{fill:#FF6C9D;}
	.st6{fill:#FF6C9D;stroke:#1D1D1B;stroke-width:11;stroke-linecap:round;stroke-linejoin:round;stroke-miterlimit:10;}
	.st7{fill:#48D5BF;}
	.st8{fill:#48D5BF;stroke:#000000;stroke-width:11;stroke-miterlimit:10;}
	.st9{fill:#FFDA00;stroke:#000000;stroke-width:11;stroke-miterlimit:10;}
	.st10{fill:#C6EBF4;stroke:#000000;stroke-width:11;stroke-miterlimit:10;}
	.st11{fill:none;stroke:#000000;stroke-width:11;stroke-linecap:round;stroke-linejoin:round;stroke-miterlimit:10;}
	.st12{fill:#F97A48;}
	.st13{fill:#C6EBF4;}
	.st14{fill:#EF5F37;}
	.st15{fill:none;stroke:#000000;stroke-width:10.6363;stroke-miterlimit:10;}
	.st16{fill:#26C6A7;}
	.st17{fill:none;stroke:#000000;stroke-width:11;stroke-linecap:round;stroke-miterlimit:10;}
	.st18{fill:#FD4347;}
	.st19{fill:#EF3043;}
	.st20{fill:#4BBC32;}
	.st21{fill:#31AA0F;}
	.st22{fill:#AEE4ED;}
	.st23{fill:#FCD259;}
	.st24{fill:#53ADFC;stroke:#000000;stroke-width:11;stroke-miterlimit:10;}
	.st25{fill:#FFBCA4;stroke:#000000;stroke-width:11;stroke-miterlimit:10;}
	.st26{fill:#53ADFC;}
	.st27{fill:#B9D6ED;stroke:#000000;stroke-width:11;stroke-miterlimit:10;}
	.st28{fill:#24A1ED;}
	.st29{fill:#F4C245;}
	.st30{fill:none;stroke:#000000;stroke-miterlimit:10;}
	.st31{fill:#F95594;stroke:#000000;stroke-width:11;stroke-miterlimit:10;}
	.st32{fill:#24A1ED;stroke:#000000;stroke-width:11;stroke-miterlimit:10;}
	.st33{fill:#F95594;}
	.st34{fill:#4B5B6D;}
	.st35{fill:#3E5366;}
	.st36{fill:#FFDA00;stroke:#000000;stroke-width:5;stroke-miterlimit:10;}
	.st37{fill:#85AFDD;stroke:#000000;stroke-width:11;stroke-miterlimit:10;}
	.st38{fill:#FFA071;stroke:#1D1D1B;stroke-width:11;stroke-miterlimit:10;}
	.st39{fill:#FFFFFF;stroke:#1D1D1B;stroke-width:11;stroke-miterlimit:10;}
	.st40{fill:#FFDC64;}
	.st41{fill:#1D1D1B;}
	.st42{fill:#FF6C9D;stroke:#1D1D1B;stroke-width:11;stroke-miterlimit:10;}
	.st43{fill:#6FCEA6;}
	.st44{fill:#C6EBF4;stroke:#1D1D1B;stroke-width:11;stroke-miterlimit:10;}
	.st45{fill:#53C48E;}
	.st46{fill:#FFFFFF;stroke:#000000;stroke-width:11;stroke-miterlimit:10;}
	.st47{fill:#AEE4ED;stroke:#000000;stroke-width:11;stroke-miterlimit:10;}
	.st48{fill:#F97A48;stroke:#1D1D1B;stroke-width:11;stroke-miterlimit:10;}
	.st49{stroke:#1D1D1B;stroke-width:11;stroke-miterlimit:10;}
	.st50{fill:#FFA071;}
	.st51{fill:#53ADFC;stroke:#1D1D1B;stroke-width:11;stroke-miterlimit:10;}
	.st52{fill:#31AA0F;stroke:#000000;stroke-width:11;stroke-miterlimit:10;}
	.st53{fill:#4BBC32;stroke:#000000;stroke-width:11;stroke-miterlimit:10;}
	.st54{fill:#DD0E2C;}
	.st55{fill:#EA3106;}
	.st56{fill:#F22F7E;}
	.st57{fill:#FCD259;stroke:#000000;stroke-width:11;stroke-miterlimit:10;}
	.st58{fill:#FD4347;stroke:#000000;stroke-width:11;stroke-miterlimit:10;}
	.st59{fill:#FCB439;}
	.st60{fill:#F43842;}
	.st61{fill:#178DFB;}
	.st62{fill:#32AF14;}
	.st63{fill:#FFDA00;stroke:#1D1D1B;stroke-width:11.1327;stroke-miterlimit:10;}
	.st64{fill:#FCB439;stroke:#FFFFFF;stroke-width:14.5517;stroke-miterlimit:10;}
	.st65{fill:#FFFFFF;}
	.st66{clip-path:url(#SVGID_2_);}
	.st67{fill:#D8D8D8;}
	.st68{clip-path:url(#SVGID_4_);}
	.st69{clip-path:url(#SVGID_6_);}
	.st70{fill:#999999;stroke:#FFFFFF;stroke-width:14.5517;stroke-miterlimit:10;}
	.st71{clip-path:url(#SVGID_8_);}
	.st72{clip-path:url(#SVGID_10_);}
	.st73{fill:#EA461F;}
	.st74{clip-path:url(#SVGID_12_);}
	.st75{fill:#C41820;}
	.st76{clip-path:url(#SVGID_14_);}
	.st77{fill:#075492;}
	.st78{fill:#003662;}
	.st79{clip-path:url(#SVGID_16_);}
	.st80{clip-path:url(#SVGID_18_);}
	.st81{clip-path:url(#SVGID_20_);}
	.st82{clip-path:url(#SVGID_22_);}
	.st83{fill:#DDDDDD;}
	.st84{fill:none;stroke:#1D1D1B;stroke-width:11;stroke-linecap:round;stroke-linejoin:round;stroke-miterlimit:10;}
	.st85{fill:none;stroke:#1D1D1B;stroke-width:11.6468;stroke-linecap:round;stroke-linejoin:round;stroke-miterlimit:10;}
	.st86{fill:#C6EBF4;stroke:#1D1D1B;stroke-width:11;stroke-linecap:round;stroke-linejoin:round;stroke-miterlimit:10;}
	.st87{fill:none;stroke:#000000;stroke-width:12.0562;stroke-linecap:round;stroke-linejoin:round;stroke-miterlimit:10;}
	.st88{fill:#F4C245;stroke:#000000;stroke-width:12.0562;stroke-linecap:round;stroke-miterlimit:10;}
	.st89{fill:none;stroke:#000000;stroke-width:12.0562;stroke-linecap:round;stroke-miterlimit:10;}
	.st90{fill:#FCD259;stroke:#000000;stroke-width:12.0562;stroke-miterlimit:10;}
	.st91{fill:none;stroke:#000000;stroke-width:12.0562;stroke-miterlimit:10;}
	.st92{fill:none;}
	.st93{fill:none;stroke:#000000;stroke-width:14.133;stroke-linecap:round;stroke-linejoin:round;stroke-miterlimit:10;}
	.st94{fill:#FFDA00;stroke:#000000;stroke-width:12.0562;stroke-miterlimit:10;}
	.st95{fill:none;stroke:#000000;stroke-width:10.6363;stroke-linecap:round;stroke-miterlimit:10;}
	.st96{fill:none;stroke:#000000;stroke-width:9;stroke-linecap:round;stroke-linejoin:round;stroke-miterlimit:10;}
	.st97{fill:#78909C;}
	.st98{fill:#4A6068;}
	.st99{stroke:#000000;stroke-width:11;stroke-miterlimit:10;}
	.st100{fill:#AEACB3;stroke:#000000;stroke-width:11;stroke-miterlimit:10;}
	.st101{fill:#C6EBF4;stroke:#000000;stroke-width:11;stroke-linecap:round;stroke-linejoin:round;stroke-miterlimit:10;}
	.st102{fill:#FFDA00;stroke:#000000;stroke-width:11;stroke-linecap:round;stroke-linejoin:round;stroke-miterlimit:10;}
	.st103{fill:#4BBC32;stroke:#000000;stroke-width:11;stroke-linecap:round;stroke-miterlimit:10;}
	.st104{fill:none;stroke:#231F20;stroke-width:11;stroke-miterlimit:10;}
	.st105{fill:#C6EBF4;stroke:#1D1D1B;stroke-width:10.3784;stroke-linecap:round;stroke-linejoin:round;stroke-miterlimit:10;}
	.st106{fill:#C6EBF4;stroke:#1D1D1B;stroke-width:6.959;stroke-linecap:round;stroke-linejoin:round;stroke-miterlimit:10;}
	.st107{fill:none;stroke:#1D1D1B;stroke-width:10.3442;stroke-linecap:round;stroke-linejoin:round;stroke-miterlimit:10;}
	.st108{fill:#C6EBF4;stroke:#1D1D1B;stroke-width:8.7624;stroke-linecap:round;stroke-linejoin:round;stroke-miterlimit:10;}
	.st109{fill:#AEE4ED;stroke:#1D1D1B;stroke-width:11;stroke-miterlimit:10;}
</style>
<path class="st13" d="M368.8,217.5c-0.2,0-0.3,0-0.5,0c-0.1,0-0.2,0-0.2,0c-7.4,0-24.8,13-39.9,13c-18.8,0-36.8,0-59.7,0
	c-23.1,0-41.2,0-59.7,0c-14.2,0-19.4-13-37.7-13c0,0-0.1,0-0.2,0c-0.2,0-0.3,0-0.5,0c-38.4,0-57.1,37.5-57.1,83.9s11,105,49.4,105
	c27.5,0,40.2-39.4,51.5-67.3h111c11.3,27.9,16.9,67.3,44.4,67.3c38.4,0,55.7-58.7,55.7-105S407.2,217.5,368.8,217.5z"/>
<g>
	<path class="st105" d="M191.5,271.8v0.6c0,1.7-1.4,3-3,3h-39.7c-1.7,0-3-1.4-3-3v-0.6c0-1.7,1.4-3,3-3h39.7
		C190.2,268.8,191.5,270.2,191.5,271.8z"/>
	<path class="st105" d="M169,295h-0.6c-1.7,0-3-1.4-3-3v-39.7c0-1.7,1.4-3,3-3h0.6c1.7,0,3,1.4,3,3V292C172,293.6,170.6,295,169,295
		z"/>
</g>
<g>
	<path class="st106" d="M255.3,293.4h-14.1c-1.1,0-2-0.9-2-2l0,0c0-1.1,0.9-2,2-2h14.1c1.1,0,2,0.9,2,2l0,0
		C257.3,292.4,256.4,293.4,255.3,293.4z"/>
	<path class="st106" d="M295.5,293.4h-14.1c-1.1,0-2-0.9-2-2l0,0c0-1.1,0.9-2,2-2h14.1c1.1,0,2,0.9,2,2l0,0
		C297.5,292.4,296.6,293.4,295.5,293.4z"/>
</g>
<g>
	<path class="st84" d="M269,222.5c0-44.3,0-57.3-47.7-57.3c-58,0-60.7-76.7-4-76.7h77"/>
	<path class="st84" d="M295.2,88.5c5.8,0,14.2,0,21.5,0c29,0,44.2-19.2,45-38.3"/>
</g>
<path class="st102" d="M374.8,171.5h-23c-3,0-5.4-2.4-5.4-5.4v-23c0-3,2.4-5.4,5.4-5.4h23c3,0,5.4,2.4,5.4,5.4v23
	C380.2,169.1,377.8,171.5,374.8,171.5z"/>
<path class="st102" d="M408.6,171.5h-23c-3,0-5.4-2.4-5.4-5.4v-23c0-3,2.4-5.4,5.4-5.4h23c3,0,5.4,2.4,5.4,5.4v23
	C414.1,169.1,411.6,171.5,408.6,171.5z"/>
<path class="st102" d="M442.4,171.5h-23c-3,0-5.4-2.4-5.4-5.4v-23c0-3,2.4-5.4,5.4-5.4h23c3,0,5.4,2.4,5.4,5.4v23
	C447.9,169.1,445.4,171.5,442.4,171.5z"/>
<path class="st24" d="M266.6,472.8h-23c-3,0-5.4-2.4-5.4-5.4v-23c0-3,2.4-5.4,5.4-5.4h23c3,0,5.4,2.4,5.4,5.4v23
	C272.1,470.4,269.6,472.8,266.6,472.8z"/>
<path class="st24" d="M300.4,472.8h-23c-3,0-5.4-2.4-5.4-5.4v-23c0-3,2.4-5.4,5.4-5.4h23c3,0,5.4,2.4,5.4,5.4v23
	C305.9,470.4,303.4,472.8,300.4,472.8z"/>
<path class="st24" d="M334.2,472.8h-23c-3,0-5.4-2.4-5.4-5.4v-23c0-3,2.4-5.4,5.4-5.4h23c3,0,5.4,2.4,5.4,5.4v23
	C339.7,470.4,337.2,472.8,334.2,472.8z"/>
<path class="st24" d="M368,472.8h-23c-3,0-5.4-2.4-5.4-5.4v-23c0-3,2.4-5.4,5.4-5.4h23c3,0,5.4,2.4,5.4,5.4v23
	C373.5,470.4,371,472.8,368,472.8z"/>
<path class="st102" d="M442.4,138.4h-23c-3,0-5.4-2.4-5.4-5.4v-23c0-3,2.4-5.4,5.4-5.4h23c3,0,5.4,2.4,5.4,5.4v23
	C447.9,135.9,445.4,138.4,442.4,138.4z"/>
<path class="st52" d="M62.1,99.3v-23c0-3,2.4-5.4,5.4-5.4h23c3,0,5.4,2.4,5.4,5.4v23c0,3-2.4,5.4-5.4,5.4h-23
	C64.5,104.7,62.1,102.3,62.1,99.3z"/>
<path class="st52" d="M62.1,133.1v-23c0-3,2.4-5.4,5.4-5.4h23c3,0,5.4,2.4,5.4,5.4v23c0,3-2.4,5.4-5.4,5.4h-23
	C64.5,138.5,62.1,136.1,62.1,133.1z"/>
<path class="st52" d="M62.1,166.9v-23c0-3,2.4-5.4,5.4-5.4h23c3,0,5.4,2.4,5.4,5.4v23c0,3-2.4,5.4-5.4,5.4h-23
	C64.5,172.3,62.1,169.9,62.1,166.9z"/>
<path class="st52" d="M95.2,133.1v-23c0-3,2.4-5.4,5.4-5.4h23c3,0,5.4,2.4,5.4,5.4v23c0,3-2.4,5.4-5.4,5.4h-23
	C97.6,138.5,95.2,136.1,95.2,133.1z"/>
<g>
	<path class="st22" d="M148.3,403.5c2.7,0.7,5.6,1,8.6,1c28.5,0,41.7-40.8,53.4-69.8h-16.2C183.5,361,171.6,397,148.3,403.5z"/>
	<path class="st22" d="M365.5,217.5c-0.2,0-0.3,0-0.5,0c-0.1,0-0.2,0-0.2,0c-7.9,0-20.9,0-15.6,0c0.1,0,0.2,0,0.2,0
		c0.2,0,0.3,0,0.5,0c38.4,0,56.3,37.5,56.3,83.9c0,42.8-14.7,96.1-47.3,104c2.2,0.7,4.6,1,7.2,1c38.4,0,55.7-58.7,55.7-105
		S403.9,217.5,365.5,217.5z"/>
</g>
<path class="st107" d="M368.8,217.5c-0.2,0-0.3,0-0.5,0c-0.1,0-0.2,0-0.2,0c-19.5,0-20,9-35.2,9c-18.7,0-41.6,0-64.5,0
	c-23.1,0-46.2,0-64.7,0c-14.2,0-13.9-9-32.7-9c0,0-0.1,0-0.2,0c-0.2,0-0.3,0-0.5,0c-38.4,0-57.1,37.5-57.1,83.9s11,105,49.4,105
	c27.5,0,35.2-39.4,46.5-67.3h121c11.3,27.9,11.9,67.3,39.4,67.3c38.4,0,55.7-58.7,55.7-105S407.2,217.5,368.8,217.5z"/>
<g>
	<path class="st108" d="M374.2,258.4h-3.6c-1.5,0-2.7-1.2-2.7-2.7v-3.6c0-1.5,1.2-2.7,2.7-2.7h3.6c1.5,0,2.7,1.2,2.7,2.7v3.6
		C376.9,257.2,375.7,258.4,374.2,258.4z"/>
	<path class="st108" d="M374.2,294.7h-3.6c-1.5,0-2.7-1.2-2.7-2.7v-3.6c0-1.5,1.2-2.7,2.7-2.7h3.6c1.5,0,2.7,1.2,2.7,2.7v3.6
		C376.9,293.5,375.7,294.7,374.2,294.7z"/>
	<path class="st108" d="M393.5,276.4h-3.6c-1.5,0-2.7-1.2-2.7-2.7v-3.6c0-1.5,1.2-2.7,2.7-2.7h3.6c1.5,0,2.7,1.2,2.7,2.7v3.6
		C396.2,275.2,395,276.4,393.5,276.4z"/>
	<path class="st108" d="M354.8,276.4h-3.6c-1.5,0-2.7-1.2-2.7-2.7v-3.6c0-1.5,1.2-2.7,2.7-2.7h3.6c1.5,0,2.7,1.2,2.7,2.7v3.6
		C357.5,275.2,356.3,276.4,354.8,276.4z"/>
</g>
<circle class="st109" cx="323.9" cy="320.9" r="15.5"/>
<circle class="st109" cx="212.6" cy="320.9" r="15.5"/>
</svg>
