<?xml version="1.0" encoding="utf-8"?>
<!-- Generator: Adobe Illustrator 19.0.0, SVG Export Plug-In . SVG Version: 6.00 Build 0)  -->
<svg version="1.1" id="Layer_1" xmlns="http://www.w3.org/2000/svg" xmlns:xlink="http://www.w3.org/1999/xlink" x="0px" y="0px"
	 viewBox="-49 141 512 512" style="enable-background:new -49 141 512 512;" xml:space="preserve">
<style type="text/css">
	.st0{fill:#FF943D;stroke:#000000;stroke-width:10;stroke-miterlimit:10;}
	.st1{fill:#F27611;stroke:#000000;stroke-width:10;stroke-miterlimit:10;}
	.st2{fill:#FFD761;stroke:#000000;stroke-width:10;stroke-miterlimit:10;}
	.st3{fill:#FFCB2E;stroke:#000000;stroke-width:10;stroke-miterlimit:10;}
	.st4{fill:#9FD444;stroke:#000000;stroke-width:10;stroke-miterlimit:10;}
	.st5{fill:#B97EC4;stroke:#000000;stroke-width:10;stroke-miterlimit:10;}
	.st6{fill:#AA6BB0;stroke:#000000;stroke-width:10;stroke-miterlimit:10;}
</style>
<path class="st0" d="M376.3,333.2l-196.3-32.4v48.1l188.4,31.7c1.3,0.2,2.7,0.3,4,0.3c11.5,0,21.7-8.3,23.7-20.1
	C398.2,347.8,389.4,335.4,376.3,333.2z"/>
<path class="st1" d="M372.3,364.9c-1.3,0-2.6-0.1-4-0.3l-188.4-31.7v16l188.4,31.7c1.3,0.2,2.7,0.3,4,0.3c11.5,0,21.7-8.3,23.7-20.1
	c0.7-4.2,0.3-8.3-1.1-12C391.6,358.5,382.5,364.9,372.3,364.9z"/>
<path class="st0" d="M376.3,437.4l-144.3-24c-13.1-2.2-25.5,6.7-27.7,19.8c-2.2,13.1,6.7,25.5,19.8,27.7l144.3,24
	c1.3,0.2,2.7,0.3,4,0.3c11.5,0,21.7-8.3,23.7-20.1C398.2,452,389.4,439.6,376.3,437.4z"/>
<path class="st1" d="M372.3,469.1c-1.3,0-2.6-0.1-4-0.3l-144.3-24c-8.9-1.5-15.9-7.7-18.7-15.7c-0.5,1.3-0.8,2.6-1,4.1
	c-2.2,13.1,6.7,25.5,19.8,27.7l144.3,24c1.3,0.2,2.7,0.3,4,0.3c11.5,0,21.7-8.3,23.7-20.1c0.7-4.2,0.3-8.3-1-12
	C391.6,462.7,382.5,469.1,372.3,469.1z"/>
<path class="st0" d="M396.4,645.5v-80.2c0-11.8-8.5-21.8-20.1-23.7l-144.3-24c-13.1-2.2-25.5,6.7-27.7,19.8
	c-2.2,13.1,6.7,25.5,19.8,27.7l124.2,20.7v59.8L396.4,645.5L396.4,645.5z"/>
<path class="st1" d="M364.3,645.5v-69c0-3.9-2.8-7.3-6.7-7.9L240.1,549c-13.1-2.2-22-14.6-19.8-27.7c0.2-1,0.4-2.1,0.7-3
	c-8.5,2.6-15.2,9.7-16.7,19c-2.2,13.1,7.3,25.6,20.4,27.8l123.6,20.6v59.8L364.3,645.5L364.3,645.5z"/>
<path class="st2" d="M228.1,467.1c4.9,0,9.9-1.2,14.6-3.8l144.3-80.2c14.5-8.1,19.7-26.4,11.7-40.9c-8.1-14.5-26.4-19.7-40.9-11.7
	l-144.3,80.2c-14.5,8.1-19.7,26.4-11.7,40.9C207.3,461.6,217.5,467.1,228.1,467.1z"/>
<path class="st3" d="M399.8,344.7c-1.7,8.4-6.8,16-14.9,20.4l-144.3,80.2c-4.6,2.6-9.6,3.8-14.6,3.8c-10.6,0-20.8-5.6-26.3-15.5
	c-0.4-0.8-0.8-1.6-1.2-2.4c-1.3,6.7-0.4,14,3.2,20.5c5.5,9.9,15.7,15.5,26.3,15.5c4.9,0,9.9-1.2,14.6-3.8l144.3-80.2
	C400.6,375.6,406,358.8,399.8,344.7z"/>
<path class="st2" d="M357.7,434.8L213.4,515c-14.5,8.1-19.7,26.4-11.7,40.9c5.5,9.9,15.7,15.5,26.3,15.5c4.9,0,9.9-1.2,14.6-3.8
	l144.3-80.2c14.5-8.1,19.7-26.4,11.7-40.9C390.5,432,372.2,426.8,357.7,434.8z"/>
<path class="st3" d="M386.9,469.4l-144.3,80.2c-4.6,2.6-9.6,3.8-14.6,3.8c-10.6,0-20.8-5.6-26.3-15.5c-1-1.8-1.8-3.7-2.4-5.6
	c-2.4,7.6-1.8,16.1,2.4,23.6c5.5,9.9,15.7,15.5,26.3,15.5c4.9,0,9.9-1.2,14.6-3.8l144.3-80.2c12.7-7.1,18.3-22,14.1-35.3
	C398.8,459.2,393.9,465.5,386.9,469.4z"/>
<g>
	<rect x="27.6" y="212.6" class="st4" width="24" height="432.8"/>
	<rect x="115.8" y="212.6" class="st4" width="24" height="432.8"/>
</g>
<path class="st2" d="M179.9,348.9h-64.1v-64.1h48.1c8.9,0,16,7.2,16,16V348.9z"/>
<path class="st5" d="M83.8,148.5c-39.8,0-72.1,32.3-72.1,72.1h144.3C155.9,180.8,123.6,148.5,83.8,148.5z"/>
<path class="st6" d="M99.8,150.3c-5.2-1.2-10.5-1.8-16-1.8c-39.8,0-72.1,32.3-72.1,72.1h32.1C43.7,186.3,67.7,157.6,99.8,150.3z"/>
</svg>
