<?xml version="1.0" encoding="utf-8"?>
<!-- Generator: Adobe Illustrator 21.1.0, SVG Export Plug-In . SVG Version: 6.00 Build 0)  -->
<svg version="1.1" id="Layer_1" xmlns="http://www.w3.org/2000/svg" xmlns:xlink="http://www.w3.org/1999/xlink" x="0px" y="0px"
	 viewBox="0 0 512 512" style="enable-background:new 0 0 512 512;" xml:space="preserve">
<style type="text/css">
	.st0{fill:#F4C245;stroke:#000000;stroke-width:11;stroke-linecap:round;stroke-miterlimit:10;}
	.st1{fill:#48D5BF;}
	.st2{fill:#26C6A7;}
	.st3{fill:none;stroke:#000000;stroke-width:11;stroke-linecap:round;stroke-miterlimit:10;}
	.st4{fill:none;stroke:#000000;stroke-width:11;stroke-miterlimit:10;}
	.st5{fill:#FD4347;}
	.st6{fill:#EF3043;}
	.st7{fill:#F97A48;}
	.st8{fill:#EF5F37;}
	.st9{fill:#F97A48;stroke:#000000;stroke-width:11;stroke-miterlimit:10;}
	.st10{fill:#4BBC32;}
	.st11{fill:#31AA0F;}
	.st12{fill:#C6EBF4;}
	.st13{fill:#AEE4ED;}
	.st14{fill:#FCD259;}
	.st15{fill:#53ADFC;stroke:#000000;stroke-width:11;stroke-miterlimit:10;}
	.st16{fill:#FFDA00;}
	.st17{fill:#EFC700;}
	.st18{fill:#FFDA00;stroke:#000000;stroke-width:11;stroke-miterlimit:10;}
	.st19{fill:#FFBCA4;stroke:#000000;stroke-width:11;stroke-miterlimit:10;}
	.st20{fill:#53ADFC;}
	.st21{fill:#B9D6ED;stroke:#000000;stroke-width:11;stroke-miterlimit:10;}
	.st22{fill:#24A1ED;}
	.st23{fill:#F4C245;}
	.st24{fill:none;stroke:#000000;stroke-miterlimit:10;}
	.st25{fill:#F95594;stroke:#000000;stroke-width:11;stroke-miterlimit:10;}
	.st26{fill:#24A1ED;stroke:#000000;stroke-width:11;stroke-miterlimit:10;}
	.st27{fill:#FF6C9D;}
	.st28{fill:#F95594;}
	.st29{fill:#4B5B6D;}
	.st30{fill:#3E5366;}
	.st31{fill:#FFDA00;stroke:#000000;stroke-width:5;stroke-miterlimit:10;}
	.st32{fill:#85AFDD;stroke:#000000;stroke-width:11;stroke-miterlimit:10;}
	.st33{fill:#FFA071;stroke:#1D1D1B;stroke-width:11;stroke-miterlimit:10;}
	.st34{fill:#FFFFFF;stroke:#1D1D1B;stroke-width:11;stroke-miterlimit:10;}
	.st35{fill:#FFDC64;}
	.st36{fill:#1D1D1B;}
	.st37{fill:#FF6C9D;stroke:#1D1D1B;stroke-width:11;stroke-miterlimit:10;}
	.st38{fill:#6FCEA6;}
	.st39{fill:#C6EBF4;stroke:#000000;stroke-width:11;stroke-miterlimit:10;}
	.st40{fill:#C6EBF4;stroke:#1D1D1B;stroke-width:11;stroke-miterlimit:10;}
	.st41{fill:#53C48E;}
	.st42{fill:#48D5BF;stroke:#000000;stroke-width:11;stroke-miterlimit:10;}
	.st43{fill:#FFFFFF;stroke:#000000;stroke-width:11;stroke-miterlimit:10;}
	.st44{fill:#26C6A7;stroke:#1D1D1B;stroke-width:11;stroke-miterlimit:10;}
	.st45{fill:#48D5BF;stroke:#1D1D1B;stroke-width:11;stroke-miterlimit:10;}
	.st46{stroke:#1D1D1B;stroke-width:11;stroke-miterlimit:10;}
	.st47{fill:#FFA071;}
	.st48{fill:#53ADFC;stroke:#1D1D1B;stroke-width:11;stroke-miterlimit:10;}
	.st49{fill:#31AA0F;stroke:#000000;stroke-width:11;stroke-miterlimit:10;}
	.st50{fill:#4BBC32;stroke:#000000;stroke-width:11;stroke-miterlimit:10;}
	.st51{fill:#EA3106;}
	.st52{fill:#DD0E2C;}
	.st53{fill:#F22F7E;}
	.st54{fill:#FCD259;stroke:#000000;stroke-width:11;stroke-miterlimit:10;}
	.st55{fill:#FD4347;stroke:#000000;stroke-width:11;stroke-miterlimit:10;}
	.st56{fill:#FCB439;}
	.st57{fill:#F43842;}
	.st58{fill:#178DFB;}
	.st59{fill:#32AF14;}
	.st60{fill:#F97A48;stroke:#000000;stroke-width:11;stroke-linecap:round;stroke-linejoin:round;stroke-miterlimit:10;}
	.st61{fill:#FCD259;stroke:#000000;stroke-width:11;stroke-linecap:round;stroke-miterlimit:10;}
	.st62{fill:#F4C245;stroke:#000000;stroke-width:11;stroke-linecap:round;stroke-linejoin:round;stroke-miterlimit:10;}
	.st63{fill:#FFDA00;stroke:#1D1D1B;stroke-width:11.1327;stroke-miterlimit:10;}
	.st64{fill:#FCB439;stroke:#FFFFFF;stroke-width:14.5517;stroke-miterlimit:10;}
	.st65{fill:#FFFFFF;}
	.st66{clip-path:url(#SVGID_2_);}
	.st67{fill:#D8D8D8;}
	.st68{clip-path:url(#SVGID_4_);}
	.st69{clip-path:url(#SVGID_6_);}
	.st70{fill:#999999;stroke:#FFFFFF;stroke-width:14.5517;stroke-miterlimit:10;}
	.st71{clip-path:url(#SVGID_8_);}
	.st72{clip-path:url(#SVGID_10_);}
	.st73{fill:#EA461F;}
	.st74{clip-path:url(#SVGID_12_);}
	.st75{fill:#C41820;}
	.st76{clip-path:url(#SVGID_14_);}
	.st77{fill:#075492;}
	.st78{fill:#003662;}
	.st79{clip-path:url(#SVGID_16_);}
	.st80{clip-path:url(#SVGID_18_);}
	.st81{clip-path:url(#SVGID_20_);}
	.st82{clip-path:url(#SVGID_22_);}
	.st83{fill:#DDDDDD;}
	.st84{fill:none;stroke:#1D1D1B;stroke-width:11;stroke-linecap:round;stroke-linejoin:round;stroke-miterlimit:10;}
	.st85{fill:none;stroke:#1D1D1B;stroke-width:11.6468;stroke-linecap:round;stroke-linejoin:round;stroke-miterlimit:10;}
</style>
<circle class="st64" cx="258.4" cy="254.6" r="215.4"/>
<polygon class="st65" points="376.7,424.1 256.1,357.8 133.2,419.6 158.9,284.4 62.2,186.6 198.7,169.3 261.9,47.1 320.5,171.6 
	456.2,193.9 355.9,288.1 "/>
<g>
	<defs>
		<polygon id="SVGID_3_" points="376.7,424.1 256.1,357.8 133.2,419.6 158.9,284.4 62.2,186.6 198.7,169.3 261.9,47.1 320.5,171.6 
			456.2,193.9 355.9,288.1 		"/>
	</defs>
	<clipPath id="SVGID_2_">
		<use xlink:href="#SVGID_3_"  style="overflow:visible;"/>
	</clipPath>
	<g class="st66">
		
			<image style="overflow:visible;opacity:0.3;" width="1350" height="548" xlink:href="2F7F3BC37D31A003.png"  transform="matrix(1 0 0 1 -3.9284 -44.1368)">
		</image>
		<g>
			<path class="st67" d="M27.2-23.7v485.6h1286.6V-23.7H27.2z M376.7,424.1l-120.6-66.3l-122.9,61.8l25.8-135.1l-96.7-97.8
				l136.5-17.3l63.2-122.2l58.6,124.5l135.8,22.3l-100.3,94.2L376.7,424.1z M1117.6,374.9L997,308.6l-122.9,61.8l25.8-135.1
				l-96.7-97.8l136.5-17.3l63.2-122.2l58.6,124.5l135.8,22.3l-100.3,94.2L1117.6,374.9z"/>
		</g>
	</g>
</g>
<path class="st5" d="M213.9,141.6L327,164.3L295,360.9c0,0-67.9,0-111.9,0c-43.9,0-6.3-26.6,12.4-35.3L213.9,141.6z"/>
<path class="st75" d="M217.3,210.1l-12.2,122.4l-5.3,2.4c-9.2,4.3-18.8,10.8-23.8,15.5c1.8,0.2,4.1,0.3,7.1,0.3h103.2l2.3-14.1
	C256.7,300.7,233.2,255.8,217.3,210.1z"/>
<g>
	<defs>
		<polygon id="SVGID_15_" points="-226.4,427.4 -346.9,361.2 -469.9,422.9 -444.1,287.8 -540.8,190 -404.3,172.7 -341.2,50.5 
			-282.6,175 -146.8,197.2 -247.1,291.4 		"/>
	</defs>
	<clipPath id="SVGID_4_">
		<use xlink:href="#SVGID_15_"  style="overflow:visible;"/>
	</clipPath>
	<g class="st68">
		
			<image style="overflow:visible;opacity:0.3;" width="1350" height="548" xlink:href="2F7F3BC37D31A001.png"  transform="matrix(1 0 0 1 -607.3232 -40.7817)">
		</image>
		<g>
			<path class="st67" d="M-575.9-20.3v485.6H710.7V-20.3H-575.9z M-226.4,427.4l-120.6-66.3l-122.9,61.8l25.8-135.1l-96.7-97.8
				l136.5-17.3l63.2-122.2l58.6,124.5l135.8,22.3l-100.3,94.2L-226.4,427.4z M514.5,378.2L393.9,312L271,373.7l25.8-135.1L200,140.8
				l136.5-17.3L399.7,1.3l58.6,124.5L594,148l-100.3,94.2L514.5,378.2z"/>
		</g>
	</g>
</g>
</svg>
