<?xml version="1.0" encoding="utf-8"?>
<!-- Generator: Adobe Illustrator 21.1.0, SVG Export Plug-In . SVG Version: 6.00 Build 0)  -->
<svg version="1.1" id="Layer_1" xmlns="http://www.w3.org/2000/svg" xmlns:xlink="http://www.w3.org/1999/xlink" x="0px" y="0px"
	 viewBox="0 0 512 512" style="enable-background:new 0 0 512 512;" xml:space="preserve">
<style type="text/css">
	.st0{fill:#F4C245;stroke:#000000;stroke-width:11;stroke-linecap:round;stroke-miterlimit:10;}
	.st1{fill:#48D5BF;}
	.st2{fill:#26C6A7;}
	.st3{fill:none;stroke:#000000;stroke-width:11;stroke-linecap:round;stroke-miterlimit:10;}
	.st4{fill:none;stroke:#000000;stroke-width:11;stroke-miterlimit:10;}
	.st5{fill:#FD4347;}
	.st6{fill:#EF3043;}
	.st7{fill:#F97A48;}
	.st8{fill:#EF5F37;}
	.st9{fill:#F97A48;stroke:#000000;stroke-width:11;stroke-miterlimit:10;}
	.st10{fill:#4BBC32;}
	.st11{fill:#31AA0F;}
	.st12{fill:#C6EBF4;}
	.st13{fill:#AEE4ED;}
	.st14{fill:#FCD259;}
	.st15{fill:#53ADFC;stroke:#000000;stroke-width:11;stroke-miterlimit:10;}
	.st16{fill:#FFDA00;}
	.st17{fill:#EFC700;}
	.st18{fill:#FFDA00;stroke:#000000;stroke-width:11;stroke-miterlimit:10;}
	.st19{fill:#FFBCA4;stroke:#000000;stroke-width:11;stroke-miterlimit:10;}
	.st20{fill:#53ADFC;}
	.st21{fill:#B9D6ED;stroke:#000000;stroke-width:11;stroke-miterlimit:10;}
	.st22{fill:#24A1ED;}
	.st23{fill:#F4C245;}
	.st24{fill:none;stroke:#000000;stroke-miterlimit:10;}
	.st25{fill:#F95594;stroke:#000000;stroke-width:11;stroke-miterlimit:10;}
	.st26{fill:#24A1ED;stroke:#000000;stroke-width:11;stroke-miterlimit:10;}
	.st27{fill:#FF6C9D;}
	.st28{fill:#F95594;}
	.st29{fill:#4B5B6D;}
	.st30{fill:#3E5366;}
	.st31{fill:#FFDA00;stroke:#000000;stroke-width:5;stroke-miterlimit:10;}
	.st32{fill:#85AFDD;stroke:#000000;stroke-width:11;stroke-miterlimit:10;}
	.st33{fill:#FFA071;stroke:#1D1D1B;stroke-width:11;stroke-miterlimit:10;}
	.st34{fill:#FFFFFF;stroke:#1D1D1B;stroke-width:11;stroke-miterlimit:10;}
	.st35{fill:#FFDC64;}
	.st36{fill:#1D1D1B;}
	.st37{fill:#FF6C9D;stroke:#1D1D1B;stroke-width:11;stroke-miterlimit:10;}
	.st38{fill:#6FCEA6;}
	.st39{fill:#C6EBF4;stroke:#000000;stroke-width:11;stroke-miterlimit:10;}
	.st40{fill:#C6EBF4;stroke:#1D1D1B;stroke-width:11;stroke-miterlimit:10;}
	.st41{fill:#53C48E;}
	.st42{fill:#48D5BF;stroke:#000000;stroke-width:11;stroke-miterlimit:10;}
	.st43{fill:#FFFFFF;stroke:#000000;stroke-width:11;stroke-miterlimit:10;}
	.st44{fill:#26C6A7;stroke:#1D1D1B;stroke-width:11;stroke-miterlimit:10;}
	.st45{fill:#48D5BF;stroke:#1D1D1B;stroke-width:11;stroke-miterlimit:10;}
	.st46{stroke:#1D1D1B;stroke-width:11;stroke-miterlimit:10;}
	.st47{fill:#FFA071;}
	.st48{fill:#53ADFC;stroke:#1D1D1B;stroke-width:11;stroke-miterlimit:10;}
	.st49{fill:#31AA0F;stroke:#000000;stroke-width:11;stroke-miterlimit:10;}
	.st50{fill:#4BBC32;stroke:#000000;stroke-width:11;stroke-miterlimit:10;}
	.st51{fill:#EA3106;}
	.st52{fill:#DD0E2C;}
	.st53{fill:#F22F7E;}
	.st54{fill:#FCD259;stroke:#000000;stroke-width:11;stroke-miterlimit:10;}
	.st55{fill:#FD4347;stroke:#000000;stroke-width:11;stroke-miterlimit:10;}
	.st56{fill:#FCB439;}
	.st57{fill:#F43842;}
	.st58{fill:#178DFB;}
	.st59{fill:#32AF14;}
	.st60{fill:#F97A48;stroke:#000000;stroke-width:11;stroke-linecap:round;stroke-linejoin:round;stroke-miterlimit:10;}
	.st61{fill:#FCD259;stroke:#000000;stroke-width:11;stroke-linecap:round;stroke-miterlimit:10;}
	.st62{fill:#F4C245;stroke:#000000;stroke-width:11;stroke-linecap:round;stroke-linejoin:round;stroke-miterlimit:10;}
	.st63{fill:#FFDA00;stroke:#1D1D1B;stroke-width:11.1327;stroke-miterlimit:10;}
	.st64{fill:#FCB439;stroke:#FFFFFF;stroke-width:14.5517;stroke-miterlimit:10;}
	.st65{fill:#FFFFFF;}
	.st66{clip-path:url(#SVGID_2_);}
	.st67{fill:#D8D8D8;}
	.st68{clip-path:url(#SVGID_4_);}
	.st69{clip-path:url(#SVGID_6_);}
	.st70{fill:#999999;stroke:#FFFFFF;stroke-width:14.5517;stroke-miterlimit:10;}
	.st71{clip-path:url(#SVGID_8_);}
	.st72{clip-path:url(#SVGID_10_);}
	.st73{fill:#EA461F;}
	.st74{clip-path:url(#SVGID_12_);}
	.st75{fill:#C41820;}
	.st76{clip-path:url(#SVGID_14_);}
	.st77{fill:#075492;}
	.st78{fill:#003662;}
	.st79{clip-path:url(#SVGID_16_);}
	.st80{clip-path:url(#SVGID_18_);}
	.st81{clip-path:url(#SVGID_20_);}
	.st82{clip-path:url(#SVGID_22_);}
	.st83{fill:#DDDDDD;}
	.st84{fill:none;stroke:#1D1D1B;stroke-width:11;stroke-linecap:round;stroke-linejoin:round;stroke-miterlimit:10;}
	.st85{fill:none;stroke:#1D1D1B;stroke-width:11.6468;stroke-linecap:round;stroke-linejoin:round;stroke-miterlimit:10;}
</style>
<g>
	<defs>
		<polygon id="SVGID_5_" points="-222.7,424.5 -343.3,358.3 -466.2,420 -440.4,284.9 -537.2,187.1 -400.7,169.8 -337.5,47.6 
			-278.9,172 -143.2,194.3 -243.5,288.5 		"/>
	</defs>
	<clipPath id="SVGID_2_">
		<use xlink:href="#SVGID_5_"  style="overflow:visible;"/>
	</clipPath>
	<g class="st66">
		
			<image style="overflow:visible;opacity:0.3;" width="1349" height="548" xlink:href="304944F4EE8986DB.png"  transform="matrix(1 0 0 1 -602.919 -43.7781)">
		</image>
		<g>
			<path class="st67" d="M-572.2-23.2v485.6H714.4V-23.2H-572.2z M-222.7,424.5l-120.6-66.3L-466.2,420l25.8-135.1l-96.7-97.8
				l136.5-17.3l63.2-122.2l58.6,124.5l135.8,22.3l-100.3,94.2L-222.7,424.5z M518.2,375.3l-120.6-66.3l-122.9,61.8l25.8-135.1
				l-96.7-97.8l136.5-17.3L403.3-1.6l58.6,124.5l135.8,22.3l-100.3,94.2L518.2,375.3z"/>
		</g>
	</g>
</g>
<circle class="st64" cx="262.1" cy="257.7" r="215.4"/>
<polygon class="st65" points="380.4,427.2 259.9,361 136.9,422.7 162.7,287.6 66,189.7 202.5,172.5 265.6,50.3 324.2,174.7 460,197 
	359.7,291.2 "/>
<g>
	<defs>
		<polygon id="SVGID_11_" points="380.4,427.2 259.9,361 136.9,422.7 162.7,287.6 66,189.7 202.5,172.5 265.6,50.3 324.2,174.7 
			460,197 359.7,291.2 		"/>
	</defs>
	<clipPath id="SVGID_4_">
		<use xlink:href="#SVGID_11_"  style="overflow:visible;"/>
	</clipPath>
	<g class="st68">
		
			<image style="overflow:visible;opacity:0.3;" width="1349" height="548" xlink:href="304944F4EE8986D9.png"  transform="matrix(1 0 0 1 0.222 -41.102)">
		</image>
		<g>
			<path class="st67" d="M30.9-20.6V465h1286.6V-20.6H30.9z M380.4,427.2L259.9,361l-122.9,61.8l25.8-135.1L66,189.7l136.5-17.3
				l63.2-122.2l58.6,124.5L460,197l-100.3,94.2L380.4,427.2z M1121.3,378l-120.6-66.3l-122.9,61.8l25.8-135.1l-96.7-97.8l136.5-17.3
				l63.2-122.2l58.6,124.5l135.8,22.3L1100.6,242L1121.3,378z"/>
		</g>
	</g>
</g>
<g>
	<path class="st5" d="M389.2,211.1c-14.6-14.7-37.4-16.8-56.2-11.6c-20.5,5.7-39.4,22.4-61.4,19.8c-18.9-2.2-36.8-9.3-55.5-12.5
		c-35.2-6-83.6,5.4-91.9,48.7c-5,26.1,12.9,47.6,34.7,57.6c38,17.6,91,18.2,123-13.7c15.4,5.1,31.8,10.8,47.9,12.2
		c28.5,2.5,56.9-9.9,68.3-39.2C405.7,253,404.3,226.3,389.2,211.1z M185.6,307.2c-22.4-10.1-39.1-31.3-39.7-55.8
		c15.1-22,45.7-32,70.9-23.1c25.2,8.9,42.8,35.8,40.8,62.4C246.6,311.4,208,317.2,185.6,307.2z M375.4,274.7
		c-6.6,10.3-19.6,17.7-31.7,19.2c-3.1,0.4-7.7,0.7-12.6,0.5l0,0c-20.6-2.2-30.7-9.7-30.7-9.6c0,0,0,0,0-0.1
		c-0.2-1.2-3.5-19.1,7.6-34.9c0.3-0.5,0.7-1,1.1-1.4c0.8-1.1,1.6-2,2.5-3c0.8-1,1.8-2,2.7-2.9c6.8-7,15.3-12.3,24.8-13.9
		c12.2-2,25.5,2.2,33.4,11.6C380.4,249.7,382,264.3,375.4,274.7z"/>
	<path class="st75" d="M257.5,290.7c-0.7-13.4-5.5-25.8-12.9-36.1c-3.8-5.1-8.1-9.7-13.1-13.5c-4.9-3.8-10.4-6.9-16.2-8.9
		c-5.8-2.1-12-3.1-18.2-3.2c-6.2-0.2-12.5,0.8-18.6,2.3c-12.2,3.4-23.7,10.1-32.7,20c6.1-12,17.6-21.4,30.6-26.2
		c6.5-2.5,13.5-3.8,20.6-4.1c7.1-0.2,14.2,0.9,21,3.2c6.7,2.5,13,6.1,18.4,10.6c5.3,4.6,10,10,13.5,16.1
		C257.2,263,260.3,277.5,257.5,290.7z"/>
	<path class="st75" d="M300.4,284.8c-3.7-12-2-26.1,5.4-37.3c3.5-5.5,8.1-10.3,13.4-14.5c5.3-4,11.6-7.1,18.4-8.4
		c13.6-2.5,28.4,2.3,37.1,13.2c4.3,5.4,6.5,12.2,6.7,18.8c0.1,6.6-1.8,13.3-6,18.1c5.1-11.5,1.9-24.7-5.7-32.6
		c-7.8-8-19.9-11.2-30.6-9.2c-5.4,0.9-10.6,3.3-15.3,6.6c-4.8,3.2-9,7.4-12.7,11.9C303.8,260.3,300.2,272.4,300.4,284.8z"/>
</g>
<g>
	<defs>
		<polygon id="SVGID_17_" points="-805.2,423.1 -925.8,356.8 -1048.7,418.6 -1022.9,283.4 -1119.7,185.6 -983.2,168.3 -920,46.1 
			-861.4,170.6 -725.7,192.9 -826,287.1 		"/>
	</defs>
	<clipPath id="SVGID_6_">
		<use xlink:href="#SVGID_17_"  style="overflow:visible;"/>
	</clipPath>
	<g class="st69">
		
			<image style="overflow:visible;opacity:0.3;" width="1350" height="548" xlink:href="304944F4EE8986DF.png"  transform="matrix(1 0 0 1 -1186.1635 -45.1368)">
		</image>
		<g>
			<path class="st67" d="M-1154.7-24.7v485.6H131.9V-24.7H-1154.7z M-805.2,423.1l-120.6-66.3l-122.9,61.8l25.8-135.1l-96.7-97.8
				l136.5-17.3L-920,46.1l58.6,124.5l135.8,22.3L-826,287.1L-805.2,423.1z M-64.3,373.9l-120.6-66.3l-122.9,61.8l25.8-135.1
				l-96.7-97.8l136.5-17.3l63.2-122.2l58.6,124.5l135.8,22.3l-100.3,94.2L-64.3,373.9z"/>
		</g>
	</g>
</g>
</svg>
