<?xml version="1.0" encoding="utf-8"?>
<!-- Generator: Adobe Illustrator 21.1.0, SVG Export Plug-In . SVG Version: 6.00 Build 0)  -->
<svg version="1.1" id="Layer_1" xmlns="http://www.w3.org/2000/svg" xmlns:xlink="http://www.w3.org/1999/xlink" x="0px" y="0px"
	 viewBox="0 0 512 512" style="enable-background:new 0 0 512 512;" xml:space="preserve">
<style type="text/css">
	.st0{fill:#F4C245;stroke:#000000;stroke-width:11;stroke-linecap:round;stroke-miterlimit:10;}
	.st1{fill:#48D5BF;}
	.st2{fill:#26C6A7;}
	.st3{fill:none;stroke:#000000;stroke-width:11;stroke-linecap:round;stroke-miterlimit:10;}
	.st4{fill:none;stroke:#000000;stroke-width:11;stroke-miterlimit:10;}
	.st5{fill:#FD4347;}
	.st6{fill:#EF3043;}
	.st7{fill:#F97A48;}
	.st8{fill:#EF5F37;}
	.st9{fill:#F97A48;stroke:#000000;stroke-width:11;stroke-miterlimit:10;}
	.st10{fill:#4BBC32;}
	.st11{fill:#31AA0F;}
	.st12{fill:#C6EBF4;}
	.st13{fill:#AEE4ED;}
	.st14{fill:#FCD259;}
	.st15{fill:#53ADFC;stroke:#000000;stroke-width:11;stroke-miterlimit:10;}
	.st16{fill:#FFDA00;}
	.st17{fill:#EFC700;}
	.st18{fill:#FFDA00;stroke:#000000;stroke-width:11;stroke-miterlimit:10;}
	.st19{fill:#FFBCA4;stroke:#000000;stroke-width:11;stroke-miterlimit:10;}
	.st20{fill:#53ADFC;}
	.st21{fill:#B9D6ED;stroke:#000000;stroke-width:11;stroke-miterlimit:10;}
	.st22{fill:#24A1ED;}
	.st23{fill:#F4C245;}
	.st24{fill:none;stroke:#000000;stroke-miterlimit:10;}
	.st25{fill:#F95594;stroke:#000000;stroke-width:11;stroke-miterlimit:10;}
	.st26{fill:#24A1ED;stroke:#000000;stroke-width:11;stroke-miterlimit:10;}
	.st27{fill:#FF6C9D;}
	.st28{fill:#F95594;}
	.st29{fill:#4B5B6D;}
	.st30{fill:#3E5366;}
	.st31{fill:#FFDA00;stroke:#000000;stroke-width:5;stroke-miterlimit:10;}
	.st32{fill:#85AFDD;stroke:#000000;stroke-width:11;stroke-miterlimit:10;}
	.st33{fill:#FFA071;stroke:#1D1D1B;stroke-width:11;stroke-miterlimit:10;}
	.st34{fill:#FFFFFF;stroke:#1D1D1B;stroke-width:11;stroke-miterlimit:10;}
	.st35{fill:#FFDC64;}
	.st36{fill:#1D1D1B;}
	.st37{fill:#FF6C9D;stroke:#1D1D1B;stroke-width:11;stroke-miterlimit:10;}
	.st38{fill:#6FCEA6;}
	.st39{fill:#C6EBF4;stroke:#000000;stroke-width:11;stroke-miterlimit:10;}
	.st40{fill:#C6EBF4;stroke:#1D1D1B;stroke-width:11;stroke-miterlimit:10;}
	.st41{fill:#53C48E;}
	.st42{fill:#48D5BF;stroke:#000000;stroke-width:11;stroke-miterlimit:10;}
	.st43{fill:#FFFFFF;stroke:#000000;stroke-width:11;stroke-miterlimit:10;}
	.st44{fill:#26C6A7;stroke:#1D1D1B;stroke-width:11;stroke-miterlimit:10;}
	.st45{fill:#48D5BF;stroke:#1D1D1B;stroke-width:11;stroke-miterlimit:10;}
	.st46{stroke:#1D1D1B;stroke-width:11;stroke-miterlimit:10;}
	.st47{fill:#FFA071;}
	.st48{fill:#53ADFC;stroke:#1D1D1B;stroke-width:11;stroke-miterlimit:10;}
	.st49{fill:#31AA0F;stroke:#000000;stroke-width:11;stroke-miterlimit:10;}
	.st50{fill:#4BBC32;stroke:#000000;stroke-width:11;stroke-miterlimit:10;}
	.st51{fill:#EA3106;}
	.st52{fill:#DD0E2C;}
	.st53{fill:#F22F7E;}
	.st54{fill:#FCD259;stroke:#000000;stroke-width:11;stroke-miterlimit:10;}
	.st55{fill:#FD4347;stroke:#000000;stroke-width:11;stroke-miterlimit:10;}
	.st56{fill:#FCB439;}
	.st57{fill:#F43842;}
	.st58{fill:#178DFB;}
	.st59{fill:#32AF14;}
	.st60{fill:#F97A48;stroke:#000000;stroke-width:11;stroke-linecap:round;stroke-linejoin:round;stroke-miterlimit:10;}
	.st61{fill:#FCD259;stroke:#000000;stroke-width:11;stroke-linecap:round;stroke-miterlimit:10;}
	.st62{fill:#F4C245;stroke:#000000;stroke-width:11;stroke-linecap:round;stroke-linejoin:round;stroke-miterlimit:10;}
	.st63{fill:#FFDA00;stroke:#1D1D1B;stroke-width:11.1327;stroke-miterlimit:10;}
	.st64{fill:#FCB439;stroke:#FFFFFF;stroke-width:14.5517;stroke-miterlimit:10;}
	.st65{fill:#FFFFFF;}
	.st66{clip-path:url(#SVGID_2_);}
	.st67{fill:#D8D8D8;}
	.st68{clip-path:url(#SVGID_4_);}
	.st69{clip-path:url(#SVGID_6_);}
	.st70{fill:#999999;stroke:#FFFFFF;stroke-width:14.5517;stroke-miterlimit:10;}
	.st71{clip-path:url(#SVGID_8_);}
	.st72{clip-path:url(#SVGID_10_);}
	.st73{fill:#EA461F;}
	.st74{clip-path:url(#SVGID_12_);}
	.st75{fill:#C41820;}
	.st76{clip-path:url(#SVGID_14_);}
	.st77{fill:#075492;}
	.st78{fill:#003662;}
	.st79{clip-path:url(#SVGID_16_);}
	.st80{clip-path:url(#SVGID_18_);}
	.st81{clip-path:url(#SVGID_20_);}
	.st82{clip-path:url(#SVGID_22_);}
	.st83{fill:#DDDDDD;}
	.st84{fill:none;stroke:#1D1D1B;stroke-width:11;stroke-linecap:round;stroke-linejoin:round;stroke-miterlimit:10;}
	.st85{fill:none;stroke:#1D1D1B;stroke-width:11.6468;stroke-linecap:round;stroke-linejoin:round;stroke-miterlimit:10;}
</style>
<g>
	<defs>
		<polygon id="SVGID_9_" points="-794,420.5 -914.6,354.3 -1037.5,416 -1011.8,280.9 -1108.5,183.1 -972,165.8 -908.9,43.6 
			-850.3,168 -714.5,190.3 -814.8,284.5 		"/>
	</defs>
	<clipPath id="SVGID_2_">
		<use xlink:href="#SVGID_9_"  style="overflow:visible;"/>
	</clipPath>
	<g class="st66">
		
			<image style="overflow:visible;opacity:0.3;" width="1349" height="549" xlink:href="2F76D0B6C3234BB8.png"  transform="matrix(1 0 0 1 -1174.4714 -48.5598)">
		</image>
		<g>
			<path class="st67" d="M-1143.5-27.2v485.6H143V-27.2H-1143.5z M-794,420.5l-120.6-66.3l-122.9,61.8l25.8-135.1l-96.7-97.8
				l136.5-17.3l63.2-122.2l58.6,124.5l135.8,22.3l-100.3,94.2L-794,420.5z M-53.2,371.3l-120.6-66.3l-122.9,61.8l25.8-135.1
				l-96.7-97.8l136.5-17.3L-168-5.6l58.6,124.5l135.8,22.3l-100.3,94.2L-53.2,371.3z"/>
		</g>
	</g>
</g>
<g>
	<defs>
		<polygon id="SVGID_19_" points="-208.1,420.5 -328.7,354.3 -451.6,416 -425.9,280.9 -522.6,183.1 -386.1,165.8 -322.9,43.6 
			-264.3,168 -128.6,190.3 -228.9,284.5 		"/>
	</defs>
	<clipPath id="SVGID_4_">
		<use xlink:href="#SVGID_19_"  style="overflow:visible;"/>
	</clipPath>
	<g class="st68">
		
			<image style="overflow:visible;opacity:0.3;" width="1350" height="549" xlink:href="2F76D0B6C3234BB9.png"  transform="matrix(1 0 0 1 -589.0049 -48.5598)">
		</image>
		<g>
			<path class="st67" d="M-557.6-27.2v485.6H729V-27.2H-557.6z M-208.1,420.5l-120.6-66.3L-451.6,416l25.8-135.1l-96.7-97.8
				l136.5-17.3l63.2-122.2l58.6,124.5l135.8,22.3l-100.3,94.2L-208.1,420.5z M532.8,371.3l-120.6-66.3l-122.9,61.8L315,231.7
				l-96.7-97.8l136.5-17.3L417.9-5.6l58.6,124.5l135.8,22.3L512,235.3L532.8,371.3z"/>
		</g>
	</g>
</g>
<circle class="st64" cx="256" cy="251.1" r="215.4"/>
<polygon class="st65" points="374.3,420.5 253.8,354.3 130.8,416 156.6,280.9 59.9,183.1 196.4,165.8 259.5,43.6 318.1,168 
	453.9,190.3 353.6,284.5 "/>
<g>
	<defs>
		<polygon id="SVGID_21_" points="374.3,420.5 253.8,354.3 130.8,416 156.6,280.9 59.9,183.1 196.4,165.8 259.5,43.6 318.1,168 
			453.9,190.3 353.6,284.5 		"/>
	</defs>
	<clipPath id="SVGID_6_">
		<use xlink:href="#SVGID_21_"  style="overflow:visible;"/>
	</clipPath>
	<g class="st69">
		
			<image style="overflow:visible;opacity:0.3;" width="1350" height="549" xlink:href="2F76D0B6C3234BBF.png"  transform="matrix(1 0 0 1 -6.3541 -48.5598)">
		</image>
		<g>
			<path class="st67" d="M24.8-27.2v485.6h1286.6V-27.2H24.8z M374.3,420.5l-120.6-66.3L130.8,416l25.8-135.1l-96.7-97.8l136.5-17.3
				l63.2-122.2L318.1,168l135.8,22.3l-100.3,94.2L374.3,420.5z M1115.2,371.3l-120.6-66.3l-122.9,61.8l25.8-135.1l-96.7-97.8
				l136.5-17.3l63.2-122.2l58.6,124.5l135.8,22.3l-100.3,94.2L1115.2,371.3z"/>
		</g>
	</g>
</g>
<path class="st5" d="M279.9,330.6c-35.6-3.4-68.7-22.5-98-43.1c9.6-21,21.6-42.6,33.8-62.2c-6.9-3.9-12.1-14.3-9-21.6
	c3.1-7.3,12.1-11.6,19.7-9.3c4.5-8.8,11.5-18.9,20.3-23.2c8.8-4.3,21.8-1.3,24.6,8.2c13.1-4.6,29.2,2.6,33,15.9
	c7.1-1.6,14,0.3,19.4,5.1c5.4,4.9,9.4,12.7,7.5,19.7C323.5,249.6,300.6,291.7,279.9,330.6z"/>
<path class="st75" d="M293.2,212.2c-8.7,7.1-20.3,6.2-26.5-3.2c0.7,2.8-15.8,4.4-18.7,4.3c-2.9-0.1-5.4-2.3-6.6-5
	c-1.2-2.6-1.4-5.6-1.6-8.5c-4.8,6.4-7.8,14.1-8.7,22c15.1-1.2,27.7,8.4,34.2,32c-3.1-11.4,40.4-8,44.3-6.2
	C297.1,242.2,287.4,224.6,293.2,212.2z"/>
<path class="st83" d="M259,184.5l-2.3-24.5l-13.2,22.1C248.7,181.1,253.9,181.9,259,184.5z"/>
<path class="st65" d="M256,165.8l0.9,14.1l-0.8-1.7c-0.9-2-1.2-4.2-0.9-6.4L256,165.8z"/>
<path class="st83" d="M291.5,195.6l1.9-24.6l-16.8,19.5C281.9,190.5,286.8,192.2,291.5,195.6z"/>
<path class="st65" d="M291.6,176.6l-1.5,14l-0.5-1.8c-0.6-2.1-0.5-4.3,0.2-6.4L291.6,176.6z"/>
<path class="st83" d="M324.2,211.9l6-23.9l-19.8,16.5C315.5,205.3,320.1,207.8,324.2,211.9z"/>
<path class="st65" d="M327.5,193.2l-3.9,13.6l-0.2-1.9c-0.2-2.2,0.2-4.4,1.2-6.3L327.5,193.2z"/>
</svg>
