<?xml version="1.0" encoding="utf-8"?>
<!-- Generator: Adobe Illustrator 21.1.0, SVG Export Plug-In . SVG Version: 6.00 Build 0)  -->
<svg version="1.1" id="Layer_1" xmlns="http://www.w3.org/2000/svg" xmlns:xlink="http://www.w3.org/1999/xlink" x="0px" y="0px"
	 viewBox="0 0 512 512" style="enable-background:new 0 0 512 512;" xml:space="preserve">
<style type="text/css">
	.st0{fill:#F4C245;stroke:#000000;stroke-width:11;stroke-linecap:round;stroke-miterlimit:10;}
	.st1{fill:#48D5BF;}
	.st2{fill:#26C6A7;}
	.st3{fill:none;stroke:#000000;stroke-width:11;stroke-linecap:round;stroke-miterlimit:10;}
	.st4{fill:none;stroke:#000000;stroke-width:11;stroke-miterlimit:10;}
	.st5{fill:#FD4347;}
	.st6{fill:#EF3043;}
	.st7{fill:#F97A48;}
	.st8{fill:#EF5F37;}
	.st9{fill:#F97A48;stroke:#000000;stroke-width:11;stroke-miterlimit:10;}
	.st10{fill:#4BBC32;}
	.st11{fill:#31AA0F;}
	.st12{fill:#C6EBF4;}
	.st13{fill:#AEE4ED;}
	.st14{fill:#FCD259;}
	.st15{fill:#53ADFC;stroke:#000000;stroke-width:11;stroke-miterlimit:10;}
	.st16{fill:#FFDA00;}
	.st17{fill:#EFC700;}
	.st18{fill:#FFDA00;stroke:#000000;stroke-width:11;stroke-miterlimit:10;}
	.st19{fill:#FFBCA4;stroke:#000000;stroke-width:11;stroke-miterlimit:10;}
	.st20{fill:#53ADFC;}
	.st21{fill:#B9D6ED;stroke:#000000;stroke-width:11;stroke-miterlimit:10;}
	.st22{fill:#24A1ED;}
	.st23{fill:#F4C245;}
	.st24{fill:none;stroke:#000000;stroke-miterlimit:10;}
	.st25{fill:#F95594;stroke:#000000;stroke-width:11;stroke-miterlimit:10;}
	.st26{fill:#24A1ED;stroke:#000000;stroke-width:11;stroke-miterlimit:10;}
	.st27{fill:#FF6C9D;}
	.st28{fill:#F95594;}
	.st29{fill:#4B5B6D;}
	.st30{fill:#3E5366;}
	.st31{fill:#FFDA00;stroke:#000000;stroke-width:5;stroke-miterlimit:10;}
	.st32{fill:#85AFDD;stroke:#000000;stroke-width:11;stroke-miterlimit:10;}
	.st33{fill:#FFA071;stroke:#1D1D1B;stroke-width:11;stroke-miterlimit:10;}
	.st34{fill:#FFFFFF;stroke:#1D1D1B;stroke-width:11;stroke-miterlimit:10;}
	.st35{fill:#FFDC64;}
	.st36{fill:#1D1D1B;}
	.st37{fill:#FF6C9D;stroke:#1D1D1B;stroke-width:11;stroke-miterlimit:10;}
	.st38{fill:#6FCEA6;}
	.st39{fill:#C6EBF4;stroke:#000000;stroke-width:11;stroke-miterlimit:10;}
	.st40{fill:#C6EBF4;stroke:#1D1D1B;stroke-width:11;stroke-miterlimit:10;}
	.st41{fill:#53C48E;}
	.st42{fill:#48D5BF;stroke:#000000;stroke-width:11;stroke-miterlimit:10;}
	.st43{fill:#FFFFFF;stroke:#000000;stroke-width:11;stroke-miterlimit:10;}
	.st44{fill:#26C6A7;stroke:#1D1D1B;stroke-width:11;stroke-miterlimit:10;}
	.st45{fill:#48D5BF;stroke:#1D1D1B;stroke-width:11;stroke-miterlimit:10;}
	.st46{stroke:#1D1D1B;stroke-width:11;stroke-miterlimit:10;}
	.st47{fill:#FFA071;}
	.st48{fill:#53ADFC;stroke:#1D1D1B;stroke-width:11;stroke-miterlimit:10;}
	.st49{fill:#31AA0F;stroke:#000000;stroke-width:11;stroke-miterlimit:10;}
	.st50{fill:#4BBC32;stroke:#000000;stroke-width:11;stroke-miterlimit:10;}
	.st51{fill:#EA3106;}
	.st52{fill:#DD0E2C;}
	.st53{fill:#F22F7E;}
	.st54{fill:#FCD259;stroke:#000000;stroke-width:11;stroke-miterlimit:10;}
	.st55{fill:#FD4347;stroke:#000000;stroke-width:11;stroke-miterlimit:10;}
	.st56{fill:#FCB439;}
	.st57{fill:#F43842;}
	.st58{fill:#178DFB;}
	.st59{fill:#32AF14;}
	.st60{fill:#F97A48;stroke:#000000;stroke-width:11;stroke-linecap:round;stroke-linejoin:round;stroke-miterlimit:10;}
	.st61{fill:#FCD259;stroke:#000000;stroke-width:11;stroke-linecap:round;stroke-miterlimit:10;}
	.st62{fill:#F4C245;stroke:#000000;stroke-width:11;stroke-linecap:round;stroke-linejoin:round;stroke-miterlimit:10;}
	.st63{fill:#FFDA00;stroke:#1D1D1B;stroke-width:11.1327;stroke-miterlimit:10;}
	.st64{fill:#FCB439;stroke:#FFFFFF;stroke-width:14.5517;stroke-miterlimit:10;}
	.st65{fill:#FFFFFF;}
	.st66{clip-path:url(#SVGID_2_);}
	.st67{fill:#D8D8D8;}
	.st68{clip-path:url(#SVGID_4_);}
	.st69{clip-path:url(#SVGID_6_);}
	.st70{fill:#999999;stroke:#FFFFFF;stroke-width:14.5517;stroke-miterlimit:10;}
	.st71{clip-path:url(#SVGID_8_);}
	.st72{clip-path:url(#SVGID_10_);}
	.st73{fill:#EA461F;}
	.st74{clip-path:url(#SVGID_12_);}
	.st75{fill:#C41820;}
	.st76{clip-path:url(#SVGID_14_);}
	.st77{fill:#075492;}
	.st78{fill:#003662;}
	.st79{clip-path:url(#SVGID_16_);}
	.st80{clip-path:url(#SVGID_18_);}
	.st81{clip-path:url(#SVGID_20_);}
	.st82{clip-path:url(#SVGID_22_);}
	.st83{fill:#DDDDDD;}
	.st84{fill:none;stroke:#1D1D1B;stroke-width:11;stroke-linecap:round;stroke-linejoin:round;stroke-miterlimit:10;}
	.st85{fill:none;stroke:#1D1D1B;stroke-width:11.6468;stroke-linecap:round;stroke-linejoin:round;stroke-miterlimit:10;}
</style>
<g>
	<defs>
		<polygon id="SVGID_7_" points="-820.2,416.9 -940.7,350.7 -1063.7,412.4 -1037.9,277.3 -1134.6,179.5 -998.1,162.2 -935,40 
			-876.4,164.5 -740.6,186.8 -840.9,280.9 		"/>
	</defs>
	<clipPath id="SVGID_2_">
		<use xlink:href="#SVGID_7_"  style="overflow:visible;"/>
	</clipPath>
	<g class="st66">
		
			<image style="overflow:visible;opacity:0.3;" width="1350" height="549" xlink:href="2F6E65AA0914F771.png"  transform="matrix(1 0 0 1 -1200.853 -52.1455)">
		</image>
		<g>
			<path class="st67" d="M-1169.7-30.8v485.6H116.9V-30.8H-1169.7z M-820.2,416.9l-120.6-66.3l-122.9,61.8l25.8-135.1l-96.7-97.8
				l136.5-17.3L-935,40l58.6,124.5l135.8,22.3l-100.3,94.2L-820.2,416.9z M-79.3,367.7l-120.6-66.3l-122.9,61.8l25.8-135.1
				l-96.7-97.8l136.5-17.3l63.2-122.2l58.6,124.5L0.2,137.6L-100,231.7L-79.3,367.7z"/>
		</g>
	</g>
</g>
<g>
	<defs>
		<polygon id="SVGID_9_" points="-205.2,420.5 -325.8,354.3 -448.7,416 -423,280.9 -519.7,183.1 -383.2,165.8 -320.1,43.6 
			-261.5,168 -125.7,190.3 -226,284.5 		"/>
	</defs>
	<clipPath id="SVGID_4_">
		<use xlink:href="#SVGID_9_"  style="overflow:visible;"/>
	</clipPath>
	<g class="st68">
		
			<image style="overflow:visible;opacity:0.3;" width="1349" height="549" xlink:href="2F6E65AA0914F773.png"  transform="matrix(1 0 0 1 -585.6719 -48.5598)">
		</image>
		<g>
			<path class="st67" d="M-554.7-27.2v485.6H731.8V-27.2H-554.7z M-205.2,420.5l-120.6-66.3L-448.7,416l25.8-135.1l-96.7-97.8
				l136.5-17.3l63.2-122.2l58.6,124.5l135.8,22.3L-226,284.5L-205.2,420.5z M535.6,371.3l-120.6-66.3l-122.9,61.8l25.8-135.1
				l-96.7-97.8l136.5-17.3L420.8-5.6l58.6,124.5l135.8,22.3l-100.3,94.2L535.6,371.3z"/>
		</g>
	</g>
</g>
<circle class="st64" cx="262.3" cy="251.1" r="215.4"/>
<polygon class="st65" points="380.7,420.5 260.1,354.3 137.2,416 162.9,280.9 66.2,183.1 202.7,165.8 265.9,43.6 324.5,168 
	460.2,190.3 359.9,284.5 "/>
<g>
	<defs>
		<polygon id="SVGID_19_" points="380.7,420.5 260.1,354.3 137.2,416 162.9,280.9 66.2,183.1 202.7,165.8 265.9,43.6 324.5,168 
			460.2,190.3 359.9,284.5 		"/>
	</defs>
	<clipPath id="SVGID_6_">
		<use xlink:href="#SVGID_19_"  style="overflow:visible;"/>
	</clipPath>
	<g class="st69">
		
			<image style="overflow:visible;opacity:0.3;" width="1350" height="549" xlink:href="2F6E65AA0914F776.png"  transform="matrix(1 0 0 1 -0.2053 -48.5598)">
		</image>
		<g>
			<path class="st67" d="M31.2-27.2v485.6h1286.6V-27.2H31.2z M380.7,420.5l-120.6-66.3L137.2,416l25.8-135.1l-96.7-97.8l136.5-17.3
				l63.2-122.2L324.5,168l135.8,22.3l-100.3,94.2L380.7,420.5z M1121.6,371.3L1001,305.1l-122.9,61.8l25.8-135.1l-96.7-97.8
				l136.5-17.3l63.2-122.2l58.6,124.5l135.8,22.3l-100.3,94.2L1121.6,371.3z"/>
		</g>
	</g>
</g>
<path class="st77" d="M286.2,330.6c-35.6-3.4-68.7-22.5-98-43.1c9.6-21,21.6-42.6,33.8-62.2c-6.9-3.9-12.1-14.3-9-21.6
	c3.1-7.3,12.1-11.6,19.7-9.3c4.5-8.8,11.5-18.9,20.3-23.2c8.8-4.3,21.8-1.3,24.6,8.2c13.1-4.6,29.2,2.6,33,15.9
	c7.1-1.6,14,0.3,19.4,5.1c5.4,4.9,9.4,12.7,7.5,19.7C329.8,249.6,306.9,291.7,286.2,330.6z"/>
<path class="st78" d="M299.6,212.2c-8.7,7.1-20.3,6.2-26.5-3.2c0.7,2.8-15.8,4.4-18.7,4.3c-2.9-0.1-5.4-2.3-6.6-5
	c-1.2-2.6-1.4-5.6-1.6-8.5c-4.8,6.4-7.8,14.1-8.7,22c15.1-1.2,27.7,8.4,34.2,32c-3.1-11.4,40.4-8,44.3-6.2
	C303.4,242.2,293.8,224.6,299.6,212.2z"/>
<polygon class="st77" points="188.3,287.6 180.4,310.7 201.4,296.1 "/>
<polygon class="st77" points="201.1,296 194.3,319.5 214.5,303.9 "/>
<polygon class="st77" points="214.1,304.1 207.9,327.7 227.7,311.6 "/>
<polygon class="st77" points="227.5,311.6 222.9,335.6 241.6,318.2 "/>
<polygon class="st77" points="241.4,318.3 238.3,342.5 255.9,324 "/>
<polygon class="st77" points="255.8,323.9 255.1,348.3 270.8,328.1 "/>
<polygon class="st77" points="270.8,328 273.1,352.5 286.3,330.4 "/>
</svg>
