<?xml version="1.0" encoding="utf-8"?>
<!-- Generator: Adobe Illustrator 21.1.0, SVG Export Plug-In . SVG Version: 6.00 Build 0)  -->
<svg version="1.1" id="Layer_1" xmlns="http://www.w3.org/2000/svg" xmlns:xlink="http://www.w3.org/1999/xlink" x="0px" y="0px"
	 viewBox="0 0 512 512" style="enable-background:new 0 0 512 512;" xml:space="preserve">
<style type="text/css">
	.st0{fill:#F4C245;stroke:#000000;stroke-width:11;stroke-linecap:round;stroke-miterlimit:10;}
	.st1{fill:#48D5BF;}
	.st2{fill:#26C6A7;}
	.st3{fill:none;stroke:#000000;stroke-width:11;stroke-linecap:round;stroke-miterlimit:10;}
	.st4{fill:none;stroke:#000000;stroke-width:11;stroke-miterlimit:10;}
	.st5{fill:#FD4347;}
	.st6{fill:#EF3043;}
	.st7{fill:#F97A48;}
	.st8{fill:#EF5F37;}
	.st9{fill:#F97A48;stroke:#000000;stroke-width:11;stroke-miterlimit:10;}
	.st10{fill:#4BBC32;}
	.st11{fill:#31AA0F;}
	.st12{fill:#C6EBF4;}
	.st13{fill:#AEE4ED;}
	.st14{fill:#FCD259;}
	.st15{fill:#53ADFC;stroke:#000000;stroke-width:11;stroke-miterlimit:10;}
	.st16{fill:#FFDA00;}
	.st17{fill:#EFC700;}
	.st18{fill:#FFDA00;stroke:#000000;stroke-width:11;stroke-miterlimit:10;}
	.st19{fill:#FFBCA4;stroke:#000000;stroke-width:11;stroke-miterlimit:10;}
	.st20{fill:#53ADFC;}
	.st21{fill:#B9D6ED;stroke:#000000;stroke-width:11;stroke-miterlimit:10;}
	.st22{fill:#24A1ED;}
	.st23{fill:#F4C245;}
	.st24{fill:none;stroke:#000000;stroke-miterlimit:10;}
	.st25{fill:#F95594;stroke:#000000;stroke-width:11;stroke-miterlimit:10;}
	.st26{fill:#24A1ED;stroke:#000000;stroke-width:11;stroke-miterlimit:10;}
	.st27{fill:#FF6C9D;}
	.st28{fill:#F95594;}
	.st29{fill:#4B5B6D;}
	.st30{fill:#3E5366;}
	.st31{fill:#FFDA00;stroke:#000000;stroke-width:5;stroke-miterlimit:10;}
	.st32{fill:#85AFDD;stroke:#000000;stroke-width:11;stroke-miterlimit:10;}
	.st33{fill:#FFA071;stroke:#1D1D1B;stroke-width:11;stroke-miterlimit:10;}
	.st34{fill:#FFFFFF;stroke:#1D1D1B;stroke-width:11;stroke-miterlimit:10;}
	.st35{fill:#FFDC64;}
	.st36{fill:#1D1D1B;}
	.st37{fill:#FF6C9D;stroke:#1D1D1B;stroke-width:11;stroke-miterlimit:10;}
	.st38{fill:#6FCEA6;}
	.st39{fill:#C6EBF4;stroke:#000000;stroke-width:11;stroke-miterlimit:10;}
	.st40{fill:#C6EBF4;stroke:#1D1D1B;stroke-width:11;stroke-miterlimit:10;}
	.st41{fill:#53C48E;}
	.st42{fill:#48D5BF;stroke:#000000;stroke-width:11;stroke-miterlimit:10;}
	.st43{fill:#FFFFFF;stroke:#000000;stroke-width:11;stroke-miterlimit:10;}
	.st44{fill:#26C6A7;stroke:#1D1D1B;stroke-width:11;stroke-miterlimit:10;}
	.st45{fill:#48D5BF;stroke:#1D1D1B;stroke-width:11;stroke-miterlimit:10;}
	.st46{stroke:#1D1D1B;stroke-width:11;stroke-miterlimit:10;}
	.st47{fill:#FFA071;}
	.st48{fill:#53ADFC;stroke:#1D1D1B;stroke-width:11;stroke-miterlimit:10;}
	.st49{fill:#31AA0F;stroke:#000000;stroke-width:11;stroke-miterlimit:10;}
	.st50{fill:#4BBC32;stroke:#000000;stroke-width:11;stroke-miterlimit:10;}
	.st51{fill:#EA3106;}
	.st52{fill:#DD0E2C;}
	.st53{fill:#F22F7E;}
	.st54{fill:#FCD259;stroke:#000000;stroke-width:11;stroke-miterlimit:10;}
	.st55{fill:#FD4347;stroke:#000000;stroke-width:11;stroke-miterlimit:10;}
	.st56{fill:#FCB439;}
	.st57{fill:#F43842;}
	.st58{fill:#178DFB;}
	.st59{fill:#32AF14;}
	.st60{fill:#F97A48;stroke:#000000;stroke-width:11;stroke-linecap:round;stroke-linejoin:round;stroke-miterlimit:10;}
	.st61{fill:#FCD259;stroke:#000000;stroke-width:11;stroke-linecap:round;stroke-miterlimit:10;}
	.st62{fill:#F4C245;stroke:#000000;stroke-width:11;stroke-linecap:round;stroke-linejoin:round;stroke-miterlimit:10;}
	.st63{fill:#FFDA00;stroke:#1D1D1B;stroke-width:11.1327;stroke-miterlimit:10;}
	.st64{fill:#FCB439;stroke:#FFFFFF;stroke-width:14.5517;stroke-miterlimit:10;}
	.st65{fill:#FFFFFF;}
	.st66{clip-path:url(#SVGID_2_);}
	.st67{fill:#D8D8D8;}
	.st68{clip-path:url(#SVGID_4_);}
	.st69{clip-path:url(#SVGID_6_);}
	.st70{fill:#999999;stroke:#FFFFFF;stroke-width:14.5517;stroke-miterlimit:10;}
	.st71{clip-path:url(#SVGID_8_);}
	.st72{clip-path:url(#SVGID_10_);}
	.st73{fill:#EA461F;}
	.st74{clip-path:url(#SVGID_12_);}
	.st75{fill:#C41820;}
	.st76{clip-path:url(#SVGID_14_);}
	.st77{fill:#075492;}
	.st78{fill:#003662;}
	.st79{clip-path:url(#SVGID_16_);}
	.st80{clip-path:url(#SVGID_18_);}
	.st81{clip-path:url(#SVGID_20_);}
	.st82{clip-path:url(#SVGID_22_);}
	.st83{fill:#DDDDDD;}
	.st84{fill:none;stroke:#1D1D1B;stroke-width:11;stroke-linecap:round;stroke-linejoin:round;stroke-miterlimit:10;}
	.st85{fill:none;stroke:#1D1D1B;stroke-width:11.6468;stroke-linecap:round;stroke-linejoin:round;stroke-miterlimit:10;}
</style>
<g>
	<defs>
		<polygon id="SVGID_1_" points="-836.3,432.5 -956.8,366.3 -1079.8,428 -1054,292.9 -1150.7,195.1 -1014.3,177.8 -951.1,55.6 
			-892.5,180 -756.8,202.3 -857,296.5 		"/>
	</defs>
	<clipPath id="SVGID_2_">
		<use xlink:href="#SVGID_1_"  style="overflow:visible;"/>
	</clipPath>
	<g class="st66">
		
			<image style="overflow:visible;opacity:0.3;" width="1349" height="549" xlink:href="2F65FA9D4F06A326.png"  transform="matrix(1 0 0 1 -1216.5776 -36.5586)">
		</image>
		<g>
			<path class="st67" d="M-1185.8-15.2v485.6H100.8V-15.2H-1185.8z M-836.3,432.5l-120.6-66.3l-122.9,61.8l25.8-135.1l-96.7-97.8
				l136.5-17.3l63.2-122.2l58.6,124.5l135.8,22.3L-857,296.5L-836.3,432.5z M-95.4,383.3L-216,317.1l-122.9,61.8l25.8-135.1
				l-96.7-97.8l136.5-17.3l63.2-122.2l58.6,124.5l135.8,22.3l-100.3,94.2L-95.4,383.3z"/>
		</g>
	</g>
</g>
<g>
	<defs>
		<polygon id="SVGID_7_" points="-233.2,428.9 -353.8,362.7 -476.7,424.4 -451,289.3 -547.7,191.5 -411.2,174.2 -348.1,52 
			-289.5,176.5 -153.7,198.8 -254,292.9 		"/>
	</defs>
	<clipPath id="SVGID_4_">
		<use xlink:href="#SVGID_7_"  style="overflow:visible;"/>
	</clipPath>
	<g class="st68">
		
			<image style="overflow:visible;opacity:0.3;" width="1350" height="549" xlink:href="2F65FA9D4F06A32A.png"  transform="matrix(1 0 0 1 -613.9316 -40.1444)">
		</image>
		<g>
			<path class="st67" d="M-582.7-18.8v485.6H703.8V-18.8H-582.7z M-233.2,428.9l-120.6-66.3l-122.9,61.8l25.8-135.1l-96.7-97.8
				l136.5-17.3L-348.1,52l58.6,124.5l135.8,22.3L-254,292.9L-233.2,428.9z M507.6,379.8l-120.6-66.3l-122.9,61.8l25.8-135.1
				l-96.7-97.8L329.7,125L392.8,2.8l58.6,124.5l135.8,22.3l-100.3,94.2L507.6,379.8z"/>
		</g>
	</g>
</g>
<circle class="st64" cx="263.4" cy="263.1" r="215.4"/>
<polygon class="st65" points="381.7,432.5 261.1,366.3 138.2,428 164,292.9 67.2,195.1 203.7,177.8 266.9,55.6 325.5,180 
	461.2,202.3 360.9,296.5 "/>
<g>
	<defs>
		<polygon id="SVGID_9_" points="381.7,432.5 261.1,366.3 138.2,428 164,292.9 67.2,195.1 203.7,177.8 266.9,55.6 325.5,180 
			461.2,202.3 360.9,296.5 		"/>
	</defs>
	<clipPath id="SVGID_6_">
		<use xlink:href="#SVGID_9_"  style="overflow:visible;"/>
	</clipPath>
	<g class="st69">
		
			<image style="overflow:visible;opacity:0.3;" width="1349" height="549" xlink:href="2F65FA9D4F06A32D.png"  transform="matrix(1 0 0 1 1.2496 -36.5586)">
		</image>
		<g>
			<path class="st67" d="M32.2-15.2v485.6h1286.6V-15.2H32.2z M381.7,432.5l-120.6-66.3L138.2,428L164,292.9l-96.7-97.8l136.5-17.3
				l63.2-122.2L325.5,180l135.8,22.3l-100.3,94.2L381.7,432.5z M1122.6,383.3L1002,317.1l-122.9,61.8l25.8-135.1l-96.7-97.8
				l136.5-17.3l63.2-122.2l58.6,124.5l135.8,22.3l-100.3,94.2L1122.6,383.3z"/>
		</g>
	</g>
</g>
<path class="st7" d="M287.2,342.6c-35.6-3.4-68.7-22.5-98-43.1c9.6-21,21.6-42.6,33.8-62.2c-6.9-3.9-12.1-14.3-9-21.6
	c3.1-7.3,12.1-11.6,19.7-9.3c4.5-8.8,11.5-18.9,20.3-23.2c8.8-4.3,21.8-1.3,24.6,8.2c13.1-4.6,29.2,2.6,33,15.9
	c7.1-1.6,14,0.3,19.4,5.1c5.4,4.9,9.4,12.7,7.5,19.7C330.8,261.6,307.9,303.7,287.2,342.6z"/>
<path class="st73" d="M300.6,224.2c-8.7,7.1-20.3,6.2-26.5-3.2c0.7,2.8-15.8,4.4-18.7,4.3c-2.9-0.1-5.4-2.3-6.6-5
	c-1.2-2.6-1.4-5.6-1.6-8.5c-4.8,6.4-7.8,14.1-8.7,22c15.1-1.2,27.7,8.4,34.2,32c-3.1-11.4,40.4-8,44.3-6.2
	C304.4,254.2,294.8,236.6,300.6,224.2z"/>
</svg>
