<?xml version="1.0" encoding="iso-8859-1"?>
<!-- Generator: Adobe Illustrator 19.0.0, SVG Export Plug-In . SVG Version: 6.00 Build 0)  -->
<svg version="1.1" id="Capa_1" xmlns="http://www.w3.org/2000/svg" xmlns:xlink="http://www.w3.org/1999/xlink" x="0px" y="0px"
	 viewBox="0 0 512.001 512.001" style="enable-background:new 0 0 512.001 512.001;" xml:space="preserve">
<path style="fill:#BABABA;" d="M453.319,85.098c0-18.661-15.129-33.788-33.79-33.788c-9.616,0-379.629,0-385.739,0
	C15.13,51.31,0,66.437,0,85.098v385.738c0,9.658,4.059,18.362,10.556,24.52h408.973v9.269h59.186
	c14.542,0,26.938-9.188,31.702-22.076C514.365,472.114,515.762,492.071,453.319,85.098z"/>
<path style="fill:#A8A8A8;" d="M473.952,470.836v-251.26L453.319,85.098c0-18.661-15.129-33.788-33.79-33.788
	c-16.443,0-305.377,0-321.799,0c-28.833,0-21.828,0-23.107,0h-20.2c-18.659,0-33.789,15.127-33.789,33.788v385.738
	c0,9.658,4.059,18.362,10.556,24.52h388.339v9.269h20.633C458.823,504.625,473.952,489.498,473.952,470.836z"/>
<path style="fill:#E6E6E6;" d="M419.529,51.31c-30.402,0-372.943,0-385.739,0C15.13,51.31,0,66.437,0,85.098v385.738
	c0,18.662,15.13,33.789,33.789,33.789h385.739c18.661,0,33.79-15.127,33.79-33.789V85.098
	C453.319,66.437,438.189,51.31,419.529,51.31z"/>
<path style="fill:#CCCBCA;" d="M20.633,470.836V85.098c0-18.661,15.13-33.788,33.789-33.788c-11.63,0-8.966,0-20.633,0
	C15.13,51.31,0,66.437,0,85.098v385.738c0,18.662,15.13,33.789,33.789,33.789h20.633C35.764,504.625,20.633,489.498,20.633,470.836z
	"/>
<path style="fill:#EA473B;" d="M419.529,51.31c-15.239,0-371.746,0-385.739,0C15.13,51.31,0,66.437,0,85.098v86.796h453.319V85.098
	C453.319,66.437,438.189,51.31,419.529,51.31z"/>
<path style="fill:#D63322;" d="M20.633,85.098c0-18.661,15.13-33.788,33.789-33.788c-11.63,0-8.966,0-20.633,0
	C15.13,51.31,0,66.437,0,85.098v86.796h20.633V85.098z"/>
<g>
	<path style="fill:#414356;" d="M361.837,81.518v7.034c0,6.838-5.542,7.222-12.38,7.222h-4.127c-6.837,0-12.38-0.384-12.38-7.222
		v-7.033c-6.546,4.568-10.833,12.15-10.833,20.738c0,13.96,11.317,25.276,25.276,25.276c13.96,0,25.276-11.316,25.276-25.276
		C372.669,93.668,368.382,86.086,361.837,81.518z"/>
	<path style="fill:#414356;" d="M233.91,81.518v7.034c0,6.838-5.542,6.19-12.38,6.19h-4.127c-6.837,0-12.38,0.648-12.38-6.19v-7.033
		c-6.546,4.568-10.833,12.15-10.833,20.738c0,13.96,11.317,25.276,25.276,25.276c13.96,0,25.276-11.316,25.276-25.276
		C244.742,93.668,240.455,86.086,233.91,81.518z"/>
	<path style="fill:#414356;" d="M105.983,81.518c0,10.87,1.28,14.255-12.38,14.255h-4.127c-6.837,0-12.38-0.384-12.38-7.222v-7.033
		c-20.167,14.074-10.282,46.014,14.443,46.014C116.296,127.532,126.13,95.578,105.983,81.518z"/>
</g>
<g>
	<path style="fill:#2F3242;" d="M343.782,102.256c0-0.479,0.018-0.953,0.044-1.425c-6.127-0.743-10.877-5.952-10.877-12.28v-7.033
		c-6.546,4.568-10.833,12.15-10.833,20.738c0,13.96,11.317,25.276,25.276,25.276c3.877,0,7.549-0.875,10.833-2.436
		C349.687,121.039,343.782,112.338,343.782,102.256z"/>
	<path style="fill:#2F3242;" d="M215.856,102.256c0-0.479,0.018-0.953,0.044-1.425c-6.127-0.743-10.877-5.952-10.877-12.28v-7.033
		c-6.546,4.568-10.833,12.15-10.833,20.738c0,13.96,11.317,25.276,25.276,25.276c3.877,0,7.549-0.875,10.833-2.436
		C221.76,121.039,215.856,112.338,215.856,102.256z"/>
	<path style="fill:#2F3242;" d="M87.973,100.831c-6.127-0.743-10.877-5.952-10.877-12.28v-7.033
		c-20.167,14.074-10.282,46.014,14.443,46.014c3.877,0,7.549-0.875,10.833-2.436C93.421,120.843,87.381,111.501,87.973,100.831z"/>
</g>
<rect y="171.891" style="fill:#F77C79;" width="453.32" height="28.887"/>
<rect y="171.891" style="fill:#DD6464;" width="20.633" height="28.887"/>
<path id="SVGCleanerId_0" style="fill:#585A60;" d="M93.603,7.393c6.838,0,12.38,5.543,12.38,12.38v68.778
	c0,6.838-5.542,12.38-12.38,12.38h-4.127c-6.837,0-12.38-5.542-12.38-12.38V19.773c0-6.837,5.543-12.38,12.38-12.38
	C89.476,7.393,93.603,7.393,93.603,7.393z"/>
<path id="SVGCleanerId_1" style="fill:#585A60;" d="M221.53,7.393c6.838,0,12.38,5.543,12.38,12.38v68.778
	c0,6.838-5.542,12.38-12.38,12.38h-4.127c-6.837,0-12.38-5.542-12.38-12.38V19.773c0-6.837,5.543-12.38,12.38-12.38
	C217.403,7.393,221.53,7.393,221.53,7.393z"/>
<path id="SVGCleanerId_2" style="fill:#585A60;" d="M349.457,7.393c6.838,0,12.38,5.543,12.38,12.38v68.778
	c0,6.838-5.542,12.38-12.38,12.38h-4.127c-6.837,0-12.38-5.542-12.38-12.38V19.773c0-6.837,5.543-12.38,12.38-12.38
	C345.33,7.393,349.457,7.393,349.457,7.393z"/>
<g>
	<path id="SVGCleanerId_0_1_" style="fill:#585A60;" d="M93.603,7.393c6.838,0,12.38,5.543,12.38,12.38v68.778
		c0,6.838-5.542,12.38-12.38,12.38h-4.127c-6.837,0-12.38-5.542-12.38-12.38V19.773c0-6.837,5.543-12.38,12.38-12.38
		C89.476,7.393,93.603,7.393,93.603,7.393z"/>
</g>
<g>
	<path id="SVGCleanerId_1_1_" style="fill:#585A60;" d="M221.53,7.393c6.838,0,12.38,5.543,12.38,12.38v68.778
		c0,6.838-5.542,12.38-12.38,12.38h-4.127c-6.837,0-12.38-5.542-12.38-12.38V19.773c0-6.837,5.543-12.38,12.38-12.38
		C217.403,7.393,221.53,7.393,221.53,7.393z"/>
</g>
<g>
	<path id="SVGCleanerId_2_1_" style="fill:#585A60;" d="M349.457,7.393c6.838,0,12.38,5.543,12.38,12.38v68.778
		c0,6.838-5.542,12.38-12.38,12.38h-4.127c-6.837,0-12.38-5.542-12.38-12.38V19.773c0-6.837,5.543-12.38,12.38-12.38
		C345.33,7.393,349.457,7.393,349.457,7.393z"/>
</g>
<g>
	<path style="fill:#414356;" d="M91.539,88.551V19.773c0-4.994,2.964-9.286,7.222-11.244c-1.572-0.722-3.315-1.136-5.158-1.136
		h-4.127c-6.837,0-12.38,5.543-12.38,12.38v68.778c0,6.838,5.543,12.38,12.38,12.38h4.127c1.844,0,3.587-0.414,5.158-1.136
		C94.503,97.838,91.539,93.546,91.539,88.551z"/>
	<path style="fill:#414356;" d="M219.466,88.551V19.773c0-4.994,2.964-9.286,7.222-11.244c-1.572-0.722-3.315-1.136-5.158-1.136
		h-4.127c-6.837,0-12.38,5.543-12.38,12.38v68.778c0,6.838,5.543,12.38,12.38,12.38h4.127c1.844,0,3.587-0.414,5.158-1.136
		C222.43,97.838,219.466,93.546,219.466,88.551z"/>
	<path style="fill:#414356;" d="M347.393,88.551V19.773c0-4.994,2.964-9.286,7.222-11.244c-3.002-1.38-5.046-1.136-9.285-1.136
		c-6.837,0-12.38,5.543-12.38,12.38v68.778c0,6.838,5.543,12.38,12.38,12.38h4.127c1.844,0,3.587-0.414,5.158-1.136
		C350.357,97.838,347.393,93.546,347.393,88.551z"/>
</g>
<g>
	<path style="fill:#585A60;" d="M396.384,264.803H104.666c-4.274,0-7.738-3.464-7.738-7.738c0-4.273,3.464-7.738,7.738-7.738
		h291.718c4.274,0,7.738,3.464,7.738,7.738C404.122,261.339,400.658,264.803,396.384,264.803z"/>
	<path style="fill:#585A60;" d="M396.384,310.191H104.666c-4.274,0-7.738-3.464-7.738-7.738c0-4.273,3.464-7.737,7.738-7.737
		h291.718c4.274,0,7.738,3.464,7.738,7.737C404.122,306.726,400.658,310.191,396.384,310.191z"/>
	<path style="fill:#585A60;" d="M396.384,355.577H104.666c-4.274,0-7.738-3.464-7.738-7.738s3.464-7.738,7.738-7.738h291.718
		c4.274,0,7.738,3.464,7.738,7.738S400.658,355.577,396.384,355.577z"/>
	<path style="fill:#585A60;" d="M396.384,400.965H104.666c-4.274,0-7.738-3.464-7.738-7.737s3.464-7.738,7.738-7.738h291.718
		c4.274,0,7.738,3.464,7.738,7.738C404.122,397.5,400.658,400.965,396.384,400.965z"/>
	<path style="fill:#585A60;" d="M396.384,446.352H104.666c-4.274,0-7.738-3.464-7.738-7.738s3.464-7.738,7.738-7.738h291.718
		c4.274,0,7.738,3.464,7.738,7.738S400.658,446.352,396.384,446.352z"/>
	<path style="fill:#585A60;" d="M67.474,264.803H52.839c-4.274,0-7.738-3.464-7.738-7.738c0-4.273,3.464-7.738,7.738-7.738h14.635
		c4.274,0,7.738,3.464,7.738,7.738C75.211,261.339,71.747,264.803,67.474,264.803z"/>
	<path style="fill:#585A60;" d="M67.474,310.191H52.839c-4.274,0-7.738-3.464-7.738-7.738c0-4.273,3.464-7.737,7.738-7.737h14.635
		c4.274,0,7.738,3.464,7.738,7.737C75.211,306.726,71.747,310.191,67.474,310.191z"/>
	<path style="fill:#585A60;" d="M67.474,355.577H52.839c-4.274,0-7.738-3.464-7.738-7.738s3.464-7.738,7.738-7.738h14.635
		c4.274,0,7.738,3.464,7.738,7.738S71.747,355.577,67.474,355.577z"/>
	<path style="fill:#585A60;" d="M67.474,400.965H52.839c-4.274,0-7.738-3.464-7.738-7.737s3.464-7.738,7.738-7.738h14.635
		c4.274,0,7.738,3.464,7.738,7.738C75.211,397.5,71.747,400.965,67.474,400.965z"/>
	<path style="fill:#585A60;" d="M67.474,446.352H52.839c-4.274,0-7.738-3.464-7.738-7.738s3.464-7.738,7.738-7.738h14.635
		c4.274,0,7.738,3.464,7.738,7.738S71.747,446.352,67.474,446.352z"/>
</g>
<g>
</g>
<g>
</g>
<g>
</g>
<g>
</g>
<g>
</g>
<g>
</g>
<g>
</g>
<g>
</g>
<g>
</g>
<g>
</g>
<g>
</g>
<g>
</g>
<g>
</g>
<g>
</g>
<g>
</g>
</svg>
