<?xml version="1.0" encoding="iso-8859-1"?>
<!-- Generator: Adobe Illustrator 19.0.0, SVG Export Plug-In . SVG Version: 6.00 Build 0)  -->
<svg version="1.1" id="Layer_1" xmlns="http://www.w3.org/2000/svg" xmlns:xlink="http://www.w3.org/1999/xlink" x="0px" y="0px"
	 viewBox="-20 -20 550 550" style="enable-background:new 0 0 503.607 503.607;" xml:space="preserve">
<g transform="translate(0 1)">
	<path style="fill:#FFE100;" d="M325.666,66.148v41.967c0,5.036-3.357,8.393-6.715,8.393H167.869c-4.197,0-7.554-4.197-7.554-8.393
		V66.148h-31.056c-15.948,0-28.538,15.108-28.538,33.574v360.918c0,18.466,12.59,33.574,28.538,33.574h228.302
		c15.948,0,28.538-15.108,28.538-33.574V99.721c0-18.466-12.59-33.574-28.538-33.574H325.666z"/>
	<path style="fill:#FFFFFF;" d="M100.721,460.639V99.721c0-18.466,12.59-33.574,28.538-33.574h-20.144
		c-18.466,0-33.574,15.108-33.574,33.574v360.918c0,18.466,15.108,33.574,33.574,33.574h20.144
		C113.311,494.213,100.721,479.944,100.721,460.639"/>
	<path style="fill:#FFA800;" d="M377.705,66.148h-20.144c15.948,0,28.538,15.108,28.538,33.574v360.918
		c0,18.466-12.59,33.574-28.538,33.574h20.144c18.466,0,33.574-15.108,33.574-33.574V99.721
		C411.279,81.256,396.17,66.148,377.705,66.148"/>
	<path style="fill:#FFE100;" d="M402.885,66.148h-20.144c15.948,0,28.538,15.108,28.538,33.574v360.918
		c0,18.466-12.59,33.574-28.538,33.574h20.144c18.466,0,33.574-15.108,33.574-33.574V99.721
		C436.459,81.256,421.351,66.148,402.885,66.148"/>
	<path style="fill:#FFA800;" d="M285.377,40.967V24.18c0-9.233-7.554-16.787-16.787-16.787h-50.361
		c-9.233,0-16.787,7.554-16.787,16.787v16.787h-33.574c-5.036,0-8.393,3.357-8.393,8.393v58.754c0,5.036,4.197,8.393,8.393,8.393
		h151.082c5.036,0,8.393-4.197,8.393-8.393V49.361c0-5.036-3.357-8.393-8.393-8.393H285.377z"/>
	<path style="fill:#FECC00;" d="M285.377,40.967V24.18c0-9.233-7.554-16.787-16.787-16.787h-50.361
		c-9.233,0-16.787,7.554-16.787,16.787v16.787h-33.574c-5.036,0-8.393,3.357-8.393,8.393v58.754c0,5.036,4.197,8.393,8.393,8.393
		H293.77c5.036,0,8.393-4.197,8.393-8.393V49.361c0-5.036-3.357-8.393-8.393-8.393H285.377z"/>
	<path d="M377.705,502.607h-268.59c-23.502,0-41.967-18.466-41.967-41.967V234.016c0-5.036,3.357-8.393,8.393-8.393
		s8.393,3.357,8.393,8.393v226.623c0,14.269,10.911,25.18,25.18,25.18h268.59c14.269,0,25.18-10.911,25.18-25.18V99.721
		c0-14.269-10.911-25.18-25.18-25.18h-41.967v33.574c0,9.233-7.554,16.787-16.787,16.787H167.869
		c-9.233,0-16.787-7.554-16.787-16.787V74.541h-41.967c-14.269,0-25.18,10.911-25.18,25.18v67.148c0,5.036-3.357,8.393-8.393,8.393
		s-8.393-3.357-8.393-8.393V99.721c0-23.502,18.466-41.967,41.967-41.967h50.361c5.036,0,8.393,3.357,8.393,8.393v41.967h151.082
		V66.148c0-5.036,3.357-8.393,8.393-8.393h50.361c23.502,0,41.967,18.466,41.967,41.967v360.918
		C419.672,484.141,401.207,502.607,377.705,502.607z"/>
	<path d="M83.934,200.443c0-5.036-3.357-8.393-8.393-8.393s-8.393,3.357-8.393,8.393s3.357,8.393,8.393,8.393
		S83.934,205.479,83.934,200.443"/>
	<polygon style="fill:#008aff;" points="244.249,183.656 269.43,259.197 344.131,259.197 285.377,307.879 310.557,385.098 
		244.249,343.131 177.102,385.098 202.282,307.879 142.689,259.197 218.229,259.197 	"/>
	<path d="M167.869,124.902c-9.233,0-16.787-7.554-16.787-16.787V49.361c0-9.233,7.554-16.787,16.787-16.787h25.18V24.18
		c0-13.43,10.911-25.18,25.18-25.18h50.361c14.269,0,25.18,10.911,25.18,25.18v8.393h25.18c9.233,0,16.787,7.554,16.787,16.787
		v58.754c0,9.233-7.554,16.787-16.787,16.787H167.869z M167.869,49.361v58.754h151.082V49.361h-33.574
		c-5.036,0-8.393-3.357-8.393-8.393V24.18c0-4.197-3.357-8.393-8.393-8.393h-50.361c-5.036,0-8.393,3.357-8.393,8.393v16.787
		c0,5.036-3.357,8.393-8.393,8.393H167.869z"/>
	<path d="M177.102,393.492c-1.679,0-3.357-0.839-5.036-1.679c-2.518-2.518-4.197-5.875-2.518-9.233l23.502-71.344l-55.397-45.325
		c-2.518-2.518-4.197-5.875-2.518-9.233c0.839-3.357,4.197-5.875,7.554-5.875h69.666l23.502-69.666
		c0.839-3.357,4.197-5.875,7.554-5.875l0,0c3.357,0,6.715,2.518,7.554,5.875l23.502,69.666h69.666c3.357,0,6.715,2.518,7.554,5.875
		c0.839,3.357,0,6.715-2.518,9.233l-54.557,45.325l23.502,71.344c0.839,3.357,0,6.715-2.518,9.233
		c-2.518,2.518-6.715,2.518-9.233,0.839l-62.951-39.449l-62.951,39.449C179.62,393.492,177.941,393.492,177.102,393.492z
		 M244.249,334.738c1.679,0,3.357,0.839,4.197,1.679l47.003,29.377l-18.466-55.397c-0.839-3.357,0-6.715,2.518-9.233l41.128-33.574
		h-51.2c-3.357,0-6.715-2.518-7.554-5.875l-17.626-52.039l-17.626,52.039c-1.679,3.357-5.036,5.875-8.393,5.875H166.19
		l41.128,33.574c2.518,2.518,3.357,5.875,2.518,9.233l-18.466,55.397l47.003-29.377C240.892,335.577,242.57,334.738,244.249,334.738
		z"/>
</g>
<g>
</g>
<g>
</g>
<g>
</g>
<g>
</g>
<g>
</g>
<g>
</g>
<g>
</g>
<g>
</g>
<g>
</g>
<g>
</g>
<g>
</g>
<g>
</g>
<g>
</g>
<g>
</g>
<g>
</g>
</svg>
