<?xml version="1.0" encoding="iso-8859-1"?>
<!-- Generator: Adobe Illustrator 19.0.0, SVG Export Plug-In . SVG Version: 6.00 Build 0)  -->
<svg version="1.1" id="Layer_1" xmlns="http://www.w3.org/2000/svg" xmlns:xlink="http://www.w3.org/1999/xlink" x="0px" y="0px"
	 viewBox="-20 -20 350 350" style="enable-background:new -20 -20 350 350;" xml:space="preserve">
<g>
	<g>
		<polygon style="fill:#F9BA48;" points="9.375,187.5 93.75,187.5 98.438,178.125 9.375,178.125 		"/>
		<polygon style="fill:#F9BA48;" points="75,281.25 276.563,281.25 281.25,271.875 75,271.875 		"/>
		<path style="fill:#000000;" d="M265.603,208.65c-13.055-1.453-25.331-6.619-35.503-14.939l-10.575-8.653
			c-0.108-0.089-0.202-0.192-0.309-0.281c3.741-5.039,5.784-11.081,5.784-17.461v-3.253v-9.375v-11.836
			c0-14.353-10.758-26.367-25.022-27.952c-2.236-0.248-4.5-0.666-6.759-1.158l-1.331-19.992h-32.545
			c-0.769,0-1.528,0.066-2.283,0.141l-3.155-2.578c-14.489-11.855-23.512-29.367-24.755-48.042L126.263,0H93.717
			c-7.42,0-14.306,3.684-18.422,9.863c-1.945,2.925-5.053,4.931-8.517,5.508l-24.206,4.031l-3.984,39.82
			c-0.609,6.098-2.873,11.916-6.548,16.814c-5.55,7.392-8.602,16.552-8.602,25.791v15.361l5.245,37.069l8.817,0.98v13.514H14.063
			C6.31,168.75,0,175.059,0,182.813s6.309,14.063,14.062,14.063h75v14.063l5.245,37.069l8.817,0.98V262.5H79.688
			c-7.753,0-14.062,6.309-14.062,14.063s6.309,14.063,14.062,14.063h181.378c16.298,0,29.559-13.261,29.559-29.559v-3.253v-9.375
			v-11.836C290.625,222.253,279.867,210.234,265.603,208.65z M215.625,167.316c0,3.909-1.163,7.622-3.244,10.837
			c-2.489-2.742-4.805-5.625-6.806-8.714c0.413-1.247,0.675-2.541,0.675-3.858v-1.519h9.375V167.316z M198.942,124.219
			c9.511,1.055,16.683,9.066,16.683,18.633v11.836H198.45c-1.969-5.672-3.277-11.592-3.68-17.667l-0.905-13.566
			C195.562,123.759,197.259,124.031,198.942,124.219z M32.813,101.827c0-7.223,2.386-14.381,6.722-20.161
			c4.702-6.267,7.598-13.706,8.381-21.506l3.267-32.686l17.133-2.855c6.014-1.003,11.405-4.491,14.775-9.558
			c2.372-3.562,6.347-5.686,10.622-5.686h23.775l2.297,34.519c1.387,20.77,11.269,40.233,27.108,53.7
			c-2.325,1.58-4.369,3.6-5.977,6.019c-1.95,2.925-5.053,4.931-8.517,5.508l-24.206,4.031l-1.945,19.458
			c-5.47-1.861-10.945-3.197-16.345-3.966l-14.105-2.016l-42.806-8.559l-0.178-1.214L32.813,101.827L32.813,101.827z M98.334,168.75
			H60.938v-10.908l18.75,2.081v-23.269l8.887,1.27c5.498,0.787,11.105,2.264,16.711,4.322l-1.073,10.73
			C103.641,158.658,101.583,164.067,98.334,168.75z M34.392,127.908l35.92,7.186v14.358l-33.37-3.708L34.392,127.908z
			 M9.375,182.813c0-2.583,2.1-4.688,4.687-4.688H37.5c5.17,0,9.375-4.205,9.375-9.375v-12.473l4.687,0.52v11.953
			c0,5.17,4.205,9.375,9.375,9.375h31.866c-1.331,3-2.311,6.15-2.934,9.375H14.063C11.475,187.5,9.375,185.395,9.375,182.813z
			 M100.017,221.658l35.92,7.186v14.358l-33.37-3.708L100.017,221.658z M126.563,251.592l18.75,2.081v-23.269l8.887,1.27
			c11.672,1.669,22.664,5.681,32.667,11.934c7.528,4.702,15.633,8.273,24.075,10.664v8.227h-84.38L126.563,251.592L126.563,251.592z
			 M281.25,261.066c0,11.128-9.056,20.184-20.184,20.184H79.688c-2.587,0-4.687-2.105-4.687-4.688s2.1-4.688,4.687-4.688h23.437
			c5.17,0,9.375-4.205,9.375-9.375v-12.473l4.687,0.52V262.5c0,5.17,4.205,9.375,9.375,9.375h84.375c5.17,0,9.375-4.205,9.375-9.375
			v-6.136c1.556,0.272,3.117,0.516,4.687,0.708v5.428c0,5.17,4.205,9.375,9.375,9.375h24.956c6.919,0,12.544-5.63,12.544-12.544
			v-1.519h9.375v3.254H281.25z M234.375,257.742c0.675,0.014,1.345,0.07,2.02,0.07H262.5v1.519c0,1.748-1.42,3.169-3.169,3.169
			h-24.956V257.742z M262.5,248.438h-26.105c-15.773,0-31.181-4.42-44.559-12.783c-11.119-6.947-23.339-11.409-36.309-13.261
			l-14.123-2.02l-42.792-8.559l-0.173-1.209v-15.028c0-7.223,2.386-14.381,6.722-20.161c4.702-6.267,7.598-13.706,8.381-21.506
			l3.267-32.686l17.128-2.855c6.014-0.998,11.405-4.486,14.78-9.558c2.372-3.563,6.347-5.686,10.622-5.686h23.775l2.297,34.519
			c1.42,21.258,11.691,41.189,28.181,54.675l10.575,8.653c11.569,9.469,25.542,15.347,40.402,16.997
			c9.511,1.055,16.683,9.066,16.683,18.633v11.836L262.5,248.438L262.5,248.438z"/>
		<circle style="fill:#000000;" cx="173.437" cy="117.188" r="4.688"/>
		<circle style="fill:#000000;" cx="173.437" cy="135.938" r="4.688"/>
		<circle style="fill:#000000;" cx="173.437" cy="154.688" r="4.688"/>
		<circle style="fill:#000000;" cx="107.813" cy="23.438" r="4.688"/>
		<circle style="fill:#000000;" cx="107.813" cy="42.188" r="4.688"/>
		<circle style="fill:#000000;" cx="107.813" cy="60.938" r="4.688"/>
	</g>
</g>
<g>
</g>
<g>
</g>
<g>
</g>
<g>
</g>
<g>
</g>
<g>
</g>
<g>
</g>
<g>
</g>
<g>
</g>
<g>
</g>
<g>
</g>
<g>
</g>
<g>
</g>
<g>
</g>
<g>
</g>
</svg>
