<?xml version="1.0" encoding="iso-8859-1"?>
<!-- Generator: Adobe Illustrator 19.0.0, SVG Export Plug-In . SVG Version: 6.00 Build 0)  -->
<svg version="1.1" id="Layer_1" xmlns="http://www.w3.org/2000/svg" xmlns:xlink="http://www.w3.org/1999/xlink" x="0px" y="0px"
	 viewBox="0 0 320 320" style="enable-background:new 0 0 320 320;" xml:space="preserve">
<g id="XMLID_1439_">
	<rect id="XMLID_1440_" x="30" y="140" style="fill:#EA348B;" width="260" height="180"/>
	<rect id="XMLID_1441_" x="10" y="90" style="fill:#AF2768;" width="300" height="70"/>
	<rect id="XMLID_1442_" x="30" y="140" style="fill:#AF2768;" width="130" height="180"/>
	<rect id="XMLID_1443_" x="10" y="90" style="fill:#751A46;" width="150" height="70"/>
	<rect id="XMLID_1444_" x="120" y="90" style="fill:#FFDA44;" width="80" height="230"/>
	<rect id="XMLID_1445_" x="120" y="90" style="fill:#FF9811;" width="40" height="230"/>
	<g id="XMLID_1446_">
		<path id="XMLID_1447_" style="fill:#FFDA44;" d="M60,0c0,0-25,25-25,66.668c0,41.666,25,66.666,25,66.666
			c58.333,0,100-66.666,100-66.666S118.333,0,60,0z"/>
		<path id="XMLID_1448_" style="fill:#FFDA44;" d="M260,0c-58.333,0-100,66.668-100,66.668s41.667,66.666,100,66.666
			c0,0,25-25,25-66.666C285,25,260,0,260,0z"/>
		<circle id="XMLID_1449_" style="fill:#FF5023;" cx="160" cy="66.668" r="33.333"/>
	</g>
</g>
<g>
</g>
<g>
</g>
<g>
</g>
<g>
</g>
<g>
</g>
<g>
</g>
<g>
</g>
<g>
</g>
<g>
</g>
<g>
</g>
<g>
</g>
<g>
</g>
<g>
</g>
<g>
</g>
<g>
</g>
</svg>
