<?xml version="1.0" encoding="iso-8859-1"?>
<!-- Generator: Adobe Illustrator 19.0.0, SVG Export Plug-In . SVG Version: 6.00 Build 0)  -->
<svg version="1.1" id="Capa_1" xmlns="http://www.w3.org/2000/svg" xmlns:xlink="http://www.w3.org/1999/xlink" x="0px" y="0px"
	 viewBox="-50 -50 600 600" style="enable-background:new -50 -50 600 600;" xml:space="preserve">
<path style="fill:#FD3C65;" d="M482,256h-63v-40c0-22.09-17.91-40-40-40s-40,17.91-40,40v40h-83v246h226c11.05,0,20-8.95,20-20V276
	C502,264.95,493.05,256,482,256z"/>
<path style="fill:#AD7ACF;" d="M299,339h-43v-83H10v226c0,11.05,8.95,20,20,20h226v-83h43c22.09,0,40-17.91,40-40
	S321.09,339,299,339z"/>
<path style="fill:#FEC761;" d="M256,30v226h-83v43c0,22.09-17.91,40-40,40s-40-17.91-40-40v-43H10V153h43c22.09,0,40-17.91,40-40
	S75.09,73,53,73H10V30c0-11.05,8.95-20,20-20h206C247.05,10,256,18.95,256,30z"/>
<path d="M153,452c-5.52,0-10,4.48-10,10s4.48,10,10,10s10-4.48,10-10S158.52,452,153,452z"/>
<path d="M482,246h-53v-30c0-27.57-22.43-50-50-50s-50,22.43-50,50v30h-63V30c0-16.542-13.458-30-30-30H30C13.458,0,0,13.458,0,30v43
	c0,5.522,4.477,10,10,10h43c16.542,0,30,13.458,30,30s-13.458,30-30,30H10c-5.523,0-10,4.478-10,10v103v226
	c0,16.542,13.458,30,30,30h226h226c16.542,0,30-13.458,30-30V276C512,259.458,498.542,246,482,246z M20,163h33
	c27.57,0,50-22.43,50-50S80.57,63,53,63H20V30c0-5.514,4.486-10,10-10h206c5.514,0,10,4.486,10,10v216h-73c-5.523,0-10,4.478-10,10
	v43c0,16.542-13.458,30-30,30s-30-13.458-30-30v-43c0-5.522-4.477-10-10-10H20V163z M20,482V266h63v33c0,27.57,22.43,50,50,50
	s50-22.43,50-50v-33h63v73c0,5.522,4.478,10,10,10h43c16.542,0,30,13.458,30,30s-13.458,30-30,30h-43c-5.522,0-10,4.478-10,10v73H30
	C24.486,492,20,487.514,20,482z M492,482c0,5.514-4.486,10-10,10H266v-63h33c27.57,0,50-22.43,50-50s-22.43-50-50-50h-33v-63h73
	c5.522,0,10-4.478,10-10v-40c0-16.542,13.458-30,30-30s30,13.458,30,30v40c0,5.522,4.478,10,10,10h63c5.514,0,10,4.486,10,10V482z"
	/>
<path d="M113,452H53c-5.523,0-10,4.478-10,10s4.477,10,10,10h60c5.523,0,10-4.478,10-10S118.523,452,113,452z"/>
<g>
</g>
<g>
</g>
<g>
</g>
<g>
</g>
<g>
</g>
<g>
</g>
<g>
</g>
<g>
</g>
<g>
</g>
<g>
</g>
<g>
</g>
<g>
</g>
<g>
</g>
<g>
</g>
<g>
</g>
</svg>
